<?xml version="1.0" standalone="no"?>
<!DOCTYPE svg PUBLIC "-//W3C//DTD SVG 1.1//EN" "http://www.w3.org/Graphics/SVG/1.1/DTD/svg11.dtd" >
<svg xmlns="http://www.w3.org/2000/svg">
<metadata></metadata>
<defs>
<font id="pontiaclight_italic" horiz-adv-x="1339" >
<font-face units-per-em="2048" ascent="1536" descent="-512" />
<missing-glyph horiz-adv-x="718" />
<glyph horiz-adv-x="0" />
<glyph horiz-adv-x="682" />
<glyph horiz-adv-x="0" />
<glyph horiz-adv-x="0" />
<glyph unicode="&#xd;" horiz-adv-x="718" />
<glyph unicode=" "  horiz-adv-x="718" />
<glyph unicode="&#x09;" horiz-adv-x="718" />
<glyph unicode="&#xa0;" horiz-adv-x="718" />
<glyph unicode="!" horiz-adv-x="530" d="M123 57q8 34 34.5 57t59.5 23q34 0 52.5 -23t11.5 -57q-7 -33 -35 -55t-62 -22t-51 21.5t-10 55.5zM211 387l246 1149h110l-245 -1149h-111z" />
<glyph unicode="&#x22;" horiz-adv-x="935" d="M303 936l127 600h102l-126 -600h-103zM651 936l127 600h103l-127 -600h-103z" />
<glyph unicode="#" horiz-adv-x="1263" d="M119 502l22 106h240l129 328h-250l23 106h268l194 494h107l-193 -494h328l195 494h104l-192 -494h237l-22 -104l-256 -2l-129 -328h233l-22 -106h-252l-197 -502h-106l196 502h-330l-196 -502h-109l197 502h-219zM487 608h330l129 328h-330z" />
<glyph unicode="$" horiz-adv-x="1183" d="M72 250l96 63q2 -3 12.5 -20.5t16 -26.5t20 -28.5t26 -31t31 -29.5t39 -29.5t46 -25t55 -21t64.5 -12.5t75 -5q87 0 178 38.5t158 107.5t78 149q11 77 -3.5 130t-72 96t-106.5 66t-164 69q-16 7 -25 10q-49 20 -86.5 39t-73 42t-59 47.5t-44.5 56t-28.5 66.5t-11 79 t7.5 94q11 65 48 127t95.5 113.5t144.5 83.5t185 34l37 162h111l-37 -168q199 -20 338 -176l-105 -68q-111 137 -344 137q-128 0 -234.5 -75t-125.5 -168q-14 -46 -9.5 -89.5t28.5 -82t91.5 -80t180.5 -82.5q49 -17 88 -34t79 -38.5t69.5 -43.5t57.5 -50t44 -58.5t29 -68 t12.5 -79.5t-5.5 -93q-25 -161 -167.5 -277.5t-344.5 -128.5l-41 -184h-110l41 186q-74 9 -138 36t-110 66.5t-79 82t-58 92.5z" />
<glyph unicode="%" horiz-adv-x="1554" d="M168 0l1223 1495h127l-1221 -1495h-129zM254 1194q28 133 149 232.5t252 99.5q138 0 216 -98t49 -234q-31 -141 -148.5 -237.5t-257.5 -96.5q-139 0 -215 97t-45 237zM354 1194q-24 -100 18.5 -166.5t155.5 -66.5q96 0 182 68.5t111 164.5q23 92 -31 161.5t-151 69.5 q-88 0 -175 -69t-110 -162zM795 303q28 133 149 232.5t252 99.5q138 0 215.5 -97.5t48.5 -234.5q-31 -141 -148 -237.5t-257 -96.5q-139 0 -215 97t-45 237zM895 303q-24 -100 18.5 -166.5t155.5 -66.5q96 0 182 68.5t111 164.5q23 92 -31.5 162t-150.5 70q-88 0 -175 -69 t-110 -163z" />
<glyph unicode="&#x26;" horiz-adv-x="1376" d="M115 243.5q-22 83.5 0 182.5q31 147 150 266t341 236q-71 144 -86 184q-29 80 -22 156q12 129 120 213t259 84q132 0 214 -88.5t56 -210.5q-10 -49 -40 -95t-64 -80t-93 -74.5t-99.5 -64t-111.5 -63.5l283 -520q94 96 168 198h113q-59 -95 -232 -286l152 -281h-123 l-111 205q-34 -30 -78 -62.5t-112.5 -75t-148.5 -69.5t-152 -27q-95 0 -176 34t-133 94.5t-74 144zM221 426q-37 -157 44 -250.5t255 -93.5q85 0 213.5 70t210.5 143l-299 541q-376 -213 -424 -410zM604 1264q-13 -95 96 -289q316 162 342 291q17 79 -39.5 136.5 t-148.5 57.5q-98 0 -168 -54t-82 -142z" />
<glyph unicode="'" horiz-adv-x="399" d="M229 983l119 559h105l-119 -559h-105z" />
<glyph unicode="(" horiz-adv-x="571" d="M80.5 147.5q-22.5 250.5 36.5 520.5q59 261 175 473t298 403l65 -76q-169 -198 -279 -394.5t-161 -446.5q-36 -177 -38.5 -329t25.5 -275.5t85 -241.5l-86 -72q-98 188 -120.5 438.5z" />
<glyph unicode=")" horiz-adv-x="571" d="M49 -215q169 198 279 395t161 447q53 276 34 472t-105 374l86 71q98 -188 120.5 -438t-36.5 -520q-59 -261 -175.5 -473.5t-297.5 -403.5z" />
<glyph unicode="*" horiz-adv-x="800" d="M190 1243l56 94l239 -86l62 279h100l-69 -279l294 92l13 -102l-297 -84l121 -215l-91 -61l-114 233l-205 -233l-74 63l199 221z" />
<glyph unicode="+" horiz-adv-x="1103" d="M172 694l23 109h393l84 391h110l-84 -391h394l-23 -109h-393l-84 -397h-111l84 397h-393z" />
<glyph unicode="," horiz-adv-x="489" d="M-6 -328l319 553h136l-363 -553h-92z" />
<glyph unicode="-" horiz-adv-x="856" d="M219 555l25 111h520l-25 -111h-520z" />
<glyph unicode="." horiz-adv-x="342" d="M66 57q8 34 35 57t61 23t51.5 -23t9.5 -57q-6 -33 -34 -55t-62 -22t-50.5 21.5t-10.5 55.5z" />
<glyph unicode="/" horiz-adv-x="1060" d="M25 0l1050 1536h133l-1048 -1536h-135z" />
<glyph unicode="0" horiz-adv-x="1462" d="M124.5 540q0.5 100 22.5 208q46 216 165 392.5t293 280t368 103.5q183 0 313.5 -103t179.5 -281t4 -392q-34 -162 -109.5 -304t-181.5 -247.5t-245 -166.5t-291 -61q-101 0 -186 27.5t-146 78t-104 122t-63 157.5t-19.5 186zM232.5 482q10.5 -122 56.5 -211.5t139 -140 t223 -50.5q168 0 317 87t251.5 239t142.5 342q33 143 16 265t-69 211.5t-145.5 140t-213.5 50.5q-152 0 -296 -86.5t-250.5 -240t-147.5 -340.5q-34 -144 -23.5 -266z" />
<glyph unicode="1" horiz-adv-x="710" d="M266 1384l25 111h475l-317 -1495h-111l293 1384h-365z" />
<glyph unicode="2" horiz-adv-x="1122" d="M12 0l11 49l600 541q1 1 50.5 44t97.5 88.5t105 105t98.5 120.5t53.5 109q38 150 -46.5 255t-223.5 105q-53 0 -108.5 -16.5t-111.5 -51t-104 -83.5t-85 -119t-54 -152h-111q50 237 213.5 385t380.5 148q65 0 123 -19.5t100 -53t75.5 -79t49.5 -97.5t21 -109t-8 -113 q-8 -36 -25 -74.5t-34 -68.5t-51.5 -72t-54.5 -66t-68.5 -70.5t-68 -65t-77 -71t-74.5 -67.5l-434 -391h756l-23 -111h-973z" />
<glyph unicode="3" horiz-adv-x="1052" d="M-12 248l96 51q82 -192 291 -215q113 -11 222.5 32.5t186 127t97.5 184.5q18 89 -9.5 166.5t-87.5 128.5t-139 82t-166 37l25 116l514 426h-664l25 111h815l-25 -113l-551 -458q200 -43 306 -177.5t65 -324.5q-41 -196 -207 -324.5t-366 -128.5q-167 0 -277 80.5 t-151 198.5z" />
<glyph unicode="4" horiz-adv-x="1050" d="M-4 205l846 1290h123l-772 -1180h669l51 240h107l-117 -555h-106l43 205h-844z" />
<glyph unicode="5" horiz-adv-x="1122" d="M59 299l107 43q35 -113 122 -186.5t218 -73.5q173 0 310.5 108.5t154.5 264.5q9 86 -10 152.5t-56.5 107t-95 66.5t-118.5 36t-134 10q-120 0 -268 -55l-78 45l145 678h830l-25 -111h-719l-102 -485q131 39 248 39q87 0 163.5 -15.5t143.5 -52.5t112 -92t65 -139.5 t7 -189.5q-25 -202 -195.5 -340t-394.5 -138q-158 0 -274.5 91.5t-155.5 236.5z" />
<glyph unicode="6" horiz-adv-x="1114" d="M86 463q26 134 172 340q47 65 223 311.5t273 380.5h123l-441 -616q101 75 246 75q90 0 170.5 -37t136 -101t78.5 -156.5t2 -196.5q-43 -202 -218.5 -348t-379.5 -146q-132 0 -231 67t-140.5 181t-13.5 246zM193 463q-40 -160 46 -272.5t257 -112.5q98 0 198 51.5 t173.5 141t95.5 192.5q32 159 -56.5 272t-247.5 113q-157 0 -291.5 -112.5t-174.5 -272.5z" />
<glyph unicode="7" horiz-adv-x="1083" d="M182 0l903 1384h-835l24 111h1010l-979 -1495h-123z" />
<glyph unicode="8" horiz-adv-x="1118" d="M86 461q30 148 145 273t261 177q-63 42 -91 117t-10 158q29 141 148 240.5t260 99.5q127 0 207.5 -101t60.5 -241q-12 -88 -71 -165t-144 -108q110 -45 179 -175.5t40 -274.5q-29 -134 -119 -247t-217.5 -179t-261.5 -66t-233.5 66t-141 179t-12.5 247zM193 461 q-37 -163 42.5 -272t260.5 -109q156 0 294.5 112.5t172.5 268.5q32 156 -59.5 267.5t-246.5 111.5q-156 0 -292.5 -111.5t-171.5 -267.5zM500 1186q-22 -98 27 -164.5t155 -65.5q96 2 178.5 68.5t102.5 161.5t-34.5 163t-148.5 68q-95 0 -176.5 -67.5t-103.5 -163.5z" />
<glyph unicode="9" horiz-adv-x="1148" d="M219 1032q43 202 218.5 348t379.5 146q132 0 231 -67t140.5 -181t13.5 -246q-26 -134 -172 -340q-58 -80 -228.5 -320.5t-266.5 -371.5h-123l440 616q-101 -75 -246 -75q-90 0 -170.5 37t-136 101t-78.5 156.5t-2 196.5zM322 1032q-38 -156 52.5 -270.5t250.5 -114.5 q157 0 292 112.5t175 272.5t-46.5 272.5t-257.5 112.5q-150 0 -289 -114t-177 -271z" />
<glyph unicode=":" horiz-adv-x="436" d="M106 78q6 34 33.5 57t61.5 23q33 0 51 -23t12 -57q-7 -34 -34.5 -56t-61.5 -22t-51.5 22t-10.5 56zM301 993q6 34 33 57t61 23t52 -23t12 -57q-7 -34 -35 -56t-62 -22t-51 22t-10 56z" />
<glyph unicode=";" horiz-adv-x="536" d="M-127 -328l320 553h131l-361 -553h-90zM365 993q8 34 35 57t61 23t51.5 -23t9.5 -57q-6 -33 -34 -55.5t-62 -22.5q-33 0 -50 22t-11 56z" />
<glyph unicode="&#x3c;" horiz-adv-x="856" d="M250 752l461 522h133l-467 -543l225 -502h-115z" />
<glyph unicode="=" horiz-adv-x="1140" d="M221 428l23 111h772l-23 -111h-772zM319 891l23 110h772l-22 -110h-773z" />
<glyph unicode="&#x3e;" horiz-adv-x="872" d="M268 229l469 541l-237 504h127l237 -522l-463 -523h-133z" />
<glyph unicode="?" horiz-adv-x="1153" d="M240 1034q50 239 205 386t370 147q133 0 229 -62.5t136 -162t20 -212.5q-9 -50 -35 -98.5t-53 -82.5t-79 -79t-81 -67t-91 -66q-24 -17 -36 -26q-94 -68 -137 -132.5t-70 -191.5h-106q19 91 40 150t58.5 110t81 89.5t121.5 94.5q129 93 167 128q93 84 110 171 q28 143 -61 234.5t-234 91.5q-67 0 -134 -26t-128 -76t-109.5 -133t-73.5 -187h-110zM422 57q8 34 35 57t61 23t52 -23t10 -57q-6 -33 -34.5 -55t-62.5 -22t-50.5 21.5t-10.5 55.5z" />
<glyph unicode="@" horiz-adv-x="1816" d="M181.5 394.5q0.5 79.5 11.5 162.5q25 155 106 299t201 254.5t282 177t338 66.5q89 0 167.5 -17t140 -47t113 -72.5t87 -93t60.5 -108t36 -118.5t10 -123.5t-14 -123.5q-21 -91 -65 -169t-96.5 -129.5t-112 -88t-111.5 -53t-94 -16.5q-73 0 -116 41t-25 139 q-12 -15 -38.5 -37.5t-68.5 -49.5t-99.5 -46t-115.5 -19q-126 0 -182 93.5t-27 230.5q2 8 8 27.5t9 31.5q54 154 182.5 258.5t275.5 104.5q67 0 126.5 -37t70.5 -94l45 110h80l-158 -467q0 -1 -6 -17t-8.5 -24t-7.5 -26t-5.5 -29.5t-1.5 -27.5t4 -26t12.5 -20t21.5 -15 t34 -5q30 0 70 14t85.5 44t86.5 70.5t74 99.5t47 124q16 91 9.5 177.5t-47 163.5t-101.5 134.5t-155.5 91t-207.5 33.5q-186 0 -358.5 -90t-294 -248t-160.5 -348q-20 -87 -15.5 -167t26.5 -149t71.5 -125.5t119 -97.5t169.5 -64t223 -24l-23 -106q-118 0 -218 20.5 t-173.5 57.5t-131 89t-91.5 115t-54.5 136t-20 152.5zM662 463q4 -64 45.5 -104t111.5 -40q91 0 194.5 85.5t137.5 189.5v-2q24 73 18.5 135t-47 102.5t-106.5 40.5q-101 0 -193.5 -77t-136.5 -187q-28 -79 -24 -143z" />
<glyph unicode="A" horiz-adv-x="1333" d="M70 0l215 1012q29 137 91 244.5t145 174.5t180.5 101.5t203.5 34.5q98 0 182 -34t146.5 -103t83.5 -173q9 -46 9 -98q0 -68 -15 -147l-215 -1012h-113l94 449h-796l-95 -449h-116zM305 559h797l92 434q16 75 16 139q0 114 -50 196q-78 126 -261 126q-194 0 -326 -126 t-176 -335z" />
<glyph unicode="B" horiz-adv-x="1306" d="M121 0l325 1536h488q206 0 308 -104q77 -78 77 -196q0 -39 -8 -81q-14 -66 -55.5 -134t-111.5 -127.5t-151 -86.5q54 -10 100.5 -37.5t82.5 -75.5t48 -115q5 -30 6 -64q0 -43 -9 -93q-41 -214 -200 -318t-400 -104h-500zM256 111h201q73 0 116.5 1t114.5 7t115.5 17 t100 33.5t90.5 54t65 80t43 110.5q10 47 10 85q0 34 -8 63q-8 30 -22 54.5t-37.5 42.5t-50 32.5t-62.5 24t-72 16t-82 10t-89.5 5t-96.5 1.5h-201zM414 850h397q129 0 242.5 92t140.5 213q6 31 6 59q0 83 -55 141q-74 77 -232 77h-376z" />
<glyph unicode="C" horiz-adv-x="1560" d="M161 556q-2 23 -2 46q0 81 19 166q33 164 119.5 311t206.5 254.5t274.5 170.5t317.5 63q174 0 321.5 -79t214.5 -214l-106 -68q-56 114 -182 181t-271 67q-175 0 -341.5 -92.5t-285 -250.5t-157.5 -343q-19 -83 -20 -160q0 -11 1 -21q3 -87 22.5 -162.5t65 -137.5 t108.5 -106.5t152.5 -68.5t196.5 -24q159 0 321 73t269 197l74 -69q-121 -147 -311.5 -233.5t-379.5 -86.5q-110 0 -206.5 28.5t-170 80.5t-129.5 125t-85 162t-36 191z" />
<glyph unicode="D" horiz-adv-x="1511" d="M121 0l325 1536h410q140 0 257.5 -38t199 -106.5t133.5 -165t62 -213.5q3 -34 4 -69q0 -87 -19 -182q-47 -220 -184 -393.5t-341 -271t-438 -97.5h-409zM256 113h299q135 0 269.5 47t247 130t195.5 206t113 266q19 86 19 163q0 97 -30 181q-53 150 -192.5 233.5 t-345.5 83.5h-296z" />
<glyph unicode="E" horiz-adv-x="1306" d="M121 0l325 1536h973l-24 -113h-860l-136 -637h717l-22 -112h-717l-121 -561h879l-23 -113h-991z" />
<glyph unicode="F" horiz-adv-x="1243" d="M121 0l325 1536h973l-24 -113h-860l-136 -637h717l-22 -112h-717l-144 -674h-112z" />
<glyph unicode="G" horiz-adv-x="1622" d="M160 556q-2 22 -2 45q0 81 20 167q35 165 121.5 311t207.5 254t279 171t328 63q184 0 319.5 -79.5t204.5 -219.5l-106 -68q-56 119 -171 186.5t-269 67.5q-185 0 -356.5 -93t-290 -250t-158.5 -343q-19 -83 -19 -160v-22q3 -87 23 -163t65.5 -138.5t109 -107t153 -69 t196.5 -24.5q103 0 198.5 19.5t163.5 50t112 57.5t71 51l84 412h-428l22 110h541l-121 -573q-36 -31 -66 -54t-96 -61.5t-133 -63t-167 -44t-208 -19.5q-109 0 -205.5 28.5t-170 80.5t-130.5 125t-86 161.5t-36 191.5z" />
<glyph unicode="H" horiz-adv-x="1544" d="M121 0l325 1536h113l-160 -750h914l160 750h112l-325 -1536h-113l143 674h-913l-144 -674h-112z" />
<glyph unicode="I" horiz-adv-x="518" d="M121 0l325 1536h113l-326 -1536h-112z" />
<glyph unicode="J" horiz-adv-x="1030" d="M-4 172l96 66q48 -64 80 -90q77 -64 188 -64q65 0 115.5 11.5t98.5 41.5t85 81t68.5 130.5t54.5 188.5l213 999h113l-213 -999q-21 -107 -51 -192.5t-62.5 -144t-74 -101.5t-81 -67.5t-88.5 -39t-91 -19t-95 -4.5q-69 0 -131 21t-105.5 56t-71 64.5t-48.5 61.5z" />
<glyph unicode="K" horiz-adv-x="1333" d="M123 0l326 1536h112l-201 -942l953 942h143l-661 -668l407 -868h-125l-366 788l-389 -385l-86 -403h-113z" />
<glyph unicode="L" horiz-adv-x="1255" d="M121 0l325 1536h113l-303 -1423h840l-23 -113h-952z" />
<glyph unicode="M" horiz-adv-x="1900" d="M119 0l332 1567l575 -774l922 774l-334 -1567h-113l268 1268l-768 -647l-493 671l-277 -1292h-112z" />
<glyph unicode="N" horiz-adv-x="1585" d="M121 0l332 1567l792 -1299l268 1268h113l-334 -1567l-788 1303l-271 -1272h-112z" />
<glyph unicode="O" horiz-adv-x="1763" d="M176 768q35 163 126.5 310.5t218 255t285.5 170.5t322 63q119 0 227 -40.5t189.5 -113.5t137.5 -173q58 -100 72 -219q5 -44 5 -89q0 -79 -16 -164q-35 -163 -126.5 -310.5t-217.5 -255t-285 -170.5t-323 -63q-217 0 -375 107q-158 106 -222 290q-37 107 -37 226 q0 85 19 176zM287 768q-19 -90 -19 -172q0 -92 24 -174q45 -154 180 -246t343 -92q176 0 350 91t301 249.5t166 343.5q15 79 15 152q0 34 -3 66q-10 102 -56.5 188t-115 149t-163.5 98t-203 35q-177 0 -351 -92t-301 -251.5t-167 -344.5z" />
<glyph unicode="P" horiz-adv-x="1304" d="M121 0l325 1536h472q105 0 198 -39.5t158 -109t92 -173.5q14 -54 14 -111q0 -53 -12 -110q-51 -240 -240 -392t-442 -152h-358l-95 -449h-112zM352 561h359q120 0 234 53t198.5 153t111.5 226q11 51 11 98q0 125 -76 213q-104 122 -295 121h-358z" />
<glyph unicode="Q" horiz-adv-x="1765" d="M176 768q35 163 127 311t218.5 255t285 170t321.5 63q119 0 227 -40.5t189.5 -113.5t138 -173t71.5 -219q5 -44 5 -89q0 -79 -16 -164q-32 -150 -111.5 -286t-193.5 -242l155 -197l-84 -70l-155 195q-265 -199 -563 -199q-217 0 -375 107t-222 290q-37 107 -37 226 q0 85 19 176zM287 768q-19 -90 -19 -172q0 -92 24 -174q45 -153 180 -245.5t343 -92.5q120 0 242 44t229 124l-190 248l84 67l192 -243q205 192 260 444q15 79 15 152q0 33 -3 66q-10 102 -56.5 188t-115 149t-163.5 98t-203 35q-177 0 -351 -92t-301 -251.5t-167 -344.5z " />
<glyph unicode="R" horiz-adv-x="1325" d="M121 0l325 1536h472q105 0 198 -39.5t158 -109t92 -173.5q14 -54 14 -111q0 -53 -12 -110q-39 -186 -165 -318.5t-320 -197.5l202 -477h-127l-190 453q-54 -4 -82 -4h-358l-95 -449h-112zM352 561h359q124 0 238 53t196.5 152.5t109.5 226.5q11 52 11 99q0 124 -76 212 q-104 121 -295 121h-358z" />
<glyph unicode="S" horiz-adv-x="1206" d="M72 256l96 63l16 -26q15 -26 22 -36.5t29 -37t39.5 -40.5t48.5 -35.5t62.5 -32t75.5 -19t92 -8.5q87 0 178.5 41.5t158 113.5t77.5 152q5 33 5 62q0 39 -9 71q-15 54 -76.5 99.5t-111.5 69t-172 72.5q-4 2 -7 3q-57 23 -99.5 46t-81.5 52t-62 61t-41 73q-18 42 -18 90v6 q0 45 7 102q11 67 49 131.5t98.5 118t149 86.5t190.5 33q130 0 235.5 -40.5t199.5 -146.5l-105 -67q-63 78 -143.5 109.5t-200.5 31.5q-127 0 -233.5 -80t-126.5 -174q-10 -48 -11 -77q1 -27 13 -63q12 -38 44 -68t93 -64.5t152 -67.5q48 -17 87.5 -34.5t79.5 -39t69.5 -44 t57.5 -51t44 -59.5q16 -32 29 -70q13 -37 13 -77t-6 -96q-12 -82 -58.5 -158t-117.5 -134t-169.5 -93t-207.5 -35q-72 0 -136.5 17t-111.5 44.5t-88 66.5t-68 77t-50 82z" />
<glyph unicode="T" horiz-adv-x="1245" d="M274 1423l25 113h1133l-25 -113h-510l-301 -1423h-113l301 1423h-510z" />
<glyph unicode="U" horiz-adv-x="1484" d="M174 432q1 54 12 105l213 999h113l-207 -975q-10 -45 -13 -91q-1 -16 -1 -33q-1 -30 3 -61q6 -48 21.5 -90t45.5 -79.5t72.5 -64.5t105.5 -42.5t141 -15.5q101 0 190 30t152.5 78t113 112t78.5 128t43 129l207 975h113l-213 -999q-16 -74 -49.5 -148.5t-94 -151 t-138 -135.5t-188.5 -96t-239 -37q-87 0 -160.5 19.5t-125 53t-90.5 78.5t-61.5 96.5t-33.5 107.5q-10 51 -10 100v8z" />
<glyph unicode="V" horiz-adv-x="1331" d="M291 1536h110l232 -1268l784 1268h127l-966 -1567z" />
<glyph unicode="W" horiz-adv-x="1888" d="M281 1536h106l221 -1268l385 631l-110 637h108l219 -1268l766 1268h129l-948 -1567l-135 772l-467 -772z" />
<glyph unicode="X" horiz-adv-x="1277" d="M-59 0l714 817l-321 721h119l280 -631l551 629l148 2l-646 -743l357 -795h-123l-313 705l-615 -705h-151z" />
<glyph unicode="Y" horiz-adv-x="1247" d="M274 1536h115l279 -899l655 899h135l-753 -1028l-107 -508h-113l107 508z" />
<glyph unicode="Z" horiz-adv-x="1308" d="M-12 0l1239 1425h-834l23 111h1052l-1239 -1423h945l-23 -113h-1163z" />
<glyph unicode="[" horiz-adv-x="671" d="M88 -215l383 1804h328l-23 -106h-221l-338 -1592h221l-22 -106h-328z" />
<glyph unicode="\" horiz-adv-x="1085" d="M365 1536h112l400 -1536h-115z" />
<glyph unicode="]" horiz-adv-x="671" d="M25 -215l22 106h221l338 1592h-221l23 106h327l-383 -1804h-327z" />
<glyph unicode="^" horiz-adv-x="907" d="M203 1270l383 315h84l245 -315h-120l-185 213l-286 -213h-121z" />
<glyph unicode="_" horiz-adv-x="1290" d="M33 -111l22 111h1192l-22 -111h-1192z" />
<glyph unicode="`" horiz-adv-x="1142" d="M502 1536h143l184 -240h-143z" />
<glyph unicode="a" d="M134 320q-9 45 -9 95q0 67 16 142q56 258 245 423t433 165q121 0 228.5 -76.5t146.5 -165.5l53 213h103l-236 -1116h-100l37 213q-86 -112 -216 -177t-257 -65q-120 0 -215 43t-152 120.5t-77 185.5zM238 370q13 -86 52.5 -150t116 -101t179.5 -37q121 0 235 63t195 172 t108 238q12 58 12 111q0 68 -18 128q-34 110 -121.5 175t-208.5 65q-119 0 -234 -65t-197 -175.5t-109 -238.5q-15 -63 -15 -121q0 -33 5 -64z" />
<glyph unicode="b" horiz-adv-x="1349" d="M90 0l328 1536h110l-135 -633q87 112 214 177t253 65q110 0 203.5 -44t154 -122t84.5 -186q11 -49 11 -103q0 -64 -15 -133q-56 -261 -242.5 -423.5t-441.5 -162.5q-127 0 -229 65t-141 177l-54 -213h-100zM309 555q-13 -61 -13 -117q0 -64 17 -122q31 -108 118.5 -171 t215.5 -63q182 0 340 138.5t199 334.5q12 60 12 116q0 65 -16 123q-32 109 -120 174.5t-216 65.5q-184 0 -339.5 -141t-197.5 -338z" />
<glyph unicode="c" horiz-adv-x="1120" d="M133 557q35 163 132.5 296.5t244.5 212.5t315 79q120 0 217.5 -48t153.5 -132l-100 -68q-45 64 -122 100.5t-171 36.5q-188 0 -352 -140.5t-207 -336.5q-14 -59 -14 -114q0 -37 6 -72q16 -87 60 -151.5t125.5 -102t190.5 -37.5q203 0 365 162l74 -70 q-93 -94 -212.5 -147.5t-248.5 -53.5q-159 0 -276 78.5t-166 212.5q-29 79 -29 168q0 61 14 127z" />
<glyph unicode="d" horiz-adv-x="1347" d="M123 557q56 257 246 422.5t434 165.5q107 0 218.5 -73t154.5 -169l135 633h110l-327 -1536h-101l37 213q-84 -112 -215 -177t-258 -65q-154 0 -265.5 74t-157.5 209q-26 76 -27 163q0 67 16 140zM219 370q13 -86 52.5 -150t116 -101t179.5 -37q120 0 234.5 63t196 172 t108.5 238q12 58 12 111q0 68 -18 128q-34 110 -121.5 175t-208.5 65q-119 0 -234 -65t-197.5 -175.5t-109.5 -238.5q-15 -63 -15 -121q0 -33 5 -64z" />
<glyph unicode="e" horiz-adv-x="1163" d="M131 557q25 123 80 229.5t134 186.5t185.5 126t225.5 46q133 0 232 -80q100 -79 142 -215q27 -87 28 -183q0 -54 -9 -112h-911q-16 -67 -16 -128q0 -29 4 -57q11 -86 49 -150t114.5 -101t183.5 -37t216.5 49t175.5 123l69 -68q-79 -96 -213 -155.5t-270 -59.5 q-157 0 -265 79t-148 212q-22 72 -22 154q0 67 15 141zM270 666h787q-6 168 -90 269.5t-230 102.5h-3q-151 0 -275 -103q-125 -104 -189 -269z" />
<glyph unicode="f" horiz-adv-x="720" d="M92 0l213 1006h-168l25 110h168l35 170q31 140 123.5 210.5t216.5 70.5q146 0 239 -113l-96 -61q-37 38 -76.5 50.5t-95.5 12.5q-64 0 -123 -42t-78 -128l-35 -170h324l-25 -110h-323l-213 -1006h-111z" />
<glyph unicode="g" horiz-adv-x="1316" d="M70 -338l92 64q106 -156 325 -156q192 0 349 124.5t198 313.5l43 205q-86 -112 -216 -177t-257 -65q-244 0 -366 165q-85 113 -85 271q0 70 17 150q54 257 244.5 422.5t433.5 165.5q119 0 225.5 -70t149.5 -172l53 213h102l-237 -1116q-54 -240 -243.5 -391.5 t-432.5 -151.5q-131 0 -240 59t-155 146zM261 370q11 -86 48.5 -150t115.5 -101t187 -37q193 0 345 136.5t194 336.5q12 59 12 113q0 66 -17 126q-33 109 -120 174.5t-211 65.5q-184 0 -341 -141t-200 -338q-16 -67 -16 -129q0 -28 3 -56z" />
<glyph unicode="h" horiz-adv-x="1234" d="M90 0l326 1536h110l-135 -633q24 31 68 69t105 79t140 68.5t154 27.5q47 0 86.5 -6t78.5 -21.5t67.5 -40.5t50.5 -66t31 -95q6 -37 6 -84q0 -21 -1 -44q-4 -75 -24 -167l-131 -623h-111l115 539q11 52 17 84.5t13 80.5t8 78v18q0 22 -2 50q-2 38 -11.5 62.5t-26.5 50.5 t-43 40t-63 23.5t-84 9.5q-64 0 -138.5 -29.5t-138 -75t-116.5 -97t-85 -99.5l-155 -735h-111z" />
<glyph unicode="i" horiz-adv-x="442" d="M86 0l238 1116h110l-237 -1116h-111zM360 1395q8 34 35 57t60 23q34 0 52 -23q13 -17 13 -39q0 -9 -2 -18q-7 -34 -34.5 -56t-61.5 -22t-52 22q-12 16 -12 38q0 8 2 18z" />
<glyph unicode="j" horiz-adv-x="837" d="M-119 -383l96 61q64 -110 197 -110q51 0 93 13t81 44t68.5 87.5t46.5 137.5l268 1266h111l-269 -1266q-21 -101 -57 -175t-75 -115t-91.5 -65t-97.5 -31t-102 -7q-91 0 -167.5 51.5t-101.5 108.5zM768 1395q8 34 34.5 57t59.5 23q34 0 52 -23q14 -17 14 -39q0 -9 -2 -18 q-7 -34 -35 -56t-62 -22t-51 22q-12 16 -12 37q0 9 2 19z" />
<glyph unicode="k" horiz-adv-x="1030" d="M90 0l326 1536h110l-223 -1061l666 641h145l-485 -471l293 -645h-119l-258 567l-283 -274l-61 -293h-111z" />
<glyph unicode="l" horiz-adv-x="454" d="M90 0l326 1536h110l-325 -1536h-111z" />
<glyph unicode="m" horiz-adv-x="1998" d="M104 0l238 1116h102l-38 -213q24 32 65.5 69.5t101 79t136 68.5t151.5 27q60 0 108 -11t90.5 -36.5t70 -74.5t36.5 -120q23 30 68.5 68.5t107.5 79t141.5 67.5t153.5 27q47 0 87 -6t79.5 -21.5t68.5 -40.5t51 -66t32 -95q7 -39 8 -89q0 -19 -2 -39q-4 -75 -23 -167 l-131 -623h-110l114 539q13 65 21 109t13 100q3 31 3 57q0 21 -2 37q-4 38 -18 77.5t-40.5 63t-70.5 38.5t-104 15q-109 0 -239 -77.5t-208 -172.5q-4 -82 -22 -163l-131 -623h-111l115 539q41 197 42 276v6q0 155 -109 197q-46 18 -113 18q-121 0 -257.5 -97t-207.5 -204 l-156 -735h-111z" />
<glyph unicode="n" horiz-adv-x="1228" d="M104 0l238 1116h102l-38 -213q24 31 67.5 69t105 79t140 68.5t153.5 27.5q47 0 86.5 -6t78.5 -21.5t67.5 -40.5t50.5 -66t31 -95q6 -37 6 -84q0 -21 -1 -44q-4 -75 -24 -167l-131 -623h-110l114 539q16 79 24 126.5t14 113.5q2 21 1 40q1 39 -7 65q-12 39 -35 78 t-71 56.5t-118 17.5q-123 0 -265 -98t-212 -203l-156 -735h-111z" />
<glyph unicode="o" horiz-adv-x="1296" d="M123 557q35 163 135.5 297t250.5 213.5t318 79.5q112 0 209 -46.5t160 -126.5q62 -80 89 -188q13 -53 13 -109q0 -58 -14 -120q-34 -160 -138.5 -294.5t-254.5 -213t-309 -78.5t-276.5 78.5t-166.5 212.5q-29 80 -29 170q0 61 13 125zM231 557q-13 -62 -13 -118 q0 -64 17 -122q32 -107 127.5 -171t241.5 -64q187 0 359 140t213 335q11 53 11 102q1 71 -23 137q-40 110 -136.5 175t-224.5 65q-198 0 -363.5 -140.5t-208.5 -338.5z" />
<glyph unicode="p" horiz-adv-x="1349" d="M43 -420l328 1536h100l-39 -213q93 113 221 177.5t254 64.5q107 0 199 -43t152.5 -121t85.5 -185q12 -51 12 -107q0 -62 -15 -130q-56 -257 -248.5 -422.5t-435.5 -165.5q-124 0 -222 65.5t-146 176.5l-135 -633h-111zM354 561q-12 -58 -12 -112q0 -66 18 -127 q33 -109 120 -174.5t208 -65.5q118 0 233.5 65t199 175.5t110.5 238.5q13 61 13 117q0 64 -17 122q-31 107 -118.5 170.5t-215.5 63.5q-193 0 -345 -136.5t-194 -336.5z" />
<glyph unicode="q" horiz-adv-x="1347" d="M168 559q54 257 247 421.5t437 164.5q123 0 226 -69t143 -173l55 213h100l-327 -1536h-111l135 633q-82 -108 -214.5 -175t-256.5 -67q-243 0 -366 166q-85 115 -85 272q0 71 17 150zM258 408q0 -69 23 -128q23 -60 64 -104t108.5 -69t156.5 -25q184 0 341.5 141 t199.5 338q13 61 13 117q0 64 -17 122q-31 107 -118.5 170.5t-215.5 63.5q-182 0 -340 -138.5t-199 -334.5q-16 -82 -16 -153z" />
<glyph unicode="r" horiz-adv-x="741" d="M104 0l238 1116h102l-38 -213q35 42 77.5 80.5t100 77.5t127.5 62.5t141 23.5l-27 -123q-128 0 -253.5 -87.5t-198.5 -195.5l-158 -741h-111z" />
<glyph unicode="s" horiz-adv-x="952" d="M39 225l92 60q16 -23 20.5 -29t27 -33.5t38.5 -41t47 -36.5t60 -34.5t70 -21t85 -9.5q49 0 99 13.5t95 39t75 67.5t34 93q1 8 1 16q0 33 -11 61q-13 35 -36 59t-63.5 46t-80 37t-98.5 33q-166 53 -236 131q-52 58 -51 137q0 27 6 57q25 117 138 197t288 80 q75 0 140.5 -18t110.5 -46.5t74.5 -57.5t45.5 -58l-95 -60q-35 51 -109.5 94t-170.5 43q-59 0 -123.5 -18t-120 -59.5t-67.5 -98.5q-5 -21 -5 -40q-1 -48 31 -80q44 -44 158 -84q76 -21 132.5 -43.5t108.5 -54.5t83.5 -70t49.5 -91q14 -43 14 -94q0 -12 -1 -24 q-5 -87 -64 -160.5t-155 -115.5t-205 -42q-89 0 -166.5 28.5t-130.5 74t-83 81.5t-52 72z" />
<glyph unicode="t" horiz-adv-x="677" d="M137 256l160 750h-145l24 110h146l53 256h110l-53 -256h346l-24 -110h-346l-154 -727q-10 -49 -10 -85q0 -44 15 -69q28 -45 116 -45q32 0 80.5 19t83.5 51q16 -14 40.5 -38t38.5 -36q-64 -57 -125.5 -83t-136.5 -26q-122 1 -185 75q-43 51 -43 132q0 38 9 82z" />
<glyph unicode="u" horiz-adv-x="1218" d="M146 314q2 80 22 180l131 622h111l-115 -538q-15 -70 -22 -109t-13 -99q-4 -36 -5 -63q1 -19 3 -33q4 -35 18 -77t42.5 -64t75.5 -37.5t112 -15.5q124 0 255 96t204 205l155 735h111l-238 -1116h-102l37 213q-85 -106 -201.5 -175t-263.5 -69q-54 0 -100 11t-87.5 34.5 t-69.5 65.5q-30 42 -46 98q-15 52 -15 123q1 6 1 13z" />
<glyph unicode="v" horiz-adv-x="1058" d="M211 1116h104l191 -885l590 885h123l-758 -1143z" />
<glyph unicode="w" horiz-adv-x="1568" d="M188 1116h105l205 -885l323 500l-88 385h107l202 -885l570 885h125l-740 -1143l-143 621l-401 -621z" />
<glyph unicode="x" horiz-adv-x="958" d="M-45 0l522 594l-241 522h118l201 -434l381 434h135l-469 -538l268 -578h-116l-228 489l-428 -489h-143z" />
<glyph unicode="y" horiz-adv-x="944" d="M12 -512l400 645l-193 983h109l168 -856l524 856h127l-1006 -1628h-129z" />
<glyph unicode="z" horiz-adv-x="991" d="M-33 0l918 1006h-643l22 110h858l-909 -1005h698l-22 -111h-922z" />
<glyph unicode="{" horiz-adv-x="811" d="M193 645l14 68q63 23 106.5 58.5t73 92.5t46 109t38.5 143q64 266 195 381t323 115l-20 -101q-150 0 -253 -113t-151 -323q-29 -127 -83.5 -242.5t-129.5 -156.5q49 -44 58.5 -159.5t-15.5 -215.5q-23 -105 -23 -189t23 -147.5t77.5 -98t137.5 -34.5l-20 -100 q-184 0 -264.5 137t-34.5 399q16 86 21 139.5t-2 105t-36 82.5t-81 50z" />
<glyph unicode="|" horiz-adv-x="534" d="M92 -176l408 1919h110l-407 -1919h-111z" />
<glyph unicode="}" horiz-adv-x="815" d="M-8 -268l20 100q150 0 253 113t151 323q29 127 83.5 243t129.5 157q-49 44 -58.5 159t15.5 215q23 105 23 189t-23 147.5t-77.5 98t-137.5 34.5l20 101q184 0 264.5 -137.5t34.5 -399.5q-16 -86 -21 -139.5t2 -105t36 -82.5t81 -50l-14 -67q-51 -18 -90 -47.5t-64 -61.5 t-46.5 -84t-34 -95t-29.5 -116q-33 -137 -84.5 -234.5t-119 -153.5t-144.5 -81.5t-170 -25.5z" />
<glyph unicode="&#xa1;" horiz-adv-x="530" d="M143 0l244 1149h111l-244 -1149h-111zM434 1483q6 32 33 54t59 22t49 -22t11 -54t-33 -54t-59 -22t-49 22t-11 54z" />
<glyph unicode="&#xa2;" horiz-adv-x="1536" d="M188 748q40 207 168.5 379.5t313.5 277t391 119.5l39 184h110l-39 -184q156 -11 290.5 -89t197.5 -202l-103 -62q-63 111 -180 176.5t-262 65.5q-186 0 -359 -87.5t-295 -240t-161 -337.5q-22 -114 -16.5 -213.5t46 -182t106.5 -142t165.5 -92t222.5 -32.5 q171 0 323.5 70.5t260.5 197.5l76 -65q-118 -142 -285 -225.5t-354 -92.5l-39 -184h-111l39 184q-199 15 -337.5 120t-193.5 277t-14 380z" />
<glyph unicode="&#xa3;" horiz-adv-x="1429" d="M41 260q9 41 34 83t66 83t106.5 69t143.5 33q39 3 81 -7.5t64 -22.5l23 -11q11 91 14.5 172.5t1.5 106.5h-180l23 106h157q9 151 21 213q20 95 57.5 172.5t96.5 139t146.5 95.5t197.5 34q95 0 187.5 -55t139.5 -128l-96 -53q-42 57 -108 94t-146 37q-63 0 -118 -19 t-94.5 -50t-70.5 -73.5t-50 -87.5t-29 -93q-29 -131 -29 -226h311l-22 -106h-289q-20 -284 -25 -336q34 -48 68.5 -105t60.5 -94q32 -44 48.5 -63.5t46 -45t63 -35t78.5 -9.5q86 0 170 41l51 -84q-61 -34 -114 -49t-132 -15q-37 0 -71 8t-59.5 19.5t-52.5 33.5t-45 40.5 t-41.5 50t-37 52t-37.5 57.5t-37 57q-44 -157 -143 -237.5t-229 -80.5q-108 0 -168 81t-33 208zM137.5 190.5q4.5 -29.5 16 -54.5t38.5 -41.5t64 -16.5q103 0 177 85t104 210q-77 56 -189 47q-70 -6 -131.5 -59.5t-75.5 -114.5q-8 -26 -3.5 -55.5z" />
<glyph unicode="&#xa5;" horiz-adv-x="1286" d="M262 401l23 107h329l-30 100h-277l23 107h221l-242 780h115l266 -858l625 858h135l-571 -780h223l-23 -107h-278l-74 -100h330l-23 -107h-329l-84 -401h-113l84 401h-330z" />
<glyph unicode="&#xa7;" horiz-adv-x="1429" d="M158 -291l96 53q35 -64 114.5 -101.5t192.5 -37.5q122 0 234 62.5t133 162.5q20 100 -68.5 174t-277.5 117q-63 14 -120.5 38.5t-111.5 62t-88.5 86t-51 111t0.5 136.5q16 77 73.5 143.5t133 108.5t151 67t138.5 30q-23 5 -54 25t-65 55t-53 93t-11 126q7 59 46 118 t100.5 107t151 78t188.5 30q128 0 239.5 -55t155.5 -141l-107 -60q-90 146 -305 146q-86 0 -164 -26t-132 -78.5t-64 -120.5q-14 -101 73 -167.5t285 -127.5q181 -56 275.5 -166.5t62.5 -265.5q-14 -65 -52.5 -120.5t-89 -92t-102.5 -64.5t-101.5 -43.5t-76 -22.5t-35.5 -8 q1 0 12.5 -7t23.5 -15t30.5 -22.5t33 -31t31 -40.5t24.5 -49.5t13.5 -59.5t-2.5 -70q-15 -95 -92 -172.5t-183 -119t-214 -41.5q-133 0 -240.5 51t-150.5 145zM317 573q-26 -103 29.5 -182.5t167.5 -120.5t260 -41q55 0 124 18.5t136.5 51t119.5 84t67 109.5 q21 82 -13.5 150.5t-104 109.5t-152 63.5t-163.5 22.5q-88 0 -188.5 -33t-182.5 -96t-100 -136z" />
<glyph unicode="&#xa8;" horiz-adv-x="1150" d="M561 1448q8 37 36 60.5t65 23.5q34 0 54 -24t13 -60t-37 -60t-65 -24q-37 0 -55.5 23.5t-10.5 60.5zM887 1448q7 36 36.5 60t63.5 24q37 0 56 -23.5t12 -60.5t-36.5 -60.5t-66.5 -23.5q-34 0 -53 24t-12 60z" />
<glyph unicode="&#xab;" horiz-adv-x="1325" d="M213 547l461 522h133l-467 -543l225 -501h-114zM705 547l460 522h133l-467 -543l226 -501h-115z" />
<glyph unicode="&#xad;" horiz-adv-x="856" d="M219 555l25 111h520l-25 -111h-520z" />
<glyph unicode="&#xaf;" horiz-adv-x="897" d="M444 1417l23 105h520l-22 -105h-521z" />
<glyph unicode="&#xb0;" horiz-adv-x="874" d="M244 1196q28 137 146 235.5t257 98.5q138 0 215.5 -98t48.5 -236q-31 -141 -148 -236.5t-257 -95.5q-141 0 -217 95.5t-45 236.5zM336 1194q-26 -101 24.5 -170.5t163.5 -69.5q93 0 178.5 70t114.5 170q28 96 -26 169t-164 73q-93 0 -179 -71t-112 -171z" />
<glyph unicode="&#xb1;" horiz-adv-x="1153" d="M240 0l24 111h520l-24 -111h-520zM250 940l22 109h394l84 391h110l-84 -391h393l-22 -109h-393l-84 -397h-111l84 397h-393z" />
<glyph unicode="&#xb4;" horiz-adv-x="1001" d="M471 1296l283 240h166l-283 -240h-166z" />
<glyph unicode="&#xb7;" horiz-adv-x="448" d="M250 823q8 32 34 54t58 22t49 -22t10 -54q-6 -32 -32.5 -53.5t-59.5 -21.5q-32 0 -48.5 21.5t-10.5 53.5z" />
<glyph unicode="&#xb8;" horiz-adv-x="696" d="M172 -115l193 359h131l-234 -359h-90z" />
<glyph unicode="&#xbb;" horiz-adv-x="1329" d="M174 25l469 540l-237 504h126l238 -522l-463 -522h-133zM664 25l469 540l-238 504h127l238 -522l-463 -522h-133z" />
<glyph unicode="&#xbf;" horiz-adv-x="1224" d="M158 416q7 42 24.5 81.5t46 76t55 65t69.5 63t71 55.5t76 56q21 15 32 23q94 68 137 132t70 191h107q-19 -91 -40 -150t-58.5 -110t-81 -89.5t-121.5 -94.5q-129 -93 -167 -128q-93 -84 -110 -171q-28 -143 61 -234.5t234 -91.5q67 0 134 26t128 76t109.5 133t73.5 187 h110q-50 -239 -205 -385.5t-370 -146.5q-133 0 -229 62.5t-136 161.5t-20 212zM774 1479q7 34 34.5 55.5t61.5 21.5t51.5 -21.5t10.5 -55.5q-8 -34 -34.5 -57t-59.5 -23q-34 0 -52.5 23t-11.5 57z" />
<glyph unicode="&#xc0;" horiz-adv-x="1292" d="M49 0l215 1012q29 137 91 244.5t145 174.5t181 101.5t204 34.5q98 0 182 -34t146 -103t83 -173t-6 -245l-215 -1012h-112l94 449h-797l-94 -449h-117zM285 559h796l93 434q44 208 -34 334.5t-261 126.5q-194 0 -326 -126t-176 -335zM672 1878h143l184 -240h-143z" />
<glyph unicode="&#xc1;" horiz-adv-x="1292" d="M49 0l215 1012q29 137 91 244.5t145 174.5t181 101.5t204 34.5q98 0 182 -34t146 -103t83 -173t-6 -245l-215 -1012h-112l94 449h-797l-94 -449h-117zM285 559h796l93 434q44 208 -34 334.5t-261 126.5q-194 0 -326 -126t-176 -335zM762 1638l282 240h166l-282 -240h-166 z" />
<glyph unicode="&#xc2;" horiz-adv-x="1292" d="M49 0l215 1012q29 137 91 244.5t145 174.5t181 101.5t204 34.5q98 0 182 -34t146 -103t83 -173t-6 -245l-215 -1012h-112l94 449h-797l-94 -449h-117zM285 559h796l93 434q44 208 -34 334.5t-261 126.5q-194 0 -326 -126t-176 -335zM543 1638l383 316h84l245 -316h-120 l-179 213l-282 -213h-131z" />
<glyph unicode="&#xc3;" horiz-adv-x="1292" d="M49 0l215 1012q29 137 91 244.5t145 174.5t181 101.5t204 34.5q98 0 182 -34t146 -103t83 -173t-6 -245l-215 -1012h-112l94 449h-797l-94 -449h-117zM285 559h796l93 434q44 208 -34 334.5t-261 126.5q-194 0 -326 -126t-176 -335zM596 1702l22 104q8 6 23 14.5t58.5 23 t84.5 14.5q66 0 152.5 -33t163.5 -33q41 0 81 12t59 24l20 11l-23 -108q-8 -6 -22.5 -14t-57 -22t-82.5 -14q-46 0 -156.5 36t-156.5 36q-41 0 -82.5 -12.5t-62.5 -25.5z" />
<glyph unicode="&#xc4;" horiz-adv-x="1292" d="M49 0l215 1012q29 137 91 244.5t145 174.5t181 101.5t204 34.5q98 0 182 -34t146 -103t83 -173t-6 -245l-215 -1012h-112l94 449h-797l-94 -449h-117zM285 559h796l93 434q44 208 -34 334.5t-261 126.5q-194 0 -326 -126t-176 -335zM659 1765q8 37 36 60.5t65 23.5 q34 0 54 -24t13 -60t-37 -60t-65 -24q-37 0 -55.5 23.5t-10.5 60.5zM985 1765q7 36 36.5 60t63.5 24q37 0 56 -23.5t12 -60.5t-36 -60.5t-66 -23.5q-34 0 -53.5 24t-12.5 60z" />
<glyph unicode="&#xc5;" horiz-adv-x="1292" d="M49 0l215 1012q29 137 91 244.5t145 174.5t181 101.5t204 34.5q98 0 182 -34t146 -103t83 -173t-6 -245l-215 -1012h-112l94 449h-797l-94 -449h-117zM285 559h796l93 434q44 208 -34 334.5t-261 126.5q-194 0 -326 -126t-176 -335zM745 1862q19 86 90.5 145t157.5 59 q84 0 132.5 -59.5t29.5 -144.5q-19 -86 -91.5 -146.5t-158.5 -60.5t-132.5 60.5t-27.5 146.5zM827 1862q-13 -53 10 -87t83 -34q49 0 95.5 37.5t57.5 83.5q12 52 -13.5 88.5t-82.5 36.5q-47 0 -93 -39.5t-57 -85.5z" />
<glyph unicode="&#xc6;" horiz-adv-x="2170" d="M70 0l215 1012q23 110 68.5 201.5t105 156t132 109.5t152 66.5t164.5 21.5q126 0 230.5 -57.5t132.5 -159.5l39 186h972l-22 -113h-860l-135 -637h716l-24 -112h-717l-119 -561h879l-25 -113h-991l94 449h-796l-95 -449h-116zM305 559h797l96 455q36 198 -45.5 319 t-259.5 121q-193 0 -322.5 -125.5t-173.5 -335.5z" />
<glyph unicode="&#xc7;" horiz-adv-x="1560" d="M178 768q33 164 119.5 311t206.5 254.5t274.5 170.5t317.5 63q174 0 321.5 -79t214.5 -214l-106 -68q-56 114 -182 181t-271 67q-175 0 -341.5 -92.5t-285 -250.5t-157.5 -343q-22 -94 -19 -181t22.5 -162.5t65 -137.5t108.5 -106.5t152.5 -68.5t196.5 -24q159 0 321 73 t269 197l74 -69q-115 -139 -294 -224.5t-360 -93.5l-194 -299h-96l161 303q-192 22 -325 132.5t-184 283.5t-9 377z" />
<glyph unicode="&#xc8;" horiz-adv-x="1265" d="M100 0l326 1536h973l-25 -113h-860l-135 -637h717l-23 -112h-717l-120 -561h878l-22 -113h-992zM713 1878h143l184 -240h-143z" />
<glyph unicode="&#xc9;" horiz-adv-x="1265" d="M100 0l326 1536h973l-25 -113h-860l-135 -637h717l-23 -112h-717l-120 -561h878l-22 -113h-992zM807 1638l283 240h165l-282 -240h-166z" />
<glyph unicode="&#xca;" horiz-adv-x="1265" d="M100 0l326 1536h973l-25 -113h-860l-135 -637h717l-23 -112h-717l-120 -561h878l-22 -113h-992zM557 1638l383 316h84l246 -316h-121l-178 213l-283 -213h-131z" />
<glyph unicode="&#xcb;" horiz-adv-x="1265" d="M100 0l326 1536h973l-25 -113h-860l-135 -637h717l-23 -112h-717l-120 -561h878l-22 -113h-992zM698 1747q8 37 36 60.5t65 23.5q34 0 54 -24t13 -60t-37 -60t-65 -24q-37 0 -55.5 23.5t-10.5 60.5zM1024 1747q7 36 36.5 60t63.5 24q37 0 56 -23.5t12 -60.5t-36 -60.5 t-66 -23.5q-34 0 -53.5 24t-12.5 60z" />
<glyph unicode="&#xcc;" horiz-adv-x="477" d="M100 0l326 1536h113l-326 -1536h-113zM250 1878h143l185 -240h-144z" />
<glyph unicode="&#xcd;" horiz-adv-x="477" d="M100 0l326 1536h113l-326 -1536h-113zM406 1638l282 240h166l-283 -240h-165z" />
<glyph unicode="&#xce;" horiz-adv-x="477" d="M100 0l326 1536h113l-326 -1536h-113zM137 1638l383 316h84l246 -316h-121l-178 213l-283 -213h-131z" />
<glyph unicode="&#xcf;" horiz-adv-x="477" d="M100 0l326 1536h113l-326 -1536h-113zM264 1765q8 37 36 60.5t65 23.5q34 0 54 -24t13 -60t-37 -60t-65 -24q-37 0 -55.5 23.5t-10.5 60.5zM590 1765q7 36 36.5 60t63.5 24q37 0 56 -23.5t12 -60.5t-36.5 -60.5t-66.5 -23.5q-34 0 -53 24t-12 60z" />
<glyph unicode="&#xd0;" horiz-adv-x="1511" d="M121 0l151 713h-137l23 110h137l151 713h410q140 0 257.5 -38t199 -106.5t133.5 -165t62.5 -213.5t-15.5 -251q-47 -220 -184 -393.5t-341 -271t-438 -97.5h-409zM256 113h299q135 0 269.5 47t247 130t195.5 206t113 266q42 194 -11 344t-192.5 233.5t-345.5 83.5h-296 l-127 -600h372l-22 -110h-375z" />
<glyph unicode="&#xd1;" horiz-adv-x="1544" d="M100 0l332 1567l793 -1299l268 1268h113l-334 -1567l-789 1303l-270 -1272h-113zM711 1647l22 104q8 6 23 14.5t58.5 22.5t84.5 14q66 0 152 -32.5t163 -32.5q41 0 81 11.5t59 23.5l20 12l-22 -109q-8 -5 -22.5 -13.5t-57 -22t-82.5 -13.5q-46 0 -156.5 36t-156.5 36 q-41 0 -82.5 -13t-62.5 -25z" />
<glyph unicode="&#xd2;" horiz-adv-x="1722" d="M138.5 555.5q-7.5 102.5 17.5 212.5q35 163 126.5 310.5t218 255t285.5 170.5t322 63q148 0 278 -62.5t214.5 -171t121.5 -254t0 -311.5q-35 -163 -126.5 -310.5t-217.5 -255t-285 -170.5t-323 -63q-109 0 -205.5 28.5t-171 80.5t-131.5 125t-86.5 161.5t-37 191z M247.5 585.5q3.5 -87.5 25 -163.5t67.5 -138t109.5 -106.5t152 -69t193.5 -24.5q176 0 350 91t301 249.5t166 343.5q22 115 11.5 217.5t-56.5 188.5t-115 149t-164 98t-203 35q-177 0 -351 -92t-301 -251.5t-167 -344.5q-22 -95 -18.5 -182.5zM889 1878h143l185 -240h-144z " />
<glyph unicode="&#xd3;" horiz-adv-x="1722" d="M138.5 555.5q-7.5 102.5 17.5 212.5q35 163 126.5 310.5t218 255t285.5 170.5t322 63q148 0 278 -62.5t214.5 -171t121.5 -254t0 -311.5q-35 -163 -126.5 -310.5t-217.5 -255t-285 -170.5t-323 -63q-109 0 -205.5 28.5t-171 80.5t-131.5 125t-86.5 161.5t-37 191z M247.5 585.5q3.5 -87.5 25 -163.5t67.5 -138t109.5 -106.5t152 -69t193.5 -24.5q176 0 350 91t301 249.5t166 343.5q22 115 11.5 217.5t-56.5 188.5t-115 149t-164 98t-203 35q-177 0 -351 -92t-301 -251.5t-167 -344.5q-22 -95 -18.5 -182.5zM961 1638l282 240h166 l-283 -240h-165z" />
<glyph unicode="&#xd4;" horiz-adv-x="1722" d="M138.5 555.5q-7.5 102.5 17.5 212.5q35 163 126.5 310.5t218 255t285.5 170.5t322 63q148 0 278 -62.5t214.5 -171t121.5 -254t0 -311.5q-35 -163 -126.5 -310.5t-217.5 -255t-285 -170.5t-323 -63q-109 0 -205.5 28.5t-171 80.5t-131.5 125t-86.5 161.5t-37 191z M247.5 585.5q3.5 -87.5 25 -163.5t67.5 -138t109.5 -106.5t152 -69t193.5 -24.5q176 0 350 91t301 249.5t166 343.5q22 115 11.5 217.5t-56.5 188.5t-115 149t-164 98t-203 35q-177 0 -351 -92t-301 -251.5t-167 -344.5q-22 -95 -18.5 -182.5zM758 1638l383 316h84l245 -316 h-120l-179 213l-282 -213h-131z" />
<glyph unicode="&#xd5;" horiz-adv-x="1722" d="M138.5 555.5q-7.5 102.5 17.5 212.5q35 163 126.5 310.5t218 255t285.5 170.5t322 63q148 0 278 -62.5t214.5 -171t121.5 -254t0 -311.5q-35 -163 -126.5 -310.5t-217.5 -255t-285 -170.5t-323 -63q-109 0 -205.5 28.5t-171 80.5t-131.5 125t-86.5 161.5t-37 191z M247.5 585.5q3.5 -87.5 25 -163.5t67.5 -138t109.5 -106.5t152 -69t193.5 -24.5q176 0 350 91t301 249.5t166 343.5q22 115 11.5 217.5t-56.5 188.5t-115 149t-164 98t-203 35q-177 0 -351 -92t-301 -251.5t-167 -344.5q-22 -95 -18.5 -182.5zM811 1708l23 104q8 6 23 14.5 t58 23t84 14.5q66 0 152.5 -33t163.5 -33q41 0 81 12t60 24l19 11l-23 -108q-8 -5 -22.5 -13.5t-57 -22t-82.5 -13.5q-46 0 -156.5 35.5t-156.5 35.5q-41 0 -82.5 -12.5t-62.5 -25.5z" />
<glyph unicode="&#xd6;" horiz-adv-x="1722" d="M138.5 555.5q-7.5 102.5 17.5 212.5q35 163 126.5 310.5t218 255t285.5 170.5t322 63q148 0 278 -62.5t214.5 -171t121.5 -254t0 -311.5q-35 -163 -126.5 -310.5t-217.5 -255t-285 -170.5t-323 -63q-109 0 -205.5 28.5t-171 80.5t-131.5 125t-86.5 161.5t-37 191z M247.5 585.5q3.5 -87.5 25 -163.5t67.5 -138t109.5 -106.5t152 -69t193.5 -24.5q176 0 350 91t301 249.5t166 343.5q22 115 11.5 217.5t-56.5 188.5t-115 149t-164 98t-203 35q-177 0 -351 -92t-301 -251.5t-167 -344.5q-22 -95 -18.5 -182.5zM874 1765q8 37 36 60.5 t65 23.5q34 0 54 -24t13 -60t-37 -60t-65 -24q-37 0 -55.5 23.5t-10.5 60.5zM1200 1765q7 36 36.5 60t63.5 24q37 0 56 -23.5t12 -60.5t-36 -60.5t-66 -23.5q-34 0 -53.5 24t-12.5 60z" />
<glyph unicode="&#xd7;" horiz-adv-x="1105" d="M215 440l350 285l-215 272l86 68l213 -270l336 274l66 -84l-334 -274l219 -277l-84 -69l-219 276l-350 -287z" />
<glyph unicode="&#xd8;" horiz-adv-x="1763" d="M43 76l207 172q-66 106 -85.5 237.5t11.5 282.5q35 163 127 311t218.5 255t285 170t321.5 63q138 0 260 -54.5t209 -152.5l213 178l66 -82l-215 -178q141 -228 82 -510q-35 -163 -127 -311t-218.5 -255t-285 -170t-321.5 -63q-300 0 -478 197l-209 -172zM287 768 q-57 -268 51 -451l1171 967q-74 81 -177.5 126.5t-225.5 45.5q-177 0 -351 -92t-301 -251.5t-167 -344.5zM401 236q146 -152 414 -152q176 0 350 91t301 249.5t166 343.5q53 246 -61 434z" />
<glyph unicode="&#xd9;" horiz-adv-x="1443" d="M154 432.5q1 53.5 12 104.5l213 999h113l-207 -975q-12 -55 -14 -107.5t7 -107.5t36.5 -101t70.5 -83t113 -57.5t161 -20.5q101 0 190.5 30t152.5 78t113 112t79 128t43 129l207 975h112l-213 -999q-16 -74 -49.5 -148.5t-93.5 -151t-137.5 -135.5t-188.5 -96t-239 -37 q-87 0 -160.5 19.5t-125 53t-90.5 78.5t-61.5 96.5t-33.5 107t-10 109zM770 1878h143l185 -240h-144z" />
<glyph unicode="&#xda;" horiz-adv-x="1443" d="M154 432.5q1 53.5 12 104.5l213 999h113l-207 -975q-12 -55 -14 -107.5t7 -107.5t36.5 -101t70.5 -83t113 -57.5t161 -20.5q101 0 190.5 30t152.5 78t113 112t79 128t43 129l207 975h112l-213 -999q-16 -74 -49.5 -148.5t-93.5 -151t-137.5 -135.5t-188.5 -96t-239 -37 q-87 0 -160.5 19.5t-125 53t-90.5 78.5t-61.5 96.5t-33.5 107t-10 109zM823 1638l283 240h166l-283 -240h-166z" />
<glyph unicode="&#xdb;" horiz-adv-x="1443" d="M154 432.5q1 53.5 12 104.5l213 999h113l-207 -975q-12 -55 -14 -107.5t7 -107.5t36.5 -101t70.5 -83t113 -57.5t161 -20.5q101 0 190.5 30t152.5 78t113 112t79 128t43 129l207 975h112l-213 -999q-16 -74 -49.5 -148.5t-93.5 -151t-137.5 -135.5t-188.5 -96t-239 -37 q-87 0 -160.5 19.5t-125 53t-90.5 78.5t-61.5 96.5t-33.5 107t-10 109zM618 1638l383 316h84l246 -316h-121l-178 213l-282 -213h-132z" />
<glyph unicode="&#xdc;" horiz-adv-x="1443" d="M154 432.5q1 53.5 12 104.5l213 999h113l-207 -975q-12 -55 -14 -107.5t7 -107.5t36.5 -101t70.5 -83t113 -57.5t161 -20.5q101 0 190.5 30t152.5 78t113 112t79 128t43 129l207 975h112l-213 -999q-16 -74 -49.5 -148.5t-93.5 -151t-137.5 -135.5t-188.5 -96t-239 -37 q-87 0 -160.5 19.5t-125 53t-90.5 78.5t-61.5 96.5t-33.5 107t-10 109zM735 1765q8 37 36 60.5t65 23.5q34 0 54 -24t13 -60t-37 -60t-65 -24q-37 0 -55.5 23.5t-10.5 60.5zM1061 1765q7 36 36.5 60t63.5 24q37 0 56 -23.5t12 -60.5t-36.5 -60.5t-66.5 -23.5q-34 0 -53 24 t-12 60z" />
<glyph unicode="&#xdd;" horiz-adv-x="1206" d="M254 1536h115l278 -899l656 899h135l-754 -1028l-106 -508h-113l106 508zM723 1638l283 240h165l-282 -240h-166z" />
<glyph unicode="&#xde;" horiz-adv-x="1304" d="M121 0l325 1536h113l-47 -225h338q113 0 210.5 -39.5t164 -109t93 -172.5t1.5 -222q-51 -236 -245 -390.5t-435 -154.5h-358l-48 -223h-112zM305 336h359q85 0 173 31.5t162.5 86.5t130.5 137.5t76 176.5q27 124 -17.5 224t-141 154t-222.5 54h-338z" />
<glyph unicode="&#xdf;" horiz-adv-x="1169" d="M80 0l264 1245q33 157 144 239.5t245 82.5q62 0 115.5 -18t95.5 -56t57 -97.5t0 -142.5q-8 -39 -34 -80t-51 -68.5t-72 -74.5q-3 -3 -26.5 -24.5t-35 -33.5t-29.5 -31t-27 -34.5t-11 -27.5q-2 -23 0 -43t25 -44.5t69 -50.5q162 -90 224.5 -196t37.5 -246 q-10 -54 -40 -110t-77 -106t-117 -82t-149 -32q-52 0 -100 17.5t-81.5 43.5t-62.5 60t-45.5 62t-27.5 55l98 61q90 -190 240 -186q82 1 157 69.5t95 159.5q23 100 -34.5 179t-195.5 153q-45 25 -75.5 59t-41.5 66t-15.5 64.5t3.5 54.5q4 22 16.5 45t41.5 54t42.5 44t55.5 53 q37 35 57.5 57t42.5 53t31 60q17 48 11 83t-22.5 58.5t-46 37.5t-58.5 20t-60 6q-82 0 -159.5 -57.5t-100.5 -167.5l-263 -1233h-110z" />
<glyph unicode="&#xe0;" d="M133.5 320.5q20.5 -107.5 77.5 -185.5t152 -121t215 -43q127 0 257 65t216 177l-37 -213h100l236 1116h-103l-53 -213q-39 89 -146.5 165.5t-228.5 76.5q-244 0 -433 -165t-245 -423q-28 -129 -7.5 -236.5zM238 370.5q-13 86.5 10 184.5q27 128 109 238.5t197 175.5 t234 65q121 0 208.5 -65.5t121 -175t6.5 -238.5t-108 -238t-195 -172t-235 -63q-103 0 -179.5 37t-116 101t-52.5 150.5zM571 1509h144l184 -239h-143z" />
<glyph unicode="&#xe1;" d="M133.5 320.5q20.5 -107.5 77.5 -185.5t152 -121t215 -43q127 0 257 65t216 177l-37 -213h100l236 1116h-103l-53 -213q-39 89 -146.5 165.5t-228.5 76.5q-244 0 -433 -165t-245 -423q-28 -129 -7.5 -236.5zM238 370.5q-13 86.5 10 184.5q27 128 109 238.5t197 175.5 t234 65q121 0 208.5 -65.5t121 -175t6.5 -238.5t-108 -238t-195 -172t-235 -63q-103 0 -179.5 37t-116 101t-52.5 150.5zM682 1270l283 239h165l-282 -239h-166z" />
<glyph unicode="&#xe2;" d="M133.5 320.5q20.5 -107.5 77.5 -185.5t152 -121t215 -43q127 0 257 65t216 177l-37 -213h100l236 1116h-103l-53 -213q-39 89 -146.5 165.5t-228.5 76.5q-244 0 -433 -165t-245 -423q-28 -129 -7.5 -236.5zM238 370.5q-13 86.5 10 184.5q27 128 109 238.5t197 175.5 t234 65q121 0 208.5 -65.5t121 -175t6.5 -238.5t-108 -238t-195 -172t-235 -63q-103 0 -179.5 37t-116 101t-52.5 150.5zM477 1270l383 315h84l246 -315h-121l-178 213l-283 -213h-131z" />
<glyph unicode="&#xe3;" d="M133.5 320.5q20.5 -107.5 77.5 -185.5t152 -121t215 -43q127 0 257 65t216 177l-37 -213h100l236 1116h-103l-53 -213q-39 89 -146.5 165.5t-228.5 76.5q-244 0 -433 -165t-245 -423q-28 -129 -7.5 -236.5zM238 370.5q-13 86.5 10 184.5q27 128 109 238.5t197 175.5 t234 65q121 0 208.5 -65.5t121 -175t6.5 -238.5t-108 -238t-195 -172t-235 -63q-103 0 -179.5 37t-116 101t-52.5 150.5zM506 1309l22 104q8 6 23 14.5t58.5 22.5t84.5 14q66 0 152.5 -32.5t163.5 -32.5q41 0 80.5 11.5t59.5 23.5l19 12l-22 -109q-8 -5 -22.5 -13.5t-57 -22 t-82.5 -13.5q-46 0 -156.5 36t-156.5 36q-41 0 -82.5 -13t-62.5 -25z" />
<glyph unicode="&#xe4;" d="M133.5 320.5q20.5 -107.5 77.5 -185.5t152 -121t215 -43q127 0 257 65t216 177l-37 -213h100l236 1116h-103l-53 -213q-39 89 -146.5 165.5t-228.5 76.5q-244 0 -433 -165t-245 -423q-28 -129 -7.5 -236.5zM238 370.5q-13 86.5 10 184.5q27 128 109 238.5t197 175.5 t234 65q121 0 208.5 -65.5t121 -175t6.5 -238.5t-108 -238t-195 -172t-235 -63q-103 0 -179.5 37t-116 101t-52.5 150.5zM575 1366q8 37 36 60.5t65 23.5q34 0 54 -24t13 -60t-37 -60t-65 -24q-37 0 -55.5 23.5t-10.5 60.5zM901 1366q7 36 36.5 60t63.5 24q37 0 56 -23.5 t12 -60.5t-36 -60.5t-66 -23.5q-34 0 -53.5 24t-12.5 60z" />
<glyph unicode="&#xe5;" d="M133.5 320.5q-20.5 107.5 7.5 236.5q56 258 245 423t433 165q121 0 228.5 -76.5t146.5 -165.5l53 213h103l-236 -1116h-100l37 213q-86 -112 -216 -177t-257 -65q-120 0 -215 43t-152 121t-77.5 185.5zM238 370.5q13 -86.5 52.5 -150.5t116 -101t179.5 -37q121 0 235 63 t195 172t108 238t-6.5 238.5t-121 175t-208.5 65.5q-119 0 -234 -65t-197 -175.5t-109 -238.5q-23 -98 -10 -184.5zM676 1462q19 86 90.5 145.5t157.5 59.5q84 0 132 -59.5t29 -145.5q-19 -87 -91 -147t-158 -60t-132.5 60.5t-27.5 146.5zM758 1462q-13 -53 9.5 -87 t82.5 -34q49 0 96 37.5t58 83.5q12 51 -14 88t-83 37q-47 0 -92.5 -39t-56.5 -86z" />
<glyph unicode="&#xe6;" horiz-adv-x="1904" d="M59 285q21 121 108 212.5t214.5 139t275.5 47.5q33 0 93 -4t104 -8l43 -4q18 174 -57 261t-224 89q-185 0 -356 -139l-67 65q117 100 227.5 140t228.5 40q36 0 74 -7t81.5 -26.5t79.5 -49t66 -78.5t43 -111q88 136 218 214.5t288 78.5q133 0 232.5 -80t142 -215.5 t18.5 -294.5h-911q-23 -99 -11.5 -185.5t49 -150t114.5 -100.5t184 -37t216 49t175 123l70 -68q-79 -96 -213.5 -155.5t-270.5 -59.5q-153 0 -259 74t-148 201q-85 -111 -234 -194t-311 -83q-178 0 -248 113q-53 95 -35 203zM178 299q-24 -114 34 -169.5t173 -49.5 q112 12 241.5 78.5t207.5 169.5l45 229q-87 25 -215 25q-245 0 -385 -121q-81 -73 -101 -162zM1014 666h786q-6 168 -89.5 269.5t-229.5 102.5q-153 1 -278 -103t-189 -269z" />
<glyph unicode="&#xe7;" horiz-adv-x="1120" d="M133 557q35 163 132.5 296.5t244.5 212.5t315 79q120 0 217.5 -48t153.5 -132l-100 -68q-45 64 -122 100.5t-171 36.5q-188 0 -352 -140.5t-207 -336.5q-23 -99 -7.5 -186t59.5 -151.5t125.5 -102t190.5 -37.5q203 0 365 162l74 -70q-90 -91 -202.5 -144t-236.5 -57 l-176 -272h-94l147 281q-131 23 -222.5 105t-127.5 206t-6 266z" />
<glyph unicode="&#xe8;" horiz-adv-x="1163" d="M131 557q25 123 80 229.5t134 186.5t185.5 126t225.5 46q133 0 232.5 -80t142 -215.5t18.5 -294.5h-911q-23 -99 -12 -185.5t49 -150t114.5 -100.5t183.5 -37t216.5 49t175.5 123l69 -68q-79 -96 -213 -155.5t-270 -59.5q-157 0 -265.5 79t-148 212t-6.5 295zM270 666 h787q-6 168 -90 269.5t-230 102.5q-153 1 -278 -103t-189 -269zM545 1509h143l184 -239h-143z" />
<glyph unicode="&#xe9;" horiz-adv-x="1163" d="M131 557q25 123 80 229.5t134 186.5t185.5 126t225.5 46q133 0 232.5 -80t142 -215.5t18.5 -294.5h-911q-23 -99 -12 -185.5t49 -150t114.5 -100.5t183.5 -37t216.5 49t175.5 123l69 -68q-79 -96 -213 -155.5t-270 -59.5q-157 0 -265.5 79t-148 212t-6.5 295zM270 666 h787q-6 168 -90 269.5t-230 102.5q-153 1 -278 -103t-189 -269zM637 1270l283 239h165l-282 -239h-166z" />
<glyph unicode="&#xea;" horiz-adv-x="1163" d="M131 557q25 123 80 229.5t134 186.5t185.5 126t225.5 46q133 0 232.5 -80t142 -215.5t18.5 -294.5h-911q-23 -99 -12 -185.5t49 -150t114.5 -100.5t183.5 -37t216.5 49t175.5 123l69 -68q-79 -96 -213 -155.5t-270 -59.5q-157 0 -265.5 79t-148 212t-6.5 295zM270 666 h787q-6 168 -90 269.5t-230 102.5q-153 1 -278 -103t-189 -269zM397 1237l383 315h84l246 -315h-121l-178 213l-283 -213h-131z" />
<glyph unicode="&#xeb;" horiz-adv-x="1163" d="M131 557q25 123 80 229.5t134 186.5t185.5 126t225.5 46q133 0 232.5 -80t142 -215.5t18.5 -294.5h-911q-23 -99 -12 -185.5t49 -150t114.5 -100.5t183.5 -37t216.5 49t175.5 123l69 -68q-79 -96 -213 -155.5t-270 -59.5q-157 0 -265.5 79t-148 212t-6.5 295zM270 666 h787q-6 168 -90 269.5t-230 102.5q-153 1 -278 -103t-189 -269zM528 1366q8 37 36 60.5t65 23.5q34 0 54 -24t13 -60t-37 -60t-65 -24q-37 0 -55.5 23.5t-10.5 60.5zM854 1366q7 36 36.5 60t63.5 24q37 0 56 -23.5t12 -60.5t-36 -60.5t-66 -23.5q-34 0 -53.5 24t-12.5 60z " />
<glyph unicode="&#xec;" horiz-adv-x="442" d="M86 0l238 1116h110l-237 -1116h-111zM154 1509h143l184 -239h-143z" />
<glyph unicode="&#xed;" horiz-adv-x="442" d="M86 0l238 1116h110l-237 -1116h-111zM297 1270l283 239h165l-282 -239h-166z" />
<glyph unicode="&#xee;" horiz-adv-x="442" d="M37 1249l383 316h84l246 -316h-121l-178 213l-283 -213h-131zM86 0l238 1116h110l-237 -1116h-111z" />
<glyph unicode="&#xef;" horiz-adv-x="442" d="M86 0l238 1116h110l-237 -1116h-111zM162 1407q8 37 35.5 60.5t64.5 23.5q35 0 55 -24t13 -60t-37.5 -60t-65.5 -24q-37 0 -55 23.5t-10 60.5zM487 1407q7 36 37 60t64 24q37 0 55.5 -23.5t11.5 -60.5t-36 -60.5t-66 -23.5q-34 0 -53.5 24t-12.5 60z" />
<glyph unicode="&#xf0;" horiz-adv-x="1159" d="M104 463q29 138 122 252t219 176.5t255 62.5q64 0 118.5 -14.5t80.5 -40.5q-53 103 -174 303l-260 -133l-29 107l232 118q-70 112 -164 242h131q80 -112 131 -190l174 90l29 -107l-146 -76q175 -289 230 -444q65 -194 32 -363q-43 -202 -214.5 -339.5t-381.5 -137.5 q-131 0 -229.5 67t-141 181t-14.5 246zM211 463q-25 -105 4 -193t107.5 -140t191.5 -52q98 0 197.5 51.5t173.5 141t96 192.5q32 159 -55.5 272t-245.5 113q-156 0 -293.5 -113t-175.5 -272z" />
<glyph unicode="&#xf1;" horiz-adv-x="1228" d="M104 0l238 1116h102l-38 -213q24 31 67.5 69t105 79t140 68.5t153.5 27.5q47 0 86.5 -6t78.5 -21.5t67.5 -40.5t50.5 -66t31 -94.5t5 -128.5t-24 -167l-131 -623h-110l114 539q16 79 24 126.5t13.5 113.5t-6 105t-34.5 78t-71 56.5t-118 17.5q-123 0 -265 -98t-212 -203 l-156 -735h-111zM500 1329l22 105q8 6 23 14.5t58.5 22.5t84.5 14q66 0 152.5 -33t163.5 -33q41 0 80.5 11.5t59.5 23.5l19 12l-22 -108q-8 -5 -22.5 -13.5t-57 -22t-82.5 -13.5q-46 0 -156.5 35.5t-156.5 35.5q-41 0 -82.5 -13t-62.5 -25z" />
<glyph unicode="&#xf2;" horiz-adv-x="1296" d="M123 557q35 163 135.5 297t250.5 213.5t318 79.5q112 0 209 -46.5t159.5 -127t89.5 -188t-1 -228.5q-34 -160 -138.5 -294.5t-254.5 -213t-309 -78.5t-276.5 78.5t-166.5 213t-16 294.5zM231 557q-28 -133 4 -240t127.5 -171t241.5 -64q187 0 359 140t213 335 q28 129 -12.5 239.5t-136.5 175t-224 64.5q-198 0 -363.5 -140.5t-208.5 -338.5zM580 1509h143l184 -239h-143z" />
<glyph unicode="&#xf3;" horiz-adv-x="1296" d="M123 557q35 163 135.5 297t250.5 213.5t318 79.5q112 0 209 -46.5t159.5 -127t89.5 -188t-1 -228.5q-34 -160 -138.5 -294.5t-254.5 -213t-309 -78.5t-276.5 78.5t-166.5 213t-16 294.5zM231 557q-28 -133 4 -240t127.5 -171t241.5 -64q187 0 359 140t213 335 q28 129 -12.5 239.5t-136.5 175t-224 64.5q-198 0 -363.5 -140.5t-208.5 -338.5zM709 1270l282 239h166l-283 -239h-165z" />
<glyph unicode="&#xf4;" horiz-adv-x="1296" d="M123 557q35 163 135.5 297t250.5 213.5t318 79.5q112 0 209 -46.5t159.5 -127t89.5 -188t-1 -228.5q-34 -160 -138.5 -294.5t-254.5 -213t-309 -78.5t-276.5 78.5t-166.5 213t-16 294.5zM231 557q-28 -133 4 -240t127.5 -171t241.5 -64q187 0 359 140t213 335 q28 129 -12.5 239.5t-136.5 175t-224 64.5q-198 0 -363.5 -140.5t-208.5 -338.5zM467 1270l383 315h84l246 -315h-121l-178 213l-283 -213h-131z" />
<glyph unicode="&#xf5;" horiz-adv-x="1294" d="M123 557q35 163 135.5 297t250.5 213.5t318 79.5q112 0 209 -46.5t159.5 -127t89.5 -188t-1 -228.5q-34 -160 -138.5 -294.5t-254.5 -213t-309 -78.5t-276.5 78.5t-166.5 213t-16 294.5zM231 557q-28 -133 4 -240t127.5 -171t241.5 -64q187 0 359 140t213 335 q28 129 -12.5 239.5t-136.5 175t-224 64.5q-198 0 -363.5 -140.5t-208.5 -338.5zM510 1288l22 105q8 6 23 14.5t58.5 22.5t84.5 14q66 0 152.5 -33t163.5 -33q41 0 81 12t59 24l20 11l-23 -108q-8 -5 -22.5 -13.5t-57 -22t-82.5 -13.5q-46 0 -156.5 35.5t-156.5 35.5 q-41 0 -82.5 -12.5t-62.5 -25.5z" />
<glyph unicode="&#xf6;" horiz-adv-x="1296" d="M123 557q35 163 135.5 297t250.5 213.5t318 79.5q112 0 209 -46.5t159.5 -127t89.5 -188t-1 -228.5q-34 -160 -138.5 -294.5t-254.5 -213t-309 -78.5t-276.5 78.5t-166.5 213t-16 294.5zM231 557q-28 -133 4 -240t127.5 -171t241.5 -64q187 0 359 140t213 335 q28 129 -12.5 239.5t-136.5 175t-224 64.5q-198 0 -363.5 -140.5t-208.5 -338.5zM584 1386q8 37 35.5 60.5t64.5 23.5q35 0 55 -24t13 -60t-37.5 -59.5t-65.5 -23.5q-37 0 -55 23t-10 60zM909 1386q7 36 37 60t64 24q37 0 55.5 -23.5t11.5 -60.5t-36 -60t-66 -23 q-34 0 -53.5 23.5t-12.5 59.5z" />
<glyph unicode="&#xf7;" horiz-adv-x="946" d="M143 496l25 110h719l-25 -110h-719zM344 78q6 34 33 57t61 23t52 -23t12 -57q-7 -34 -34.5 -56t-61.5 -22t-51.5 22t-10.5 56zM539 993q6 34 33 57t61 23q33 0 51 -23t12 -57q-7 -34 -34.5 -56t-61.5 -22t-51 22t-10 56z" />
<glyph unicode="&#xf8;" horiz-adv-x="1296" d="M47 78l129 106q-99 165 -53 373q35 163 135.5 297t250.5 213.5t318 79.5q100 0 188 -37.5t152 -105.5l136 112l61 -78l-135 -112q98 -164 55 -369q-34 -160 -138.5 -294.5t-254.5 -213t-309 -78.5q-212 0 -344 135l-132 -106zM231 557q-38 -175 31 -301l815 674 q-109 106 -274 106q-198 0 -363.5 -140.5t-208.5 -338.5zM322 176q105 -94 282 -94q187 0 359 140t213 335q34 160 -39 293z" />
<glyph unicode="&#xf9;" horiz-adv-x="1218" d="M145.5 314.5q1.5 80.5 22.5 179.5l131 622h111l-115 -538q-15 -70 -22 -109t-13.5 -99.5t-2 -95.5t18.5 -77t42.5 -64t75.5 -37.5t112 -15.5q124 0 255 96t204 205l155 735h111l-238 -1116h-102l37 213q-85 -106 -201.5 -175t-263.5 -69q-54 0 -100 11t-87.5 34.5t-70 65 t-45 98t-15 137zM555 1509h143l185 -239h-144z" />
<glyph unicode="&#xfa;" horiz-adv-x="1218" d="M145.5 314.5q1.5 80.5 22.5 179.5l131 622h111l-115 -538q-15 -70 -22 -109t-13.5 -99.5t-2 -95.5t18.5 -77t42.5 -64t75.5 -37.5t112 -15.5q124 0 255 96t204 205l155 735h111l-238 -1116h-102l37 213q-85 -106 -201.5 -175t-263.5 -69q-54 0 -100 11t-87.5 34.5t-70 65 t-45 98t-15 137zM612 1270l283 239h166l-283 -239h-166z" />
<glyph unicode="&#xfb;" horiz-adv-x="1218" d="M145.5 314.5q1.5 80.5 22.5 179.5l131 622h111l-115 -538q-15 -70 -22 -109t-13.5 -99.5t-2 -95.5t18.5 -77t42.5 -64t75.5 -37.5t112 -15.5q124 0 255 96t204 205l155 735h111l-238 -1116h-102l37 213q-85 -106 -201.5 -175t-263.5 -69q-54 0 -100 11t-87.5 34.5t-70 65 t-45 98t-15 137zM401 1270l383 315h84l246 -315h-121l-178 213l-283 -213h-131z" />
<glyph unicode="&#xfc;" horiz-adv-x="1218" d="M145.5 314.5q1.5 80.5 22.5 179.5l131 622h111l-115 -538q-15 -70 -22 -109t-13.5 -99.5t-2 -95.5t18.5 -77t42.5 -64t75.5 -37.5t112 -15.5q124 0 255 96t204 205l155 735h111l-238 -1116h-102l37 213q-85 -106 -201.5 -175t-263.5 -69q-54 0 -100 11t-87.5 34.5t-70 65 t-45 98t-15 137zM526 1366q8 37 36 60.5t65 23.5q34 0 54 -24t13 -60t-37 -60t-65 -24q-37 0 -55.5 23.5t-10.5 60.5zM852 1366q7 36 36.5 60t63.5 24q37 0 56 -23.5t12 -60.5t-36 -60.5t-66 -23.5q-34 0 -53.5 24t-12.5 60z" />
<glyph unicode="&#xfd;" horiz-adv-x="944" d="M12 -512l400 645l-193 983h109l168 -856l524 856h127l-1006 -1628h-129zM512 1249l283 240h166l-283 -240h-166z" />
<glyph unicode="&#xfe;" horiz-adv-x="1349" d="M43 -420l416 1956h110l-135 -629q75 110 209 174t264 64q107 0 199 -43t152.5 -121t85.5 -185.5t-3 -236.5q-56 -257 -248.5 -422.5t-435.5 -165.5q-124 0 -222 65.5t-146 176.5l-135 -633h-111zM354 561q-27 -129 6 -238.5t120 -175t208 -65.5q118 0 233.5 65t199 175.5 t110.5 238.5q27 131 -4 238.5t-118.5 171t-215.5 63.5q-193 0 -345 -136.5t-194 -336.5z" />
<glyph unicode="&#xff;" horiz-adv-x="944" d="M12 -512l400 645l-193 983h109l168 -856l524 856h127l-1006 -1628h-129zM403 1346q8 37 36 60.5t65 23.5q34 0 54 -24t13 -60t-37 -60t-65 -24q-37 0 -55.5 23.5t-10.5 60.5zM729 1346q7 36 36.5 60t63.5 24q37 0 56 -23.5t12 -60.5t-36 -60.5t-66 -23.5q-34 0 -53.5 24 t-12.5 60z" />
<glyph unicode="&#x152;" horiz-adv-x="2660" d="M178 768q35 163 127 311t218.5 255t285 170t321.5 63q201 0 360.5 -110.5t227.5 -291.5l80 371h973l-25 -113h-860l-135 -637h717l-23 -112h-716l-121 -561h878l-22 -113h-991l75 356q-141 -178 -340.5 -282.5t-414.5 -104.5q-217 0 -375 107t-222 290.5t-18 401.5z M289 768q-40 -192 5 -345.5t180 -246t343 -92.5q176 0 350 91t301 249.5t166 343.5q22 115 12 217.5t-56.5 188.5t-115 149t-163.5 98t-203 35q-177 0 -351 -92t-301 -251.5t-167 -344.5z" />
<glyph unicode="&#x153;" horiz-adv-x="2209" d="M127 557q35 163 135.5 297t250.5 213.5t318 79.5q160 0 282 -90.5t167 -237.5q86 150 222 238t304 88q133 0 232.5 -80t142.5 -215.5t19 -294.5h-912q-23 -99 -11.5 -185.5t49 -150t114.5 -100.5t184 -37t216 49t175 123l70 -68q-79 -96 -213 -155.5t-270 -59.5 q-170 0 -280.5 90.5t-141.5 243.5q-103 -152 -262.5 -243t-331.5 -91q-159 0 -276.5 78.5t-166.5 213t-16 294.5zM238 557q-42 -201 56.5 -338t293.5 -137q130 0 257.5 63t218.5 173t118 239l4 25q31 190 -77.5 322t-299.5 132q-129 0 -251 -65t-207 -174.5t-113 -239.5z M1321 666h786q-6 168 -89.5 269.5t-229.5 102.5q-153 1 -278 -103t-189 -269z" />
<glyph unicode="&#x178;" horiz-adv-x="1206" d="M254 1536h115l278 -899l656 899h135l-754 -1028l-106 -508h-113l106 508zM614 1710q8 37 36 60.5t65 23.5q34 0 54 -24t13 -60t-37 -60t-65 -24q-37 0 -55.5 23.5t-10.5 60.5zM940 1710q7 36 36.5 60t63.5 24q37 0 56 -23.5t12 -60.5t-36 -60.5t-66 -23.5q-34 0 -53.5 24 t-12.5 60z" />
<glyph unicode="&#x2c6;" horiz-adv-x="907" d="M262 1270l383 315h84l246 -315h-121l-178 213l-283 -213h-131z" />
<glyph unicode="&#x2dc;" horiz-adv-x="1017" d="M412 1391l22 104q8 6 23 14.5t58.5 22.5t84.5 14q66 0 152 -32.5t163 -32.5q41 0 81 11.5t60 23.5l19 12l-22 -109q-8 -5 -22.5 -13.5t-57 -22t-82.5 -13.5q-46 0 -156.5 36t-156.5 36q-41 0 -82.5 -13t-62.5 -25z" />
<glyph unicode="&#x2000;" horiz-adv-x="1033" />
<glyph unicode="&#x2001;" horiz-adv-x="2066" />
<glyph unicode="&#x2002;" horiz-adv-x="1033" />
<glyph unicode="&#x2003;" horiz-adv-x="2066" />
<glyph unicode="&#x2004;" horiz-adv-x="688" />
<glyph unicode="&#x2005;" horiz-adv-x="516" />
<glyph unicode="&#x2006;" horiz-adv-x="344" />
<glyph unicode="&#x2007;" horiz-adv-x="344" />
<glyph unicode="&#x2008;" horiz-adv-x="258" />
<glyph unicode="&#x2009;" horiz-adv-x="413" />
<glyph unicode="&#x200a;" horiz-adv-x="114" />
<glyph unicode="&#x2010;" horiz-adv-x="856" d="M219 555l25 111h520l-25 -111h-520z" />
<glyph unicode="&#x2011;" horiz-adv-x="856" d="M219 555l25 111h520l-25 -111h-520z" />
<glyph unicode="&#x2012;" horiz-adv-x="856" d="M219 555l25 111h520l-25 -111h-520z" />
<glyph unicode="&#x2013;" horiz-adv-x="980" d="M176 555l25 111h719l-25 -111h-719z" />
<glyph unicode="&#x2014;" horiz-adv-x="1306" d="M158 555l24 111h1092l-25 -111h-1091z" />
<glyph unicode="&#x2018;" horiz-adv-x="536" d="M281 936l127 600h102l-127 -600h-102z" />
<glyph unicode="&#x2019;" horiz-adv-x="536" d="M281 936l127 600h102l-127 -600h-102z" />
<glyph unicode="&#x201a;" horiz-adv-x="536" d="M180 0l127 600h103l-127 -600h-103z" />
<glyph unicode="&#x201c;" horiz-adv-x="919" d="M303 936l127 600h102l-126 -600h-103zM651 936l127 600h103l-127 -600h-103z" />
<glyph unicode="&#x201d;" horiz-adv-x="919" d="M303 936l127 600h102l-126 -600h-103zM651 936l127 600h103l-127 -600h-103z" />
<glyph unicode="&#x201e;" horiz-adv-x="919" d="M203 0l127 600h102l-127 -600h-102zM551 0l127 600h102l-127 -600h-102z" />
<glyph unicode="&#x2026;" horiz-adv-x="1429" d="M121 57q8 34 35 57t61 23t52 -23t10 -57q-6 -33 -34.5 -55t-62.5 -22t-50.5 21.5t-10.5 55.5zM684 57q8 34 35 57t61 23t52 -23t10 -57q-6 -33 -34.5 -55t-62.5 -22t-50.5 21.5t-10.5 55.5zM1243 57q8 34 35 57t61 23t52 -23t10 -57q-6 -33 -34 -55t-62 -22t-51 21.5 t-11 55.5z" />
<glyph unicode="&#x202f;" horiz-adv-x="413" />
<glyph unicode="&#x2039;" horiz-adv-x="856" d="M250 752l461 522h133l-467 -543l225 -502h-115z" />
<glyph unicode="&#x203a;" horiz-adv-x="872" d="M268 229l469 541l-237 504h127l237 -522l-463 -523h-133z" />
<glyph unicode="&#x205f;" horiz-adv-x="516" />
<glyph unicode="&#x20ac;" horiz-adv-x="1566" d="M109 557l22 107h107q3 40 12 84q10 46 20 79h-104l22 107h119q99 266 315 429t494 163q185 0 319.5 -75.5t202.5 -213.5l-106 -68q-54 112 -169 178t-269 66q-226 0 -401 -130t-271 -349h539l-23 -107h-555q-22 -74 -23 -79q-12 -58 -12 -84h555l-22 -107h-539 q-3 -103 24 -187.5t85 -148.5t154.5 -99.5t225.5 -35.5q330 0 555 264l74 -65q-124 -152 -289.5 -234t-363.5 -82q-277 0 -430 161.5t-148 426.5h-120z" />
<glyph unicode="&#x25fc;" horiz-adv-x="1116" d="M0 0v1116h1116v-1116h-1116z" />
</font>
</defs>
</svg>
