<?xml version="1.0" standalone="no"?>
<!DOCTYPE svg PUBLIC "-//W3C//DTD SVG 1.1//EN" "http://www.w3.org/Graphics/SVG/1.1/DTD/svg11.dtd" >
<svg xmlns="http://www.w3.org/2000/svg">
<metadata></metadata>
<defs>
<font id="pontiacregular_italic" horiz-adv-x="1329" >
<font-face units-per-em="2048" ascent="1536" descent="-512" />
<missing-glyph horiz-adv-x="718" />
<glyph horiz-adv-x="0" />
<glyph horiz-adv-x="682" />
<glyph unicode=" "  horiz-adv-x="718" />
<glyph unicode="&#x09;" horiz-adv-x="718" />
<glyph unicode="&#xa0;" horiz-adv-x="718" />
<glyph unicode="!" horiz-adv-x="514" d="M86 100q9 50 50.5 84.5t92.5 34.5t78.5 -34.5t18.5 -84.5q-11 -50 -54 -85t-94 -35q-50 0 -76.5 35t-15.5 85zM176 387l246 1149h182l-246 -1149h-182z" />
<glyph unicode="&#x22;" horiz-adv-x="919" d="M248 932l129 604h172l-129 -604h-172zM616 932l129 604h173l-130 -604h-172z" />
<glyph unicode="#" horiz-adv-x="1247" d="M96 473l35 162h223l103 266h-209l35 162h237l187 473h163l-184 -473h264l187 473h163l-184 -473h209l-35 -162h-237l-103 -266h213l-35 -162h-241l-185 -473h-165l184 473h-264l-185 -473h-166l185 473h-195zM520 635h264l103 266h-264z" />
<glyph unicode="$" horiz-adv-x="1167" d="M55 283l152 102q17 -25 22.5 -33t29 -38t39.5 -45.5t47 -40.5t59 -38t66.5 -23.5t78.5 -10.5q144 0 239 67.5t113 173.5q9 55 -6.5 99.5t-60.5 82t-102.5 68.5t-149.5 68q-115 47 -183 101t-100 138.5t-16 200.5q10 69 47 134.5t97.5 120t152 87.5t198.5 33 q67 0 124.5 -8.5t119 -30.5t119 -66t106.5 -108l-162 -103q-58 71 -140 102.5t-204 31.5q-101 0 -176.5 -56.5t-95.5 -134.5q-12 -37 -6 -73.5t30.5 -70.5t81.5 -69.5t148 -71.5q76 -30 131.5 -59t108.5 -71t83.5 -90t44.5 -113.5t3 -143.5q-12 -87 -53 -162.5t-109.5 -135 t-172 -94t-229.5 -34.5q-108 0 -204 47t-159.5 114.5t-111.5 152.5zM356 -215l43 197l176 -11l-40 -186h-179zM727 1522l39 186h178l-39 -188z" />
<glyph unicode="%" horiz-adv-x="1538" d="M127 0l1221 1495h198l-1220 -1495h-199zM219 1174q24 144 144.5 248t273.5 104q133 0 221.5 -105t65.5 -247q-25 -151 -146.5 -253t-281.5 -102q-134 0 -217.5 104t-59.5 251zM375 1174q-17 -85 24.5 -141t122.5 -56q90 0 160.5 56.5t85.5 140.5q17 86 -30.5 140 t-131.5 54q-75 0 -144.5 -57t-86.5 -137zM770 324q24 144 144.5 248t273.5 104q133 0 221.5 -105t65.5 -247q-25 -151 -146.5 -253t-281.5 -102q-134 0 -217.5 104t-59.5 251zM926 324q-17 -85 24.5 -141t122.5 -56q90 0 160.5 56.5t85.5 140.5q17 86 -30.5 140t-131.5 54 q-75 0 -144.5 -57t-86.5 -137z" />
<glyph unicode="&#x26;" horiz-adv-x="1359" d="M104 440q17 78 55.5 145t100 125.5t135.5 108t176 103.5q-52 102 -73.5 173.5t-14.5 133.5q17 150 129.5 238.5t286.5 88.5q63 0 119 -24.5t96.5 -67t58 -107t3.5 -138.5q-10 -52 -41 -99t-93 -94t-101.5 -72.5t-122.5 -74.5q-7 -4 -11 -6.5t-10 -6t-11 -6.5l220 -420 q31 34 66.5 77t55.5 69l19 26h188q-149 -196 -258 -329l146 -283h-201l-86 160q-101 -76 -217 -130.5t-221 -54.5q-84 0 -163.5 35t-138.5 95t-86 148.5t-6 186.5zM285 440q-27 -125 50.5 -202.5t203.5 -77.5q49 0 102 15t92.5 37t72.5 43.5t50 36.5l18 15l-243 475 q-301 -145 -346 -342zM653 1237q-7 -31 5 -75t27 -76.5t44 -88.5q133 63 200 121.5t79 118.5q14 65 -25.5 113.5t-122.5 48.5q-73 0 -132.5 -45t-74.5 -117z" />
<glyph unicode="'" horiz-adv-x="382" d="M215 932l129 604h172l-129 -604h-172z" />
<glyph unicode="(" horiz-adv-x="555" d="M62 278q-5 174 28 353q101 566 477 903l99 -125q-86 -100 -139 -169t-108.5 -163.5t-93 -202.5t-63.5 -245q-41 -206 -26 -427.5t86 -381.5l-144 -113q-51 108 -81 252.5t-35 318.5z" />
<glyph unicode=")" horiz-adv-x="555" d="M23 -164q68 79 112.5 134.5t94 130t82 146t63 165.5t51.5 204q41 206 26.5 428t-85.5 381l143 113q51 -108 81 -252.5t35 -318.5t-28 -353q-101 -566 -477 -903z" />
<glyph unicode="*" horiz-adv-x="905" d="M207 1200l78 152l233 -78l62 264h163l-61 -262l274 80l17 -156l-293 -74l133 -217q-18 -11 -68.5 -42.5t-80.5 -49.5l-113 217l-203 -219l-112 92l202 219z" />
<glyph unicode="+" horiz-adv-x="1087" d="M145 662l35 169h391l80 375h168l-80 -375h389l-34 -169h-389l-82 -379h-168l82 379h-392z" />
<glyph unicode="," horiz-adv-x="473" d="M-51 -328l301 553h225l-364 -555z" />
<glyph unicode="-" horiz-adv-x="839" d="M178 526l39 179h567l-39 -179h-567z" />
<glyph unicode="." horiz-adv-x="325" d="M96 104q10 54 54 89.5t98 35.5t81.5 -35.5t16.5 -89.5q-12 -54 -54.5 -89t-96.5 -35t-82.5 35t-16.5 89z" />
<glyph unicode="/" horiz-adv-x="1044" d="M25 0l981 1536h202l-979 -1536h-204z" />
<glyph unicode="0" horiz-adv-x="1478" d="M152 745q28 161 102 304t180 248.5t246.5 167t294.5 61.5q193 0 326.5 -105t181.5 -283t2 -393q-35 -163 -108.5 -303t-178.5 -246t-246.5 -166.5t-300.5 -60.5q-193 0 -321 104t-172 279t-6 393zM312.5 592.5q-2.5 -73.5 9.5 -140t41 -121.5t73 -95t109.5 -62t146.5 -22 q106 0 209 48.5t183.5 130.5t139 189.5t83.5 224.5q19 100 18.5 189t-28.5 163.5t-74.5 128.5t-119 84.5t-163.5 30.5q-150 0 -278 -81t-211.5 -214.5t-118.5 -300.5q-17 -79 -19.5 -152.5z" />
<glyph unicode="1" horiz-adv-x="731" d="M233 1321l37 174h529l-318 -1495h-182l281 1321h-347z" />
<glyph unicode="2" horiz-adv-x="1167" d="M29 0l20 98l531 490q27 25 89 77t108 94t98 94.5t84 104.5t40 99q20 127 -48.5 208t-196.5 81q-56 0 -111.5 -18t-110 -56.5t-98 -109.5t-63.5 -167h-176q25 131 82 233t135.5 166t172 97t197.5 33q124 0 222 -68t144 -175.5t30 -223.5q-6 -44 -20 -83.5t-42 -82 t-53 -74.5t-75 -82t-83.5 -81.5t-104 -96t-112.5 -104.5q-26 -25 -102.5 -93t-139.5 -123l-63 -55h676l-39 -182h-991z" />
<glyph unicode="3" horiz-adv-x="1105" d="M14 287l164 84q38 -82 107 -143t176 -72q85 -9 174.5 27t155.5 106t83 153q14 66 -3.5 123t-56 96.5t-95 69.5t-115.5 47t-123 25l29 133l469 387h-610l37 172h845l-37 -172l-479 -393q171 -65 256.5 -183.5t59.5 -310.5q-20 -147 -115 -259t-236.5 -165t-296.5 -37 q-67 7 -125.5 32t-99 57t-75 74t-54.5 77t-35 72z" />
<glyph unicode="4" horiz-adv-x="1105" d="M-14 195l856 1300h194l-729 -1116h545l47 221h172l-127 -600h-172l41 195h-827z" />
<glyph unicode="5" horiz-adv-x="1146" d="M51 299l174 70q30 -86 99.5 -150.5t177.5 -64.5q149 0 265.5 89.5t145.5 225.5q13 55 7.5 98.5t-21 77.5t-45 59t-63 42t-75.5 27.5t-83 15t-86 4.5q-121 0 -254 -52l-96 60l147 694h856l-37 -172h-682l-82 -383q82 27 197 27q88 0 166 -16.5t146.5 -54.5t114 -95 t65 -143.5t2.5 -194.5q-33 -214 -202 -353t-405 -139q-88 0 -165.5 32.5t-130 84t-86.5 105.5t-50 106z" />
<glyph unicode="6" horiz-adv-x="1126" d="M86 469q37 166 166 346l493 680h203l-422 -582q73 41 164 41q94 0 174.5 -39t133 -104.5t75.5 -155t8 -186.5q-16 -101 -73.5 -194t-139.5 -159t-184.5 -105.5t-204.5 -39.5q-136 0 -236.5 66.5t-143 181t-13.5 250.5zM260 475q-30 -137 38.5 -230t215.5 -93 q132 0 247 95t144 228q28 131 -47.5 222t-208.5 91q-135 0 -248 -90.5t-141 -222.5z" />
<glyph unicode="7" horiz-adv-x="1101" d="M147 0l861 1317h-772l38 178h1051l-975 -1495h-203z" />
<glyph unicode="8" horiz-adv-x="1103" d="M88 446q29 137 125 252t229 176q-58 50 -80 125.5t-2 163.5q31 151 155 256t276 105q142 0 228 -106t60 -255q-14 -85 -70.5 -161t-136.5 -128q105 -61 153 -176t19 -252q-27 -130 -114.5 -240t-211 -173.5t-253.5 -63.5q-121 0 -217.5 63.5t-141.5 174.5t-18 239z M268 457q-29 -128 34.5 -213.5t201.5 -85.5q72 0 150 39.5t137.5 109.5t76.5 150q26 125 -43.5 213t-193.5 88q-123 0 -229 -88t-134 -213zM524 1159q-17 -82 26.5 -137t125.5 -55q83 0 150.5 55t84.5 137q19 83 -27 139t-130 56q-81 0 -146 -55.5t-84 -139.5z" />
<glyph unicode="9" horiz-adv-x="1126" d="M203 1026q21 135 108 250t214 181.5t263 66.5q94 0 179.5 -39.5t145 -105.5t85 -159.5t4.5 -193.5q-33 -150 -174 -346l-489 -680h-203l422 582q-73 -41 -164 -41q-94 0 -174.5 39t-133 104.5t-75.5 155t-8 186.5zM373 1026q-28 -131 47.5 -222t208.5 -91q135 0 248 90.5 t141 222.5q30 137 -39 230.5t-215 93.5q-132 0 -247 -95t-144 -229z" />
<glyph unicode=":" horiz-adv-x="419" d="M55 100q9 50 51 84.5t93 34.5t78 -34.5t18 -84.5q-11 -50 -54 -85t-94 -35q-50 0 -76.5 35t-15.5 85zM246 997q9 50 50.5 84.5t92.5 34.5t78 -34.5t18 -84.5q-11 -50 -53.5 -85t-93.5 -35q-50 0 -76.5 35t-15.5 85z" />
<glyph unicode=";" horiz-adv-x="520" d="M-154 -328l299 553h226l-363 -555zM299 995q12 54 55 89.5t97 35.5t82 -35.5t16 -89.5q-10 -54 -54 -89.5t-98 -35.5t-81.5 35.5t-16.5 89.5z" />
<glyph unicode="&#x3c;" horiz-adv-x="839" d="M190 750l472 532h204l-477 -553l234 -512h-189z" />
<glyph unicode="=" horiz-adv-x="1124" d="M170 383l39 182h807l-39 -182h-807zM272 860l39 182h807l-39 -182h-807z" />
<glyph unicode="&#x3e;" horiz-adv-x="856" d="M180 217l502 574l-229 491h178l241 -532l-469 -533h-223z" />
<glyph unicode="?" horiz-adv-x="1136" d="M199 1065q42 216 211.5 359t402.5 143q100 0 182.5 -32t138 -92.5t76.5 -148t-2 -198.5q-9 -45 -30.5 -88.5t-40.5 -72.5t-58.5 -69.5t-57.5 -56.5t-67 -57.5t-59 -49.5q-17 -15 -57.5 -48.5t-57.5 -50t-42.5 -46t-40 -61.5t-23.5 -72l-6 -37h-179l7 37q7 51 28 99 t46.5 84t63.5 74.5t67.5 63t71.5 58.5t63 53q64 57 94 85.5t59.5 70t42.5 84.5q20 79 9 134.5t-52 91t-94.5 51.5t-118.5 16q-135 0 -251.5 -89.5t-147.5 -234.5h-178zM401 100q11 50 52 84.5t92 34.5t79 -34.5t17 -84.5t-53.5 -85t-93.5 -35t-77.5 35t-15.5 85z" />
<glyph unicode="@" horiz-adv-x="1800" d="M170 643q27 160 110.5 304.5t209 254t297.5 174t364 64.5q107 0 203 -28.5t170.5 -80t132.5 -124t88.5 -160.5t38.5 -189.5t-17 -210.5q-27 -127 -91.5 -230t-142.5 -163.5t-156 -92.5t-144 -32q-50 0 -90 13.5t-71.5 45.5t-38.5 84.5t9 130.5q-50 -56 -129 -93.5 t-149 -37.5q-75 0 -129.5 33t-79.5 89t-28 129t26 153q55 159 191.5 268t289.5 109q71 0 126.5 -38t62.5 -93l47 112h149l-213 -616q-44 -125 64 -125q91 0 193 99t134 247q19 104 14.5 197.5t-42 173t-97.5 138t-151 91.5t-203 33q-185 0 -351 -83.5t-278.5 -227 t-150.5 -318.5q-22 -118 -18 -211.5t38 -164.5t84 -121t119.5 -81.5t144 -46t158.5 -14.5h41l-37 -170q-20 -2 -55 -2q-168 0 -301.5 57t-220 160.5t-119.5 256.5t-2 337zM701.5 583q-1.5 -43 10 -77t40.5 -55t71 -21q85 0 166.5 73t112.5 165q33 88 2.5 159.5t-109.5 71.5 q-85 0 -165.5 -69t-110.5 -160q-16 -44 -17.5 -87z" />
<glyph unicode="A" horiz-adv-x="1376" d="M82 0l211 997q60 276 226.5 422t389.5 146q79 0 150.5 -22.5t131.5 -68t99 -113.5q40 -68 54 -159q6 -39 6 -83q0 -57 -11 -122l-211 -997h-180l90 426h-682l-90 -426h-184zM395 604h682l80 375q14 69 14 127q0 105 -46 172q-71 104 -232 104q-162 0 -269.5 -103 t-148.5 -300z" />
<glyph unicode="B" horiz-adv-x="1312" d="M111 0l325 1536h498q200 0 309 -112q84 -86 84 -211q0 -38 -8 -80q-19 -103 -89.5 -187.5t-166.5 -114.5l-2 -10q7 0 29 -12.5t53.5 -40.5t56.5 -72q24 -46 37 -110q6 -30 7 -64q0 -40 -9 -86q-35 -203 -186.5 -319.5t-372.5 -116.5h-565zM328 178h172q51 0 82 0.5t79 3 t78.5 7t71.5 13.5t68 22t57.5 32.5t50.5 44.5t36.5 59.5t25.5 75.5q8 37 8.5 68t-7 56t-19.5 45t-32 35.5t-42 27t-53 19.5t-61.5 13t-70 8t-76 4t-82.5 1h-172zM477 885h340q115 0 205.5 71t112.5 177q6 26 6 50q1 69 -47 117q-64 64 -195 64h-319z" />
<glyph unicode="C" horiz-adv-x="1509" d="M162 766q27 164 114.5 312t211.5 255.5t281.5 170.5t320.5 63q167 0 313 -82t227 -211l-170 -105q-60 90 -161 150.5t-244 60.5q-156 0 -306.5 -83t-258 -225t-140.5 -306q-14 -75 -13 -144q0 -23 1 -46q6 -90 43 -166.5t94 -132.5t141 -87.5t183 -31.5q147 0 281.5 68.5 t238.5 183.5l127 -121q-129 -150 -301 -235t-365 -85q-217 0 -372 106q-154 105 -218 287q-41 115 -41 248q0 75 13 156z" />
<glyph unicode="D" horiz-adv-x="1501" d="M111 0l325 1536h428q156 0 287.5 -59.5t216.5 -161.5q86 -101 122 -245q20 -79 20 -165q0 -68 -13 -139q-30 -167 -117.5 -310.5t-214 -243t-288 -156t-336.5 -56.5h-430zM332 180h209q184 0 344 71.5t272.5 205.5t151.5 309q17 72 17 137q0 51 -10 99 q-24 108 -86.5 187.5t-167 124t-235.5 44.5h-243z" />
<glyph unicode="E" horiz-adv-x="1294" d="M111 0l325 1536h1002l-37 -178h-817l-115 -539h680l-39 -178h-680l-98 -461h833l-37 -180h-1017z" />
<glyph unicode="F" horiz-adv-x="1241" d="M111 0l325 1536h981l-37 -178h-796l-115 -539h659l-38 -178h-660l-135 -641h-184z" />
<glyph unicode="G" horiz-adv-x="1622" d="M166 766q27 164 114.5 312t211.5 255.5t281.5 170.5t320.5 63q167 0 313 -82t227 -211l-170 -105q-60 90 -161 150.5t-244 60.5q-156 0 -306.5 -83t-258 -225t-140.5 -306q-17 -73 -17 -142q0 -9 1 -18q2 -77 19 -145t56.5 -124.5t93.5 -97t131 -63t169 -22.5 q280 0 473 120l78 367h-408l39 178h586l-135 -631q-136 -110 -306 -164.5t-350 -54.5q-217 0 -371.5 106t-218.5 287q-41 116 -41 248q0 75 13 156z" />
<glyph unicode="H" horiz-adv-x="1540" d="M111 0l325 1536h185l-152 -717h786l152 717h184l-325 -1536h-185l136 639h-787l-135 -639h-184z" />
<glyph unicode="I" horiz-adv-x="569" d="M111 0l325 1536h185l-326 -1536h-184z" />
<glyph unicode="J" horiz-adv-x="1091" d="M-10 207l155 102q12 -22 30.5 -44.5t49.5 -50t77 -45t99 -17.5q141 0 236 93t139 302l211 989h184l-210 -989q-31 -143 -79.5 -248.5t-103.5 -167.5t-125 -99.5t-133.5 -50t-140.5 -12.5q-72 0 -137 22t-112.5 59.5t-81 75.5t-58.5 81z" />
<glyph unicode="K" horiz-adv-x="1343" d="M111 0l325 1536h180l-174 -829l844 829h221l-661 -659l393 -877h-197l-331 739l-334 -331l-86 -408h-180z" />
<glyph unicode="L" horiz-adv-x="1216" d="M111 0l325 1536h185l-289 -1356h796l-36 -180h-981z" />
<glyph unicode="M" horiz-adv-x="1941" d="M111 0l335 1569l588 -817l965 817l-334 -1569h-182l241 1116q-97 -85 -359.5 -310.5t-365.5 -316.5l-467 639l-243 -1128h-178z" />
<glyph unicode="N" horiz-adv-x="1587" d="M111 0l333 1571l775 -1157l237 1122h182l-333 -1571l-775 1147l-237 -1112h-182z" />
<glyph unicode="O" horiz-adv-x="1769" d="M163 513q-4 41 -4 83q0 82 15 170q43 220 181 403t343 290.5t432 107.5q156 0 287 -63t215 -170q84 -108 118 -256q19 -80 18 -166q0 -72 -13 -146q-29 -162 -121 -310t-221.5 -254.5t-292 -169.5t-327.5 -63q-130 0 -242 40.5t-191.5 113t-132 172t-64.5 218.5zM344 578 q4 -90 40.5 -167t95 -133t148.5 -88t201 -32q158 0 317 83.5t274 224t149 300.5q16 72 16 139q-1 90 -29 171q-50 141 -171.5 222.5t-290.5 81.5q-158 0 -313 -81.5t-269 -223.5t-152 -309q-17 -82 -17 -158q0 -15 1 -30z" />
<glyph unicode="P" horiz-adv-x="1314" d="M111 0l325 1536h479q112 0 206.5 -42t156.5 -115.5t90 -179.5q17 -66 16 -137q0 -44 -6 -91q-17 -120 -82.5 -223t-160.5 -173t-212.5 -109.5t-238.5 -39.5h-301l-90 -426h-182zM420 604h301q166 0 301.5 102t169.5 265q11 51 11 96q-1 106 -61 182q-86 109 -263 109 h-297z" />
<glyph unicode="Q" horiz-adv-x="1792" d="M163 513q-4 41 -4 83q0 82 15 170q43 220 181 403t343 290.5t432 107.5q156 0 287 -63t214.5 -170.5t118.5 -255.5q18 -80 18 -166q0 -71 -13 -146q-52 -290 -280 -508l155 -192l-145 -119l-156 194q-252 -172 -536 -172q-130 0 -242 40.5t-191.5 113t-132 172 t-64.5 218.5zM344 578q4 -90 40.5 -167t95 -133t148.5 -88t201 -32q199 0 388 127l-148 188l145 119l148 -189q164 164 207 363q16 72 16 139q0 90 -29 171q-49 141 -171 222.5t-291 81.5q-158 0 -313 -81.5t-269 -223.5t-152 -309q-17 -82 -17 -158q0 -16 1 -30z" />
<glyph unicode="R" horiz-adv-x="1343" d="M111 0l325 1536h479q112 0 206.5 -42t156.5 -115.5t90 -179.5q17 -66 16 -137q0 -44 -6 -91q-25 -177 -148 -310t-298 -194l201 -467h-195l-182 430q-46 -4 -72 -4h-301l-90 -426h-182zM420 604h301q166 0 301.5 102t169.5 265q11 51 11 96q-1 106 -61 182 q-86 109 -263 109h-297z" />
<glyph unicode="S" horiz-adv-x="1173" d="M55 289l152 102l6 -9q21 -31 35.5 -51t48.5 -57t67 -59.5t82.5 -40.5t102.5 -18q142 0 238 73t114 181q3 20 3 39q0 81 -62 138q-77 71 -260 146q-114 46 -182 102q-69 57 -101 143q-21 58 -21 128q0 35 5 74q10 69 47 136.5t97.5 124t152 91.5t198.5 35q140 0 257 -48 t212 -171l-162 -103q-59 72 -141.5 105.5t-202.5 33.5q-99 0 -175.5 -61t-96.5 -141q-8 -24 -7 -48q0 -12 2 -26q6 -38 30 -73t81.5 -71.5t147.5 -72.5q75 -30 131.5 -60t109 -72.5t82.5 -90.5q31 -50 45 -116q8 -37 7 -78q0 -32 -4 -66q-12 -87 -53 -164.5t-109 -139.5 t-172 -98.5t-230 -36.5q-82 0 -157 27t-133.5 74t-104 101.5t-80.5 117.5z" />
<glyph unicode="T" horiz-adv-x="1232" d="M248 1356l39 180h1147l-39 -180h-482l-286 -1356h-185l287 1356h-481z" />
<glyph unicode="U" horiz-adv-x="1533" d="M201 539l213 997h184l-209 -979q-12 -57 -12 -107q0 -112 61 -184q88 -106 275 -106q72 0 151.5 28t151.5 77t127.5 126t75.5 166l208 979h185l-213 -997q-29 -136 -106 -247.5t-179 -179.5t-214 -104.5t-220 -36.5t-205.5 39.5t-169 110t-101.5 180.5q-16 58 -16 121 q0 56 13 117z" />
<glyph unicode="V" horiz-adv-x="1353" d="M270 1536h176l226 -1079h10l698 1079h201l-989 -1563z" />
<glyph unicode="W" horiz-adv-x="1890" d="M276 1536h175l206 -1079h11l297 469l-115 610h174l205 -1079h10l676 1079h201l-969 -1563l-135 707l-439 -707z" />
<glyph unicode="X" horiz-adv-x="1351" d="M-66 0l719 823l-315 713h205l245 -557l486 557h248l-650 -743l351 -793h-203l-285 637l-555 -637h-246z" />
<glyph unicode="Y" horiz-adv-x="1314" d="M279 1536h182l252 -821l616 821h207l-764 -1026l-108 -510h-185l109 510z" />
<glyph unicode="Z" horiz-adv-x="1300" d="M-55 0l1196 1356h-781l39 180h1123l-1188 -1354h878l-38 -182h-1229z" />
<glyph unicode="[" horiz-adv-x="655" d="M41 -211l383 1798h385l-39 -178h-205l-307 -1442h205l-37 -178h-385z" />
<glyph unicode="\" horiz-adv-x="1069" d="M315 1536h177l428 -1536h-179z" />
<glyph unicode="]" horiz-adv-x="655" d="M-14 -211l34 178h205l307 1442h-204l39 178h385l-383 -1798h-383z" />
<glyph unicode="^" horiz-adv-x="888" d="M182 1270l379 315h113l248 -315h-199l-143 143l-199 -143h-199z" />
<glyph unicode="_" horiz-adv-x="1273" d="M12 -182l39 182h1192l-39 -182h-1192z" />
<glyph unicode="`" horiz-adv-x="1126" d="M498 1536h213l190 -240h-213z" />
<glyph unicode="a" d="M123 557q27 163 125.5 299t239.5 212.5t292 76.5q99 0 208 -61.5t149 -145.5l51 178h164l-236 -1116h-164l23 178q-66 -88 -186 -147.5t-232 -59.5q-159 0 -267 75q-110 76 -152 208q-26 81 -25 177q0 60 10 126zM309 557q-11 -53 -11 -101q0 -106 55 -186 q80 -116 247 -116q164 0 293.5 116.5t165.5 286.5q11 48 11 94q0 59 -18 111q-30 94 -106 149.5t-180 55.5q-164 0 -292.5 -118.5t-164.5 -291.5z" />
<glyph unicode="b" horiz-adv-x="1361" d="M82 0l328 1536h178l-127 -598q66 88 181 147.5t226 59.5q149 0 258 -77q110 -78 158 -212q34 -94 34 -202q0 -47 -7 -97q-16 -126 -80 -236t-156.5 -186.5t-208.5 -120t-237 -43.5q-109 0 -198.5 59.5t-131.5 147.5l-53 -178h-164zM375 557q-11 -53 -11 -100 q0 -107 56 -187q80 -116 244 -116q99 0 197 53.5t169.5 147t93.5 202.5q10 49 10 94q0 111 -60 196q-84 120 -247 120q-156 0 -286 -120t-166 -290z" />
<glyph unicode="c" horiz-adv-x="1126" d="M121 555q23 122 85 230.5t150 188t204.5 125.5t242.5 46t239.5 -59.5t159.5 -155.5l-155 -99q-44 68 -119 102t-162 34q-163 0 -296 -121.5t-169 -290.5q-12 -56 -12 -105q1 -107 57 -185q82 -113 270 -113q183 0 336 159l115 -106q-95 -111 -221 -173.5t-268 -62.5 q-160 0 -276 78q-116 79 -164 213q-29 82 -29 173q0 59 12 122z" />
<glyph unicode="d" horiz-adv-x="1353" d="M117 557q29 165 126 299.5t240 211.5t303 77q112 0 211 -59.5t133 -147.5l127 598h179l-328 -1536h-164l25 178q-66 -88 -187 -147.5t-233 -59.5q-159 0 -268.5 75.5t-151.5 208.5q-25 78 -25 167q0 65 13 135zM294 400q11 -73 44.5 -128t99 -86.5t154.5 -31.5 q165 0 295 116.5t166 286.5q10 49 10 94q0 59 -16 111q-29 94 -103.5 149.5t-177.5 55.5q-164 0 -295.5 -119.5t-167.5 -290.5q-13 -54 -13 -104q0 -27 4 -53z" />
<glyph unicode="e" horiz-adv-x="1155" d="M123 555q28 165 112 298t218.5 212.5t296.5 79.5q92 0 174 -44t138 -118.5t82 -181.5q15 -63 14 -130q0 -47 -7 -96l-10 -51h-842q-11 -49 -11 -93q0 -49 13 -93q24 -84 93 -135t173 -51q211 0 344 143l121 -113q-91 -99 -221.5 -156t-282.5 -57q-156 0 -258 81 q-102 80 -138 212q-20 75 -21 159q0 64 12 134zM340 690h653q-7 126 -83.5 201.5t-190.5 75.5q-126 0 -223 -73.5t-156 -203.5z" />
<glyph unicode="f" horiz-adv-x="798" d="M90 0l199 940h-154l39 176h154l30 152q32 148 133 223.5t232 75.5q81 0 165 -38t136 -110l-158 -100q-62 72 -161 72q-49 0 -100.5 -31t-65.5 -92l-31 -152h301l-39 -176h-301l-199 -940h-180z" />
<glyph unicode="g" horiz-adv-x="1327" d="M74 -305l153 98q47 -74 115.5 -112.5t175.5 -38.5q161 0 298 119t173 284l27 133q-66 -88 -186 -147.5t-232 -59.5q-159 0 -269 75.5t-152 208.5q-24 77 -24 165q0 65 13 137q30 166 124.5 300t235 211t299.5 77q113 0 214 -59t139 -148l53 178h164l-228 -1071 q-26 -122 -88.5 -229t-151 -186.5t-205.5 -125t-245 -45.5q-137 0 -239.5 66t-163.5 170zM341 400q11 -73 44.5 -128t99 -86.5t154.5 -31.5q165 0 295 116.5t166 286.5q10 48 10 93q0 58 -16 112q-30 94 -105 149.5t-178 55.5q-164 0 -294.5 -119.5t-166.5 -290.5 q-13 -54 -13 -104q0 -27 4 -53z" />
<glyph unicode="h" horiz-adv-x="1286" d="M82 0l326 1536h176l-131 -614q86 97 196.5 160t233.5 63q55 0 103 -10t95 -33.5t78 -62.5t53 -97q21 -55 21 -129q-1 -5 -1 -10q-2 -80 -20 -185l-131 -618h-184l115 541q18 80 24 139q3 31 3 61q0 29 -3 55q-6 56 -28.5 92t-68 57.5t-114.5 21.5q-120 0 -241.5 -92 t-182.5 -197l-143 -678h-176z" />
<glyph unicode="i" horiz-adv-x="487" d="M74 0l237 1116h183l-238 -1116h-182zM340 1376q9 49 51 84t92 35q49 -1 77 -35q21 -26 20 -60q0 -11 -2 -24q-10 -49 -53 -84t-93 -35q-49 1 -76 35q-19 25 -19 56q0 14 3 28z" />
<glyph unicode="j" horiz-adv-x="811" d="M-139 -346l149 96q28 -46 77 -83.5t103 -37.5q77 0 139 61.5t93 207.5l260 1218h178l-260 -1218q-22 -105 -55.5 -183t-72.5 -126.5t-90 -78t-103 -40.5t-117 -11q-96 0 -178 60t-123 135zM711 1376q9 49 51 84t92 35q49 0 76 -35q20 -25 20 -60q0 -12 -2 -24 q-10 -49 -52.5 -84t-92.5 -35q-49 0 -76 35q-19 24 -19 56q0 14 3 28z" />
<glyph unicode="k" horiz-adv-x="1060" d="M82 0l326 1536h176l-211 -993l596 573h217l-494 -491l283 -625h-197l-223 489l-246 -241l-51 -248h-176z" />
<glyph unicode="l" horiz-adv-x="505" d="M82 0l326 1536h178l-326 -1536h-178z" />
<glyph unicode="m" horiz-adv-x="2017" d="M92 0l238 1116h168l-29 -194q47 51 85.5 86t90 69t110.5 51t126 17q115 0 201 -57t114 -166q119 123 223.5 173t239.5 50q42 0 81 -7t77.5 -24t69 -44t54 -68.5t35.5 -95.5q10 -44 10 -102v-25q-2 -74 -22 -161l-131 -618h-182l114 541q12 59 19 101q8 42 12 90 q2 25 2 46q0 20 -2 34q-4 32 -16.5 63.5t-35.5 50t-59 30t-86 11.5q-67 0 -131.5 -27.5t-115.5 -72.5t-89 -92t-67 -97q-2 -9 -5 -30t-5 -30l-131 -618h-183l115 541q12 59 19 101q8 42 12 90q2 25 2 46q0 20 -2 34q-4 32 -16.5 63.5t-35.5 50t-59 30t-86 11.5 q-68 0 -132.5 -27.5t-115 -72.5t-88.5 -91.5t-67 -97.5l-144 -678h-182z" />
<glyph unicode="n" horiz-adv-x="1280" d="M92 0l238 1116h166l-27 -194q96 103 200 163t232 60q39 0 76 -6t78 -22t74.5 -41t61.5 -66q29 -42 43 -95q14 -50 13 -120v-9q-1 -76 -20 -168l-131 -618h-183l115 541q16 75 22 131q4 31 3 61q-1 27 -3 53q-6 58 -27 95t-66.5 60.5t-114.5 23.5q-128 0 -244.5 -89.5 t-179.5 -197.5l-144 -678h-182z" />
<glyph unicode="o" horiz-adv-x="1292" d="M121 557q27 159 131.5 294.5t257.5 214.5t315 79q100 0 193.5 -48t160 -127t97.5 -189q18 -66 19 -133q0 -45 -9 -91q-29 -161 -123.5 -293t-247.5 -212.5t-335 -80.5q-159 0 -274 78q-116 77 -164 211q-31 86 -31 184q0 55 10 113zM303 557q-9 -49 -10 -93 q0 -111 60 -194q83 -116 261 -116q167 0 311 118t179 285q10 45 10 87q0 61 -20 117q-34 95 -116 150.5t-190 55.5q-109 0 -213.5 -55.5t-177.5 -150t-94 -204.5z" />
<glyph unicode="p" horiz-adv-x="1353" d="M20 -512l347 1628h163l-24 -178q68 88 186 147.5t230 59.5q105 0 194 -44t148.5 -121t85.5 -186q15 -65 15 -135q0 -49 -7 -100q-37 -254 -229 -421t-449 -167q-108 0 -203 62.5t-131 144.5l-147 -690h-179zM422 559q-11 -50 -11 -97q0 -107 59 -192q84 -120 241 -120 q102 0 198.5 50.5t167.5 145t94 213.5q9 48 9 92q0 58 -16 111q-28 92 -102.5 146.5t-182.5 54.5q-164 0 -292.5 -116.5t-164.5 -287.5z" />
<glyph unicode="q" horiz-adv-x="1353" d="M164 559q33 168 131.5 302t241.5 209t303 75q111 0 207 -60t129 -147l53 178h164l-346 -1628h-179l148 690q-65 -87 -186.5 -147t-233.5 -60q-105 0 -195.5 45.5t-150.5 123.5t-84 188q-13 57 -13 116q0 56 11 115zM346 559q-11 -53 -11 -101q0 -55 14 -104 q27 -92 102 -148t186 -56q157 0 291 120t170 289q10 51 10 97q0 56 -14 106q-28 92 -103 146.5t-184 54.5q-168 0 -296.5 -116.5t-164.5 -287.5z" />
<glyph unicode="r" horiz-adv-x="735" d="M92 0l238 1116h162l-29 -194q77 98 189.5 160.5t244.5 62.5l-43 -203q-78 0 -150 -23.5t-127 -63.5t-96 -84.5t-69 -92.5l-144 -678h-176z" />
<glyph unicode="s" horiz-adv-x="944" d="M31 223l153 101q18 -27 32 -45.5t40.5 -45.5t53.5 -44t67 -29.5t84 -12.5q54 0 110.5 18t100 55.5t49.5 84.5q1 8 1 15q0 61 -60 104q-66 48 -191 86q-98 30 -160 67.5t-88.5 79.5t-34.5 91q-4 22 -4 44q0 28 6 58q19 128 145 211.5t296 83.5q103 0 206.5 -44.5 t163.5 -135.5l-155 -99q-40 56 -102 83.5t-126 27.5q-53 0 -104.5 -13t-93 -43.5t-49.5 -72.5q-2 -13 -3 -25q0 -41 28 -67q34 -34 124 -64q79 -27 130 -48t105.5 -54.5t84.5 -70.5t48 -91q14 -44 14 -98q0 -12 -1 -25q-9 -140 -141 -237t-318 -97q-130 0 -241 72.5 t-170 179.5z" />
<glyph unicode="t" horiz-adv-x="741" d="M145 276l142 664h-135l38 176h136l53 256h176l-53 -256h323l-39 -176h-323l-137 -643q-7 -32 -7 -57q0 -93 95 -93q62 0 145 80l125 -110q-145 -148 -303 -148q-131 0 -199 79q-47 54 -47 142q0 40 10 86z" />
<glyph unicode="u" horiz-adv-x="1257" d="M130 337q0 74 20 161l131 618h182l-115 -541q-12 -56 -18 -96q-6 -39 -10 -87q-1 -20 -1 -37q0 -24 3 -44q5 -33 19 -65.5t39.5 -52t65.5 -31.5t95 -12q69 0 135.5 27.5t119 72t92 91.5t68.5 97l144 678h182l-238 -1116h-167l28 195q-209 -224 -420 -224q-43 0 -83 7 t-81.5 24.5t-75 43.5t-60.5 68t-41 96q-14 52 -14 122v5z" />
<glyph unicode="v" horiz-adv-x="1064" d="M195 1116h178l170 -743l497 743h205l-778 -1143z" />
<glyph unicode="w" horiz-adv-x="1611" d="M211 1116h172l176 -743l272 385l-86 358h175l174 -743l495 743h203l-774 -1143l-139 584l-396 -584z" />
<glyph unicode="x" horiz-adv-x="1013" d="M-55 0l524 592l-242 524h189l176 -385l342 385h231l-493 -557l260 -559h-193l-190 420l-369 -420h-235z" />
<glyph unicode="y" horiz-adv-x="1013" d="M12 -512l414 670l-215 958h180l162 -743l469 743h201l-1010 -1628h-201z" />
<glyph unicode="z" horiz-adv-x="1001" d="M-57 0l860 940h-570l37 176h910l-854 -934h624l-39 -182h-968z" />
<glyph unicode="{" horiz-adv-x="794" d="M141 643l17 68q128 42 202.5 135t106.5 248q29 136 82.5 237.5t125 161t152.5 88.5t174 29l-38 -180q-128 -14 -204.5 -92.5t-109.5 -237.5q-12 -54 -40 -119t-69 -129t-99 -113t-119 -63q95 -44 129.5 -162t13.5 -235q-32 -178 6 -271.5t166 -111.5l-35 -166 q-107 -2 -185.5 63t-111.5 189.5t0 304.5q29 151 -10 233.5t-154 122.5z" />
<glyph unicode="|" horiz-adv-x="518" d="M61 -168l406 1901h182l-405 -1901h-183z" />
<glyph unicode="}" horiz-adv-x="798" d="M-47 -274l39 180q128 14 204 92.5t109 237.5q16 75 60 164.5t119 170.5t155 99q-65 30 -105.5 98t-47.5 142t3 147q32 178 -6 271.5t-166 111.5l35 166q107 2 185.5 -63t111.5 -189.5t0 -304.5q-29 -151 10 -234t154 -123l-16 -67q-128 -42 -203 -135t-107 -248 q-29 -136 -82.5 -237.5t-125 -161t-152.5 -88.5t-174 -29z" />
<glyph unicode="&#xa1;" horiz-adv-x="514" d="M92 0l244 1149h182l-244 -1149h-182zM369 1436q11 50 52.5 85t92.5 35t78 -35t16 -85t-52.5 -84.5t-92.5 -34.5t-78 34.5t-16 84.5z" />
<glyph unicode="&#xa2;" horiz-adv-x="1519" d="M162 752q33 204 155.5 376t303 278t383.5 126l38 180h193l-39 -184q137 -23 252 -97.5t182 -179.5l-170 -104q-59 88 -160 145.5t-245 57.5q-156 0 -306.5 -79t-258 -217t-140.5 -302q-28 -124 -6 -232t78.5 -188.5t154.5 -127t222 -46.5q149 0 283.5 66t236.5 179 l127 -120q-114 -132 -263 -212.5t-317 -97.5l-41 -188h-192l41 192q-185 23 -313.5 129t-180.5 274.5t-18 371.5z" />
<glyph unicode="&#xa3;" horiz-adv-x="1413" d="M23 285q17 130 129 215.5t254 85.5q28 0 55.5 -4t40.5 -8l14 -3q4 37 6.5 78.5t3.5 64.5v23h-172l33 158h137q1 131 11 197q29 199 160 315.5t364 116.5q132 0 240 -66.5t155 -154.5l-158 -89q-101 136 -268 136q-267 0 -319 -246q-11 -53 -14 -105t0 -78l3 -26h293 l-33 -158h-262q-8 -157 -22 -276q23 -31 60 -83.5t55.5 -77.5t50.5 -60t58.5 -50.5t65 -27.5t83.5 -12q84 0 172 49l86 -129q-74 -50 -144.5 -70t-171.5 -20q-222 0 -385 270q-62 -137 -149 -203.5t-219 -66.5q-102 0 -166.5 86t-46.5 219zM168 279q-11 -56 12.5 -92.5 t83.5 -36.5q49 0 87 20.5t63.5 58.5t42 80t30.5 97q-45 27 -143 22q-63 -4 -114.5 -51t-61.5 -98z" />
<glyph unicode="&#xa5;" horiz-adv-x="1351" d="M256 313l33 156h315l-37 121h-252l35 160h166l-235 745h178l262 -829l631 829h196l-559 -745h168l-35 -160h-254l-92 -121h320l-33 -156h-320l-65 -313h-172l65 313h-315z" />
<glyph unicode="&#xa7;" horiz-adv-x="1310" d="M92 -289l160 90q64 -108 246 -108q47 0 95 9t92 27.5t76 49.5t40 71q16 77 -51 138.5t-250 120.5q-87 28 -159.5 74t-124 105.5t-72.5 135.5t-3 158q17 81 68.5 148t118 107.5t131 64t121.5 30.5q-1 1 -17 14.5t-31 27t-34.5 40t-32.5 55t-19.5 69.5t-1.5 85 q16 133 154 233t348 100q132 0 241.5 -52.5t151.5 -143.5l-168 -94q-28 50 -96.5 81t-159.5 31q-63 0 -121.5 -15.5t-105.5 -52t-59 -89.5q-15 -74 50 -130.5t247 -123.5q405 -150 356 -457q-10 -67 -38 -124t-64.5 -94.5t-78 -67.5t-81 -46.5t-72 -27t-52.5 -14.5l-19 -3 l-19 -2q10 -5 30 -24.5t46.5 -54t42.5 -90t10 -114.5q-15 -142 -158.5 -237.5t-359.5 -95.5q-131 0 -231.5 50.5t-145.5 145.5zM313 578q-18 -76 15 -136.5t97.5 -95t138 -52.5t143.5 -18q145 0 253.5 54t137.5 164q18 65 1.5 115.5t-53.5 86.5t-92 59.5t-113.5 34.5 t-119.5 11q-70 0 -134 -12t-121.5 -37.5t-98 -70t-54.5 -103.5z" />
<glyph unicode="&#xa8;" horiz-adv-x="1134" d="M461 1399q12 54 54.5 89.5t96.5 35.5t82.5 -35.5t16.5 -89.5q-10 -54 -54 -89.5t-98 -35.5t-81.5 35.5t-16.5 89.5zM852 1399q12 54 55 89.5t97 35.5t82 -35.5t16 -89.5q-10 -54 -54 -89.5t-98 -35.5t-81.5 35.5t-16.5 89.5z" />
<glyph unicode="&#xab;" horiz-adv-x="1308" d="M182 557l471 533h205l-477 -553l233 -512h-188zM629 557l471 533h205l-478 -553l234 -512h-189z" />
<glyph unicode="&#xad;" horiz-adv-x="839" d="M178 526l39 179h567l-39 -179h-567z" />
<glyph unicode="&#xaf;" horiz-adv-x="880" d="M483 1849l37 172h567l-36 -172h-568z" />
<glyph unicode="&#xb0;" horiz-adv-x="858" d="M201 1171q27 147 149 250t275 103q132 0 217.5 -104.5t64.5 -248.5q-22 -148 -147 -250t-281 -102q-148 0 -226.5 101.5t-51.5 250.5zM362 1169q-18 -81 20 -135.5t130 -54.5q77 0 146.5 55.5t86.5 134.5q17 78 -28.5 137.5t-122.5 59.5q-75 0 -145 -58.5t-87 -138.5z " />
<glyph unicode="&#xb1;" horiz-adv-x="1136" d="M158 887l39 180h411l88 414h183l-88 -414h409l-39 -180h-409l-88 -420h-183l88 420h-411zM190 0l39 182h568l-39 -182h-568z" />
<glyph unicode="&#xb4;" horiz-adv-x="985" d="M414 1296l288 240h242l-289 -240h-241z" />
<glyph unicode="&#xb7;" horiz-adv-x="432" d="M186 817q10 54 54 89.5t98 35.5t81.5 -35.5t16.5 -89.5q-12 -54 -54.5 -89.5t-96.5 -35.5t-82.5 35.5t-16.5 89.5z" />
<glyph unicode="&#xb8;" horiz-adv-x="679" d="M96 -109l223 414h205l-266 -414h-162z" />
<glyph unicode="&#xbb;" horiz-adv-x="1312" d="M117 25l501 573l-229 492h178l242 -533l-469 -532h-223zM561 25l502 573l-229 492h178l241 -533l-469 -532h-223z" />
<glyph unicode="&#xbf;" horiz-adv-x="1208" d="M113 254.5q-21 87.5 2 198.5q9 45 30 88t40.5 72.5t58.5 69.5t58 57t67 56.5t59 49.5q17 15 57.5 48.5t57.5 50t42.5 46t40 61.5t23.5 72l6 37h179l-7 -37q-7 -51 -28 -99t-46.5 -84t-63.5 -74.5t-67.5 -63t-71.5 -58.5t-63 -53q-66 -58 -94.5 -85.5t-58.5 -69t-43 -84.5 q-20 -79 -9 -134.5t52 -91t94.5 -51.5t118.5 -16q135 0 251.5 89t147.5 234h178q-42 -216 -211.5 -358.5t-402.5 -142.5q-100 0 -182.5 32t-138 92.5t-76.5 148zM682 1448q11 50 53.5 85.5t93.5 35.5q50 0 77 -35.5t16 -85.5t-52 -84.5t-92 -34.5t-79 34.5t-17 84.5z" />
<glyph unicode="&#xc0;" horiz-adv-x="1331" d="M59 0l211 997q60 276 227 422t390 146q79 0 150.5 -22.5t131.5 -68t99 -113.5t53.5 -159t-4.5 -205l-211 -997h-180l90 426h-682l-90 -426h-185zM373 604h682l80 375q39 195 -32.5 299t-232.5 104q-162 0 -269 -103t-148 -300zM612 1878h213l191 -240h-213z" />
<glyph unicode="&#xc1;" horiz-adv-x="1331" d="M59 0l211 997q60 276 227 422t390 146q79 0 150.5 -22.5t131.5 -68t99 -113.5t53.5 -159t-4.5 -205l-211 -997h-180l90 426h-682l-90 -426h-185zM373 604h682l80 375q39 195 -32.5 299t-232.5 104q-162 0 -269 -103t-148 -300zM793 1638l288 240h242l-289 -240h-241z" />
<glyph unicode="&#xc2;" horiz-adv-x="1331" d="M59 0l211 997q60 276 227 422t390 146q79 0 150.5 -22.5t131.5 -68t99 -113.5t53.5 -159t-4.5 -205l-211 -997h-180l90 426h-682l-90 -426h-185zM373 604h682l80 375q39 195 -32.5 299t-232.5 104q-162 0 -269 -103t-148 -300zM530 1638l379 316h113l248 -316h-199 l-131 144l-197 -144h-213z" />
<glyph unicode="&#xc3;" horiz-adv-x="1331" d="M59 0l211 997q60 276 227 422t390 146q79 0 150.5 -22.5t131.5 -68t99 -113.5t53.5 -159t-4.5 -205l-211 -997h-180l90 426h-682l-90 -426h-185zM373 604h682l80 375q39 195 -32.5 299t-232.5 104q-162 0 -269 -103t-148 -300zM586 1669l35 166q8 6 23 14.5t59 22.5 t85 14q66 0 151.5 -32.5t162.5 -32.5q41 0 81.5 11.5t60.5 23.5l20 12l-37 -170q-8 -5 -22.5 -13.5t-57 -22t-82.5 -13.5q-46 0 -156.5 35.5t-156.5 35.5q-41 0 -82.5 -13t-62.5 -25z" />
<glyph unicode="&#xc4;" horiz-adv-x="1331" d="M59 0l211 997q60 276 227 422t390 146q79 0 150.5 -22.5t131.5 -68t99 -113.5t53.5 -159t-4.5 -205l-211 -997h-180l90 426h-682l-90 -426h-185zM373 604h682l80 375q39 195 -32.5 299t-232.5 104q-162 0 -269 -103t-148 -300zM631 1790q12 54 54.5 89.5t96.5 35.5 t82.5 -35.5t16.5 -89.5q-10 -54 -54 -89.5t-98 -35.5t-81.5 35.5t-16.5 89.5zM1022 1790q12 54 55 89.5t97 35.5t82 -35.5t16 -89.5q-10 -54 -54 -89.5t-98 -35.5t-81.5 35.5t-16.5 89.5z" />
<glyph unicode="&#xc5;" horiz-adv-x="1331" d="M59 0l211 997q60 276 227 422t390 146q79 0 150.5 -22.5t131.5 -68t99 -113.5t53.5 -159t-4.5 -205l-211 -997h-180l90 426h-682l-90 -426h-185zM373 604h682l80 375q39 195 -32.5 299t-232.5 104q-162 0 -269 -103t-148 -300zM719 1866q17 96 99.5 163.5t180.5 67.5 q96 0 148 -66t35 -165q-17 -96 -98.5 -164t-178.5 -68q-96 0 -149.5 67.5t-36.5 164.5zM848 1864q-9 -41 14 -70t66 -29t81.5 31t47.5 72q9 42 -17 71t-69 29q-40 0 -78 -31.5t-45 -72.5z" />
<glyph unicode="&#xc6;" horiz-adv-x="2134" d="M82 0l211 997q60 276 226.5 422t389.5 146q100 0 189 -37.5t151 -108.5l25 117h999l-37 -178h-817l-114 -539h680l-39 -178h-680l-97 -461h834l-39 -180h-1016l90 426h-682l-90 -426h-184zM395 604h680l88 416q26 176 -46 269t-224 93q-162 0 -269.5 -103t-148.5 -300z " />
<glyph unicode="&#xc7;" horiz-adv-x="1509" d="M162 766q27 164 114.5 312t211.5 255.5t281.5 170.5t320.5 63q167 0 313 -82t227 -211l-170 -105q-60 90 -161 150.5t-244 60.5q-156 0 -306.5 -83t-258 -225t-140.5 -306q-18 -100 -12 -190t43 -166.5t94 -132.5t141 -87.5t183 -31.5q147 0 281.5 68.5t238.5 183.5 l127 -121q-129 -150 -301 -235t-365 -85q-217 0 -371.5 106t-219 287.5t-27.5 403.5zM502 -330l166 310l192 -3l-196 -307h-162z" />
<glyph unicode="&#xc8;" horiz-adv-x="1249" d="M88 0l326 1536h1001l-37 -178h-817l-115 -539h680l-39 -178h-679l-99 -461h834l-37 -180h-1018zM659 1878h213l191 -240h-213z" />
<glyph unicode="&#xc9;" horiz-adv-x="1249" d="M88 0l326 1536h1001l-37 -178h-817l-115 -539h680l-39 -178h-679l-99 -461h834l-37 -180h-1018zM729 1638l289 240h242l-289 -240h-242z" />
<glyph unicode="&#xca;" horiz-adv-x="1249" d="M88 0l326 1536h1001l-37 -178h-817l-115 -539h680l-39 -178h-679l-99 -461h834l-37 -180h-1018zM541 1638l379 316h112l248 -316h-199l-131 144l-196 -144h-213z" />
<glyph unicode="&#xcb;" horiz-adv-x="1251" d="M90 0l326 1536h1001l-37 -178h-817l-114 -539h679l-38 -178h-680l-99 -461h834l-37 -180h-1018zM639 1769q12 54 55 89.5t97 35.5t82 -35.5t16 -89.5q-10 -54 -54 -89t-98 -35t-81.5 35t-16.5 89zM1030 1769q12 54 55 89.5t97 35.5t82 -35.5t16 -89.5q-10 -54 -54 -89 t-98 -35t-81.5 35t-16.5 89z" />
<glyph unicode="&#xcc;" horiz-adv-x="524" d="M88 0l326 1536h184l-326 -1536h-184zM211 1878h213l190 -240h-213z" />
<glyph unicode="&#xcd;" horiz-adv-x="524" d="M88 0l326 1536h184l-326 -1536h-184zM389 1638l289 240h242l-289 -240h-242z" />
<glyph unicode="&#xce;" horiz-adv-x="524" d="M88 0l326 1536h184l-326 -1536h-184zM129 1638l379 316h113l247 -316h-198l-131 144l-197 -144h-213z" />
<glyph unicode="&#xcf;" horiz-adv-x="524" d="M88 0l326 1536h184l-326 -1536h-184zM223 1769q12 54 55 89.5t97 35.5t82 -35.5t16 -89.5q-10 -54 -53.5 -89t-97.5 -35t-82 35t-17 89zM614 1769q12 54 55 89.5t97 35.5t82 -35.5t16 -89.5q-10 -54 -53.5 -89t-97.5 -35t-82 35t-17 89z" />
<glyph unicode="&#xd0;" horiz-adv-x="1523" d="M94 682l37 174h160l145 680h428q156 0 287.5 -59.5t217 -161.5t121.5 -245.5t7 -303.5q-30 -167 -117.5 -310.5t-214 -243t-288 -156t-336.5 -56.5h-430l143 682h-160zM332 180h209q184 0 344 71.5t272.5 205.5t151.5 309q30 128 6.5 236.5t-86 187.5t-167 123.5 t-235.5 44.5h-243l-109 -502h356l-36 -174h-357z" />
<glyph unicode="&#xd1;" horiz-adv-x="1542" d="M88 0l334 1571l774 -1157l238 1122h182l-334 -1571l-774 1147l-238 -1112h-182zM674 1651l35 166q9 6 24 14.5t59 22.5t85 14q66 0 151 -33t162 -33q41 0 81.5 12t60.5 24l20 11l-37 -170q-8 -5 -22.5 -13.5t-57 -22t-82.5 -13.5q-46 0 -156.5 36t-156.5 36 q-41 0 -82.5 -13t-62.5 -25z" />
<glyph unicode="&#xd2;" horiz-adv-x="1724" d="M137.5 553.5q-8.5 102.5 14.5 212.5q43 220 181 403t343 290.5t432 107.5q156 0 287 -63t214.5 -170.5t118 -255.5t5.5 -312q-29 -162 -121 -310t-222 -254.5t-292.5 -169.5t-327.5 -63q-109 0 -205.5 28.5t-170.5 80t-131 124t-87 161t-38.5 191zM322 577.5 q4 -89.5 40.5 -166.5t95 -133t148.5 -88t201 -32q158 0 317 83.5t273.5 224t148.5 300.5q37 169 -12.5 310t-171.5 222.5t-291 81.5q-158 0 -312.5 -81.5t-268.5 -223.5t-152 -309q-20 -99 -16 -188.5zM813 1878h213l191 -240h-213z" />
<glyph unicode="&#xd3;" horiz-adv-x="1724" d="M137.5 553.5q-8.5 102.5 14.5 212.5q43 220 181 403t343 290.5t432 107.5q156 0 287 -63t214.5 -170.5t118 -255.5t5.5 -312q-29 -162 -121 -310t-222 -254.5t-292.5 -169.5t-327.5 -63q-109 0 -205.5 28.5t-170.5 80t-131 124t-87 161t-38.5 191zM322 577.5 q4 -89.5 40.5 -166.5t95 -133t148.5 -88t201 -32q158 0 317 83.5t273.5 224t148.5 300.5q37 169 -12.5 310t-171.5 222.5t-291 81.5q-158 0 -312.5 -81.5t-268.5 -223.5t-152 -309q-20 -99 -16 -188.5zM958 1638l289 240h242l-289 -240h-242z" />
<glyph unicode="&#xd4;" horiz-adv-x="1724" d="M137.5 553.5q-8.5 102.5 14.5 212.5q43 220 181 403t343 290.5t432 107.5q156 0 287 -63t214.5 -170.5t118 -255.5t5.5 -312q-29 -162 -121 -310t-222 -254.5t-292.5 -169.5t-327.5 -63q-109 0 -205.5 28.5t-170.5 80t-131 124t-87 161t-38.5 191zM322 577.5 q4 -89.5 40.5 -166.5t95 -133t148.5 -88t201 -32q158 0 317 83.5t273.5 224t148.5 300.5q37 169 -12.5 310t-171.5 222.5t-291 81.5q-158 0 -312.5 -81.5t-268.5 -223.5t-152 -309q-20 -99 -16 -188.5zM727 1638l379 316h113l247 -316h-198l-131 144l-197 -144h-213z" />
<glyph unicode="&#xd5;" horiz-adv-x="1724" d="M137.5 553.5q-8.5 102.5 14.5 212.5q43 220 181 403t343 290.5t432 107.5q156 0 287 -63t214.5 -170.5t118 -255.5t5.5 -312q-29 -162 -121 -310t-222 -254.5t-292.5 -169.5t-327.5 -63q-109 0 -205.5 28.5t-170.5 80t-131 124t-87 161t-38.5 191zM322 577.5 q4 -89.5 40.5 -166.5t95 -133t148.5 -88t201 -32q158 0 317 83.5t273.5 224t148.5 300.5q37 169 -12.5 310t-171.5 222.5t-291 81.5q-158 0 -312.5 -81.5t-268.5 -223.5t-152 -309q-20 -99 -16 -188.5zM786 1688l35 165q9 6 24 14.5t59 23t85 14.5q66 0 151.5 -33t162.5 -33 q41 0 81 11.5t60 23.5l20 12l-37 -170q-8 -5 -22.5 -13.5t-56.5 -22t-82 -13.5q-46 0 -157 36t-157 36q-41 0 -82.5 -12.5t-62.5 -25.5z" />
<glyph unicode="&#xd6;" horiz-adv-x="1724" d="M137.5 553.5q-8.5 102.5 14.5 212.5q43 220 181 403t343 290.5t432 107.5q156 0 287 -63t214.5 -170.5t118 -255.5t5.5 -312q-29 -162 -121 -310t-222 -254.5t-292.5 -169.5t-327.5 -63q-109 0 -205.5 28.5t-170.5 80t-131 124t-87 161t-38.5 191zM322 577.5 q4 -89.5 40.5 -166.5t95 -133t148.5 -88t201 -32q158 0 317 83.5t273.5 224t148.5 300.5q37 169 -12.5 310t-171.5 222.5t-291 81.5q-158 0 -312.5 -81.5t-268.5 -223.5t-152 -309q-20 -99 -16 -188.5zM823 1769q12 54 55 89.5t97 35.5t82 -35.5t16 -89.5q-10 -54 -53.5 -89 t-97.5 -35t-82 35t-17 89zM1214 1769q12 54 55 89.5t97 35.5t82 -35.5t16 -89.5q-10 -54 -53.5 -89t-97.5 -35t-82 35t-17 89z" />
<glyph unicode="&#xd7;" horiz-adv-x="1089" d="M166 455l328 268l-211 272l133 107l211 -271l329 271l107 -135l-330 -271l209 -266l-133 -108l-209 266l-330 -271z" />
<glyph unicode="&#xd8;" horiz-adv-x="1769" d="M55 127l181 149q-117 213 -62 490q43 220 181 403t343 290.5t432 107.5q275 0 455 -183l184 154l103 -129l-189 -158q118 -213 72 -485q-29 -162 -121 -310t-221.5 -254.5t-292 -169.5t-327.5 -63q-280 0 -457 174l-180 -145zM360 766q-47 -206 29 -365l1043 859 q-133 120 -338 120q-158 0 -313 -81.5t-269 -223.5t-152 -309zM487 272q127 -114 342 -114q158 0 317 83.5t274 224t149 300.5q43 201 -35 360z" />
<glyph unicode="&#xd9;" horiz-adv-x="1488" d="M178 539l213 997h184l-208 -979q-39 -186 49 -291.5t274 -105.5q72 0 151.5 28t151.5 77t127.5 126t75.5 166l209 979h184l-213 -997q-29 -136 -106 -247.5t-179 -179.5t-214 -104.5t-220 -36.5t-205.5 39.5t-169 110t-101.5 180.5t-3 238zM694 1878h213l191 -240h-213z " />
<glyph unicode="&#xda;" horiz-adv-x="1488" d="M178 539l213 997h184l-208 -979q-39 -186 49 -291.5t274 -105.5q72 0 151.5 28t151.5 77t127.5 126t75.5 166l209 979h184l-213 -997q-29 -136 -106 -247.5t-179 -179.5t-214 -104.5t-220 -36.5t-205.5 39.5t-169 110t-101.5 180.5t-3 238zM844 1638l289 240h241 l-289 -240h-241z" />
<glyph unicode="&#xdb;" horiz-adv-x="1488" d="M178 539l213 997h184l-208 -979q-39 -186 49 -291.5t274 -105.5q72 0 151.5 28t151.5 77t127.5 126t75.5 166l209 979h184l-213 -997q-29 -136 -106 -247.5t-179 -179.5t-214 -104.5t-220 -36.5t-205.5 39.5t-169 110t-101.5 180.5t-3 238zM608 1638l379 316h113 l248 -316h-199l-131 144l-197 -144h-213z" />
<glyph unicode="&#xdc;" horiz-adv-x="1488" d="M178 539l213 997h184l-208 -979q-39 -186 49 -291.5t274 -105.5q72 0 151.5 28t151.5 77t127.5 126t75.5 166l209 979h184l-213 -997q-29 -136 -106 -247.5t-179 -179.5t-214 -104.5t-220 -36.5t-205.5 39.5t-169 110t-101.5 180.5t-3 238zM705 1772q12 54 54.5 89 t96.5 35t82 -35t16 -89q-10 -54 -53.5 -89.5t-97.5 -35.5t-81.5 35.5t-16.5 89.5zM1096 1772q12 54 54.5 89t96.5 35t82.5 -35t16.5 -89q-10 -54 -54 -89.5t-98 -35.5t-81.5 35.5t-16.5 89.5z" />
<glyph unicode="&#xdd;" horiz-adv-x="1269" d="M256 1536h182l252 -821l617 821h206l-763 -1026l-109 -510h-184l108 510zM731 1638l289 240h242l-289 -240h-242z" />
<glyph unicode="&#xde;" horiz-adv-x="1314" d="M111 0l325 1536h185l-46 -211h269q113 0 212 -43t167.5 -116.5t99.5 -181t10 -228.5q-27 -159 -126.5 -284t-248 -193t-319.5 -68h-299l-45 -211h-184zM377 389h299q108 0 206 44.5t169 129t94 193.5q34 163 -60.5 277t-246.5 114h-299z" />
<glyph unicode="&#xdf;" horiz-adv-x="1206" d="M82 0l268 1268q32 149 135 224t248 75q82 0 151 -23t118.5 -66t71.5 -113t9 -157q-7 -46 -35 -89t-64 -74.5t-71 -59t-61 -53t-29 -45.5q-6 -28 12 -54t50.5 -47.5t72 -50t78 -62t68 -82.5t41 -112.5t-1.5 -152.5q-23 -145 -139 -250t-283 -105q-62 0 -116.5 25t-93 66.5 t-64 82t-44.5 84.5l150 86q39 -77 69 -109q56 -59 132 -59q80 0 138.5 57.5t70.5 121.5q13 60 -1 108.5t-46 82t-72.5 63.5t-81.5 59.5t-73 62.5t-46 80t-2 105q10 49 50.5 96.5t83.5 79.5t81 72t45 75q13 63 -16.5 105.5t-79.5 59t-113 16.5q-49 0 -98.5 -31t-63.5 -92 l-268 -1268h-180z" />
<glyph unicode="&#xe0;" d="M123 557q-27 -170 15.5 -302.5t151 -208t267.5 -75.5q112 0 232 59.5t186 147.5l-23 -178h164l236 1116h-164l-51 -178q-40 84 -149 145.5t-208 61.5q-151 0 -292 -76.5t-239.5 -212.5t-125.5 -299zM309 557q36 173 164.5 291.5t292.5 118.5q104 0 180 -55.5t106.5 -150 t6.5 -204.5q-36 -170 -165.5 -286.5t-293.5 -116.5q-167 0 -247 116t-44 287zM563 1505h213l191 -239h-213z" />
<glyph unicode="&#xe1;" d="M123 557q27 163 125.5 299t239.5 212.5t292 76.5q99 0 208 -61.5t149 -145.5l51 178h164l-236 -1116h-164l23 178q-66 -88 -186 -147.5t-232 -59.5q-159 0 -267.5 75.5t-151 208t-15.5 302.5zM309 557q-36 -171 44 -287t247 -116q164 0 293.5 116.5t165.5 286.5 q24 110 -6.5 204.5t-106.5 150t-180 55.5q-164 0 -292.5 -118.5t-164.5 -291.5zM625 1266l288 239h242l-289 -239h-241z" />
<glyph unicode="&#xe2;" d="M123 557q-27 -170 15.5 -302.5t151 -208t267.5 -75.5q112 0 232 59.5t186 147.5l-23 -178h164l236 1116h-164l-51 -178q-40 84 -149 145.5t-208 61.5q-151 0 -292 -76.5t-239.5 -212.5t-125.5 -299zM309 557q36 173 164.5 291.5t292.5 118.5q104 0 180 -55.5t106.5 -150 t6.5 -204.5q-36 -170 -165.5 -286.5t-293.5 -116.5q-167 0 -247 116t-44 287zM410 1266l378 315h113l248 -315h-199l-131 143l-196 -143h-213z" />
<glyph unicode="&#xe3;" d="M123 557q-27 -170 15.5 -302.5t151 -208t267.5 -75.5q112 0 232 59.5t186 147.5l-23 -178h164l236 1116h-164l-51 -178q-40 84 -149 145.5t-208 61.5q-151 0 -292 -76.5t-239.5 -212.5t-125.5 -299zM309 557q36 173 164.5 291.5t292.5 118.5q104 0 180 -55.5t106.5 -150 t6.5 -204.5q-36 -170 -165.5 -286.5t-293.5 -116.5q-167 0 -247 116t-44 287zM463 1292l35 166q9 6 24 14.5t59 22.5t85 14q66 0 151 -32.5t162 -32.5q41 0 81.5 12t60.5 24l20 11l-37 -170q-8 -5 -22.5 -13.5t-57 -22t-82.5 -13.5q-46 0 -156.5 35.5t-156.5 35.5 q-41 0 -82.5 -12.5t-62.5 -25.5z" />
<glyph unicode="&#xe4;" d="M123 557q-27 -170 15.5 -302.5t151 -208t267.5 -75.5q112 0 232 59.5t186 147.5l-23 -178h164l236 1116h-164l-51 -178q-40 84 -149 145.5t-208 61.5q-151 0 -292 -76.5t-239.5 -212.5t-125.5 -299zM309 557q36 173 164.5 291.5t292.5 118.5q104 0 180 -55.5t106.5 -150 t6.5 -204.5q-36 -170 -165.5 -286.5t-293.5 -116.5q-167 0 -247 116t-44 287zM504 1397q12 54 54.5 89.5t96.5 35.5t82.5 -35.5t16.5 -89.5q-10 -54 -54 -89.5t-98 -35.5t-81.5 35.5t-16.5 89.5zM895 1397q12 54 55 89.5t97 35.5t82 -35.5t16 -89.5q-10 -54 -54 -89.5 t-98 -35.5t-81.5 35.5t-16.5 89.5z" />
<glyph unicode="&#xe5;" d="M123 557q27 163 125.5 299t239.5 212.5t292 76.5q99 0 208 -61.5t149 -145.5l51 178h164l-236 -1116h-164l23 178q-66 -88 -186 -147.5t-232 -59.5q-159 0 -267.5 75.5t-151 208t-15.5 302.5zM309 557q-36 -171 44 -287t247 -116q164 0 293.5 116.5t165.5 286.5 q24 110 -6.5 204.5t-106.5 150t-180 55.5q-164 0 -292.5 -118.5t-164.5 -291.5zM600 1497q17 96 100.5 164t180.5 68q96 0 147.5 -66.5t34.5 -165.5q-17 -96 -98.5 -163.5t-178.5 -67.5q-96 0 -149.5 67t-36.5 164zM729 1495q-9 -41 14 -69.5t66 -28.5t81.5 30.5t47.5 71.5 q9 42 -17 71t-69 29q-40 0 -78 -31.5t-45 -72.5z" />
<glyph unicode="&#xe6;" horiz-adv-x="1853" d="M106 397q58 138 214.5 217.5t359.5 79.5q30 0 77 -3.5t79 -6.5l32 -4q29 132 -39.5 200t-197.5 70q-82 0 -168 -37.5t-160 -105.5l-119 106q221 211 494 211q106 0 201.5 -48t140.5 -136q185 205 448 205q92 0 174 -44t138.5 -118.5t82 -181.5t7.5 -226l-10 -51h-842 q-22 -102 2 -186t93 -135t173 -51q211 0 344 143l121 -113q-91 -99 -221.5 -156t-282.5 -57q-140 0 -236.5 64.5t-142.5 177.5q-68 -87 -215 -163.5t-284 -76.5q-92 0 -154 27.5t-102 91.5q-81 132 -7 307zM249 307.5q-10 -75.5 40.5 -125t142.5 -43.5q91 6 197.5 62.5 t167.5 136.5l41 197q-47 14 -115.5 17t-141 -5t-142 -33t-111.5 -65q-69 -66 -79 -141.5zM1059 690h653q-7 126 -83.5 201.5t-190.5 75.5q-126 0 -223 -73.5t-156 -203.5z" />
<glyph unicode="&#xe7;" horiz-adv-x="1126" d="M121 555q23 122 85 230.5t150 188t204.5 125.5t242.5 46t239.5 -59.5t159.5 -155.5l-155 -99q-44 68 -119 102t-162 34q-163 0 -296 -121.5t-169 -290.5q-38 -177 44.5 -290t270.5 -113q183 0 336 159l115 -106q-85 -99 -196 -159.5t-236 -72.5l-184 -290h-162l162 303 q-187 43 -279 201t-51 368z" />
<glyph unicode="&#xe8;" horiz-adv-x="1155" d="M123 555q28 165 112 298t218.5 212.5t296.5 79.5q92 0 174 -44t138 -118.5t81.5 -181.5t7.5 -226l-10 -51h-842q-22 -102 2 -186t93 -135t173 -51q211 0 344 143l121 -113q-91 -99 -221.5 -156t-282.5 -57q-156 0 -258.5 81t-138 212.5t-8.5 292.5zM340 690h653 q-7 126 -83.5 201.5t-190.5 75.5q-126 0 -223 -73.5t-156 -203.5zM506 1505h213l190 -239h-213z" />
<glyph unicode="&#xe9;" horiz-adv-x="1155" d="M123 555q28 165 112 298t218.5 212.5t296.5 79.5q92 0 174 -44t138 -118.5t81.5 -181.5t7.5 -226l-10 -51h-842q-22 -102 2 -186t93 -135t173 -51q211 0 344 143l121 -113q-91 -99 -221.5 -156t-282.5 -57q-156 0 -258.5 81t-138 212.5t-8.5 292.5zM340 690h653 q-7 126 -83.5 201.5t-190.5 75.5q-126 0 -223 -73.5t-156 -203.5zM586 1266l288 239h242l-289 -239h-241z" />
<glyph unicode="&#xea;" horiz-adv-x="1155" d="M123 555q28 165 112 298t218.5 212.5t296.5 79.5q92 0 174 -44t138 -118.5t81.5 -181.5t7.5 -226l-10 -51h-842q-22 -102 2 -186t93 -135t173 -51q211 0 344 143l121 -113q-91 -99 -221.5 -156t-282.5 -57q-156 0 -258.5 81t-138 212.5t-8.5 292.5zM340 690h653 q-7 126 -83.5 201.5t-190.5 75.5q-126 0 -223 -73.5t-156 -203.5zM362 1264l379 315h113l248 -315h-199l-131 143l-197 -143h-213z" />
<glyph unicode="&#xeb;" horiz-adv-x="1155" d="M123 555q28 165 112 298t218.5 212.5t296.5 79.5q92 0 174 -44t138 -118.5t81.5 -181.5t7.5 -226l-10 -51h-842q-22 -102 2 -186t93 -135t173 -51q211 0 344 143l121 -113q-91 -99 -221.5 -156t-282.5 -57q-156 0 -258.5 81t-138 212.5t-8.5 292.5zM340 690h653 q-7 126 -83.5 201.5t-190.5 75.5q-126 0 -223 -73.5t-156 -203.5zM461 1397q12 54 54.5 89.5t96.5 35.5t82.5 -35.5t16.5 -89.5q-10 -54 -54 -89.5t-98 -35.5t-81.5 35.5t-16.5 89.5zM852 1397q12 54 55 89.5t97 35.5t82 -35.5t16 -89.5q-10 -54 -54 -89.5t-98 -35.5 t-81.5 35.5t-16.5 89.5z" />
<glyph unicode="&#xec;" horiz-adv-x="489" d="M94 0l236 1116h182l-236 -1116h-182zM145 1536h213l191 -240h-213z" />
<glyph unicode="&#xed;" horiz-adv-x="489" d="M94 0l236 1116h182l-236 -1116h-182zM307 1296l289 240h242l-289 -240h-242z" />
<glyph unicode="&#xee;" horiz-adv-x="489" d="M55 1270l379 315h113l248 -315h-199l-131 143l-197 -143h-213zM94 0l236 1116h182l-236 -1116h-182z" />
<glyph unicode="&#xef;" horiz-adv-x="489" d="M94 0l236 1116h182l-236 -1116h-182zM143 1399q12 54 55 89.5t97 35.5t82 -35.5t16 -89.5q-10 -54 -53.5 -89.5t-97.5 -35.5t-82 35.5t-17 89.5zM535 1399q12 54 54.5 89.5t96.5 35.5t82 -35.5t16 -89.5q-10 -54 -53.5 -89.5t-97.5 -35.5t-81.5 35.5t-16.5 89.5z" />
<glyph unicode="&#xf0;" horiz-adv-x="1097" d="M55 381q11 206 163 368.5t368 194.5q51 7 115 -4t92 -31q-64 123 -136 238l-251 -127l-46 133l228 115q-34 57 -75 119t-69.5 103t-31.5 46h196q3 -5 24 -35.5t50.5 -74.5t56.5 -85l174 89l48 -134l-150 -73q122 -206 180 -344q43 -103 58.5 -180.5t13.5 -161.5 q-5 -208 -151.5 -370.5t-368.5 -191.5q-139 -18 -252 27.5t-176.5 145t-59.5 233.5zM231 408q-5 -131 85 -209.5t223 -55.5q92 15 172 70.5t128.5 137t51.5 167.5q4 130 -85 204t-226 52q-138 -23 -240 -129t-109 -237z" />
<glyph unicode="&#xf1;" horiz-adv-x="1280" d="M92 0l238 1116h166l-27 -194q96 103 200 163t232 60q39 0 76 -6t78 -22t74.5 -41t61.5 -66.5t42.5 -94.5t13.5 -129.5t-20 -167.5l-131 -618h-183l115 541q15 74 21.5 130.5t1 114t-27 95t-67 61t-114.5 23.5q-128 0 -244.5 -89.5t-179.5 -197.5l-144 -678h-182z M506 1298l35 166q9 6 24 14.5t59 23t85 14.5q66 0 151 -33t162 -33q41 0 81.5 12t60.5 24l20 11l-37 -170q-8 -5 -22.5 -13.5t-57 -22t-82.5 -13.5q-46 0 -156.5 36t-156.5 36q-41 0 -82.5 -13t-62.5 -26z" />
<glyph unicode="&#xf2;" horiz-adv-x="1292" d="M121 557q27 159 131.5 294.5t257.5 214.5t315 79q100 0 193.5 -48t160 -127t97.5 -189t10 -224q-29 -161 -123.5 -293t-247.5 -212.5t-335 -80.5q-159 0 -274 78t-163.5 211.5t-21.5 296.5zM303 557q-33 -171 50 -287t261 -116q167 0 311 118t179 285q24 109 -10.5 204 t-116 150.5t-189.5 55.5q-109 0 -213.5 -55.5t-177.5 -150t-94 -204.5zM532 1505h213l191 -239h-213z" />
<glyph unicode="&#xf3;" horiz-adv-x="1292" d="M121 557q27 159 131.5 294.5t257.5 214.5t315 79q100 0 193.5 -48t160 -127t97.5 -189t10 -224q-29 -161 -123.5 -293t-247.5 -212.5t-335 -80.5q-159 0 -274 78t-163.5 211.5t-21.5 296.5zM303 557q-33 -171 50 -287t261 -116q167 0 311 118t179 285q24 109 -10.5 204 t-116 150.5t-189.5 55.5q-109 0 -213.5 -55.5t-177.5 -150t-94 -204.5zM631 1266l289 239h241l-289 -239h-241z" />
<glyph unicode="&#xf4;" horiz-adv-x="1292" d="M121 557q27 159 131.5 294.5t257.5 214.5t315 79q100 0 193.5 -48t160 -127t97.5 -189t10 -224q-29 -161 -123.5 -293t-247.5 -212.5t-335 -80.5q-159 0 -274 78t-163.5 211.5t-21.5 296.5zM303 557q-33 -171 50 -287t261 -116q167 0 311 118t179 285q24 109 -10.5 204 t-116 150.5t-189.5 55.5q-109 0 -213.5 -55.5t-177.5 -150t-94 -204.5zM430 1266l379 315h113l247 -315h-198l-131 143l-197 -143h-213z" />
<glyph unicode="&#xf5;" horiz-adv-x="1292" d="M121 557q27 159 131.5 294.5t257.5 214.5t315 79q100 0 193.5 -48t160 -127t97.5 -189t10 -224q-29 -161 -123.5 -293t-247.5 -212.5t-335 -80.5q-159 0 -274 78t-163.5 211.5t-21.5 296.5zM303 557q-33 -171 50 -287t261 -116q167 0 311 118t179 285q24 109 -10.5 204 t-116 150.5t-189.5 55.5q-109 0 -213.5 -55.5t-177.5 -150t-94 -204.5zM485 1288l35 166q9 6 24 14.5t59 22.5t85 14q66 0 151 -32.5t162 -32.5q41 0 81.5 12t60.5 24l20 11l-37 -170q-8 -5 -22.5 -13.5t-56.5 -22t-82 -13.5q-46 0 -157 35.5t-157 35.5q-41 0 -82.5 -12.5 t-62.5 -25.5z" />
<glyph unicode="&#xf6;" horiz-adv-x="1292" d="M121 557q27 159 131.5 294.5t257.5 214.5t315 79q100 0 193.5 -48t160 -127t97.5 -189t10 -224q-29 -161 -123.5 -293t-247.5 -212.5t-335 -80.5q-159 0 -274 78t-163.5 211.5t-21.5 296.5zM303 557q-33 -171 50 -287t261 -116q167 0 311 118t179 285q24 109 -10.5 204 t-116 150.5t-189.5 55.5q-109 0 -213.5 -55.5t-177.5 -150t-94 -204.5zM526 1399q12 54 55 89.5t97 35.5t82 -35.5t16 -89.5q-10 -54 -53.5 -89.5t-97.5 -35.5t-82 35.5t-17 89.5zM918 1399q12 54 54.5 89.5t96.5 35.5t82 -35.5t16 -89.5q-10 -54 -53.5 -89.5t-97.5 -35.5 t-81.5 35.5t-16.5 89.5z" />
<glyph unicode="&#xf7;" horiz-adv-x="929" d="M102 451l41 192h723l-41 -192h-723zM293 100q9 50 50.5 84.5t92.5 34.5t78 -34.5t18 -84.5q-11 -50 -53.5 -85t-93.5 -35q-50 0 -76.5 35t-15.5 85zM483 997q9 50 51 84.5t93 34.5t78 -34.5t18 -84.5q-11 -50 -54 -85t-94 -35q-50 0 -76.5 35t-15.5 85z" />
<glyph unicode="&#xf8;" horiz-adv-x="1294" d="M16 100l144 117q-73 155 -39 340q27 159 131.5 294.5t257.5 214.5t315 79q170 0 305 -125l177 143l94 -121l-174 -143q93 -159 59 -342q-29 -161 -123.5 -293t-247.5 -212.5t-335 -80.5q-201 0 -328 121l-139 -112zM303 557q-25 -121 10 -213l676 557q-89 66 -201 66 q-109 0 -213.5 -55.5t-177.5 -150t-94 -204.5zM401 219q80 -65 213 -65q167 0 311 118t179 285q26 120 -21 223z" />
<glyph unicode="&#xf9;" horiz-adv-x="1257" d="M130.5 337q0.5 74 19.5 161l131 618h182l-115 -541q-12 -56 -18 -96t-9.5 -87.5t1.5 -80.5t19 -65.5t39.5 -52t65.5 -31.5t95 -12q69 0 135.5 27.5t119 72t92 91.5t68.5 97l144 678h182l-238 -1116h-167l28 195q-209 -224 -420 -224q-43 0 -83 7t-81.5 24.5t-75 43.5 t-60.5 68t-41 95.5t-13.5 127.5zM502 1505h213l190 -239h-213z" />
<glyph unicode="&#xfa;" horiz-adv-x="1257" d="M130.5 337q0.5 74 19.5 161l131 618h182l-115 -541q-12 -56 -18 -96t-9.5 -87.5t1.5 -80.5t19 -65.5t39.5 -52t65.5 -31.5t95 -12q69 0 135.5 27.5t119 72t92 91.5t68.5 97l144 678h182l-238 -1116h-167l28 195q-209 -224 -420 -224q-43 0 -83 7t-81.5 24.5t-75 43.5 t-60.5 68t-41 95.5t-13.5 127.5zM610 1266l289 239h242l-289 -239h-242z" />
<glyph unicode="&#xfb;" horiz-adv-x="1257" d="M130.5 337q0.5 74 19.5 161l131 618h182l-115 -541q-12 -56 -18 -96t-9.5 -87.5t1.5 -80.5t19 -65.5t39.5 -52t65.5 -31.5t95 -12q69 0 135.5 27.5t119 72t92 91.5t68.5 97l144 678h182l-238 -1116h-167l28 195q-209 -224 -420 -224q-43 0 -83 7t-81.5 24.5t-75 43.5 t-60.5 68t-41 95.5t-13.5 127.5zM389 1266l379 315h113l247 -315h-198l-131 143l-197 -143h-213z" />
<glyph unicode="&#xfc;" horiz-adv-x="1257" d="M130.5 337q0.5 74 19.5 161l131 618h182l-115 -541q-12 -56 -18 -96t-9.5 -87.5t1.5 -80.5t19 -65.5t39.5 -52t65.5 -31.5t95 -12q69 0 135.5 27.5t119 72t92 91.5t68.5 97l144 678h182l-238 -1116h-167l28 195q-209 -224 -420 -224q-43 0 -83 7t-81.5 24.5t-75 43.5 t-60.5 68t-41 95.5t-13.5 127.5zM487 1399q12 54 55 89.5t97 35.5t82 -35.5t16 -89.5q-10 -54 -53.5 -89.5t-97.5 -35.5t-82 35.5t-17 89.5zM879 1399q12 54 54.5 89.5t96.5 35.5t82 -35.5t16 -89.5q-10 -54 -53.5 -89.5t-97.5 -35.5t-81.5 35.5t-16.5 89.5z" />
<glyph unicode="&#xfd;" horiz-adv-x="1013" d="M12 -512l414 670l-215 958h180l162 -743l469 743h201l-1010 -1628h-201zM528 1266l289 239h242l-289 -239h-242z" />
<glyph unicode="&#xfe;" horiz-adv-x="1357" d="M0 -512l434 2048h182l-122 -580q59 72 176.5 130.5t224.5 58.5q159 0 272.5 -76.5t159 -210.5t14.5 -299q-23 -124 -84.5 -232.5t-148 -187t-198 -123.5t-230.5 -45q-111 0 -219 59t-135 132l-144 -674h-182zM410 559q-35 -168 48 -286.5t240 -118.5q164 0 294.5 117.5 t166.5 287.5q36 171 -44.5 289.5t-244.5 118.5t-294 -118.5t-166 -289.5z" />
<glyph unicode="&#xff;" horiz-adv-x="1013" d="M12 -512l414 670l-215 958h180l162 -743l469 743h201l-1010 -1628h-201zM391 1399q12 54 55 89.5t97 35.5t82 -35.5t16 -89.5q-10 -54 -54 -89.5t-98 -35.5t-81.5 35.5t-16.5 89.5zM782 1399q12 54 55 89.5t97 35.5t82 -35.5t16 -89.5q-10 -54 -53.5 -89.5t-97.5 -35.5 t-82 35.5t-17 89.5z" />
<glyph unicode="&#x152;" horiz-adv-x="2582" d="M155.5 553.5q-8.5 102.5 14.5 212.5q43 220 181 403t343 290.5t432 107.5q178 0 319.5 -80t225.5 -219l58 268h1001l-37 -178h-817l-115 -539h680l-39 -178h-680l-98 -461h834l-37 -180h-1018l51 242q-139 -128 -312.5 -200.5t-353.5 -72.5q-109 0 -205.5 28.5t-170.5 80 t-131 124t-87 161t-38.5 191zM340 577.5q4 -89.5 40.5 -166.5t95 -133t148.5 -88t201 -32q158 0 317 83.5t274 224t149 300.5q37 169 -12.5 310t-171.5 222.5t-291 81.5q-158 0 -313 -81.5t-269 -223.5t-152 -309q-20 -99 -16 -188.5z" />
<glyph unicode="&#x153;" horiz-adv-x="2113" d="M117 557q27 159 131.5 294.5t257.5 214.5t315 79q125 0 236.5 -72t175.5 -190q88 123 214.5 192.5t278.5 69.5q92 0 174 -44t138.5 -118.5t82 -181.5t7.5 -226l-10 -51h-842q-22 -102 2 -186t93 -135t173 -51q211 0 344 143l121 -113q-91 -99 -221.5 -156t-282.5 -57 q-144 0 -241.5 67t-141.5 185q-98 -117 -238.5 -183.5t-308.5 -66.5q-159 0 -274 78t-163 211.5t-21 296.5zM299 557q-33 -171 50 -287t261 -116q167 0 311 118t179 285q0 2 1 7.5t1 8.5q2 2 2 11q25 158 -69 270.5t-251 112.5q-109 0 -213.5 -55.5t-177.5 -150t-94 -204.5z M1317 690h653q-7 126 -83.5 201.5t-190.5 75.5q-126 0 -223 -73.5t-156 -203.5z" />
<glyph unicode="&#x178;" horiz-adv-x="1269" d="M256 1536h182l252 -821l617 821h206l-763 -1026l-109 -510h-184l108 510zM582 1716q12 54 54.5 89.5t96.5 35.5t82 -35.5t16 -89.5q-10 -54 -53.5 -89.5t-97.5 -35.5t-81.5 35.5t-16.5 89.5zM973 1716q12 54 54.5 89.5t96.5 35.5t82.5 -35.5t16.5 -89.5 q-10 -54 -54 -89.5t-98 -35.5t-81.5 35.5t-16.5 89.5z" />
<glyph unicode="&#x2c6;" horiz-adv-x="890" d="M221 1270l379 315h113l248 -315h-199l-131 143l-197 -143h-213z" />
<glyph unicode="&#x2dc;" horiz-adv-x="1001" d="M395 1554l35 166q9 6 24 14.5t59 23t85 14.5q66 0 151 -33t162 -33q41 0 81.5 12t60.5 24l20 11l-37 -170q-8 -5 -22.5 -13.5t-57 -22t-82.5 -13.5q-46 0 -156.5 36t-156.5 36q-41 0 -82.5 -13t-62.5 -26z" />
<glyph unicode="&#x2000;" horiz-adv-x="1048" />
<glyph unicode="&#x2001;" horiz-adv-x="2097" />
<glyph unicode="&#x2002;" horiz-adv-x="1048" />
<glyph unicode="&#x2003;" horiz-adv-x="2097" />
<glyph unicode="&#x2004;" horiz-adv-x="699" />
<glyph unicode="&#x2005;" horiz-adv-x="524" />
<glyph unicode="&#x2006;" horiz-adv-x="349" />
<glyph unicode="&#x2007;" horiz-adv-x="349" />
<glyph unicode="&#x2008;" horiz-adv-x="262" />
<glyph unicode="&#x2009;" horiz-adv-x="419" />
<glyph unicode="&#x200a;" horiz-adv-x="116" />
<glyph unicode="&#x2010;" horiz-adv-x="839" d="M178 526l39 179h567l-39 -179h-567z" />
<glyph unicode="&#x2011;" horiz-adv-x="839" d="M178 526l39 179h567l-39 -179h-567z" />
<glyph unicode="&#x2012;" horiz-adv-x="839" d="M178 526l39 179h567l-39 -179h-567z" />
<glyph unicode="&#x2013;" horiz-adv-x="964" d="M176 653l41 193h723l-41 -193h-723z" />
<glyph unicode="&#x2014;" horiz-adv-x="1290" d="M152 653l41 193h1095l-41 -193h-1095z" />
<glyph unicode="&#x2018;" horiz-adv-x="520" d="M233 932l129 604h173l-129 -604h-173z" />
<glyph unicode="&#x2019;" horiz-adv-x="520" d="M244 932l129 604h172l-129 -604h-172z" />
<glyph unicode="&#x201a;" horiz-adv-x="520" d="M147 0l129 604h173l-130 -604h-172z" />
<glyph unicode="&#x201c;" horiz-adv-x="903" d="M248 932l129 604h172l-129 -604h-172zM616 932l129 604h173l-130 -604h-172z" />
<glyph unicode="&#x201d;" horiz-adv-x="903" d="M248 932l129 604h172l-129 -604h-172zM616 932l129 604h173l-130 -604h-172z" />
<glyph unicode="&#x201e;" horiz-adv-x="903" d="M150 0l129 604h172l-129 -604h-172zM518 0l129 604h172l-129 -604h-172z" />
<glyph unicode="&#x2026;" horiz-adv-x="1413" d="M82 100q10 54 53.5 89.5t97.5 35.5t82 -35.5t17 -89.5q-12 -54 -55 -89.5t-97 -35.5t-82 35.5t-16 89.5zM614 100q10 54 54 89.5t98 35.5t81.5 -35.5t16.5 -89.5q-12 -54 -54.5 -89.5t-96.5 -35.5t-82.5 35.5t-16.5 89.5zM1147 100q10 54 53.5 89.5t97.5 35.5t82 -35.5 t17 -89.5q-12 -54 -55 -89.5t-97 -35.5t-82 35.5t-16 89.5z" />
<glyph unicode="&#x202f;" horiz-adv-x="419" />
<glyph unicode="&#x2039;" horiz-adv-x="839" d="M197 750l471 532h204l-477 -553l234 -512h-189z" />
<glyph unicode="&#x203a;" horiz-adv-x="856" d="M180 217l502 574l-229 491h178l241 -532l-469 -533h-223z" />
<glyph unicode="&#x205f;" horiz-adv-x="524" />
<glyph unicode="&#x20ac;" horiz-adv-x="1550" d="M150 520l32 160h117q0 5 11.5 58t15.5 65h-117l35 162h137q106 248 326 404.5t479 156.5q160 0 285 -76.5t208 -210.5l-159 -100q-135 204 -373 204q-166 0 -323.5 -105t-252.5 -273h459l-35 -162h-483q-22 -59 -31 -123h488l-33 -160h-463q5 -162 113 -264t309 -102 q125 0 250.5 69t230.5 172l127 -116q-151 -146 -302 -227t-324 -81q-268 0 -423.5 150.5t-164.5 398.5h-139z" />
<glyph unicode="&#x25fc;" horiz-adv-x="1116" d="M0 0v1116h1116v-1116h-1116z" />
</font>
</defs>
</svg>
