<?xml version="1.0" encoding="utf-8"?>
<!-- Generator: Adobe Illustrator 17.0.0, SVG Export Plug-In . SVG Version: 6.00 Build 0)  -->
<!DOCTYPE svg PUBLIC "-//W3C//DTD SVG 1.1//EN" "http://www.w3.org/Graphics/SVG/1.1/DTD/svg11.dtd">
<svg version="1.1" id="Layer_1" xmlns="http://www.w3.org/2000/svg" xmlns:xlink="http://www.w3.org/1999/xlink" x="0px" y="0px"
	 width="104.5px" height="106px" viewBox="0 0 104.5 106" enable-background="new 0 0 104.5 106" xml:space="preserve">
<path d="M59.506,2.586c6.147,2.341,12.731,3.923,18.364,7.16c20.029,11.51,29.128,35.285,22.516,57.193
	c-6.561,21.74-27.195,36.493-49.784,35.596c-22.872-0.908-42.25-17.29-47.052-39.748c-0.234-1.094-0.686-2.14-1.037-3.209
	c0-4.666,0-9.332,0-13.998C7.742,22.147,22.075,7.817,45.507,2.586C50.174,2.586,54.84,2.586,59.506,2.586z M6.514,52.658
	c0.046,25.354,20.85,46.031,46.195,45.914c25.158-0.116,45.692-20.666,45.79-45.825C98.598,27.406,77.897,6.612,52.548,6.588
	C27.201,6.563,6.468,27.314,6.514,52.658z"/>
<path d="M45.071,40.742c-1.932-0.48-3.629-0.902-5.308-1.32c1.391-6.96,4.511-10.482,10.37-11.521
	c5.448-0.966,10.329,0.256,13.757,4.92c3.185,4.334,2.717,9.76-0.867,15.375c-3.048,4.776-5.966,9.635-8.941,14.457
	c0.399,0.363,0.797,0.726,1.196,1.088c-1.738,0-3.476,0-6.566,0c1.172-3.697,1.79-7.031,3.267-9.926
	c1.57-3.076,4.085-5.654,5.954-8.598c2.947-4.642,2.165-9.391-1.647-11.238c-4.081-1.978-8.206-0.145-10.411,4.642
	C45.611,39.191,45.425,39.799,45.071,40.742z"/>
<path d="M56.041,69.89c0,2.365,0,4.427,0,6.837c-2.177,0-4.22,0-6.482,0c0-2.347,0-4.436,0-6.837
	C51.586,69.89,53.489,69.89,56.041,69.89z"/>
</svg>
