<?xml version="1.0" encoding="utf-8"?>
<!-- Generator: Adobe Illustrator 17.0.0, SVG Export Plug-In . SVG Version: 6.00 Build 0)  -->
<!DOCTYPE svg PUBLIC "-//W3C//DTD SVG 1.1//EN" "http://www.w3.org/Graphics/SVG/1.1/DTD/svg11.dtd">
<svg version="1.1" id="Layer_1" xmlns="http://www.w3.org/2000/svg" xmlns:xlink="http://www.w3.org/1999/xlink" x="0px" y="0px"
	 width="106.667px" height="106px" viewBox="0 0 106.667 106" enable-background="new 0 0 106.667 106" xml:space="preserve">
<g>
	<path d="M59.673,3.341c6.148,2.341,12.733,3.921,18.364,7.16c20.05,11.534,29.055,35.048,22.53,57.177
		c-6.309,21.398-26.897,36.291-49.27,35.64c-22.857-0.665-42.432-16.856-47.49-39.256c-0.285-1.263-0.748-2.487-1.128-3.729
		c0-4.666,0-9.332,0-13.998c0.353-1.08,0.788-2.141,1.045-3.244C7.531,26.797,16.953,14.944,32.091,7.879
		c4.298-2.006,9.043-3.052,13.583-4.538C50.341,3.341,55.007,3.341,59.673,3.341z M49.734,7.598C26.815,8.673,7.634,27.898,7,50.28
		c1.295,1.15,2.402,2.134,3.509,3.118c-1.17,0.943-2.34,1.886-3.577,2.882c1.212,23.076,20.65,42.389,42.599,42.693
		c1.253-1.334,2.266-2.411,3.278-3.489c0.925,1.199,1.85,2.398,2.801,3.631c23.393-1.566,42.713-21.098,42.664-42.623
		c-1.386-1.255-2.478-2.244-3.57-3.233c1.181-0.931,2.363-1.862,3.658-2.883C97.61,27.789,78.21,8.391,55.7,7.649
		c-1.108,1.274-2.086,2.398-3.064,3.522C51.695,10.013,50.754,8.854,49.734,7.598z"/>
	<path d="M26.591,81.072c-0.147-1.789-0.745-3.247-0.257-3.999c6.521-10.042,12.969-20.149,19.977-29.848
		c1.92-2.658,5.622-4.035,8.523-5.976c6.912-4.627,13.801-9.289,20.789-13.798c0.906-0.584,2.339-0.35,3.528-0.496
		c-0.121,1.05,0.101,2.325-0.416,3.116c-6.374,9.744-12.832,19.433-19.35,29.081c-0.617,0.913-1.739,1.519-2.698,2.161
		c-8.57,5.737-17.153,11.455-25.743,17.162C29.852,79.201,28.693,79.823,26.591,81.072z M36.188,68.861
		c0.369,0.291,0.739,0.583,1.108,0.874c6.264-4.174,12.528-8.347,18.525-12.343c-2.339-2.789-4.337-5.171-6.693-7.981"/>
</g>
</svg>
