<?xml version="1.0" encoding="utf-8"?>
<!-- Generator: Adobe Illustrator 17.0.0, SVG Export Plug-In . SVG Version: 6.00 Build 0)  -->
<!DOCTYPE svg PUBLIC "-//W3C//DTD SVG 1.1//EN" "http://www.w3.org/Graphics/SVG/1.1/DTD/svg11.dtd">
<svg version="1.1" id="Layer_1" xmlns="http://www.w3.org/2000/svg" xmlns:xlink="http://www.w3.org/1999/xlink" x="0px" y="0px"
	 width="104.333px" height="104px" viewBox="0 0 104.333 104" enable-background="new 0 0 104.333 104" xml:space="preserve">
<path fill="#171717" d="M44.358,2.308c4.999,0,9.999,0,14.998,0c1.049,1.956,2.98,0.836,4.455,1.174
	c21.988,5.04,38.371,25.569,38.58,48.518c0.211,23.136-16.315,43.976-38.974,49.149c-22.234,5.076-45.989-6.223-55.839-26.727
	c-2.033-4.232-3.492-8.741-5.215-13.122c0-5.999,0-11.999,0-17.998c1.734-0.951,1.361-2.866,1.795-4.317
	c4.82-16.135,15.151-27.137,30.623-33.544C37.908,4.148,41.449,4.207,44.358,2.308z M85.329,83.263
	c2.845-1.138,2.648-3.412,2.027-5.727c-0.559-2.086-2.278-3.982-4.092-3.756c-3.407,0.425-3.835,4.255-6.936,6.902
	c2.859,0,4.456,0.046,6.05-0.012c1.91-0.069,3.25,0.416,3.041,2.695c-7.004,0-14.009,0-21.635,0
	c0.814,1.196,1.038,1.882,1.341,1.919c6.107,0.737,12.229,0.672,18.335,0.008C84.424,85.188,85.181,84.381,85.329,83.263z
	 M90.541,77.235c12.942-18.29,9.304-44.292-8.191-59.61C65.024,2.453,38.488,2.707,21.696,18.205
	C4.282,34.277,1.33,60.308,15.031,78.496c0.877-2.388,2.11-4.457,4.064-6.668c-1.628-0.327-3.343,0.79-3.82-1.533
	c-0.96-4.669,1.539-9.907,5.866-11.496c2.769-1.016,4.529-0.769,4.3,2.869c-0.177,2.821-0.122,5.667-0.005,8.494
	c0.08,1.936-0.375,2.951-2.544,3.409c-3.59,0.758-5.394,3.298-4.79,6.982c0.613,3.74,3.303,5.352,6.862,5.091
	c2.266-0.166,5.764,1.641,6.516-1.65c0.657-2.874-3.18-2.232-4.768-3.515c-1.902-1.537-6.616-0.952-5.715-3.856
	c0.627-2.02,4.333,0.658,6.535,1.485c6.829,2.566,6.795,2.656,8.725-4.758c-1.707,0-3.365,0.072-5.013-0.024
	c-1.198-0.07-3.132,0.596-3.096-1.385c0.025-1.334,1.708-1.247,2.879-1.247c4.999,0,9.998,0.004,14.996-0.003
	c1.176-0.002,2.881-0.089,2.903,1.205c0.031,1.877-1.928,1.63-3.097,1.404c-5.782-1.117-7.953,2.212-9.138,7.397
	c5.41,0,10.717,0,16.025,0c6.993,0,7.072-0.03,4.63-6.315c-0.931-2.397-1.021-3.77,2.142-3.716
	c5.164,0.087,10.33,0.008,15.496,0.038c1.116,0.006,2.621-0.123,2.498,1.546c-0.096,1.3-1.454,1.086-2.403,1.09
	c-4.89,0.023-9.78,0.011-15.701,0.011c2.537,2.858,1.352,6.967,5.532,7.318c5.049,0.424,9.383,0.252,12.776-5.105
	c2.607-4.118,2.414-8.01,2.666-12.227c0.099-1.661-1.116-3.988,1.157-4.849c1.989-0.753,3.884,0.466,5.503,1.688
	c3.547,2.677,3.57,6.52,3.298,10.422c-0.049,0.709-0.469,1.334-1.25,1.242c-3.454-0.407-1.385,1.115-0.746,2.103
	C89.019,75.033,89.769,76.097,90.541,77.235z M24.585,88.383c16.862,14.298,44.159,11.51,54.746,0
	C61.318,88.383,43.349,88.383,24.585,88.383z M34.435,85.698c8.515,0,17.045,0.003,25.575-0.006c0.639-0.001,1.424-0.059,1.4-0.902
	c-0.038-1.319-1.054-1.46-2.108-1.46c-7.628,0.004-15.256-0.004-22.884,0.012C35.333,83.344,34.46,83.703,34.435,85.698z
	 M22.819,60.826c-4.102,1.947-5.229,4.54-4.814,7.716c0.151,1.152-1.432,3.472,1.035,3.417c1.661-0.037,4.049-0.571,3.815-3.499
	C22.673,66.184,22.819,63.881,22.819,60.826z M82.893,61.015c0,2.972,0.104,5.426-0.029,7.868c-0.132,2.423,1.965,2.332,3.262,3.086
	c0.767,0.446,1.754,0.18,1.699-0.898C87.641,67.416,88.492,63.268,82.893,61.015z"/>
<path fill="#171717" d="M51.489,60.58c0-1.994-0.058-3.991,0.011-5.983c0.207-5.941,1.009-11.311-6.945-14.2
	c-6.318-2.295-8.198-10.848-5.841-17.275c2.342-6.387,8.877-10.445,15.736-9.773c6.77,0.663,12.253,6.01,13.222,12.892
	c0.959,6.819-2.714,13.82-9.259,15.864c-3.651,1.14-4.349,2.855-4.266,6.231c0.209,8.471,0.111,16.952,0.032,25.427
	c-0.014,1.514,0.851,4.232-1.2,4.218c-2.614-0.019-1.367-2.856-1.43-4.438C51.376,69.228,51.489,64.902,51.489,60.58z M52.628,15.89
	c-6.778,0.13-12.268,5.754-12.214,12.513c0.055,6.955,5.932,12.545,12.913,12.282c6.763-0.255,12.146-5.982,11.967-12.734
	C65.116,21.228,59.375,15.761,52.628,15.89z"/>
<path fill="#171717" d="M56.815,19.192c2.423,0.856,4.085,2.616,5.093,4.996c0.31,0.733-0.436,1.581-0.916,1.34
	c-2.319-1.162-3.978-3.161-5.504-5.184C55.053,19.769,56.066,19.373,56.815,19.192z"/>
</svg>
