<?xml version="1.0" encoding="utf-8"?>
<!-- Generator: Adobe Illustrator 17.0.0, SVG Export Plug-In . SVG Version: 6.00 Build 0)  -->
<!DOCTYPE svg PUBLIC "-//W3C//DTD SVG 1.1//EN" "http://www.w3.org/Graphics/SVG/1.1/DTD/svg11.dtd">
<svg version="1.1" id="Layer_1" xmlns="http://www.w3.org/2000/svg" xmlns:xlink="http://www.w3.org/1999/xlink" x="0px" y="0px"
	 width="105.5px" height="106px" viewBox="0 0 105.5 106" enable-background="new 0 0 105.5 106" xml:space="preserve">
<path d="M45.161,3.975c4.666,0,9.332,0,13.998,0c1.069,0.351,2.116,0.803,3.21,1.037C83.728,9.581,99.513,27.153,101.943,49.1
	c2.306,20.829-9.849,41.662-29.438,50.455c-20.03,8.991-42.388,4.154-57.368-12.132C8.152,79.829,4.793,70.617,2.167,60.968
	c0-4.666,0-9.332,0-13.998C7.396,23.536,21.727,9.205,45.161,3.975z M84.921,85.759c17.49-15.765,17.678-45.404,0.316-63.713
	C67.686,3.538,37.249,3.369,19.371,21.682C1.756,39.723,1.806,69.722,19.355,85.748c5.357-2.369,10.716-4.575,15.929-7.087
	c5.659-2.727,6.836-7.596,3.86-13.152c-2.462-4.598-5.444-9.227-6.474-14.199c-1.134-5.478-0.531-11.373-0.281-17.068
	c0.503-11.428,8.261-18.349,20.551-17.17c10.096,0.969,20.636,7.138,19.415,18.862c-0.522,5.012-0.108,10.117-0.537,15.144
	c-0.173,2.032-1.353,4.019-2.264,5.937c-1.758,3.698-4.105,7.181-5.375,11.029c-1.667,5.053-0.01,8.254,4.854,10.596
	C74.246,81.147,79.589,83.383,84.921,85.759z M81.622,88.831c-4.512-2.071-8.363-3.914-12.275-5.619
	c-10.206-4.449-12.377-10.749-7.06-20.581c1.729-3.197,3.462-6.398,4.998-9.689c0.446-0.955,0.3-2.228,0.274-3.352
	c-0.05-2.154-0.671-4.402-0.244-6.441c2.43-11.6,1.56-13.535-7.938-19.883c-5.797-3.874-11.442-2.883-16.955-0.156
	c-5.134,2.54-5.987,7.666-6.043,12.819c-0.023,2.143,0.643,4.287,0.69,6.437c0.075,3.454-0.815,7.095,0.013,10.322
	c0.92,3.587,3.178,6.872,5.079,10.159c5.322,9.203,3.143,15.888-6.697,20.248c-4.047,1.793-8.063,3.655-12.313,5.585
	C37.902,103.415,62.617,103.568,81.622,88.831z"/>
</svg>
