<?xml version="1.0" encoding="utf-8"?>
<!-- Generator: Adobe Illustrator 17.0.0, SVG Export Plug-In . SVG Version: 6.00 Build 0)  -->
<!DOCTYPE svg PUBLIC "-//W3C//DTD SVG 1.1//EN" "http://www.w3.org/Graphics/SVG/1.1/DTD/svg11.dtd">
<svg version="1.1" id="Layer_1" xmlns="http://www.w3.org/2000/svg" xmlns:xlink="http://www.w3.org/1999/xlink" x="0px" y="0px"
	 width="104px" height="104.333px" viewBox="0 0 104 104.333" enable-background="new 0 0 104 104.333" xml:space="preserve">
<path d="M59.001,2.379c9.64,2.629,18.852,5.977,26.441,12.957c15.93,14.652,21.012,37.604,12.343,56.985
	c-8.895,19.888-29.739,32.16-50.669,29.832C25.263,99.724,7.608,83.852,3.055,62.576c-0.234-1.093-0.692-2.137-1.046-3.204
	c0-4.666,0-9.332,0-13.998c0.335-0.903,0.793-1.781,0.988-2.714c2.397-11.496,8.159-20.971,17.013-28.634
	c7.233-6.26,16.007-9.172,24.994-11.647C49.669,2.379,54.335,2.379,59.001,2.379z M52.18,6.381
	C27.08,6.277,6.248,26.838,6.01,51.949C5.77,77.238,26.527,98.265,51.83,98.365C76.911,98.465,97.809,77.838,97.994,52.8
	C98.182,27.458,77.483,6.486,52.18,6.381z"/>
<path d="M23.989,50.232c0.191-1.069,0.014-2.472,0.632-3.154c4.324-4.768,8.559-9.668,13.324-13.969
	c4.259-3.844,7.269-7.99,8.181-13.793c0.275-1.752,2.026-4.166,3.563-4.585c1.66-0.453,4.369,0.542,5.729,1.84
	c3.967,3.783,3.008,8.43,1.263,12.982c-1.143,2.98-2.278,5.963-3.873,10.14c5.714-0.801,9.92-1.426,14.136-1.975
	c7.684-1,9.981,0.749,11.618,8.197c0.361,1.643,2.682,3.201,2.482,4.56c-0.835,5.676,2.497,11.749-1.588,17.093
	c-0.454,0.594-0.814,1.392-0.882,2.127c-0.617,6.679-2.113,8.595-8.829,9.576c-12.304,1.796-24.535,1.354-36.585-2.018
	c-2.859-0.8-5.762-1.442-8.816-2.2c-1.126-3.488,0.791-3.827,3.589-3.285c7.324,1.417,14.597,3.393,21.989,4.072
	c6.393,0.587,12.943-0.064,19.382-0.634c3.381-0.299,5.674-1.235,5.179-6.368c-0.346-3.587,4.389-7.511,0.546-11.815
	c3.806-3.007,3.048-5.72-0.52-8.268c-0.109-0.078-0.11-0.306-0.16-0.465c-2.258-7.11-2.259-7.118-9.997-6.069
	c-2.47,0.335-4.921,0.853-7.4,1.068c-5.753,0.499-8.484-2.683-6.891-8.292c0.856-3.013,2.523-5.789,3.486-8.781
	c1.006-3.123,1.235-6.237-3.408-8.029c-0.379,9.646-6.167,15.532-13.049,20.892c-2.421,1.886-3.861,4.982-6.017,7.273
	c-1.73,1.838-3.865,3.295-5.82,4.921C24.83,50.927,24.41,50.58,23.989,50.232z"/>
</svg>
