<?xml version="1.0" standalone="no"?>
<!DOCTYPE svg PUBLIC "-//W3C//DTD SVG 1.1//EN" "http://www.w3.org/Graphics/SVG/1.1/DTD/svg11.dtd" >
<svg xmlns="http://www.w3.org/2000/svg">
<metadata></metadata>
<defs>
<font id="pontiacblack" horiz-adv-x="1402" >
<font-face units-per-em="2048" ascent="1536" descent="-512" />
<missing-glyph horiz-adv-x="718" />
<glyph horiz-adv-x="0" />
<glyph horiz-adv-x="682" />
<glyph unicode=" "  horiz-adv-x="718" />
<glyph unicode="&#x09;" horiz-adv-x="718" />
<glyph unicode="&#xa0;" horiz-adv-x="718" />
<glyph unicode="!" horiz-adv-x="583" d="M115 156q0 74 51 126t125 52q73 0 125.5 -52t52.5 -126q0 -72 -52.5 -124t-125.5 -52q-74 0 -125 51.5t-51 124.5zM125 451v1085h334v-1085h-334z" />
<glyph unicode="&#x22;" horiz-adv-x="1009" d="M176 887v649h283v-649h-283zM551 887v649h283v-649h-283z" />
<glyph unicode="#" horiz-adv-x="1316" d="M104 393v289h172l35 186h-131v289h182l70 379h287l-68 -379h180l68 379h287l-68 -379h113v-289h-164l-33 -186h115v-289h-166l-70 -393h-288l69 393h-182l-70 -393h-288l71 393h-121zM565 682h180l35 186h-182z" />
<glyph unicode="$" horiz-adv-x="1218" d="M49 317l244 189q58 -85 152.5 -145t191.5 -56q66 3 107.5 39.5t39.5 83.5q-1 50 -82.5 109.5t-214.5 109.5q-92 35 -159.5 75.5t-123 97t-84 133t-28.5 171.5q0 138 98.5 259t262.5 155v221h301v-225q191 -43 362 -238l-262 -194q-78 76 -146 99.5t-147 23.5 q-51 0 -91 -31.5t-40 -69.5q0 -29 13.5 -50t60.5 -49t137 -62q103 -37 184 -80.5t156 -106t116.5 -147t41.5 -185.5q0 -162 -106 -293t-279 -167v-228h-301v238q-241 64 -404 323z" />
<glyph unicode="%" horiz-adv-x="1607" d="M29 1147q0 153 114 266t267 113q156 0 267 -111.5t111 -267.5q0 -158 -110 -268.5t-268 -110.5q-160 0 -270.5 110.5t-110.5 268.5zM158 0l942 1495h338l-942 -1495h-338zM317 1147q0 -36 27.5 -64t65.5 -28q37 0 64.5 26.5t27.5 65.5q0 37 -27.5 64.5t-64.5 27.5 q-36 0 -64.5 -26.5t-28.5 -65.5zM807 352q0 153 114 267t267 114q155 0 267 -112t112 -269q0 -159 -111 -270t-268 -111q-160 0 -270.5 110.5t-110.5 270.5zM1096 352q0 -37 26.5 -64.5t65.5 -27.5q37 0 64.5 26.5t27.5 65.5q0 37 -27.5 64.5t-64.5 27.5t-64.5 -27 t-27.5 -65z" />
<glyph unicode="&#x26;" horiz-adv-x="1429" d="M88 475q0 135 70 241.5t204 211.5q-96 127 -96 256q0 163 113 272t280 109q155 0 259 -109t104 -274q0 -188 -215 -355l149 -223q16 23 30 46t20 34l6 12h325q-56 -154 -192 -362q9 -12 25 -36l20 -30l192 -268h-370l-78 106q-186 -126 -344 -126q-134 0 -249 64.5 t-184 179t-69 251.5zM397 475q0 -74 57.5 -125t131.5 -51q85 0 164 59l-224 304q-129 -78 -129 -187zM549 1204q0 -53 76 -139q123 63 123 139q0 39 -26 70t-67 31q-42 0 -74 -29t-32 -72z" />
<glyph unicode="'" horiz-adv-x="452" d="M86 887v649h283v-649h-283z" />
<glyph unicode="(" horiz-adv-x="624" d="M-2 700q0 534 315 889l205 -200q-118 -180 -170.5 -330.5t-52.5 -360.5q0 -212 56 -381.5t173 -353.5l-211 -203q-315 419 -315 940z" />
<glyph unicode=")" horiz-adv-x="624" d="M39 -37q117 184 173 353.5t56 381.5q0 210 -52.5 360.5t-170.5 330.5l205 200q315 -355 315 -889q0 -521 -315 -940z" />
<glyph unicode="*" horiz-adv-x="974" d="M63 1120l87 279l194 -66v203h289v-201l192 62l86 -277l-196 -55l127 -162l-240 -166l-115 162l-122 -168l-230 170l123 164z" />
<glyph unicode="+" horiz-adv-x="1157" d="M74 551v334h323v309h332v-309h315v-334h-315v-305h-332v305h-323z" />
<glyph unicode="," horiz-adv-x="542" d="M-47 -328l194 553h359l-281 -555z" />
<glyph unicode="-" horiz-adv-x="909" d="M135 442v328h639v-328h-639z" />
<glyph unicode="." horiz-adv-x="395" d="M16 160q0 75 54 128.5t129 53.5q74 0 127 -53.5t53 -128.5q0 -74 -53.5 -127t-126.5 -53q-75 0 -129 53t-54 127z" />
<glyph unicode="/" horiz-adv-x="1114" d="M31 0l727 1536h332l-723 -1536h-336z" />
<glyph unicode="0" horiz-adv-x="1452" d="M74 748q0 155 47.5 297t131 248.5t206.5 169.5t266 63q148 0 273 -63t207.5 -170t128.5 -248t46 -297q0 -155 -46 -296t-128.5 -248.5t-207.5 -171t-273 -63.5q-146 0 -270 63.5t-206.5 171t-128.5 248.5t-46 296zM395 748q0 -115 37 -215t114 -166t179 -66q101 0 178 66 t114.5 166.5t37.5 214.5q0 118 -37.5 217.5t-114 163t-178.5 63.5t-178.5 -63.5t-114 -163t-37.5 -217.5z" />
<glyph unicode="1" horiz-adv-x="823" d="M41 1157v338h639v-1495h-338v1157h-301z" />
<glyph unicode="2" horiz-adv-x="1185" d="M55 963q0 134 43.5 243t117.5 177.5t168.5 105.5t199.5 37q111 0 206 -41t157.5 -108.5t98 -152.5t35.5 -175q0 -114 -77 -243t-211 -288l-154 -180h469v-338h-1004v193l502 591q48 57 92.5 132t44.5 131q0 43 -16 73.5t-41.5 45.5t-50 21.5t-49.5 6.5q-26 0 -55 -10 t-62 -33.5t-54.5 -72t-21.5 -115.5h-338z" />
<glyph unicode="3" horiz-adv-x="1161" d="M6 344l281 162q113 -201 248 -201q93 0 146.5 52.5t53.5 129.5q0 57 -31 105t-82.5 79t-113.5 49t-127 21v193l231 227h-465v334h887v-334l-239 -243q114 -52 194 -172t80 -281q0 -137 -76.5 -252t-198.5 -178.5t-259 -63.5q-92 0 -179.5 34.5t-153.5 91t-115.5 119.5 t-80.5 128z" />
<glyph unicode="4" horiz-adv-x="1134" d="M-35 170l596 1325h350l-442 -999h266v178h334v-674h-334v170h-770z" />
<glyph unicode="5" horiz-adv-x="1214" d="M78 379l284 123q39 -81 101.5 -140t134.5 -59q95 0 155 49.5t60 130.5q0 65 -46 111t-110.5 66t-136.5 20q-78 0 -213 -53l-170 88v780h895v-334h-561v-174q46 4 59 4q96 0 181 -16.5t162.5 -55.5t133 -97t88.5 -146.5t33 -198.5q0 -144 -61.5 -258t-183 -182t-285.5 -68 q-338 0 -520 410z" />
<glyph unicode="6" horiz-adv-x="1212" d="M92 479v2v25q7 149 92 307l348 682h367l-256 -504q199 -15 336 -162.5t137 -347.5q0 -212 -150 -362t-362 -150q-139 0 -257 68t-186.5 185.5t-68.5 256.5zM414 485q0 -79 54 -133.5t134 -54.5t135.5 54.5t55.5 133.5t-55.5 135t-135.5 56q-79 0 -133.5 -55.5 t-54.5 -135.5z" />
<glyph unicode="7" horiz-adv-x="1132" d="M37 1161v334h1096l-658 -1495h-364l512 1161h-586z" />
<glyph unicode="8" horiz-adv-x="1136" d="M72 465q0 118 52 221t142 172q-100 118 -100 264q0 167 117.5 285.5t283.5 118.5q167 0 285.5 -118.5t118.5 -285.5q0 -142 -103 -264q91 -69 144 -172t53 -221q0 -135 -67 -249t-181.5 -180.5t-249.5 -66.5t-249 66.5t-180 180.5t-66 249zM387 483q0 -75 52.5 -127.5 t127.5 -52.5t128 52.5t53 127.5t-53 128t-128 53t-127.5 -53t-52.5 -128zM453 1112q0 -47 33.5 -81t80.5 -34t81 34t34 81t-34 81t-81 34t-80.5 -34t-33.5 -81z" />
<glyph unicode="9" horiz-adv-x="1179" d="M80 1014q0 212 150 362t362 150q139 0 257 -68t186.5 -185.5t68.5 -256.5v-2v-25q-7 -149 -92 -307l-348 -682h-367l256 504q-199 15 -336 162.5t-137 347.5zM395 1016q0 -80 55.5 -135.5t135.5 -55.5q79 0 133.5 55.5t54.5 135.5t-54 134t-134 54t-135.5 -54.5 t-55.5 -133.5z" />
<glyph unicode=":" horiz-adv-x="489" d="M53 162q0 75 54 128.5t129 53.5q74 0 127 -53.5t53 -128.5q0 -74 -53 -127t-127 -53q-75 0 -129 53t-54 127zM53 934q0 74 54 127t129 53q74 0 127 -53t53 -127q0 -75 -53 -128.5t-127 -53.5q-75 0 -129 53.5t-54 128.5z" />
<glyph unicode=";" horiz-adv-x="589" d="M-47 -328l194 553h359l-281 -555zM154 934q0 75 53.5 128.5t128.5 53.5q74 0 127 -53.5t53 -128.5q0 -74 -53 -127t-127 -53q-75 0 -128.5 53t-53.5 127z" />
<glyph unicode="&#x3c;" horiz-adv-x="909" d="M61 725l357 535h399l-358 -535l358 -537h-399z" />
<glyph unicode="=" horiz-adv-x="1193" d="M172 332v315h850v-315h-850zM172 731v318h850v-318h-850z" />
<glyph unicode="&#x3e;" horiz-adv-x="925" d="M102 188l359 537l-359 535h400l356 -535l-356 -537h-400z" />
<glyph unicode="?" horiz-adv-x="1206" d="M76 1001q0 134 43.5 243t117.5 178t168 106t199 37q111 0 206 -41t158 -108.5t98.5 -153t35.5 -175.5q0 -49 -9.5 -90.5t-33.5 -81.5t-40.5 -62t-56 -66.5t-53.5 -61.5q-10 -12 -41 -48.5t-46 -55.5t-29.5 -49.5t-14.5 -55.5v-65h-332v88q0 57 23.5 111.5t50 87t83 94.5 t85.5 98q76 93 76 155q0 35 -11 62t-28 42.5t-39 26t-41.5 14t-38.5 3.5q-26 0 -55 -10.5t-61.5 -33.5t-54 -72t-21.5 -116h-338zM442 156q0 74 51 126t125 52t126.5 -52.5t52.5 -125.5q0 -72 -53 -124t-126 -52q-74 0 -125 51.5t-51 124.5z" />
<glyph unicode="@" horiz-adv-x="1869" d="M145 543q0 165 65 316t174.5 259.5t260.5 173t316 64.5q187 0 332 -62.5t259 -193.5q150 -172 154 -410q2 -105 -44.5 -208t-120 -175.5t-167 -113t-180.5 -29.5q-74 10 -122.5 46.5t-49.5 96.5q-89 -100 -225 -100q-123 0 -201 102.5t-53 255.5q14 98 74 177t135.5 118 t148.5 39q71 0 122 -28.5t73 -71.5l20 82h213l-67 -387q-7 -64 22 -64q45 0 99.5 74t54.5 172q0 172 -132 291.5t-345 119.5q-143 0 -266.5 -75t-196 -200.5t-72.5 -268.5q0 -123 45.5 -225t121 -167t170.5 -100t198 -35h20v-286h-20q-84 0 -173.5 20.5t-182 61t-174.5 108 t-146.5 154.5t-102 208t-37.5 261zM795 561q-8 -54 24 -92.5t84 -38.5q54 0 96.5 38.5t51.5 92.5q6 53 -26 92t-83 39q-52 0 -95.5 -39t-51.5 -92z" />
<glyph unicode="A" horiz-adv-x="1417" d="M141 0v977q0 136 47 247.5t126 183t180 110t213 38.5q111 0 212.5 -39t181.5 -110t127.5 -183t47.5 -247v-977h-338v338h-459v-338h-338zM479 676h459v282q-1 123 -65.5 192t-165.5 69q-106 0 -167 -68.5t-61 -192.5v-282z" />
<glyph unicode="B" horiz-adv-x="1349" d="M162 0v1536h565q224 0 351.5 -120t127.5 -318q0 -77 -46.5 -154t-121.5 -121q82 -25 154 -124.5t72 -231.5q0 -216 -130.5 -341.5t-361.5 -125.5h-610zM500 297h196q50 0 88 7.5t72 27t52 57t18 92.5q0 49 -23 87t-59.5 58t-74 30t-73.5 10h-196v-369zM500 922h202 q65 0 115.5 38t50.5 119q0 80 -50 122t-116 42h-202v-321z" />
<glyph unicode="C" horiz-adv-x="1564" d="M94 768q0 160 61 305.5t165 251.5t249 168.5t305 62.5q187 0 346.5 -78.5t254.5 -213.5l-273 -197q-48 67 -137.5 108.5t-190.5 41.5q-83 0 -163.5 -37t-141 -97.5t-98 -143.5t-37.5 -171q0 -117 64 -222t167 -167t214 -62q118 0 208 55.5t146 133.5l266 -209 q-90 -142 -258 -235t-362 -93q-160 0 -306 63.5t-250.5 171t-166.5 255t-62 309.5z" />
<glyph unicode="D" horiz-adv-x="1544" d="M162 0v1536h485q171 0 318 -53t254.5 -150.5t169 -243t61.5 -321.5q0 -171 -59.5 -315t-165 -243t-254.5 -154.5t-324 -55.5h-485zM498 334h178q200 0 320 116.5t120 315.5q0 187 -121.5 312.5t-292.5 125.5h-204v-870z" />
<glyph unicode="E" horiz-adv-x="1351" d="M162 0v1536h1042v-334h-704v-307h579v-330h-579v-231h717v-334h-1055z" />
<glyph unicode="F" horiz-adv-x="1304" d="M162 0v1536h1042v-334h-704v-307h579v-330h-579v-565h-338z" />
<glyph unicode="G" horiz-adv-x="1640" d="M94 768q0 160 61 305.5t165 251.5t249 168.5t305 62.5q187 0 346.5 -78.5t254.5 -213.5l-273 -197q-48 67 -137.5 108.5t-190.5 41.5q-83 0 -163.5 -37t-141 -97.5t-98 -143.5t-37.5 -171q0 -117 64 -222t167 -167t214 -62q109 0 176.5 19t126.5 61v189h-363v309h674 l2 -664q-93 -127 -253.5 -194.5t-362.5 -67.5q-160 0 -306 63.5t-250.5 171t-166.5 255t-62 309.5z" />
<glyph unicode="H" horiz-adv-x="1548" d="M164 0v1536h338v-641h547v641h337v-1536h-337v561h-547v-561h-338z" />
<glyph unicode="I" horiz-adv-x="663" d="M162 0v1536h338v-1536h-338z" />
<glyph unicode="J" horiz-adv-x="1146" d="M39 205l248 190q84 -112 192 -112q91 0 140 63t49 213v977h338v-977q-1 -146 -29.5 -254.5t-74 -171.5t-113.5 -101t-135.5 -50.5t-153.5 -12.5q-289 0 -461 236z" />
<glyph unicode="K" horiz-adv-x="1482" d="M162 0v1536h338v-596l479 596h412l-539 -684l598 -852h-426l-397 571l-127 -157v-414h-338z" />
<glyph unicode="L" horiz-adv-x="1298" d="M162 0v1530h338v-1192h712v-338h-1050z" />
<glyph unicode="M" horiz-adv-x="1904" d="M162 0v1569l794 -803l787 803v-1569h-338v745l-447 -448l-458 448v-745h-338z" />
<glyph unicode="N" horiz-adv-x="1595" d="M162 0v1567l934 -846v813h338v-1565l-934 832v-801h-338z" />
<glyph unicode="O" horiz-adv-x="1769" d="M94 766q0 164 61.5 312t166.5 255.5t251.5 170.5t309.5 63q164 0 311 -63t252 -170.5t167 -255.5t62 -312q0 -163 -62 -310.5t-167 -254t-252 -169.5t-311 -63q-163 0 -309.5 63t-251.5 169.5t-166.5 254t-61.5 310.5zM436 770q0 -119 59.5 -223.5t163.5 -168t226 -63.5 q124 0 228.5 63.5t164 168t59.5 223.5q0 191 -131 326t-321 135q-187 0 -318 -135t-131 -326z" />
<glyph unicode="P" horiz-adv-x="1376" d="M162 0v1534h534q164 0 299 -75t214 -210t79 -303q0 -165 -78.5 -304.5t-215 -221.5t-298.5 -82h-196v-338h-338zM500 672h188q109 0 185.5 71.5t76.5 180.5q0 114 -76.5 195t-185.5 81h-188v-528z" />
<glyph unicode="Q" horiz-adv-x="1773" d="M94 766q0 164 61.5 312t166.5 255.5t251.5 170.5t309.5 63q164 0 311 -63t252 -170.5t167 -255.5t62 -312q0 -253 -139 -457l143 -147l-215 -215l-145 149q-198 -127 -436 -127q-163 0 -309.5 63t-251.5 169.5t-166.5 254t-61.5 310.5zM436 770q0 -119 59.5 -223.5 t163.5 -168t226 -63.5q95 0 184 39l-139 146l215 213l141 -148q51 97 51 205q0 191 -131 326t-321 135q-187 0 -318 -135t-131 -326z" />
<glyph unicode="R" horiz-adv-x="1396" d="M162 0v1534h534q164 0 299 -75t214 -210t79 -303q0 -152 -67.5 -282t-184.5 -215q11 -18 39.5 -65t89.5 -148.5t144 -235.5h-383l-209 338h-21h-196v-338h-338zM500 672h188q108 0 185 77t77 187q0 113 -76 188.5t-186 75.5h-188v-528z" />
<glyph unicode="S" horiz-adv-x="1255" d="M70 317l243 189q59 -85 153 -145q89 -56 179 -56h12q66 3 108 39.5t40 83.5q-1 50 -82.5 109.5t-214.5 109.5q-92 35 -159.5 75.5t-123 97t-84 133t-28.5 171.5q0 61 20 121.5t60.5 115.5t95.5 97t131 67t162 25q61 0 101.5 -3t102.5 -16.5t113 -39.5t114 -75.5 t124 -119.5l-263 -194q-78 76 -145.5 99.5t-146.5 23.5q-51 0 -91 -31.5t-40 -69.5q0 -29 13.5 -50t60.5 -49t137 -62q81 -29 147.5 -61.5t133.5 -79.5t113 -100t74.5 -125t28.5 -153q0 -91 -36.5 -176.5t-100.5 -151.5t-159.5 -105.5t-205.5 -39.5q-189 0 -331 83.5 t-256 262.5z" />
<glyph unicode="T" horiz-adv-x="1349" d="M86 1202v334h1178v-334h-422v-1202h-338v1202h-418z" />
<glyph unicode="U" horiz-adv-x="1513" d="M141 555v981h338v-922q0 -128 78.5 -205t200.5 -77q117 0 196 77t80 205v922h338v-981q0 -113 -36.5 -209.5t-97.5 -164t-140.5 -115.5t-166 -70.5t-173.5 -22.5q-111 0 -218.5 37t-197.5 107t-145.5 184t-55.5 254z" />
<glyph unicode="V" horiz-adv-x="1419" d="M6 1536h367l338 -784l338 784h366l-704 -1569z" />
<glyph unicode="W" horiz-adv-x="1955" d="M29 1536h362l318 -784l96 227l-240 557h363l317 -784l318 784h366l-684 -1569l-264 606l-272 -606z" />
<glyph unicode="X" horiz-adv-x="1505" d="M14 0l535 805l-479 731h397l285 -434l288 434h404l-494 -731l541 -805h-410l-329 498l-332 -498h-406z" />
<glyph unicode="Y" horiz-adv-x="1404" d="M4 1536h375l319 -631l330 631h373l-533 -1026v-510h-338v510z" />
<glyph unicode="Z" horiz-adv-x="1411" d="M2 0l789 1198h-603v338h1221l-778 -1198h690v-338h-1319z" />
<glyph unicode="[" horiz-adv-x="724" d="M123 -328v2028h481v-301h-178v-1426h178v-301h-481z" />
<glyph unicode="\" horiz-adv-x="1138" d="M27 1536h364l727 -1536h-368z" />
<glyph unicode="]" horiz-adv-x="724" d="M123 -27h178v1426h-178v301h481v-2028h-481v301z" />
<glyph unicode="^" horiz-adv-x="962" d="M51 1225l324 327h213l323 -327h-321l-109 106l-110 -106h-320z" />
<glyph unicode="_" horiz-adv-x="1343" d="M63 0h1182v-305h-1182v305z" />
<glyph unicode="`" horiz-adv-x="1196" d="M209 1536h416l241 -240h-415z" />
<glyph unicode="a" d="M61 557q0 126 49 239t126 188t171 119t185 44q121 0 213.5 -48t142.5 -122l15 139h319v-1116h-319l-15 139q-56 -77 -145 -123.5t-211 -46.5q-102 0 -197.5 42t-170 116.5t-119 186.5t-44.5 243zM395 559q0 -121 84 -207t203 -86t201 86t82 207q0 120 -85 208.5 t-198 88.5q-119 0 -203 -88t-84 -209z" />
<glyph unicode="b" d="M121 0v1536h334v-559q50 74 142.5 122t213.5 48q73 0 148 -27.5t143 -80t122 -123t85.5 -164t31.5 -195.5q0 -131 -44.5 -243t-118.5 -186.5t-169.5 -116.5t-197.5 -42q-122 0 -211 46.5t-145 123.5l-15 -139h-319zM438 559q0 -121 82 -207t201 -86t203 86t84 207 t-84 209t-203 88q-113 0 -198 -88.5t-85 -208.5z" />
<glyph unicode="c" horiz-adv-x="1155" d="M61 557q0 159 77.5 294.5t212 215.5t292.5 80q135 0 255.5 -60.5t201.5 -164.5l-244 -185q-40 49 -97 79t-118 30q-114 0 -194 -86t-80 -203q0 -118 79.5 -200.5t194.5 -82.5q70 0 131 33.5t98 89.5l244 -186q-81 -112 -205.5 -177t-265.5 -65q-158 0 -292.5 79 t-212 214.5t-77.5 294.5z" />
<glyph unicode="d" d="M61 557q0 126 49 239t126 188t171 119t185 44q121 0 213.5 -48t142.5 -122v559h334v-1536h-319l-15 139q-56 -77 -145 -123.5t-211 -46.5q-102 0 -197.5 42t-170 116.5t-119 186.5t-44.5 243zM395 559q0 -121 84 -207t203 -86t201 86t82 207q0 120 -85 208.5t-198 88.5 q-119 0 -203 -88t-84 -209z" />
<glyph unicode="e" horiz-adv-x="1202" d="M61 555q0 85 24.5 170t73 160.5t114.5 134.5t155 93t188 34q102 0 190 -38t148 -99.5t103.5 -139.5t63.5 -158t20 -155v-106h-783q25 -90 97 -140.5t161 -50.5q84 0 142 21.5t106 72.5l228 -174q-75 -88 -209 -149.5t-267 -61.5q-108 0 -200.5 34.5t-156.5 92.5 t-109.5 134t-67 158.5t-21.5 166.5zM371 705h473q-15 66 -82.5 119t-145.5 53q-88 0 -156 -51t-89 -121z" />
<glyph unicode="f" horiz-adv-x="905" d="M14 805v311h152v74q0 108 31 184t87.5 116.5t123 57.5t151.5 17q101 0 197.5 -54t150.5 -127l-235 -178q-31 40 -55 58t-54 18q-27 0 -41.5 -15t-18 -33t-3.5 -46v-72h248v-311h-248v-805h-334v805h-152z" />
<glyph unicode="g" horiz-adv-x="1386" d="M61 557q0 126 49 239t126 188t171 119t185 44q121 0 213.5 -48t142.5 -122l15 139h319v-1055q0 -179 -78.5 -317.5t-216.5 -212.5t-313 -74q-150 0 -290 64.5t-222 181.5l244 184q49 -62 121 -96.5t147 -34.5q118 0 193.5 80t80.5 211v92q-56 -77 -145 -123.5t-211 -46.5 q-102 0 -197.5 42t-170 116.5t-119 186.5t-44.5 243zM395 559q0 -121 84 -207t203 -86t201 86t82 207q0 120 -85 208.5t-198 88.5q-119 0 -203 -88t-84 -209z" />
<glyph unicode="h" horiz-adv-x="1333" d="M121 0v1536h334v-573q61 75 149.5 129.5t190.5 54.5q75 0 137.5 -14.5t121 -52t98 -97t63.5 -154.5t24 -219v-610h-334v545q0 159 -41.5 227t-146.5 68q-89 0 -161.5 -49.5t-100.5 -118.5v-672h-334z" />
<glyph unicode="i" horiz-adv-x="575" d="M106 1374q0 75 53 128.5t128 53.5t128.5 -53.5t53.5 -128.5t-53.5 -127.5t-128.5 -52.5t-128 52.5t-53 127.5zM121 0v1116h334v-1116h-334z" />
<glyph unicode="j" horiz-adv-x="886" d="M45 -352l227 174q3 -4 13 -16.5l14 -17.5t13.5 -14t16.5 -13t18 -7.5t22 -3.5q43 0 55 49.5t12 159.5v1157h334v-1157q0 -90 -11.5 -163t-30.5 -124.5t-49 -90.5t-62.5 -62t-75 -37.5t-83 -19.5t-89.5 -5q-190 0 -324 191zM420 1374q0 75 52.5 128.5t127.5 53.5 t128.5 -53.5t53.5 -128.5t-53.5 -127.5t-128.5 -52.5t-127.5 52.5t-52.5 127.5z" />
<glyph unicode="k" horiz-adv-x="1206" d="M121 0v1536h334v-797l301 377h413l-393 -475l426 -641h-399l-248 373l-100 -121v-252h-334z" />
<glyph unicode="l" horiz-adv-x="575" d="M121 0v1536h334v-1536h-334z" />
<glyph unicode="m" horiz-adv-x="2099" d="M121 0v1116h319l15 -153q62 76 148 130t188 54q258 0 364 -184q67 75 184 129.5t226 54.5q75 0 137.5 -14.5t120 -52t96.5 -97t62.5 -154.5t23.5 -219v-610h-334v545q0 160 -39.5 227.5t-144.5 67.5q-88 0 -158 -49t-100 -117q2 -20 2 -64v-610h-334v545 q0 160 -39.5 227.5t-144.5 67.5q-89 0 -159.5 -49.5t-98.5 -118.5v-672h-334z" />
<glyph unicode="n" horiz-adv-x="1333" d="M121 0v1116h319l15 -153q61 75 149.5 129.5t190.5 54.5q75 0 137.5 -14.5t121 -52t98 -97t63.5 -154.5t24 -219v-610h-334v545q0 159 -41.5 227t-146.5 68q-89 0 -161.5 -49.5t-100.5 -118.5v-672h-334z" />
<glyph unicode="o" horiz-adv-x="1288" d="M61 559q0 157 77.5 292.5t212 215.5t292.5 80t293 -80t213 -215.5t78 -292.5q0 -159 -78.5 -294.5t-213 -214.5t-292.5 -79t-292.5 79t-212 214.5t-77.5 294.5zM379 563q0 -114 76 -193t188 -79t190 79t78 193q0 112 -78.5 194.5t-189.5 82.5t-187.5 -82.5t-76.5 -194.5z " />
<glyph unicode="p" d="M121 -512v1628h319l15 -139q56 77 145 123.5t211 46.5q102 0 197.5 -42t169.5 -116.5t118.5 -186.5t44.5 -243q0 -102 -31.5 -195.5t-85.5 -164t-122 -123t-143 -80t-148 -27.5q-121 0 -213.5 48t-142.5 122v-651h-334zM438 557q0 -120 85 -208.5t198 -88.5q119 0 203 88 t84 209t-84 207t-203 86t-201 -86t-82 -207z" />
<glyph unicode="q" d="M61 559q0 131 44.5 243t119 186.5t170 116.5t197.5 42q122 0 211 -46.5t145 -123.5l15 139h319v-1628h-334v651q-50 -74 -142.5 -122t-213.5 -48q-91 0 -185 44t-171 119t-126 188t-49 239zM395 557q0 -121 84 -209t203 -88q113 0 198 88.5t85 208.5q0 121 -82 207 t-201 86t-203 -86t-84 -207z" />
<glyph unicode="r" horiz-adv-x="811" d="M121 0v1116h319l15 -153q61 75 149.5 129.5t190.5 54.5v-334q-122 0 -212.5 -45.5t-127.5 -136.5v-631h-334z" />
<glyph unicode="s" horiz-adv-x="1011" d="M55 225l224 166q44 -56 103 -88.5t116 -32.5q42 0 76 12t34 35q0 10 -3 19t-10.5 17.5t-14.5 15t-20 14t-21 12t-24 11t-23.5 9.5t-24 9t-21.5 8q-205 78 -288.5 171.5t-83.5 230.5q0 129 117 221t290 92q286 0 445 -184l-221 -164q-41 38 -101.5 58t-97.5 20 q-45 0 -80 -12t-35 -38q0 -17 19 -30.5t69 -32.5q117 -42 195 -81t142.5 -91.5t95 -120t30.5 -154.5q0 -149 -115 -248.5t-295 -99.5q-139 0 -271 68t-206 188z" />
<glyph unicode="t" horiz-adv-x="868" d="M20 805v311h136v256h333v-256h291v-311h-291v-473q0 -66 35 -66q24 0 54 33t51 66l235 -177q-91 -117 -167.5 -168t-172.5 -51q-70 0 -134.5 22.5t-117.5 64t-84.5 108.5t-31.5 149v492h-136z" />
<glyph unicode="u" horiz-adv-x="1333" d="M94 506v610h334v-545q0 -159 41.5 -227t146.5 -68q89 0 162 49.5t101 118.5v672h333v-1116h-319l-14 154q-61 -76 -149.5 -130.5t-190.5 -54.5q-75 0 -138 14.5t-121 52t-98 97t-64 154.5t-24 219z" />
<glyph unicode="v" horiz-adv-x="1214" d="M-12 1116h356l264 -495l260 495h359l-619 -1149z" />
<glyph unicode="w" horiz-adv-x="1667" d="M-12 1116h350l246 -495l82 149l-179 346h347l249 -495l236 495h358l-594 -1149l-252 484l-247 -484z" />
<glyph unicode="x" horiz-adv-x="1150" d="M-12 0l407 588l-360 528h366l172 -260l181 260h362l-364 -528l411 -588h-368l-222 322l-221 -322h-364z" />
<glyph unicode="y" horiz-adv-x="1134" d="M-23 1116h347l245 -512l232 512h358l-753 -1628h-336l344 764z" />
<glyph unicode="z" horiz-adv-x="1132" d="M-4 0l579 813h-483v303h1055l-567 -803h493v-313h-1077z" />
<glyph unicode="{" horiz-adv-x="864" d="M55 606v131q99 36 149 127.5t50 206.5q0 278 144.5 442t371.5 164v-286q-67 0 -118 -50.5t-75 -120.5t-24 -143q0 -152 -41.5 -246.5t-122.5 -158.5q80 -56 122 -148.5t42 -240.5q0 -76 23.5 -150.5t75 -129t118.5 -54.5v-299q-144 0 -262.5 85t-186 231.5t-67.5 322.5 q0 113 -50 199t-149 118z" />
<glyph unicode="|" horiz-adv-x="587" d="M137 -166v1899h305v-1899h-305z" />
<glyph unicode="}" horiz-adv-x="868" d="M55 -51q67 0 118.5 54.5t75 129t23.5 150.5q0 148 42 240.5t122 148.5q-81 64 -122.5 158.5t-41.5 246.5q0 73 -24 143t-75 120.5t-118 50.5v286q227 0 371.5 -164t144.5 -442q0 -115 50 -206.5t149 -127.5v-131q-99 -32 -149 -118t-50 -199q0 -176 -67.5 -322.5 t-186 -231.5t-262.5 -85v299z" />
<glyph unicode="&#xa1;" horiz-adv-x="583" d="M115 1380q0 73 51 124.5t125 51.5q73 0 125.5 -52t52.5 -124q0 -74 -52.5 -126t-125.5 -52q-74 0 -125 52t-51 126zM125 0v1085h334v-1085h-334z" />
<glyph unicode="&#xa2;" horiz-adv-x="1533" d="M131 752q0 274 156 479t409 268v260h316v-243q152 -22 277 -93.5t202 -183.5l-272 -197q-47 66 -136 104t-192 38q-112 0 -213 -57t-164 -157.5t-63 -217.5t64 -218t166 -159t214 -58q119 0 209 52.5t145 128.5l267 -209q-75 -119 -209 -202.5t-295 -106.5v-224h-316v240 q-252 65 -408.5 273t-156.5 483z" />
<glyph unicode="&#xa3;" horiz-adv-x="1482" d="M37 307q0 130 91 227t234 97l39 -2l-10 30h-162l-2 275h105q-15 64 -15 158q0 91 32.5 169.5t93.5 137t155 92t211 33.5q128 0 250.5 -80.5t202.5 -190.5l-250 -155q-44 58 -101 94.5t-114 36.5q-96 0 -139.5 -46t-43.5 -120q0 -24 5 -56.5t11 -52.5l5 -20h280l3 -275 h-238q17 -88 25 -137l26 -33q36 -43 66 -74t74 -68.5t90 -58t90 -20.5q56 0 125 49l194 -215q-85 -68 -159.5 -94t-178.5 -26q-115 0 -224.5 58.5t-168.5 135.5q-37 -101 -108 -147.5t-193 -46.5q-137 0 -219 88.5t-82 236.5zM283 305q0 -24 13 -38.5t34 -14.5q40 0 62 34.5 t20 78.5q-43 17 -68 10q-30 -7 -45.5 -27t-15.5 -43z" />
<glyph unicode="&#xa5;" horiz-adv-x="1339" d="M-8 1495h370l304 -610l313 610h369l-342 -657h79v-277h-223l-26 -51h249v-274h-249v-236h-338v236h-271v274h271l-27 51h-244v277h101z" />
<glyph unicode="&#xa7;" horiz-adv-x="1380" d="M109 578q0 62 23.5 117t63 95.5t78 68t80.5 48.5q-46 41 -74 104t-28 124q0 143 131.5 252.5t335.5 109.5q135 0 257.5 -66.5t201.5 -201.5l-256 -166q-33 54 -88 93.5t-109 39.5t-88.5 -19.5t-34.5 -48.5q0 -90 213 -151q68 -21 128.5 -49t119 -69.5t100.5 -90.5 t68 -114t26 -138q0 -70 -19 -130.5t-52 -103t-67.5 -72t-74.5 -50.5q82 -85 82 -215q0 -167 -128.5 -269t-340.5 -102q-133 0 -254.5 69.5t-201.5 204.5l248 162q48 -63 73 -84q57 -49 129 -49q64 0 103 22t39 58q0 107 -234 168q-198 54 -324 169.5t-126 283.5zM420 606 q-11 -56 58.5 -110.5t176.5 -73.5q108 -22 193 4t94 82q12 55 -59 115.5t-176 78.5q-108 20 -193 -9t-94 -87z" />
<glyph unicode="&#xa8;" horiz-adv-x="1204" d="M205 1395q0 74 51.5 126t124.5 52t125.5 -52.5t52.5 -125.5t-52 -124.5t-126 -51.5q-73 0 -124.5 51.5t-51.5 124.5zM668 1395q0 74 51.5 126t124.5 52q74 0 126 -52.5t52 -125.5t-52 -124.5t-126 -51.5t-125 51.5t-51 124.5z" />
<glyph unicode="&#xab;" horiz-adv-x="1378" d="M55 561l357 535h399l-358 -535l358 -536h-399zM526 561l357 535h399l-358 -535l358 -536h-399z" />
<glyph unicode="&#xad;" horiz-adv-x="909" d="M135 442v328h639v-328h-639z" />
<glyph unicode="&#xaf;" horiz-adv-x="950" d="M215 1335v275h604v-275h-604z" />
<glyph unicode="&#xb0;" horiz-adv-x="927" d="M72 1135q0 157 111 267.5t268 110.5t267.5 -110.5t110.5 -267.5t-110.5 -268t-267.5 -111t-268 111t-111 268zM338 1135q0 -47 33 -80t80 -33t79.5 33t32.5 80t-32.5 79.5t-79.5 32.5t-80 -32.5t-33 -79.5z" />
<glyph unicode="&#xb1;" horiz-adv-x="1206" d="M59 754v333h324v310h332v-310h315v-333h-315v-305h-332v305h-324zM233 0v328h639v-328h-639z" />
<glyph unicode="&#xb4;" horiz-adv-x="1054" d="M209 1296l242 240h415l-241 -240h-416z" />
<glyph unicode="&#xb7;" horiz-adv-x="501" d="M61 782q0 75 54 129t129 54q74 0 127 -54t53 -129q0 -74 -53 -127t-127 -53q-75 0 -129 53t-54 127z" />
<glyph unicode="&#xb8;" horiz-adv-x="749" d="M66 -109l153 463h338l-201 -463h-290z" />
<glyph unicode="&#xbb;" horiz-adv-x="1382" d="M35 25l358 536l-358 535h399l357 -535l-357 -536h-399zM506 25l358 536l-358 535h399l357 -535l-357 -536h-399z" />
<glyph unicode="&#xbf;" horiz-adv-x="1277" d="M160 459q0 49 9.5 90.5t33.5 81.5t40 62t55.5 67t53.5 61q10 12 41 48.5t46 55.5t29.5 49.5t14.5 55.5v66h332v-88q0 -57 -23.5 -111.5t-50 -87.5t-83 -95t-85.5 -98q-75 -92 -75 -155q0 -43 16 -74t41.5 -46t50 -21.5t49.5 -6.5q20 0 42.5 5.5t50 21.5t49 40.5 t36.5 67.5t15 97h338q0 -134 -43.5 -243t-117.5 -177.5t-168.5 -105.5t-199.5 -37q-111 0 -206 41t-157.5 108.5t-98 152.5t-35.5 175zM465 1391q0 72 52.5 124t125.5 52q74 0 125 -51.5t51 -124.5q0 -74 -51 -126.5t-125 -52.5q-73 0 -125.5 52.5t-52.5 126.5z" />
<glyph unicode="&#xc0;" horiz-adv-x="1376" d="M121 0v977q0 109 30.5 203t83.5 162.5t124.5 117t154.5 72.5t172 24q111 0 212.5 -39t181.5 -110t127.5 -183t47.5 -247v-977h-337v338h-459v-338h-338zM236 1878h415l242 -240h-416zM459 676h459v282q-1 123 -66 192t-166 69q-106 0 -166.5 -68t-60.5 -193v-282z" />
<glyph unicode="&#xc1;" horiz-adv-x="1376" d="M121 0v977q0 109 30.5 203t83.5 162.5t124.5 117t154.5 72.5t172 24q111 0 212.5 -39t181.5 -110t127.5 -183t47.5 -247v-977h-337v338h-459v-338h-338zM440 1638l242 240h416l-242 -240h-416zM459 676h459v282q-1 123 -66 192t-166 69q-106 0 -166.5 -68t-60.5 -193 v-282z" />
<glyph unicode="&#xc2;" horiz-adv-x="1378" d="M123 0v977q0 109 30.5 203t83.5 162.5t124.5 117t154.5 72.5t172 24q111 0 212.5 -39t181.5 -110t127.5 -183t47.5 -247v-977h-337v338h-459v-338h-338zM258 1638l324 328h213l323 -328h-321l-109 107l-110 -107h-320zM461 676h459v282q-1 123 -66 192t-166 69 q-106 0 -166.5 -68t-60.5 -193v-282z" />
<glyph unicode="&#xc3;" horiz-adv-x="1376" d="M121 0v977q0 109 30.5 203t83.5 162.5t124.5 117t154.5 72.5t172 24q111 0 212.5 -39t181.5 -110t127.5 -183t47.5 -247v-977h-337v338h-459v-338h-338zM354 1642v285q8 6 21.5 14.5t55.5 22.5t83 14q66 0 168.5 -32.5t179.5 -32.5q41 0 80 11.5t58 23.5l18 12v-289 q-7 -5 -20.5 -13.5t-54.5 -22t-81 -13.5q-46 0 -174 36t-174 36q-41 0 -81 -13t-59 -26zM459 676h459v282q-1 123 -66 192t-166 69q-106 0 -166.5 -68t-60.5 -193v-282z" />
<glyph unicode="&#xc4;" horiz-adv-x="1376" d="M121 0v977q0 109 30.5 203t83.5 162.5t124.5 117t154.5 72.5t172 24q111 0 212.5 -39t181.5 -110t127.5 -183t47.5 -247v-977h-337v338h-459v-338h-338zM279 1806q0 74 51.5 126.5t124.5 52.5t125.5 -52.5t52.5 -126.5q0 -73 -52 -124.5t-126 -51.5q-73 0 -124.5 51 t-51.5 125zM459 676h459v282q-1 123 -66 192t-166 69q-106 0 -166.5 -68t-60.5 -193v-282zM741 1806q0 74 52 126.5t125 52.5t125.5 -52.5t52.5 -126.5q0 -73 -52 -124.5t-126 -51.5t-125.5 51.5t-51.5 124.5z" />
<glyph unicode="&#xc5;" horiz-adv-x="1376" d="M121 0v977q0 109 30.5 203t83.5 162.5t124.5 117t154.5 72.5t172 24q111 0 212.5 -39t181.5 -110t127.5 -183t47.5 -247v-977h-337v338h-459v-338h-338zM408 1911q0 115 81 196.5t197 81.5t197.5 -81.5t81.5 -196.5t-81.5 -197t-197.5 -82q-115 0 -196.5 81.5 t-81.5 197.5zM459 676h459v282q-1 123 -66 192t-166 69q-106 0 -166.5 -68t-60.5 -193v-282zM614 1911q0 -29 21.5 -50.5t50.5 -21.5t50.5 21.5t21.5 50.5t-21.5 50t-50.5 21t-50.5 -21t-21.5 -50z" />
<glyph unicode="&#xc6;" horiz-adv-x="2127" d="M141 0v977q0 136 47 247.5t126 183t180 110t213 38.5q67 0 124.5 -17t82.5 -33l24 -17v47h1042v-334h-704v-307h579v-330h-579v-231h717v-334h-1055v338h-459v-338h-338zM479 676h459v282q-1 123 -65.5 192t-165.5 69q-106 0 -167 -68.5t-61 -192.5v-282z" />
<glyph unicode="&#xc7;" horiz-adv-x="1564" d="M94 768q0 160 61 305.5t165 251.5t249 168.5t305 62.5q187 0 346.5 -78.5t254.5 -213.5l-273 -197q-48 67 -137.5 108.5t-190.5 41.5q-83 0 -163.5 -37t-141 -97.5t-98 -143.5t-37.5 -171q0 -117 64 -222t167 -167t214 -62q118 0 208 55.5t146 133.5l266 -209 q-79 -126 -222 -215t-314 -109l-132 -301h-290l108 332q-244 76 -399.5 287t-155.5 477z" />
<glyph unicode="&#xc8;" horiz-adv-x="1310" d="M141 0v1536h1043v-334h-705v-307h580v-330h-580v-231h717v-334h-1055zM291 1878h416l241 -240h-416z" />
<glyph unicode="&#xc9;" horiz-adv-x="1310" d="M141 0v1536h1043v-334h-705v-307h580v-330h-580v-231h717v-334h-1055zM414 1638l241 240h416l-242 -240h-415z" />
<glyph unicode="&#xca;" horiz-adv-x="1310" d="M141 0v1536h1043v-334h-705v-307h580v-330h-580v-231h717v-334h-1055zM233 1638l324 328h213l324 -328h-322l-108 107l-111 -107h-320z" />
<glyph unicode="&#xcb;" horiz-adv-x="1310" d="M141 0v1536h1043v-334h-705v-307h580v-330h-580v-231h717v-334h-1055zM236 1808q0 74 51.5 126.5t124.5 52.5t125.5 -52.5t52.5 -126.5q0 -73 -52 -124.5t-126 -51.5t-125 51t-51 125zM698 1808q0 74 51.5 126.5t124.5 52.5q74 0 126.5 -52.5t52.5 -126.5 q0 -73 -52.5 -124.5t-126.5 -51.5t-125 51t-51 125z" />
<glyph unicode="&#xcc;" horiz-adv-x="622" d="M-119 1878h416l242 -240h-416zM141 0v1536h338v-1536h-338z" />
<glyph unicode="&#xcd;" horiz-adv-x="622" d="M86 1638l242 240h415l-241 -240h-416zM141 0v1536h338v-1536h-338z" />
<glyph unicode="&#xce;" horiz-adv-x="622" d="M-121 1638l324 328h213l323 -328h-321l-109 107l-110 -107h-320zM141 0v1536h338v-1536h-338z" />
<glyph unicode="&#xcf;" horiz-adv-x="622" d="M-96 1833q0 74 51.5 126t124.5 52q74 0 126 -52.5t52 -125.5t-52 -124.5t-126 -51.5t-125 51.5t-51 124.5zM141 0v1536h338v-1536h-338zM367 1833q0 74 51.5 126t124.5 52t125.5 -52.5t52.5 -125.5t-52 -124.5t-126 -51.5q-73 0 -124.5 51.5t-51.5 124.5z" />
<glyph unicode="&#xd0;" horiz-adv-x="1568" d="M70 596v328h116v612h486q171 0 318 -53t254.5 -150.5t169 -243t61.5 -321.5q0 -171 -59.5 -315t-165 -243t-254.5 -154.5t-324 -55.5h-486v596h-116zM522 334h178q201 0 321 116.5t120 315.5q0 187 -121.5 312.5t-292.5 125.5h-205v-280h269v-328h-269v-262z" />
<glyph unicode="&#xd1;" horiz-adv-x="1554" d="M141 0v1567l934 -846v813h338v-1565l-934 832v-801h-338zM406 1636v285q8 6 21.5 14.5t55 22.5t82.5 14q66 0 168.5 -32.5t179.5 -32.5q41 0 80 11.5t57 23.5l19 12v-289q-7 -5 -20.5 -13.5t-54.5 -22t-81 -13.5q-46 0 -174 36t-174 36q-41 0 -80.5 -13t-58.5 -26z" />
<glyph unicode="&#xd2;" horiz-adv-x="1728" d="M74 766q0 164 61.5 312t166.5 255.5t251 170.5t309 63q218 0 400.5 -107t287.5 -291t105 -403q0 -218 -105 -401t-287.5 -289.5t-400.5 -106.5q-217 0 -398.5 106.5t-285.5 289.5t-104 401zM416 770q0 -119 59 -223.5t163 -168t226 -63.5q124 0 229 63.5t164.5 168 t59.5 223.5q0 191 -131.5 326t-321.5 135q-187 0 -317.5 -135t-130.5 -326zM455 1878h415l242 -240h-416z" />
<glyph unicode="&#xd3;" horiz-adv-x="1728" d="M74 766q0 164 61.5 312t166.5 255.5t251 170.5t309 63q218 0 400.5 -107t287.5 -291t105 -403q0 -218 -105 -401t-287.5 -289.5t-400.5 -106.5q-217 0 -398.5 106.5t-285.5 289.5t-104 401zM416 770q0 -119 59 -223.5t163 -168t226 -63.5q124 0 229 63.5t164.5 168 t59.5 223.5q0 191 -131.5 326t-321.5 135q-187 0 -317.5 -135t-130.5 -326zM635 1638l242 240h415l-241 -240h-416z" />
<glyph unicode="&#xd4;" horiz-adv-x="1728" d="M74 766q0 164 61.5 312t166.5 255.5t251 170.5t309 63q218 0 400.5 -107t287.5 -291t105 -403q0 -218 -105 -401t-287.5 -289.5t-400.5 -106.5q-217 0 -398.5 106.5t-285.5 289.5t-104 401zM416 770q0 -119 59 -223.5t163 -168t226 -63.5q124 0 229 63.5t164.5 168 t59.5 223.5q0 191 -131.5 326t-321.5 135q-187 0 -317.5 -135t-130.5 -326zM434 1638l324 328h213l323 -328h-321l-109 107l-110 -107h-320z" />
<glyph unicode="&#xd5;" horiz-adv-x="1728" d="M74 766q0 164 61.5 312t166.5 255.5t251 170.5t309 63q218 0 400.5 -107t287.5 -291t105 -403q0 -218 -105 -401t-287.5 -289.5t-400.5 -106.5q-217 0 -398.5 106.5t-285.5 289.5t-104 401zM416 770q0 -119 59 -223.5t163 -168t226 -63.5q124 0 229 63.5t164.5 168 t59.5 223.5q0 191 -131.5 326t-321.5 135q-187 0 -317.5 -135t-130.5 -326zM532 1655v284q8 6 21.5 14.5t55.5 23t83 14.5q66 0 168.5 -33t179.5 -33q41 0 80 11.5t58 23.5l18 12v-289q-7 -5 -20.5 -13.5t-54.5 -22t-81 -13.5q-46 0 -174 36t-174 36q-41 0 -81 -13t-59 -25z " />
<glyph unicode="&#xd6;" horiz-adv-x="1728" d="M74 766q0 164 61.5 312t166.5 255.5t251 170.5t309 63q218 0 400.5 -107t287.5 -291t105 -403q0 -218 -105 -401t-287.5 -289.5t-400.5 -106.5q-217 0 -398.5 106.5t-285.5 289.5t-104 401zM416 770q0 -119 59 -223.5t163 -168t226 -63.5q124 0 229 63.5t164.5 168 t59.5 223.5q0 191 -131.5 326t-321.5 135q-187 0 -317.5 -135t-130.5 -326zM457 1815q0 74 51.5 126t124.5 52t125.5 -52.5t52.5 -125.5t-52 -125t-126 -52q-73 0 -124.5 51.5t-51.5 125.5zM920 1815q0 74 51.5 126t124.5 52q74 0 126 -52.5t52 -125.5t-52 -125t-126 -52 q-73 0 -124.5 51.5t-51.5 125.5z" />
<glyph unicode="&#xd7;" horiz-adv-x="1159" d="M96 920l232 231l231 -231l221 221l230 -230l-222 -221l226 -225l-232 -232l-225 226l-219 -217l-227 227l217 219z" />
<glyph unicode="&#xd8;" horiz-adv-x="1769" d="M94 766q0 164 61.5 312t166.5 255.5t251.5 170.5t309.5 63q252 0 452 -142l121 121l215 -215l-125 -125q129 -197 129 -440q0 -163 -62 -310.5t-167 -254t-252 -169.5t-311 -63q-246 0 -441 131l-112 -112l-217 217l114 114q-133 201 -133 447zM436 770q0 -105 45 -197 l609 609q-96 49 -205 49q-187 0 -318 -135t-131 -326zM698 356q87 -41 187 -41q124 0 228.5 63.5t164 168t59.5 223.5q0 99 -39 188z" />
<glyph unicode="&#xd9;" horiz-adv-x="1472" d="M121 555v981h338v-922q0 -128 78 -205t200 -77q117 0 196.5 77.5t80.5 204.5v922h338v-981q0 -113 -36.5 -209.5t-98 -164t-141 -115.5t-166 -70.5t-173.5 -22.5q-88 0 -175 22.5t-166.5 70.5t-140.5 115.5t-97.5 164t-36.5 209.5zM328 1878h415l242 -240h-416z" />
<glyph unicode="&#xda;" horiz-adv-x="1470" d="M121 555v981h338v-922q0 -128 78 -205t200 -77q117 0 196.5 77.5t80.5 204.5v922h338v-981q0 -113 -36.5 -209.5t-98 -164t-141 -115.5t-166 -70.5t-173.5 -22.5q-88 0 -175 22.5t-166.5 70.5t-140.5 115.5t-97.5 164t-36.5 209.5zM469 1638l242 240h415l-241 -240h-416z " />
<glyph unicode="&#xdb;" horiz-adv-x="1472" d="M121 555v981h338v-922q0 -128 78 -205t200 -77q117 0 196.5 77.5t80.5 204.5v922h338v-981q0 -113 -36.5 -209.5t-98 -164t-141 -115.5t-166 -70.5t-173.5 -22.5q-88 0 -175 22.5t-166.5 70.5t-140.5 115.5t-97.5 164t-36.5 209.5zM305 1638l324 328h213l323 -328h-321 l-109 107l-110 -107h-320z" />
<glyph unicode="&#xdc;" horiz-adv-x="1472" d="M121 555v981h338v-922q0 -128 78 -205t200 -77q117 0 196.5 77.5t80.5 204.5v922h338v-981q0 -113 -36.5 -209.5t-98 -164t-141 -115.5t-166 -70.5t-173.5 -22.5q-88 0 -175 22.5t-166.5 70.5t-140.5 115.5t-97.5 164t-36.5 209.5zM328 1812q0 74 51.5 126.5t124.5 52.5 t125.5 -52.5t52.5 -126.5q0 -73 -52 -124.5t-126 -51.5t-125 51t-51 125zM791 1812q0 74 51.5 126.5t124.5 52.5t125.5 -52.5t52.5 -126.5q0 -73 -52 -124.5t-126 -51.5q-73 0 -124.5 51t-51.5 125z" />
<glyph unicode="&#xdd;" horiz-adv-x="1363" d="M-16 1536h374l320 -631l330 631h372l-532 -1026v-510h-338v510zM434 1638l242 240h416l-242 -240h-416z" />
<glyph unicode="&#xde;" horiz-adv-x="1376" d="M162 0v1534l338 2v-168h196q164 0 299 -75t214 -210t79 -303q0 -165 -78.5 -304.5t-215 -221.5t-298.5 -82h-196v-172h-338zM500 506h188q109 0 185.5 71.5t76.5 180.5q0 114 -76.5 195t-185.5 81h-188v-528z" />
<glyph unicode="&#xdf;" horiz-adv-x="1275" d="M145 0v1174q0 182 97.5 271t255.5 89q87 0 172.5 -28.5t155 -79.5t112.5 -130.5t43 -173.5q0 -46 -21 -99.5t-63 -92.5q-69 -65 -66 -86q1 -10 28 -32.5t61 -43.5q297 -174 297 -412q0 -74 -24.5 -143t-70 -123.5t-118.5 -87.5t-162 -33q-102 0 -211.5 73.5t-153.5 166.5 l215 141q51 -88 152 -88q33 0 53.5 31.5t20.5 62.5q0 29 -13.5 56t-41 52t-49.5 40.5t-58 38.5q-48 30 -83 56.5t-70.5 63.5t-54 81t-18.5 94q0 49 24 86.5t89 105.5q41 37 41 94q0 60 -49 97t-100 34q-43 -3 -63.5 -25.5t-20.5 -55.5v-1174h-306z" />
<glyph unicode="&#xe0;" d="M61 557q0 -131 44.5 -243t119 -186.5t170 -116.5t197.5 -42q122 0 211 46.5t145 123.5l15 -139h319v1116h-319l-15 -139q-50 74 -142.5 122t-213.5 48q-91 0 -185 -44t-171 -119t-126 -188t-49 -239zM299 1507h416l241 -239h-415zM395 559q0 121 84 209t203 88 q113 0 198 -88.5t85 -208.5q0 -121 -82 -207t-201 -86t-203 86t-84 207z" />
<glyph unicode="&#xe1;" d="M61 557q0 -131 44.5 -243t119 -186.5t170 -116.5t197.5 -42q122 0 211 46.5t145 123.5l15 -139h319v1116h-319l-15 -139q-50 74 -142.5 122t-213.5 48q-91 0 -185 -44t-171 -119t-126 -188t-49 -239zM395 559q0 121 84 209t203 88q113 0 198 -88.5t85 -208.5 q0 -121 -82 -207t-201 -86t-203 86t-84 207zM401 1268l242 239h416l-242 -239h-416z" />
<glyph unicode="&#xe2;" d="M61 557q0 126 49 239t126 188t171 119t185 44q121 0 213.5 -48t142.5 -122l15 139h319v-1116h-319l-15 139q-56 -77 -145 -123.5t-211 -46.5q-102 0 -197.5 42t-170 116.5t-119 186.5t-44.5 243zM260 1268l324 327h213l323 -327h-321l-109 106l-110 -106h-320zM395 559 q0 -121 84 -207t203 -86t201 86t82 207q0 120 -85 208.5t-198 88.5q-119 0 -203 -88t-84 -209z" />
<glyph unicode="&#xe3;" d="M61 557q0 -131 44.5 -243t119 -186.5t170 -116.5t197.5 -42q122 0 211 46.5t145 123.5l15 -139h319v1116h-319l-15 -139q-50 74 -142.5 122t-213.5 48q-91 0 -185 -44t-171 -119t-126 -188t-49 -239zM356 1276v285q8 6 21.5 14.5t55.5 22.5t83 14q66 0 168.5 -33 t179.5 -33q41 0 80 12t58 24l18 11v-288q-7 -6 -20.5 -14t-54.5 -22t-81 -14q-46 0 -174 36t-174 36q-41 0 -81 -12.5t-59 -25.5zM395 559q0 121 84 209t203 88q113 0 198 -88.5t85 -208.5q0 -121 -82 -207t-201 -86t-203 86t-84 207z" />
<glyph unicode="&#xe4;" d="M61 557q0 -131 44.5 -243t119 -186.5t170 -116.5t197.5 -42q122 0 211 46.5t145 123.5l15 -139h319v1116h-319l-15 -139q-50 74 -142.5 122t-213.5 48q-91 0 -185 -44t-171 -119t-126 -188t-49 -239zM283 1440q0 74 51.5 126t124.5 52t125.5 -52t52.5 -126 q0 -73 -52 -124.5t-126 -51.5q-73 0 -124.5 51t-51.5 125zM395 559q0 121 84 209t203 88q113 0 198 -88.5t85 -208.5q0 -121 -82 -207t-201 -86t-203 86t-84 207zM745 1440q0 74 52 126t125 52q74 0 126 -52t52 -126q0 -73 -52 -124.5t-126 -51.5t-125.5 51.5t-51.5 124.5z " />
<glyph unicode="&#xe5;" d="M61 557q0 -131 44.5 -243t119 -186.5t170 -116.5t197.5 -42q122 0 211 46.5t145 123.5l15 -139h319v1116h-319l-15 -139q-50 74 -142.5 122t-213.5 48q-91 0 -185 -44t-171 -119t-126 -188t-49 -239zM395 559q0 121 84 209t203 88q113 0 198 -88.5t85 -208.5 q0 -121 -82 -207t-201 -86t-203 86t-84 207zM410 1528q0 116 81 197t197 81t197.5 -81.5t81.5 -196.5q0 -116 -81.5 -197.5t-197.5 -81.5q-115 0 -196.5 81.5t-81.5 197.5zM616 1528q0 -29 21.5 -50.5t50.5 -21.5t50.5 21.5t21.5 50.5t-21.5 50t-50.5 21t-50.5 -21 t-21.5 -50z" />
<glyph unicode="&#xe6;" horiz-adv-x="1923" d="M49 936q78 92 203.5 151.5t273.5 59.5q133 0 239.5 -51t178.5 -140q173 191 393 191q102 0 190 -38t148 -99.5t103.5 -139.5t63.5 -158t20 -155v-106h-783q25 -90 97 -140.5t161 -50.5q84 0 142 21.5t106 72.5l227 -174q-75 -88 -209 -149.5t-266 -61.5q-239 0 -395 191 q-28 -33 -67.5 -62.5t-98 -60t-141.5 -48.5t-178 -18q-195 0 -307 135q-44 56 -63 101.5t-19 111.5q0 97 48.5 179t129.5 136t186.5 84t220.5 30l113 -5q-26 54 -92.5 83.5t-136.5 29.5q-86 0 -148.5 -21t-112.5 -73zM356 346q0 -50 38 -81.5t98 -31.5q86 0 164.5 37.5 t109.5 91.5v154q-66 15 -138.5 7.5t-132.5 -28t-99.5 -60.5t-39.5 -89zM1092 705h473q-15 66 -83 119t-145 53q-88 0 -156 -51t-89 -121z" />
<glyph unicode="&#xe7;" horiz-adv-x="1155" d="M61 557q0 159 77.5 294.5t212 215.5t292.5 80q135 0 255.5 -60.5t201.5 -164.5l-244 -185q-40 49 -97 79t-118 30q-114 0 -194 -86t-80 -203q0 -118 79.5 -200.5t194.5 -82.5q70 0 131 33.5t98 89.5l244 -186q-65 -91 -159.5 -151t-206.5 -80l-123 -287h-291l104 313 q-168 64 -272.5 214t-104.5 337z" />
<glyph unicode="&#xe8;" horiz-adv-x="1202" d="M61 555q0 85 24.5 170t73 160.5t114.5 134.5t155 93t188 34q102 0 190 -38t148 -99.5t103.5 -139.5t63.5 -158t20 -155v-106h-783q25 -90 97 -140.5t161 -50.5q84 0 142 21.5t106 72.5l228 -174q-75 -88 -209 -149.5t-267 -61.5q-108 0 -200.5 34.5t-156.5 92.5 t-109.5 134t-67 158.5t-21.5 166.5zM160 1507h415l242 -239h-416zM371 705h473q-15 66 -82.5 119t-145.5 53q-88 0 -156 -51t-89 -121z" />
<glyph unicode="&#xe9;" horiz-adv-x="1202" d="M61 555q0 85 24.5 170t73 160.5t114.5 134.5t155 93t188 34q102 0 190 -38t148 -99.5t103.5 -139.5t63.5 -158t20 -155v-106h-783q25 -90 97 -140.5t161 -50.5q84 0 142 21.5t106 72.5l228 -174q-75 -88 -209 -149.5t-267 -61.5q-108 0 -200.5 34.5t-156.5 92.5 t-109.5 134t-67 158.5t-21.5 166.5zM371 705h473q-15 66 -82.5 119t-145.5 53q-88 0 -156 -51t-89 -121zM375 1268l241 239h416l-241 -239h-416z" />
<glyph unicode="&#xea;" horiz-adv-x="1202" d="M61 555q0 85 24.5 170t73 160.5t114.5 134.5t155 93t188 34q102 0 190 -38t148 -99.5t103.5 -139.5t63.5 -158t20 -155v-106h-783q25 -90 97 -140.5t161 -50.5q84 0 142 21.5t106 72.5l228 -174q-75 -88 -209 -149.5t-267 -61.5q-108 0 -200.5 34.5t-156.5 92.5 t-109.5 134t-67 158.5t-21.5 166.5zM188 1247l324 328h213l324 -328h-322l-109 107l-110 -107h-320zM371 705h473q-15 66 -82.5 119t-145.5 53q-88 0 -156 -51t-89 -121z" />
<glyph unicode="&#xeb;" horiz-adv-x="1202" d="M61 555q0 85 24.5 170t73 160.5t114.5 134.5t155 93t188 34q102 0 190 -38t148 -99.5t103.5 -139.5t63.5 -158t20 -155v-106h-783q25 -90 97 -140.5t161 -50.5q84 0 142 21.5t106 72.5l228 -174q-75 -88 -209 -149.5t-267 -61.5q-108 0 -200.5 34.5t-156.5 92.5 t-109.5 134t-67 158.5t-21.5 166.5zM197 1403q0 74 51.5 126t124.5 52t125.5 -52.5t52.5 -125.5t-52 -124.5t-126 -51.5q-73 0 -124.5 51.5t-51.5 124.5zM371 705h473q-15 66 -82.5 119t-145.5 53q-88 0 -156 -51t-89 -121zM659 1403q0 74 52 126t125 52q74 0 126 -52.5 t52 -125.5t-52 -124.5t-126 -51.5t-125.5 51.5t-51.5 124.5z" />
<glyph unicode="&#xec;" horiz-adv-x="575" d="M-123 1507h416l242 -239h-416zM121 0v1116h334v-1116h-334z" />
<glyph unicode="&#xed;" horiz-adv-x="575" d="M29 1268l241 239h416l-242 -239h-415zM121 0v1116h334v-1116h-334z" />
<glyph unicode="&#xee;" horiz-adv-x="575" d="M-141 1268l323 327h213l324 -327h-322l-108 106l-111 -106h-319zM121 0v1116h334v-1116h-334z" />
<glyph unicode="&#xef;" horiz-adv-x="575" d="M-119 1438q0 74 51.5 126t124.5 52q74 0 126.5 -52.5t52.5 -125.5t-52.5 -124.5t-126.5 -51.5q-73 0 -124.5 51t-51.5 125zM121 0v1116h334v-1116h-334zM344 1438q0 74 51.5 126t124.5 52q74 0 126 -52t52 -126q0 -73 -52 -124.5t-126 -51.5t-125 51t-51 125z" />
<glyph unicode="&#xf0;" horiz-adv-x="1150" d="M66 430q-11 106 26.5 205.5t103 168t147.5 110.5t159 44q-23 38 -60 91l-184 -103l-129 230l166 92q-137 185 -207 268h389q55 -72 90 -119l121 68l127 -228l-94 -53q56 -80 115.5 -166.5t90.5 -133.5l31 -46q100 -148 123 -295l4 -24v-2q14 -138 -41.5 -262.5 t-165.5 -205t-249 -94.5q-103 -11 -202 19t-174.5 91t-125.5 151t-61 194zM385 471q9 -79 69.5 -127.5t139.5 -40.5q80 9 128.5 69t39.5 138q-8 80 -68 129.5t-139 40.5q-79 -7 -128.5 -68.5t-41.5 -140.5z" />
<glyph unicode="&#xf1;" horiz-adv-x="1333" d="M121 0v1116h319l15 -153q61 75 149.5 129.5t190.5 54.5q75 0 137.5 -14.5t121 -52t98 -97t63.5 -154.5t24 -219v-610h-334v545q0 159 -41.5 227t-146.5 68q-89 0 -161.5 -49.5t-100.5 -118.5v-672h-334zM371 1276v285q8 6 21.5 14.5t55 22.5t82.5 14q66 0 169 -33 t180 -33q41 0 79.5 12t57.5 24l18 11v-288q-7 -6 -20.5 -14t-54 -22t-80.5 -14q-46 0 -174.5 36t-174.5 36q-41 0 -80.5 -12.5t-59.5 -25.5z" />
<glyph unicode="&#xf2;" horiz-adv-x="1288" d="M61 559q0 157 77.5 292.5t212 215.5t292.5 80t293 -80t213 -215.5t78 -292.5q0 -159 -78.5 -294.5t-213 -214.5t-292.5 -79t-292.5 79t-212 214.5t-77.5 294.5zM213 1507h416l241 -239h-415zM379 563q0 -114 76 -193t188 -79t190 79t78 193q0 112 -78.5 194.5 t-189.5 82.5t-187.5 -82.5t-76.5 -194.5z" />
<glyph unicode="&#xf3;" horiz-adv-x="1288" d="M61 559q0 157 77.5 292.5t212 215.5t292.5 80t293 -80t213 -215.5t78 -292.5q0 -159 -78.5 -294.5t-213 -214.5t-292.5 -79t-292.5 79t-212 214.5t-77.5 294.5zM375 1268l241 239h416l-241 -239h-416zM379 563q0 -114 76 -193t188 -79t190 79t78 193q0 112 -78.5 194.5 t-189.5 82.5t-187.5 -82.5t-76.5 -194.5z" />
<glyph unicode="&#xf4;" horiz-adv-x="1288" d="M61 559q0 157 77.5 292.5t212 215.5t292.5 80t293 -80t213 -215.5t78 -292.5q0 -159 -78.5 -294.5t-213 -214.5t-292.5 -79t-292.5 79t-212 214.5t-77.5 294.5zM217 1247l324 328h213l323 -328h-321l-109 107l-110 -107h-320zM379 563q0 -114 76 -193t188 -79t190 79 t78 193q0 112 -78.5 194.5t-189.5 82.5t-187.5 -82.5t-76.5 -194.5z" />
<glyph unicode="&#xf5;" horiz-adv-x="1288" d="M61 559q0 157 77.5 292.5t212 215.5t292.5 80t293 -80t213 -215.5t78 -292.5q0 -159 -78.5 -294.5t-213 -214.5t-292.5 -79t-292.5 79t-212 214.5t-77.5 294.5zM313 1276v285q8 6 21.5 14.5t55.5 22.5t83 14q66 0 168.5 -33t179.5 -33q41 0 80 12t57 24l19 11v-288 q-7 -6 -20.5 -14t-54.5 -22t-81 -14q-46 0 -174 36t-174 36q-41 0 -81 -12.5t-60 -25.5zM379 563q0 -114 76 -193t188 -79t190 79t78 193q0 112 -78.5 194.5t-189.5 82.5t-187.5 -82.5t-76.5 -194.5z" />
<glyph unicode="&#xf6;" horiz-adv-x="1288" d="M61 559q0 157 77.5 292.5t212 215.5t292.5 80t293 -80t213 -215.5t78 -292.5q0 -159 -78.5 -294.5t-213 -214.5t-292.5 -79t-292.5 79t-212 214.5t-77.5 294.5zM238 1436q0 74 51.5 126t124.5 52q74 0 126 -52t52 -126q0 -73 -52 -124.5t-126 -51.5t-125 51t-51 125z M379 563q0 -114 76 -193t188 -79t190 79t78 193q0 112 -78.5 194.5t-189.5 82.5t-187.5 -82.5t-76.5 -194.5zM700 1436q0 74 52 126t125 52t125.5 -52t52.5 -126q0 -73 -52 -124.5t-126 -51.5t-125.5 51.5t-51.5 124.5z" />
<glyph unicode="&#xf7;" horiz-adv-x="999" d="M109 389v313h776v-313h-776zM311 162q0 75 54 128.5t129 53.5q74 0 127 -53.5t53 -128.5q0 -74 -53 -127t-127 -53q-75 0 -129 53t-54 127zM311 934q0 74 54 127t129 53q74 0 127 -53t53 -127q0 -75 -53 -128.5t-127 -53.5q-75 0 -129 53.5t-54 128.5z" />
<glyph unicode="&#xf8;" horiz-adv-x="1355" d="M88 199l78 77q-72 129 -72 283q0 157 77.5 292.5t212 215.5t292.5 80q149 0 285 -76l79 80l217 -215l-79 -80q82 -141 82 -297q0 -159 -78.5 -294.5t-213 -214.5t-292.5 -79q-162 0 -301 84l-72 -71zM412 565q0 -27 2 -41l311 312q-24 6 -49 6q-111 0 -187.5 -82.5 t-76.5 -194.5zM618 299q27 -6 58 -6q112 0 190 79t78 193q0 26 -6 53z" />
<glyph unicode="&#xf9;" horiz-adv-x="1333" d="M94 506v610h334v-545q0 -159 41.5 -227t146.5 -68q89 0 162 49.5t101 118.5v672h333v-1116h-319l-14 154q-61 -76 -149.5 -130.5t-190.5 -54.5q-75 0 -138 14.5t-121 52t-98 97t-64 154.5t-24 219zM283 1507h415l242 -239h-416z" />
<glyph unicode="&#xfa;" horiz-adv-x="1333" d="M94 506v610h334v-545q0 -159 41.5 -227t146.5 -68q89 0 162 49.5t101 118.5v672h333v-1116h-319l-14 154q-61 -76 -149.5 -130.5t-190.5 -54.5q-75 0 -138 14.5t-121 52t-98 97t-64 154.5t-24 219zM385 1268l242 239h415l-241 -239h-416z" />
<glyph unicode="&#xfb;" horiz-adv-x="1333" d="M94 506v610h334v-545q0 -159 41.5 -227t146.5 -68q89 0 162 49.5t101 118.5v672h333v-1116h-319l-14 154q-61 -76 -149.5 -130.5t-190.5 -54.5q-75 0 -138 14.5t-121 52t-98 97t-64 154.5t-24 219zM242 1268l323 327h213l324 -327h-322l-108 106l-111 -106h-319z" />
<glyph unicode="&#xfc;" horiz-adv-x="1333" d="M94 506v610h334v-545q0 -159 41.5 -227t146.5 -68q89 0 162 49.5t101 118.5v672h333v-1116h-319l-14 154q-61 -76 -149.5 -130.5t-190.5 -54.5q-75 0 -138 14.5t-121 52t-98 97t-64 154.5t-24 219zM264 1438q0 74 51.5 126t124.5 52q74 0 126 -52t52 -126 q0 -73 -52 -124.5t-126 -51.5t-125 51t-51 125zM727 1438q0 74 51.5 126t124.5 52t125.5 -52t52.5 -126q0 -73 -52 -124.5t-126 -51.5q-73 0 -124.5 51t-51.5 125z" />
<glyph unicode="&#xfd;" horiz-adv-x="1134" d="M-23 1116h347l245 -512l232 512h358l-753 -1628h-336l344 764zM279 1270l241 239h416l-242 -239h-415z" />
<glyph unicode="&#xfe;" d="M121 -512v2048h334v-559q56 77 145 123.5t211 46.5q102 0 197.5 -42t169.5 -116.5t118.5 -186.5t44.5 -243q0 -102 -31.5 -195.5t-85.5 -164t-122 -123t-143 -80t-148 -27.5q-121 0 -213.5 48t-142.5 122v-651h-334zM438 557q0 -120 85 -208.5t198 -88.5q119 0 203 88 t84 209t-84 207t-203 86t-201 -86t-82 -207z" />
<glyph unicode="&#xff;" horiz-adv-x="1134" d="M-23 1116h347l245 -512l232 512h358l-753 -1628h-336l344 764zM160 1436q0 74 51.5 126t124.5 52q74 0 126 -52t52 -126q0 -73 -52 -124.5t-126 -51.5t-125 51t-51 125zM623 1436q0 74 51.5 126t124.5 52t125.5 -52t52.5 -126q0 -73 -52 -124.5t-126 -51.5 q-73 0 -124.5 51t-51.5 125z" />
<glyph unicode="&#x152;" horiz-adv-x="2527" d="M94 766q0 164 61.5 312t166.5 255.5t251.5 170.5t309.5 63q127 0 253.5 -46t200.5 -118v133h1043v-334h-705v-307h580v-330h-580v-231h717v-334h-1055v131q-73 -72 -199.5 -117t-254.5 -45q-163 0 -309.5 63t-251.5 169.5t-166.5 254t-61.5 310.5zM436 770 q0 -119 59.5 -223.5t163.5 -168t226 -63.5q124 0 228.5 63.5t164 168t59.5 223.5v18q-8 186 -137.5 314.5t-314.5 128.5q-187 0 -318 -135t-131 -326z" />
<glyph unicode="&#x153;" horiz-adv-x="2060" d="M61 559q0 157 77.5 292.5t212 215.5t292.5 80q134 0 245.5 -59t180.5 -152q62 93 166 152t240 59q102 0 190 -38t148 -99.5t103 -139.5t63 -158t20 -155v-106h-782q26 -86 98 -138.5t160 -52.5q84 0 141 21.5t106 72.5l228 -174q-75 -88 -209 -149.5t-266 -61.5 q-143 0 -248 57t-164 146q-156 -201 -420 -201q-158 0 -292.5 79t-212 214.5t-77.5 294.5zM365 567q0 -117 78.5 -198.5t193.5 -81.5q112 0 191.5 78t84.5 192v21q-5 112 -85 193t-191 81q-114 0 -193 -84.5t-79 -200.5zM1229 705h473q-15 67 -82.5 119.5t-144.5 52.5 q-88 0 -156.5 -51t-89.5 -121z" />
<glyph unicode="&#x178;" horiz-adv-x="1363" d="M-16 1536h374l320 -631l330 631h372l-532 -1026v-510h-338v510zM270 1804q0 74 51.5 126t124.5 52q74 0 126.5 -52.5t52.5 -125.5t-52.5 -124.5t-126.5 -51.5t-125 51t-51 125zM733 1804q0 74 51.5 126t124.5 52t125.5 -52t52.5 -126q0 -73 -52 -124.5t-126 -51.5 q-73 0 -124.5 51t-51.5 125z" />
<glyph unicode="&#x2c6;" horiz-adv-x="960" d="M51 1225l324 327h213l323 -327h-321l-109 106l-110 -106h-320z" />
<glyph unicode="&#x2dc;" horiz-adv-x="1071" d="M190 1481v284q8 6 21.5 14.5t55.5 23t83 14.5q66 0 168.5 -33t179.5 -33q41 0 80 11.5t58 23.5l18 12v-289q-7 -5 -20.5 -13.5t-54.5 -22t-81 -13.5q-46 0 -174 36t-174 36q-41 0 -81 -13t-59 -25z" />
<glyph unicode="&#x2000;" horiz-adv-x="1094" />
<glyph unicode="&#x2001;" horiz-adv-x="2189" />
<glyph unicode="&#x2002;" horiz-adv-x="1094" />
<glyph unicode="&#x2003;" horiz-adv-x="2189" />
<glyph unicode="&#x2004;" horiz-adv-x="729" />
<glyph unicode="&#x2005;" horiz-adv-x="547" />
<glyph unicode="&#x2006;" horiz-adv-x="364" />
<glyph unicode="&#x2007;" horiz-adv-x="364" />
<glyph unicode="&#x2008;" horiz-adv-x="273" />
<glyph unicode="&#x2009;" horiz-adv-x="437" />
<glyph unicode="&#x200a;" horiz-adv-x="121" />
<glyph unicode="&#x2010;" horiz-adv-x="909" d="M135 442v328h639v-328h-639z" />
<glyph unicode="&#x2011;" horiz-adv-x="909" d="M135 442v328h639v-328h-639z" />
<glyph unicode="&#x2012;" horiz-adv-x="909" d="M135 442v328h639v-328h-639z" />
<glyph unicode="&#x2013;" horiz-adv-x="1034" d="M94 567v314h776v-314h-776z" />
<glyph unicode="&#x2014;" horiz-adv-x="1359" d="M125 567v314h1100v-314h-1100z" />
<glyph unicode="&#x2018;" horiz-adv-x="589" d="M154 887v649h282v-649h-282z" />
<glyph unicode="&#x2019;" horiz-adv-x="589" d="M154 887v649h282v-649h-282z" />
<glyph unicode="&#x201a;" horiz-adv-x="589" d="M154 0v649h282v-649h-282z" />
<glyph unicode="&#x201c;" horiz-adv-x="972" d="M158 887v649h282v-649h-282zM532 887v649h283v-649h-283z" />
<glyph unicode="&#x201d;" horiz-adv-x="972" d="M158 887v649h282v-649h-282zM532 887v649h283v-649h-283z" />
<glyph unicode="&#x201e;" horiz-adv-x="972" d="M158 0v649h282v-649h-282zM532 0v649h283v-649h-283z" />
<glyph unicode="&#x2026;" horiz-adv-x="1482" d="M74 160q0 75 53.5 128.5t128.5 53.5q74 0 127 -53.5t53 -128.5q0 -74 -53 -127t-127 -53q-75 0 -128.5 53t-53.5 127zM606 160q0 75 53.5 128.5t128.5 53.5q74 0 127.5 -53.5t53.5 -128.5q0 -73 -53.5 -126.5t-127.5 -53.5q-75 0 -128.5 53t-53.5 127zM1120 160 q0 75 54 128.5t129 53.5q74 0 127 -53.5t53 -128.5q0 -74 -53.5 -127t-126.5 -53q-75 0 -129 53t-54 127z" />
<glyph unicode="&#x202f;" horiz-adv-x="437" />
<glyph unicode="&#x2039;" horiz-adv-x="909" d="M61 725l357 535h399l-358 -535l358 -537h-399z" />
<glyph unicode="&#x203a;" horiz-adv-x="925" d="M61 188l359 537l-359 535h400l356 -535l-356 -537h-400z" />
<glyph unicode="&#x205f;" horiz-adv-x="547" />
<glyph unicode="&#x20ac;" horiz-adv-x="1533" d="M23 449v274h108v29v22h-108v277h163q85 214 273 343.5t432 129.5q189 0 347.5 -75.5t252.5 -209.5l-272 -197q-47 66 -136 104t-192 38q-86 0 -167 -35t-144 -98h301v-277h-430v-22v-29h430v-274h-297q64 -62 145 -97t166 -35q119 0 209 52.5t145 128.5l267 -209 q-89 -141 -257 -230.5t-364 -89.5q-244 0 -433.5 131.5t-275.5 348.5h-163z" />
<glyph unicode="&#x25fc;" horiz-adv-x="1116" d="M0 0v1116h1116v-1116h-1116z" />
</font>
</defs>
</svg>
