<?xml version="1.0" standalone="no"?>
<!DOCTYPE svg PUBLIC "-//W3C//DTD SVG 1.1//EN" "http://www.w3.org/Graphics/SVG/1.1/DTD/svg11.dtd" >
<svg xmlns="http://www.w3.org/2000/svg">
<metadata></metadata>
<defs>
<font id="pontiacbold_italic" horiz-adv-x="1380" >
<font-face units-per-em="2048" ascent="1536" descent="-512" />
<missing-glyph horiz-adv-x="718" />
<glyph horiz-adv-x="0" />
<glyph horiz-adv-x="682" />
<glyph unicode=" "  horiz-adv-x="718" />
<glyph unicode="&#x09;" horiz-adv-x="718" />
<glyph unicode="&#xa0;" horiz-adv-x="718" />
<glyph unicode="!" horiz-adv-x="542" d="M74 131q12 62 63.5 106t114.5 44t98 -44t23 -106q-14 -62 -68 -105.5t-117 -43.5q-62 0 -95 43.5t-19 105.5zM152 389l243 1147h246l-244 -1147h-245z" />
<glyph unicode="&#x22;" horiz-adv-x="948" d="M215 897l137 639h248l-137 -639h-248zM557 897l137 639h250l-137 -639h-250z" />
<glyph unicode="#" horiz-adv-x="1275" d="M104 0l175 442h-156l47 228h197l77 196h-168l48 228h208l175 442h227l-174 -442h205l174 442h227l-174 -442h178l-47 -228h-217l-78 -196h180l-47 -228h-221l-172 -442h-229l172 442h-205l-172 -442h-230zM594 670h205l78 196h-205z" />
<glyph unicode="$" horiz-adv-x="1196" d="M49 313l207 140q18 -31 46.5 -65t73.5 -73t107.5 -62.5t130.5 -21.5q98 3 168.5 52t77.5 129q4 40 -13.5 73.5t-55 61t-73 47.5t-87 45.5t-78.5 42.5q-166 110 -225 206t-52 251q2 50 19.5 100t53 100t85.5 89.5t125 66.5t164 33l37 170h233l-41 -191q230 -54 330 -221 l-215 -141q-48 64 -135 97.5t-174 33.5q-94 0 -155.5 -38t-72.5 -97q-10 -43 2.5 -76.5t60.5 -73t140 -84.5q215 -105 314 -223.5t75 -271.5q-34 -178 -158 -299.5t-339 -139.5l-35 -172h-234l41 203q-115 45 -211.5 135t-136.5 174z" />
<glyph unicode="%" horiz-adv-x="1566" d="M86 0l1219 1495h268l-1217 -1495h-270zM182 1159q26 148 152 257.5t272 109.5q153 0 245 -108.5t64 -258.5q-28 -155 -149 -260.5t-274 -105.5q-101 0 -179 48.5t-113.5 133t-17.5 184.5zM389 1159q-12 -63 24.5 -111.5t100.5 -48.5q66 0 123 45.5t74 114.5 q12 63 -26 111.5t-101 48.5q-64 0 -121 -46t-74 -114zM743 338q26 148 152 257.5t272 109.5q100 0 178 -49.5t114 -134t18 -183.5q-28 -155 -149.5 -261t-274.5 -106q-101 0 -179 48.5t-113.5 133t-17.5 185.5zM950 338q-12 -63 24.5 -111.5t100.5 -48.5q66 0 123 45.5 t74 114.5q12 63 -26 111.5t-101 48.5q-64 0 -121 -46t-74 -114z" />
<glyph unicode="&#x26;" horiz-adv-x="1388" d="M104 453q28 144 131 252t287 213q-83 148 -67 280q12 102 75 184t158 127t203 45q150 0 235 -101t52 -257q-39 -183 -353 -373l181 -336q22 24 45.5 53.5t36.5 47.5l12 18h243q-12 -19 -33.5 -51.5t-84 -112.5t-119.5 -137l172 -305h-277l-83 137q-240 -160 -420 -160 q-88 0 -168.5 36t-137 98t-82 152t-6.5 190zM348 453q-22 -100 40.5 -164t164.5 -64q69 0 145 33t121 68l-213 397q-226 -114 -258 -270zM694 1212q-8 -35 5 -88.5t46 -101.5q92 47 141.5 96.5t59.5 93.5q9 45 -15.5 82t-72.5 37q-60 0 -107 -33.5t-57 -85.5z" />
<glyph unicode="'" horiz-adv-x="518" d="M164 897l137 639h236l-138 -639h-235z" />
<glyph unicode="(" horiz-adv-x="583" d="M67 180.5q-27 269.5 15 487.5q114 571 479 905l141 -174q-158 -181 -247.5 -344t-137.5 -389q-42 -177 -26.5 -381t86.5 -379l-193 -156q-90 161 -117 430.5z" />
<glyph unicode=")" horiz-adv-x="583" d="M2 -88q158 181 247.5 344t137.5 389q42 176 27 380.5t-86 379.5l192 156q90 -161 117.5 -430.5t-14.5 -487.5q-114 -570 -480 -905z" />
<glyph unicode="*" horiz-adv-x="933" d="M176 1161l113 215l203 -73l53 233h229l-53 -231l242 71l20 -219l-250 -63l113 -189l-213 -127l-90 185l-187 -193l-153 133l178 191z" />
<glyph unicode="+" horiz-adv-x="1116" d="M131 616l49 236h363l73 348h234l-74 -348h363l-49 -236h-363l-76 -352h-233l76 352h-363z" />
<glyph unicode="," horiz-adv-x="501" d="M-88 -326l297 551h293l-381 -553z" />
<glyph unicode="-" horiz-adv-x="868" d="M154 489l51 244h604l-51 -244h-604z" />
<glyph unicode="." horiz-adv-x="354" d="M76 133q14 63 68.5 108.5t117.5 45.5t98.5 -45.5t22.5 -108.5q-12 -63 -67.5 -108t-118.5 -45t-98 45t-23 108z" />
<glyph unicode="/" horiz-adv-x="1073" d="M-76 0l1049 1536h289l-1047 -1536h-291z" />
<glyph unicode="0" horiz-adv-x="1507" d="M157.5 539.5q-4.5 98.5 14.5 205.5q27 161 92.5 300.5t165 246.5t240.5 168.5t305 61.5q101 0 185.5 -28t146 -79t106.5 -122.5t66.5 -157.5t26 -185t-14.5 -205q-27 -161 -93.5 -300.5t-167 -245.5t-241 -167t-303.5 -61q-100 0 -184.5 27.5t-145.5 78.5t-106 121.5 t-66.5 156.5t-26 184.5zM394.5 584.5q-0.5 -77.5 22.5 -145t62.5 -118t104 -79.5t147.5 -29q126 0 236.5 76.5t181.5 196t100 259.5q25 108 12.5 205t-51.5 170t-113.5 115.5t-172.5 42.5q-127 0 -235 -74t-178 -193t-101 -266q-15 -83 -15.5 -160.5z" />
<glyph unicode="1" horiz-adv-x="747" d="M201 1255l51 238h569l-317 -1493h-246l266 1255h-323z" />
<glyph unicode="2" horiz-adv-x="1144" d="M18 0l31 143l559 527q4 3 40 37t44.5 42.5t41 40.5t44.5 45.5t38 42t38 46t28.5 41.5t25.5 44.5t14 39.5q26 99 -35.5 166t-165.5 67q-43 0 -88.5 -16t-89.5 -48t-79.5 -90t-51.5 -133h-240q43 237 202.5 383t375.5 146q88 0 161.5 -26.5t124 -72.5t83.5 -106.5 t44 -129.5t0 -140q-7 -44 -20 -84t-40.5 -83t-49 -73.5t-70.5 -81.5t-78.5 -80.5t-97.5 -95.5l-315 -305h563l-51 -246h-986z" />
<glyph unicode="3" horiz-adv-x="1120" d="M-4 319l215 111q34 -72 111.5 -136.5t162.5 -72.5q117 -12 208.5 60t111.5 176q12 67 -2 120t-46 86.5t-83 58t-104 36t-117 18.5l39 185l370 296h-532l49 236h848l-49 -236l-400 -319q149 -57 224.5 -181t44.5 -304q-36 -214 -185.5 -347t-372.5 -133q-19 0 -59 4 q-83 10 -158 46.5t-128.5 88.5t-90 104t-57.5 103z" />
<glyph unicode="4" horiz-adv-x="1118" d="M-18 182l862 1313h276l-696 -1065h399l45 205h236l-135 -635h-236l39 182h-790z" />
<glyph unicode="5" horiz-adv-x="1206" d="M80 336l227 90q19 -44 53.5 -88.5t92.5 -81.5t120 -37q123 0 213 73t105 183q8 58 -5.5 104.5t-42.5 75.5t-72 48.5t-90 27.5t-101 8q-103 0 -238 -53l-125 74l156 733h872l-49 -236h-635l-63 -294q65 14 143 14q88 0 164 -16.5t142.5 -54.5t111 -95.5t65 -145 t9.5 -196.5q-24 -222 -178 -359t-408 -137q-90 0 -173 38t-140.5 96t-96 117t-57.5 112z" />
<glyph unicode="6" horiz-adv-x="1171" d="M106 475q19 158 148 340l494 680h284l-383 -534q36 4 66 4q127 0 226.5 -66.5t145.5 -180t23 -243.5q-24 -138 -110.5 -253t-217.5 -182t-278 -67q-188 0 -306 145.5t-92 356.5zM344 481q-24 -111 33.5 -187.5t173.5 -76.5q100 0 197 78.5t120 185.5t-37.5 180.5 t-168.5 73.5q-109 0 -202 -73.5t-116 -180.5z" />
<glyph unicode="7" horiz-adv-x="1130" d="M88 0l819 1253h-688l51 242h1073l-974 -1495h-281z" />
<glyph unicode="8" horiz-adv-x="1130" d="M96 461q26 123 112.5 237.5t197.5 178.5q-41 52 -55.5 121.5t1.5 148.5q33 157 158 267t278 110q102 0 183 -50.5t118.5 -138t16.5 -188.5q-36 -161 -170 -270q85 -60 123 -175.5t12 -240.5q-44 -205 -205 -347.5t-366 -142.5q-95 0 -179 39.5t-140.5 104.5t-81 156.5 t-3.5 189.5zM338 469q-21 -102 32.5 -174t161.5 -72q100 0 188.5 73t108.5 173q22 101 -35 175.5t-157 74.5q-101 0 -189 -74t-110 -176zM582 1143q-12 -60 21 -104t93 -44q61 0 113.5 44t64.5 104q14 62 -19.5 104.5t-94.5 42.5q-64 0 -114 -42.5t-64 -104.5z" />
<glyph unicode="9" horiz-adv-x="1165" d="M213 1020q24 138 110.5 253t217.5 182t278 67q188 0 306 -145.5t92 -356.5q-19 -158 -148 -340l-494 -680h-284l383 535q-45 -5 -66 -5q-127 0 -226.5 66.5t-145.5 180t-23 243.5zM449 1016q-23 -107 37.5 -180.5t168.5 -73.5q109 0 202 73.5t116 180.5 q24 111 -33.5 187.5t-173.5 76.5q-100 0 -197 -78.5t-120 -185.5z" />
<glyph unicode=":" horiz-adv-x="448" d="M37 133q14 63 68.5 108.5t117.5 45.5t99 -45.5t22 -108.5q-13 -63 -68 -108t-118 -45t-98.5 45t-22.5 108zM213 961q13 63 68 108t118 45t98.5 -45t22.5 -108q-14 -63 -68.5 -108.5t-117.5 -45.5t-98.5 45.5t-22.5 108.5z" />
<glyph unicode=";" horiz-adv-x="548" d="M-150 -326l297 551h293l-381 -553zM264 967q12 63 68 108t119 45t97.5 -45t22.5 -108q-14 -63 -68.5 -108.5t-117.5 -45.5t-99 45.5t-22 108.5z" />
<glyph unicode="&#x3c;" horiz-adv-x="868" d="M172 737l487 533h316l-496 -553l226 -514h-291z" />
<glyph unicode="=" horiz-adv-x="1153" d="M150 356l53 246h829l-53 -246h-829zM244 801l53 246h829l-53 -246h-829z" />
<glyph unicode="&#x3e;" horiz-adv-x="884" d="M104 203l496 575l-238 492l289 -2l244 -531l-471 -534h-320z" />
<glyph unicode="?" horiz-adv-x="1165" d="M180 1020q26 153 106.5 276t208 196t279.5 73q105 0 193 -33t148.5 -93t85.5 -151t5 -201q-10 -54 -36.5 -105t-68 -97.5t-73.5 -77t-80 -70.5l-47 -41q-22 -19 -51 -41q-42 -35 -63.5 -55.5t-45 -58t-32.5 -80.5l-15 -72h-241l14 72q14 65 41.5 121t69.5 104.5t74 78.5 t85 73l64 53q152 127 164 196q12 67 2 112.5t-44.5 73t-76.5 39t-96 11.5q-111 0 -203.5 -83t-122.5 -220h-244zM389 131q14 62 66.5 106t115.5 44t97 -44t20 -106q-12 -62 -64.5 -105.5t-115.5 -43.5t-97 43.5t-22 105.5z" />
<glyph unicode="@" horiz-adv-x="1828" d="M170 637q29 162 109 304t199.5 248t284 167t351.5 61q159 0 293.5 -61.5t221.5 -165t121.5 -247.5t2.5 -302q-21 -102 -70.5 -190.5t-110 -147t-129 -101t-128.5 -62t-107 -19.5q-63 0 -116.5 20t-90 70.5t-30.5 124.5q-46 -36 -110 -61t-111 -25q-144 0 -210.5 103 t-33.5 255q37 178 188.5 311.5t321.5 133.5q55 0 100 -23.5t62 -62.5l24 69h217l-213 -618q-9 -28 3.5 -55t45.5 -27q70 0 154 87.5t109 209.5q15 71 15.5 138t-14 129.5t-49 114t-86 90t-128.5 60t-173 21.5q-165 0 -311.5 -73t-244 -198t-130.5 -278 q-26 -119 -10.5 -210.5t58.5 -157t112.5 -107.5t151 -62t174.5 -20h75l-49 -236h-75q-172 0 -311 59.5t-226.5 163.5t-122 252t-4.5 318zM726 566q1 -40 25 -67t66 -26q67 1 130 57.5t87 128.5v3q25 64 5.5 118t-74.5 54q-77 0 -139 -54.5t-87 -128.5q-14 -45 -13 -85z" />
<glyph unicode="A" horiz-adv-x="1400" d="M82 0l211 991q61 284 228 430t419 146q94 0 180.5 -38.5t151 -112.5t90.5 -181q13 -52 12 -110q0 -63 -14 -134l-211 -991h-248l86 406h-567l-86 -406h-252zM471 651h567l70 322q12 62 12 114q0 85 -34 141q-56 88 -189 89q-141 0 -231 -87.5t-125 -256.5z" />
<glyph unicode="B" horiz-adv-x="1312" d="M102 0l326 1536h528q83 0 159 -31t131 -85q56 -54 80 -134q14 -45 13 -95q0 -38 -8 -77q-19 -89 -73 -167.5t-130 -123.5q66 -47 108 -143q26 -61 26 -135q0 -43 -9 -92q-38 -215 -182.5 -334t-392.5 -119h-576zM401 246h125q190 0 254 10q135 21 187 111q21 37 32 86 q6 31 6.5 56.5t-6 46t-17 37t-28.5 28.5t-37 21t-46.5 15t-53.5 10t-61 6t-66 2.5t-72 0.5h-124zM545 915h282q92 0 163.5 57t88.5 142q5 23 5 44q0 51 -30 87q-44 51 -147 51h-282z" />
<glyph unicode="C" horiz-adv-x="1546" d="M180 768q28 165 108.5 310.5t200 254t281 171.5t340.5 63q168 0 316 -87.5t237 -234.5l-223 -141q-54 94 -158 151.5t-225 57.5q-102 0 -206 -44.5t-188 -118t-146 -174t-85 -208.5q-13 -63 -13 -121q1 -77 23 -147q40 -122 143 -195.5t249 -73.5q126 0 250.5 72 t228.5 189l174 -173q-140 -164 -318 -256t-372 -92q-215 0 -369.5 106.5t-219.5 288.5q-41 116 -41 247q0 75 13 155z" />
<glyph unicode="D" horiz-adv-x="1521" d="M102 0l326 1536h446q145 0 275.5 -60t219.5 -162t127 -246q20 -77 20 -158q0 -71 -15 -144q-35 -166 -117 -306t-202 -242.5t-283 -160t-350 -57.5h-447zM406 248h159q95 0 179.5 16t166.5 54t146.5 96.5t114 148t73.5 203.5q13 62 13 118q0 146 -88 256 q-122 150 -347 150h-194z" />
<glyph unicode="E" horiz-adv-x="1347" d="M104 0l326 1536h1026l-51 -246h-774l-94 -436h643l-52 -246h-643l-77 -360h788l-51 -248h-1041z" />
<glyph unicode="F" horiz-adv-x="1267" d="M102 0l326 1536h1006l-52 -246h-753l-94 -436h622l-51 -246h-623l-129 -608h-252z" />
<glyph unicode="G" horiz-adv-x="1642" d="M180 768q28 165 108.5 310.5t200 254t281 171.5t340.5 63q168 0 316 -87.5t237 -234.5l-223 -141q-54 94 -158 151.5t-225 57.5q-102 0 -206 -44.5t-188 -118t-146 -174t-85 -208.5q-13 -64 -13 -124q0 -76 21 -146q38 -125 141 -201t248 -76q238 0 412 101l59 286h-385 l52 246h630l-137 -647q-269 -236 -663 -236q-215 0 -369.5 106.5t-219.5 288.5q-41 116 -41 247q0 75 13 155z" />
<glyph unicode="H" horiz-adv-x="1538" d="M102 0l326 1536h252l-145 -682h665l146 682h251l-325 -1536h-252l129 606h-666l-129 -606h-252z" />
<glyph unicode="I" horiz-adv-x="620" d="M102 0l326 1536h252l-326 -1536h-252z" />
<glyph unicode="J" horiz-adv-x="1116" d="M0 242l213 139q14 -25 34.5 -49t50 -49t70 -40.5t83.5 -15.5q119 0 195.5 73t115.5 255l209 981h252l-209 -981q-32 -146 -78 -252t-98 -169t-120.5 -100.5t-134.5 -50t-151 -12.5q-129 0 -250 83.5t-182 187.5z" />
<glyph unicode="K" horiz-adv-x="1400" d="M102 0l326 1536h248l-154 -729l742 729h301l-676 -670l391 -866h-268l-310 678l-266 -266l-86 -412h-248z" />
<glyph unicode="L" horiz-adv-x="1257" d="M102 0l326 1536h252l-274 -1288h753l-51 -248h-1006z" />
<glyph unicode="M" horiz-adv-x="1914" d="M100 0l334 1569l580 -813l966 815l-333 -1571h-250l198 940l-630 -545l-414 572l-205 -967h-246z" />
<glyph unicode="N" horiz-adv-x="1583" d="M102 0l332 1567l752 -1016l207 985h249l-333 -1567l-748 1010l-209 -979h-250z" />
<glyph unicode="O" horiz-adv-x="1775" d="M180 768q37 219 169.5 401t338 290t440.5 108q162 0 294 -63.5t214 -171t114 -254.5q17 -79 18 -163q0 -72 -13 -147q-28 -166 -118 -315t-218 -254t-289 -166.5t-327 -61.5q-216 0 -372 106.5t-222 288.5q-42 117 -42 249q0 74 13 153zM422 602q3 -80 34.5 -149 t82.5 -119.5t131.5 -79.5t181.5 -29q147 0 287 75.5t236.5 200.5t125.5 267q13 61 13 118q0 82 -26 156q-46 126 -155.5 199.5t-257.5 73.5q-223 0 -407 -159.5t-234 -387.5q-12 -72 -12 -140v-26z" />
<glyph unicode="P" horiz-adv-x="1347" d="M102 0l326 1536h498q76 0 152 -27.5t140.5 -78.5t111 -122.5t62.5 -159.5q7 -40 8 -82q0 -52 -11 -108q-55 -251 -251 -401.5t-452 -150.5h-248l-86 -406h-250zM489 651h248q146 0 256.5 84.5t139.5 222.5q9 40 9 77q0 91 -54 159q-76 96 -214 96h-247z" />
<glyph unicode="Q" horiz-adv-x="1775" d="M180 768q37 219 169.5 401t338 290t440.5 108q162 0 294 -63.5t214 -171t114 -254.5q18 -79 18 -163q0 -72 -13 -147q-45 -273 -250 -487l146 -181l-205 -166l-143 183q-241 -146 -500 -146q-216 0 -372 106.5t-222 288.5q-42 117 -42 249q0 74 13 153zM422 602 q3 -80 34.5 -149t82.5 -119.5t131.5 -79.5t181.5 -29q150 0 301 82l-141 178l200 168l140 -178q114 133 149 293q13 61 13 118q0 82 -26 156q-46 126 -155.5 199.5t-257.5 73.5q-223 0 -407 -159.5t-234 -387.5q-12 -72 -12 -140v-26z" />
<glyph unicode="R" horiz-adv-x="1347" d="M102 0l326 1536h498q97 0 189 -40.5t160.5 -111.5t102.5 -178q22 -70 21 -146q0 -41 -6 -83q-25 -166 -128 -294.5t-280 -213.5l191 -469h-258l-168 416h-310l-88 -416h-250zM494 664h247q138 0 252 87.5t144 225.5q8 39 8 74q-1 89 -55 151q-76 88 -216 88h-247z" />
<glyph unicode="S" horiz-adv-x="1218" d="M49 319l207 140q14 -24 33.5 -50.5t54 -60.5t72.5 -59.5t90 -42.5q47 -15 96 -15h12q96 3 167.5 57t78.5 136q1 7 1 13q-1 28 -11 53q-12 31 -33.5 52.5t-56 44t-66 38t-73 37t-68.5 38.5q-165 109 -225 208q-53 89 -53 223q0 16 1 32q3 53 21 107t57.5 108t95 95.5 t138.5 67.5t182 26q364 0 512 -250l-215 -141q-58 81 -131.5 109t-177.5 28q-92 0 -154.5 -43.5t-73.5 -104.5q-4 -17 -4 -33q0 -46 31 -86q42 -54 176 -120q220 -108 317 -238q77 -103 78 -209q0 -27 -6 -55q-13 -72 -41 -136t-75 -123t-108.5 -101.5t-147 -67.5 t-185.5 -25q-81 0 -166 34.5t-152.5 87.5t-119.5 112.5t-78 113.5z" />
<glyph unicode="T" horiz-adv-x="1257" d="M238 1288l53 248h1163l-53 -248h-457l-272 -1288h-252l272 1288h-454z" />
<glyph unicode="U" horiz-adv-x="1546" d="M200 340q-10 43 -10 91q0 55 13 116l211 989h252l-207 -973q-10 -47 -10 -87q1 -95 55 -158q78 -89 239 -89q142 0 265 91t157 243l207 973h252l-211 -989q-24 -112 -78 -207.5t-126 -162t-159 -114t-178.5 -70t-183.5 -22.5q-70 0 -145.5 23t-147 69t-122.5 115.5 t-73 161.5z" />
<glyph unicode="V" horiz-adv-x="1378" d="M260 1536h252l199 -971l616 971h285l-1012 -1567z" />
<glyph unicode="W" horiz-adv-x="1914" d="M272 1536h250l187 -971l235 355l-127 616h252l182 -971l604 971h283l-999 -1567l-133 643l-410 -643z" />
<glyph unicode="X" horiz-adv-x="1376" d="M-78 0l1348 1536h327l-1351 -1536h-324zM315 1536h267l690 -1536h-266z" />
<glyph unicode="Y" horiz-adv-x="1339" d="M262 1536h252l217 -735l555 735h295l-762 -1024l-108 -512h-252l108 512z" />
<glyph unicode="Z" horiz-adv-x="1325" d="M-72 0l1143 1288h-713l54 248h1173l-1139 -1286h809l-53 -250h-1274z" />
<glyph unicode="[" horiz-adv-x="684" d="M16 -197l398 1874h434l-51 -241h-191l-295 -1391h191l-51 -242h-435z" />
<glyph unicode="\" horiz-adv-x="1097" d="M274 1536h256l402 -1536h-260z" />
<glyph unicode="]" horiz-adv-x="684" d="M-39 -197l49 242h191l295 1391h-191l51 241h435l-398 -1874h-432z" />
<glyph unicode="^" horiz-adv-x="886" d="M150 1270l376 315h197l248 -315h-262l-121 135l-174 -135h-264z" />
<glyph unicode="_" horiz-adv-x="1302" d="M8 -289l53 246h1188l-53 -246h-1188z" />
<glyph unicode="`" horiz-adv-x="1155" d="M453 1536h290l191 -240h-291z" />
<glyph unicode="a" d="M135 559q33 164 134.5 298.5t252 212t318.5 77.5q97 0 184.5 -50.5t126.5 -119.5l39 139h231l-237 -1116h-230l19 139q-72 -75 -173.5 -121.5t-209.5 -46.5q-160 0 -276 75.5t-164 210.5q-28 80 -28 171q0 63 13 131zM375 559q-10 -47 -10 -90q0 -95 51 -167 q74 -104 229 -103q148 0 268.5 104.5t153.5 255.5q9 42 9 81q0 99 -57 176q-79 108 -220 108q-148 0 -270.5 -107t-153.5 -258z" />
<glyph unicode="b" d="M53 0l328 1536h242l-119 -559q74 77 176 123.5t205 46.5q115 0 212.5 -45t159 -124.5t87.5 -186.5q12 -51 13 -105q0 -61 -16 -127q-58 -265 -254.5 -426.5t-447.5 -161.5q-100 0 -187 47.5t-126 120.5l-43 -139h-230zM410 559q-9 -44 -9 -84q-1 -97 53 -171 q76 -104 224 -105q92 0 182.5 48t156 131.5t85.5 180.5q10 44 10 85q0 97 -56 173q-79 107 -227 107q-141 0 -264 -107.5t-155 -257.5z" />
<glyph unicode="c" horiz-adv-x="1140" d="M133 557q24 162 117.5 296.5t239.5 214t313 79.5q123 0 241.5 -69t186.5 -179l-201 -129q-89 135 -268 135q-135 0 -245 -103t-140 -245q-9 -45 -9 -85q0 -92 50 -159q72 -96 223 -96q136 0 305 166l158 -145q-108 -125 -240 -196t-274 -71q-159 0 -273 78 q-114 77 -161 211q-31 88 -31 190q0 52 8 107z" />
<glyph unicode="d" d="M113 559q25 164 122 298.5t245.5 212t316.5 77.5q106 0 199 -47.5t134 -122.5l119 559h242l-328 -1536h-229l18 139q-74 -77 -178 -122.5t-207 -45.5q-109 0 -202 44t-155 120.5t-89 186.5q-16 65 -16 136q0 49 8 101zM352 559q-9 -43 -9 -82q0 -99 56 -173 q78 -104 226 -104.5t268 104t151 255.5q9 39 9 76q-1 100 -65 180q-88 109 -230 109q-146 0 -259.5 -106t-146.5 -259z" />
<glyph unicode="e" horiz-adv-x="1228" d="M124 417l-2 34q0 53 11 104q15 85 46.5 166t86.5 159t126.5 136t172 93.5t217.5 35.5q90 0 167 -37t128 -98t85 -138t46 -158q6 -45 6 -89q0 -34 -4 -68l-16 -82h-823q-2 -20 -3 -38q0 -87 56 -149q67 -74 192 -75q163 0 308 125l170 -156q-82 -92 -223.5 -152.5 t-303.5 -60.5q-89 0 -163 24.5t-123.5 67t-86 99.5t-51.5 122t-19 135zM414 690h571q-21 102 -85 162.5t-159 60.5q-105 0 -190.5 -63t-136.5 -160z" />
<glyph unicode="f" horiz-adv-x="862" d="M117 0l186 877h-156l52 239h155l27 131q37 173 134 245.5t257 72.5q83 0 173 -50t142 -133l-208 -137q-26 36 -64.5 58t-75.5 22q-100 0 -121 -98l-22 -111h266l-51 -239h-266l-187 -877h-241z" />
<glyph unicode="g" horiz-adv-x="1331" d="M78 -307l213 139q20 -28 39 -47.5t49 -40t72 -31t96 -10.5q75 0 143 33.5t116 88t81.5 120t48.5 135.5l10 43q-57 -60 -162 -105t-194 -45q-105 0 -195 43.5t-149 121.5t-84 186q-13 53 -13 112t13 123q23 124 84.5 232t149.5 186.5t203 124t241 45.5q89 0 172 -42 t118 -114l37 125h234l-221 -1036q-21 -100 -58.5 -189.5t-96.5 -169.5t-134 -138t-176.5 -92t-218.5 -34q-139 0 -245 64t-173 172zM412 559q-9 -45 -9 -85q0 -89 45 -156q66 -99 201 -99q137 0 246 99t139 241q9 42 9 81q0 91 -49 162q-70 103 -201 103q-135 0 -243 -101.5 t-138 -244.5z" />
<glyph unicode="h" horiz-adv-x="1269" d="M33 0l325 1536h238l-119 -561q79 70 181 121t202 51q50 0 92 -5t86.5 -20t78 -39t61.5 -65q27 -42 40 -96q11 -46 11 -108q-1 -12 -1 -25q-2 -79 -22 -175l-129 -614h-246l115 543q20 102 20 180q0 81 -46 129q-44 46 -134 47q-102 0 -204.5 -61.5t-153.5 -132.5 l-149 -705h-246z" />
<glyph unicode="i" horiz-adv-x="516" d="M53 0l238 1116h246l-238 -1116h-246zM322 1368q14 62 65.5 105t112.5 43q60 0 94 -43q24 -30 24 -70q0 -17 -4 -35q-12 -61 -63 -104t-113 -43q-60 1 -94 43q-25 31 -25 73q0 15 3 31z" />
<glyph unicode="j" horiz-adv-x="847" d="M-127 -274l197 131q47 -70 76 -94q37 -31 75 -31q71 0 115 49.5t67 161.5l250 1173h242l-250 -1173q-29 -133 -72.5 -223t-103 -138t-125 -67t-151.5 -19q-190 0 -320 230zM680 1368q14 62 66.5 105t113.5 43t94 -43q23 -30 23 -70q0 -17 -4 -35q-12 -61 -63 -104 t-113 -43q-61 0 -95 43q-25 31 -25 73q0 15 3 31z" />
<glyph unicode="k" horiz-adv-x="1077" d="M53 0l326 1536h242l-191 -901l479 481h297l-487 -491l278 -625h-262l-198 440l-191 -192l-51 -248h-242z" />
<glyph unicode="l" horiz-adv-x="514" d="M55 0l326 1536h242l-326 -1536h-242z" />
<glyph unicode="m" horiz-adv-x="1994" d="M74 0l237 1116h228l-21 -141q194 172 359 172q56 0 102 -7t91.5 -25t79.5 -53t54 -87q71 66 194 119t228 53q49 0 90.5 -5.5t84.5 -20.5t74.5 -39.5t56.5 -65.5q24 -42 36 -96q9 -43 10 -101q0 -15 -1 -31q-3 -78 -23 -174l-131 -614h-246l115 543q12 56 18 98.5t8 84.5 v12q0 35 -8 61q-10 30 -28.5 53.5t-51 35t-78.5 11.5q-100 0 -189.5 -59.5t-143.5 -134.5q-5 -35 -15 -91l-131 -614h-246l115 543q15 68 21 117q4 33 4 65q0 16 -1 32q-3 48 -20 77t-52.5 47t-90.5 18q-100 0 -190 -59.5t-144 -134.5l-150 -705h-245z" />
<glyph unicode="n" horiz-adv-x="1273" d="M74 0l237 1116h228l-21 -141q194 172 375 172q50 0 91.5 -5t86 -20t77 -39t59.5 -65q27 -42 39 -96q10 -45 10 -106v-26q-2 -78 -23 -176l-131 -614h-246l115 543q21 105 23 184v5q0 74 -42 120q-43 46 -133 47q-101 0 -199.5 -61t-150.5 -133l-150 -705h-245z" />
<glyph unicode="o" horiz-adv-x="1314" d="M135 559q22 120 84 227.5t151.5 187.5t207.5 126.5t245 46.5q152 0 271.5 -79t175.5 -215q36 -89 36 -188q0 -52 -10 -106q-29 -160 -130.5 -294t-254 -213t-321.5 -79q-158 0 -273 79q-115 80 -163 214q-30 84 -30 177q0 56 11 116zM379 559q-10 -46 -10 -87 q-1 -90 47 -156q70 -98 223 -97q83 0 170.5 45.5t153.5 125t86 169.5q8 37 8 72q1 96 -59 171q-80 103 -220 103q-138 0 -253.5 -102.5t-145.5 -243.5z" />
<glyph unicode="p" horiz-adv-x="1323" d="M-6 -512l344 1628h223l-14 -123q70 65 168.5 109.5t183.5 44.5q148 0 255.5 -75.5t154.5 -209.5q31 -88 31 -190q0 -55 -9 -113q-25 -166 -121 -301t-242.5 -212t-314.5 -77q-93 0 -178.5 47.5t-112.5 108.5l-135 -637h-233zM459 563q-9 -43 -9 -83q0 -90 48 -162 q68 -103 198 -103q135 0 245 102.5t140 245.5q10 45 10 86q0 88 -45 156q-66 100 -202 100t-244.5 -99.5t-140.5 -242.5z" />
<glyph unicode="q" horiz-adv-x="1323" d="M155 349q-7 41 -7 85q0 59 12 125q31 167 130.5 302t243.5 210.5t304 75.5q84 0 167 -46t123 -108l39 123h224l-347 -1628h-235l135 637q-55 -63 -154 -109.5t-198 -46.5q-71 0 -141 24t-132 72t-105 119t-59 165zM398 430q9 -63 36 -111t80 -76t125 -28q131 0 245 103.5 t144 244.5q10 44 10 85q0 88 -47 157q-68 100 -205 100q-135 0 -241.5 -99.5t-138.5 -242.5q-11 -46 -11 -89q0 -22 3 -44z" />
<glyph unicode="r" horiz-adv-x="796" d="M74 0l237 1116h230l-17 -117q177 148 400 148l-58 -264q-145 0 -249 -65t-154 -154l-141 -664h-248z" />
<glyph unicode="s" horiz-adv-x="972" d="M35 252l194 129q45 -63 120.5 -117.5t160.5 -54.5q61 0 109 26.5t57 65.5q6 29 -8.5 55t-48.5 48t-68.5 38.5t-81.5 34.5q-76 29 -131 64.5t-84 71t-45.5 74.5t-16.5 75t3 72q19 137 146 225t300 88q22 0 54.5 -4.5t81.5 -19t95 -36t93.5 -61.5t78.5 -90l-198 -129 q-80 106 -256 106q-58 0 -99.5 -20.5t-50.5 -61.5q-2 -8 -2 -17q0 -64 117 -112q131 -54 191 -92q175 -112 175 -279q0 -11 -1 -22q-11 -146 -131 -243t-297 -97q-127 0 -260 90t-197 193z" />
<glyph unicode="t" horiz-adv-x="813" d="M160 877l49 239h135l55 256h240l-55 -256h288l-49 -239h-288l-121 -562q-5 -25 -5 -44q0 -62 52 -62q24 0 46 10t34.5 20t33 30t29.5 28l162 -143q-99 -99 -174.5 -141t-167.5 -42q-138 0 -212 84q-52 59 -52 152q0 41 10 88l125 582h-135z" />
<glyph unicode="u" horiz-adv-x="1273" d="M140 346q2 72 20 156l129 614h246l-115 -543q-15 -71 -22 -117q-5 -34 -5 -71v-25q2 -50 20.5 -78.5t56.5 -46.5t99 -18q109 0 204 60.5t149 134.5l149 704h246l-238 -1116h-227l20 141q-194 -172 -372 -172q-30 0 -60.5 4t-67.5 14t-69.5 29t-63.5 46t-52.5 68.5 t-34.5 93.5q-12 46 -12 108v14z" />
<glyph unicode="v" horiz-adv-x="1071" d="M180 1116h236l149 -635l426 635h279l-801 -1149z" />
<glyph unicode="w" horiz-adv-x="1613" d="M199 1116h233l168 -635l193 264l-99 371h234l168 -635l432 635h278l-807 -1149l-137 512l-358 -512z" />
<glyph unicode="x" horiz-adv-x="1042" d="M-82 0l537 600l-238 516h260l148 -323l288 323h297l-483 -545l264 -571h-260l-174 379l-336 -379h-303z" />
<glyph unicode="y" horiz-adv-x="1019" d="M-33 -512l430 698l-198 930h243l136 -635l393 635h276l-1005 -1628h-275z" />
<glyph unicode="z" horiz-adv-x="1030" d="M-88 0l793 877h-486l49 239h959l-785 -870h535l-51 -246h-1014z" />
<glyph unicode="{" horiz-adv-x="823" d="M123 610l24 117q119 39 187 119.5t96 210.5q29 137 86.5 239t135.5 162.5t167.5 89.5t192.5 29l-51 -238q-228 -24 -287 -276q-16 -68 -43 -139t-78.5 -149.5t-112.5 -117.5q109 -97 60 -360q-3 -15 -5 -33.5t-2.5 -50t3.5 -59.5t15.5 -59.5t31 -54t53 -38t78.5 -16.5 l-51 -238q-187 0 -288.5 156.5t-55.5 400.5q26 126 -12.5 196.5t-143.5 108.5z" />
<glyph unicode="|" horiz-adv-x="546" d="M41 -156l391 1846h246l-391 -1846h-246z" />
<glyph unicode="}" horiz-adv-x="827" d="M-59 -254l51 238q228 24 287 276q16 69 43 139.5t78 149t112 117.5q-108 97 -59 360q3 15 5 33.5t2.5 50t-3.5 59.5t-15.5 59.5t-31 54t-53 38t-78.5 16.5l51 238q187 0 288.5 -156.5t55.5 -400.5q-26 -126 12 -196.5t143 -108.5l-24 -117q-119 -39 -187 -119.5 t-96 -210.5q-29 -137 -86.5 -239t-135 -162.5t-167 -89.5t-192.5 -29z" />
<glyph unicode="&#xa1;" horiz-adv-x="542" d="M66 0l243 1147h246l-244 -1147h-245zM336 1405q14 62 66 105.5t114 43.5q63 0 98 -43.5t21 -105.5q-12 -62 -65.5 -106t-116.5 -44q-62 0 -95.5 44t-21.5 106z" />
<glyph unicode="&#xa2;" horiz-adv-x="1548" d="M180 752q28 164 108.5 307t200 248t280.5 165t341 60q170 0 317.5 -84t235.5 -229l-223 -142q-54 93 -157.5 147t-225.5 54q-138 0 -270.5 -70t-228 -191t-126.5 -265q-30 -144 9.5 -263t142.5 -188.5t250 -69.5q128 0 252.5 68.5t226.5 183.5l174 -172 q-138 -162 -316.5 -251t-373.5 -89q-215 0 -369.5 102.5t-219.5 280.5t-28 398zM584 -215l43 203l254 -11l-41 -192h-256zM950 1509l43 203h256l-41 -194z" />
<glyph unicode="&#xa3;" horiz-adv-x="1441" d="M25 303q23 126 136.5 223t256.5 97l71 -5l3 68h-166l47 223h119q-3 72 10 168q28 206 154 326.5t360 120.5q132 0 254 -79.5t180 -180.5l-219 -121q-33 59 -95.5 101t-142.5 42q-209 0 -252 -196q-7 -32 -10.5 -77t-3.5 -75v-29h285l-47 -223h-250q2 -41 -6 -213 q37 -56 54 -80.5t45.5 -62t46 -52.5t43 -33t51 -24t55.5 -6q73 0 184 61l123 -178q-97 -65 -175.5 -90.5t-179.5 -25.5q-208 0 -354 208q-59 -107 -142 -157.5t-206 -50.5q-44 0 -89.5 23.5t-81.5 63.5t-53.5 102t-4.5 132zM225 293q-8 -36 10.5 -62t51.5 -26q65 0 114.5 64 t59.5 137q-32 24 -121 4q-41 -10 -74.5 -47t-40.5 -70z" />
<glyph unicode="&#xa5;" d="M233 293l43 201h279l-23 73h-239l43 207h127l-217 721h254l227 -756l563 756h281l-539 -721h131l-43 -207h-241l-60 -73h285l-43 -201h-297l-62 -293h-237l61 293h-293z" />
<glyph unicode="&#xa7;" horiz-adv-x="1339" d="M78 -217l213 121q78 -125 223 -125q210 0 238 123q11 60 -48 116t-212 105q-64 21 -120 49.5t-108.5 69t-84 90t-47 112.5t2.5 136q16 77 66.5 144.5t112 108t116.5 64.5t92 29q-56 36 -86 105.5t-20 146.5q9 66 50.5 128t105.5 111t155.5 79t192.5 30q130 0 244 -62.5 t173 -171.5l-217 -125q-31 54 -91.5 85.5t-133.5 31.5q-81 0 -149.5 -26.5t-79.5 -79.5q-13 -65 43 -106.5t215 -96.5q60 -21 113 -49.5t103 -70t83 -90.5t47 -114t2 -137q-10 -58 -31.5 -108t-53.5 -87t-62 -64.5t-71.5 -50.5t-66 -34.5t-59.5 -26.5q44 -53 64.5 -109 t6.5 -134q-28 -163 -165 -260t-345 -97q-128 0 -243.5 67t-167.5 173zM369 575q-12 -60 17 -108.5t84 -76t116.5 -42t120.5 -14.5q53 0 103.5 9t96 28t77 51.5t40.5 75.5q11 51 -2.5 94.5t-45 73t-76 50.5t-94 30.5t-99.5 9.5q-111 0 -215.5 -50t-122.5 -131z" />
<glyph unicode="&#xa8;" horiz-adv-x="1163" d="M446 1401q14 65 68.5 110t118.5 45q65 0 100.5 -45.5t22.5 -109.5t-68.5 -109t-120.5 -45q-64 0 -99.5 44.5t-21.5 109.5zM838 1401q14 65 68 110t118 45q65 0 100.5 -45.5t22.5 -109.5t-68.5 -109t-120.5 -45q-64 0 -99 44.5t-21 109.5z" />
<glyph unicode="&#xab;" horiz-adv-x="1337" d="M150 557l487 533h315l-495 -553l225 -514h-291zM580 557l487 533h315l-495 -553l225 -514h-291z" />
<glyph unicode="&#xad;" horiz-adv-x="868" d="M154 489l51 244h604l-51 -244h-604z" />
<glyph unicode="&#xaf;" horiz-adv-x="909" d="M492 1829l51 237h567l-51 -237h-567z" />
<glyph unicode="&#xb0;" horiz-adv-x="886" d="M201 1157q25 149 155 258t281 109q145 0 234.5 -108.5t64.5 -258.5q-26 -156 -152 -261t-288 -105q-154 0 -237.5 105t-57.5 261zM412 1155q-12 -63 22.5 -108.5t97.5 -45.5t119.5 44.5t69.5 109.5q13 61 -24 108.5t-97 47.5q-62 0 -117.5 -45.5t-70.5 -110.5z" />
<glyph unicode="&#xb1;" horiz-adv-x="1165" d="M137 825l53 246h383l82 385h246l-82 -385h383l-53 -246h-383l-82 -391h-246l82 391h-383zM170 0l51 246h604l-51 -246h-604z" />
<glyph unicode="&#xb4;" horiz-adv-x="1013" d="M408 1296l288 240h322l-289 -240h-321z" />
<glyph unicode="&#xb7;" horiz-adv-x="460" d="M162 799q14 66 67 110.5t119 44.5t101.5 -44.5t21.5 -110.5q-13 -66 -67.5 -110t-120.5 -44t-100.5 44t-20.5 110z" />
<glyph unicode="&#xb8;" horiz-adv-x="708" d="M59 -109l224 416h274l-270 -416h-228z" />
<glyph unicode="&#xbb;" horiz-adv-x="1341" d="M43 25l496 575l-238 492l289 -2l244 -531l-472 -534h-319zM510 25l496 575l-238 492l289 -2l243 -531l-471 -534h-319z" />
<glyph unicode="&#xbf;" horiz-adv-x="1236" d="M172 457q10 54 36.5 105t68 97.5t73.5 77t80 70.5l47 41q22 19 51 41q43 36 64 56t45 57.5t33 80.5l14 72h242l-15 -72q-14 -65 -41 -120.5t-69.5 -104t-74.5 -78t-85 -73.5l-63 -54q-152 -127 -164 -196q-12 -67 -2 -112.5t44.5 -73t76.5 -39t96 -11.5q110 0 202.5 83 t122.5 220h244q-39 -234 -202.5 -389t-391.5 -155q-105 0 -193 32.5t-148.5 92.5t-85.5 151t-5 201zM690 1413q12 62 64.5 106t115.5 44q62 0 96.5 -44t22.5 -106q-14 -62 -66.5 -105.5t-115.5 -43.5t-97 43.5t-20 105.5z" />
<glyph unicode="&#xc0;" horiz-adv-x="1359" d="M61 0l211 991q61 284 228.5 430t419.5 146q94 0 180.5 -38.5t150.5 -112.5t90 -181t-2 -244l-211 -991h-247l86 406h-568l-86 -406h-252zM451 651h567l69 322q33 167 -22 255.5t-188 88.5q-141 0 -231.5 -87.5t-125.5 -256.5zM612 1878h291l191 -240h-291z" />
<glyph unicode="&#xc1;" horiz-adv-x="1359" d="M61 0l211 991q61 284 228.5 430t419.5 146q94 0 180.5 -38.5t150.5 -112.5t90 -181t-2 -244l-211 -991h-247l86 406h-568l-86 -406h-252zM451 651h567l69 322q33 167 -22 255.5t-188 88.5q-141 0 -231.5 -87.5t-125.5 -256.5zM715 1638l289 240h321l-289 -240h-321z" />
<glyph unicode="&#xc2;" horiz-adv-x="1359" d="M61 0l211 991q61 284 228.5 430t419.5 146q94 0 180.5 -38.5t150.5 -112.5t90 -181t-2 -244l-211 -991h-247l86 406h-568l-86 -406h-252zM451 651h567l69 322q33 167 -22 255.5t-188 88.5q-141 0 -231.5 -87.5t-125.5 -256.5zM504 1638l377 316h196l248 -316h-262 l-111 136l-172 -136h-276z" />
<glyph unicode="&#xc3;" horiz-adv-x="1359" d="M61 0l211 991q61 284 228.5 430t419.5 146q94 0 180.5 -38.5t150.5 -112.5t90 -181t-2 -244l-211 -991h-247l86 406h-568l-86 -406h-252zM451 651h567l69 322q33 167 -22 255.5t-188 88.5q-141 0 -231.5 -87.5t-125.5 -256.5zM614 1655l45 219q9 6 24 14.5t59 22.5t85 14 q66 0 151.5 -32.5t162.5 -32.5q41 0 81.5 12t60.5 24l20 11l-48 -224q-8 -5 -22.5 -13.5t-57.5 -22t-83 -13.5q-46 0 -156 36t-156 36q-41 0 -82.5 -13t-62.5 -25z" />
<glyph unicode="&#xc4;" horiz-adv-x="1359" d="M61 0l211 991q61 284 228.5 430t419.5 146q94 0 180.5 -38.5t150.5 -112.5t90 -181t-2 -244l-211 -991h-247l86 406h-568l-86 -406h-252zM451 651h567l69 322q33 167 -22 255.5t-188 88.5q-141 0 -231.5 -87.5t-125.5 -256.5zM612 1786q14 65 68.5 110.5t118.5 45.5 t100.5 -45.5t22.5 -110.5q-13 -64 -68.5 -109t-120.5 -45q-64 0 -99.5 44.5t-21.5 109.5zM1004 1786q14 65 68 110.5t118 45.5t100.5 -45.5t22.5 -110.5q-13 -64 -68.5 -109t-120.5 -45q-64 0 -99 44.5t-21 109.5z" />
<glyph unicode="&#xc5;" horiz-adv-x="1359" d="M61 0l211 991q61 284 228.5 430t419.5 146q94 0 180.5 -38.5t150.5 -112.5t90 -181t-2 -244l-211 -991h-247l86 406h-568l-86 -406h-252zM451 651h567l69 322q33 167 -22 255.5t-188 88.5q-141 0 -231.5 -87.5t-125.5 -256.5zM729 1866q17 96 99 164.5t178 68.5 t150.5 -68t37.5 -165q-17 -95 -99.5 -163.5t-179.5 -68.5q-95 0 -149 68t-37 164zM889 1870q-6 -31 10 -51.5t47 -20.5t56.5 20.5t31.5 51.5q7 31 -9.5 52.5t-47.5 21.5q-30 0 -55 -21.5t-33 -52.5z" />
<glyph unicode="&#xc6;" horiz-adv-x="2129" d="M82 0l211 991q61 284 228 430t419 146q147 0 274 -97l15 66h1020l-51 -246h-775l-92 -436h643l-53 -246h-643l-35 -162l-41 -198h789l-54 -248h-1036l86 406h-567l-86 -406h-252zM471 651h567l70 322q33 167 -22.5 255.5t-188.5 88.5q-141 0 -231 -87.5t-125 -256.5z" />
<glyph unicode="&#xc7;" horiz-adv-x="1546" d="M180 768q28 165 108.5 310.5t200 254t281 171.5t340.5 63q168 0 316 -87.5t237 -234.5l-223 -141q-54 94 -158 151.5t-225 57.5q-102 0 -206 -44.5t-188 -118t-146 -174t-85 -208.5q-30 -145 9.5 -267.5t143 -196t249.5 -73.5q126 0 250.5 72t228.5 189l174 -173 q-128 -149 -285.5 -238t-322.5 -101l-201 -308h-229l172 320q-162 41 -273 152t-155 273t-13 351z" />
<glyph unicode="&#xc8;" horiz-adv-x="1306" d="M84 0l326 1536h1026l-52 -246h-774l-94 -436h643l-51 -246h-643l-78 -360h789l-52 -248h-1040zM627 1878h291l190 -240h-291z" />
<glyph unicode="&#xc9;" horiz-adv-x="1306" d="M84 0l326 1536h1026l-52 -246h-774l-94 -436h643l-51 -246h-643l-78 -360h789l-52 -248h-1040zM662 1638l288 240h322l-289 -240h-321z" />
<glyph unicode="&#xca;" horiz-adv-x="1306" d="M84 0l326 1536h1026l-52 -246h-774l-94 -436h643l-51 -246h-643l-78 -360h789l-52 -248h-1040zM508 1638l377 316h196l248 -316h-262l-111 136l-172 -136h-276z" />
<glyph unicode="&#xcb;" horiz-adv-x="1306" d="M84 0l326 1536h1026l-52 -246h-774l-94 -436h643l-51 -246h-643l-78 -360h789l-52 -248h-1040zM629 1780q14 65 68 110t118 45q65 0 100.5 -45.5t22.5 -109.5t-68 -109t-120 -45q-64 0 -99.5 44.5t-21.5 109.5zM1020 1780q14 65 68 110t118 45q65 0 100.5 -45.5 t22.5 -109.5t-68 -109t-120 -45q-64 0 -99.5 44.5t-21.5 109.5z" />
<glyph unicode="&#xcc;" horiz-adv-x="579" d="M82 0l326 1536h251l-325 -1536h-252zM211 1878h291l190 -240h-291z" />
<glyph unicode="&#xcd;" horiz-adv-x="579" d="M82 0l326 1536h251l-325 -1536h-252zM373 1638l289 240h321l-289 -240h-321z" />
<glyph unicode="&#xce;" horiz-adv-x="579" d="M82 0l326 1536h251l-325 -1536h-252zM119 1638l377 316h196l248 -316h-262l-111 136l-172 -136h-276z" />
<glyph unicode="&#xcf;" horiz-adv-x="579" d="M82 0l326 1536h251l-325 -1536h-252zM227 1784q14 65 68.5 110t118.5 45q65 0 100.5 -45.5t22.5 -109.5t-68.5 -109t-120.5 -45q-64 0 -99.5 44.5t-21.5 109.5zM618 1784q14 65 68.5 110t118.5 45q65 0 100.5 -45.5t22.5 -109.5t-68.5 -109t-120.5 -45q-64 0 -99.5 44.5 t-21.5 109.5z" />
<glyph unicode="&#xd0;" horiz-adv-x="1542" d="M102 0l138 647h-136l52 244h135l137 645h446q145 0 275.5 -60t219.5 -161.5t127 -246t5 -302.5q-35 -166 -117 -306t-202 -242.5t-283 -160t-350 -57.5h-447zM406 248h159q95 0 179.5 16t166.5 54t146.5 96.5t114 148t73.5 203.5q47 223 -75 373.5t-347 150.5h-194 l-86 -399h313l-51 -244h-313z" />
<glyph unicode="&#xd1;" horiz-adv-x="1595" d="M82 0l332 1567l751 -1016l207 985h250l-334 -1567l-747 1010l-209 -979h-250zM694 1599l45 220q9 6 24 14.5t59 22.5t85 14q66 0 151.5 -33t162.5 -33q41 0 81 12t60 24l20 11l-47 -223q-8 -5 -23 -13.5t-58 -22t-83 -13.5q-46 0 -155.5 36t-155.5 36q-41 0 -82.5 -13 t-62.5 -26z" />
<glyph unicode="&#xd2;" horiz-adv-x="1734" d="M160 768q37 219 169.5 401t338 290t440.5 108q162 0 294 -63.5t214 -171t114.5 -254.5t4.5 -310q-28 -166 -118 -315t-218 -254t-289.5 -166.5t-327.5 -61.5q-162 0 -292.5 62.5t-211.5 169.5t-113 253.5t-5 311.5zM402 601.5q3 -79.5 34.5 -148.5t82 -119.5t131 -79.5 t181.5 -29q110 0 219.5 44.5t196.5 119t149.5 174t84.5 205.5q32 148 -13.5 274t-155 199.5t-257.5 73.5q-223 0 -407 -159.5t-234 -387.5q-15 -87 -12 -166.5zM805 1878h291l190 -240h-291z" />
<glyph unicode="&#xd3;" horiz-adv-x="1734" d="M160 768q37 219 169.5 401t338 290t440.5 108q162 0 294 -63.5t214 -171t114.5 -254.5t4.5 -310q-28 -166 -118 -315t-218 -254t-289.5 -166.5t-327.5 -61.5q-162 0 -292.5 62.5t-211.5 169.5t-113 253.5t-5 311.5zM402 601.5q3 -79.5 34.5 -148.5t82 -119.5t131 -79.5 t181.5 -29q110 0 219.5 44.5t196.5 119t149.5 174t84.5 205.5q32 148 -13.5 274t-155 199.5t-257.5 73.5q-223 0 -407 -159.5t-234 -387.5q-15 -87 -12 -166.5zM842 1638l288 240h322l-289 -240h-321z" />
<glyph unicode="&#xd4;" horiz-adv-x="1734" d="M160 768q37 219 169.5 401t338 290t440.5 108q162 0 294 -63.5t214 -171t114.5 -254.5t4.5 -310q-28 -166 -118 -315t-218 -254t-289.5 -166.5t-327.5 -61.5q-162 0 -292.5 62.5t-211.5 169.5t-113 253.5t-5 311.5zM402 601.5q3 -79.5 34.5 -148.5t82 -119.5t131 -79.5 t181.5 -29q110 0 219.5 44.5t196.5 119t149.5 174t84.5 205.5q32 148 -13.5 274t-155 199.5t-257.5 73.5q-223 0 -407 -159.5t-234 -387.5q-15 -87 -12 -166.5zM692 1638l377 316h197l247 -316h-262l-110 136l-172 -136h-277z" />
<glyph unicode="&#xd5;" horiz-adv-x="1734" d="M160 768q37 219 169.5 401t338 290t440.5 108q162 0 294 -63.5t214 -171t114.5 -254.5t4.5 -310q-28 -166 -118 -315t-218 -254t-289.5 -166.5t-327.5 -61.5q-162 0 -292.5 62.5t-211.5 169.5t-113 253.5t-5 311.5zM402 601.5q3 -79.5 34.5 -148.5t82 -119.5t131 -79.5 t181.5 -29q110 0 219.5 44.5t196.5 119t149.5 174t84.5 205.5q32 148 -13.5 274t-155 199.5t-257.5 73.5q-223 0 -407 -159.5t-234 -387.5q-15 -87 -12 -166.5zM803 1655l45 219q9 6 24 14.5t59 22.5t85 14q66 0 151 -32.5t162 -32.5q41 0 81.5 12t60.5 24l20 11l-47 -224 q-8 -5 -23 -13.5t-58 -22t-83 -13.5q-46 0 -155.5 36t-155.5 36q-41 0 -82.5 -13t-62.5 -25z" />
<glyph unicode="&#xd6;" horiz-adv-x="1734" d="M160 768q37 219 169.5 401t338 290t440.5 108q162 0 294 -63.5t214 -171t114.5 -254.5t4.5 -310q-28 -166 -118 -315t-218 -254t-289.5 -166.5t-327.5 -61.5q-162 0 -292.5 62.5t-211.5 169.5t-113 253.5t-5 311.5zM402 601.5q3 -79.5 34.5 -148.5t82 -119.5t131 -79.5 t181.5 -29q110 0 219.5 44.5t196.5 119t149.5 174t84.5 205.5q32 148 -13.5 274t-155 199.5t-257.5 73.5q-223 0 -407 -159.5t-234 -387.5q-15 -87 -12 -166.5zM803 1788q14 65 68 110.5t118 45.5t100.5 -45.5t22.5 -110.5q-13 -64 -68 -109t-120 -45q-64 0 -99.5 44.5 t-21.5 109.5zM1194 1788q14 65 68 110.5t118 45.5t100.5 -45.5t22.5 -110.5q-13 -64 -68 -109t-120 -45q-64 0 -99.5 44.5t-21.5 109.5z" />
<glyph unicode="&#xd7;" horiz-adv-x="1118" d="M139 475l299 248l-190 244l188 151l189 -241l315 262l150 -191l-318 -262l195 -246l-185 -153l-194 248l-301 -248z" />
<glyph unicode="&#xd8;" horiz-adv-x="1775" d="M51 154l185 153q-99 203 -56 461q37 219 169.5 401t338 290t440.5 108q263 0 437 -160l182 149l137 -174l-186 -153q100 -207 57 -461q-28 -166 -118 -315t-218 -254t-289 -166.5t-327 -61.5q-262 0 -436 156l-179 -147zM434 768q-35 -156 10 -287l906 748 q-116 86 -275 86q-223 0 -407 -159.5t-234 -387.5zM578 301q110 -76 274 -76q147 0 287 75.5t236.5 200.5t125.5 267q34 153 -18 285z" />
<glyph unicode="&#xd9;" horiz-adv-x="1505" d="M179 339.5q-22 92.5 3 207.5l211 989h252l-207 -973q-33 -156 45 -245t240 -89q142 0 265 91t157 243l207 973h252l-211 -989q-24 -112 -78 -207.5t-126 -162t-159 -114t-178.5 -70t-183.5 -22.5q-70 0 -145.5 23t-147.5 69t-123 115t-73 161.5zM692 1878h291l191 -240 h-291z" />
<glyph unicode="&#xda;" horiz-adv-x="1505" d="M179 339.5q-22 92.5 3 207.5l211 989h252l-207 -973q-33 -156 45 -245t240 -89q142 0 265 91t157 243l207 973h252l-211 -989q-24 -112 -78 -207.5t-126 -162t-159 -114t-178.5 -70t-183.5 -22.5q-70 0 -145.5 23t-147.5 69t-123 115t-73 161.5zM788 1638l289 240h322 l-289 -240h-322z" />
<glyph unicode="&#xdb;" horiz-adv-x="1505" d="M179 339.5q-22 92.5 3 207.5l211 989h252l-207 -973q-33 -156 45 -245t240 -89q142 0 265 91t157 243l207 973h252l-211 -989q-24 -112 -78 -207.5t-126 -162t-159 -114t-178.5 -70t-183.5 -22.5q-70 0 -145.5 23t-147.5 69t-123 115t-73 161.5zM578 1638l376 316h197 l248 -316h-262l-111 136l-172 -136h-276z" />
<glyph unicode="&#xdc;" horiz-adv-x="1505" d="M179 339.5q-22 92.5 3 207.5l211 989h252l-207 -973q-33 -156 45 -245t240 -89q142 0 265 91t157 243l207 973h252l-211 -989q-24 -112 -78 -207.5t-126 -162t-159 -114t-178.5 -70t-183.5 -22.5q-70 0 -145.5 23t-147.5 69t-123 115t-73 161.5zM690 1798 q14 65 68.5 110.5t118.5 45.5t100 -45.5t22 -110.5q-13 -64 -68 -108.5t-120 -44.5t-99.5 44.5t-21.5 108.5zM1081 1798q14 65 68.5 110.5t118.5 45.5t100.5 -45.5t22.5 -110.5q-13 -64 -68.5 -108.5t-120.5 -44.5t-99.5 44.5t-21.5 108.5z" />
<glyph unicode="&#xdd;" horiz-adv-x="1298" d="M242 1536h252l217 -735l555 735h295l-762 -1024l-109 -512h-252l109 512zM666 1638l288 240h322l-289 -240h-321z" />
<glyph unicode="&#xde;" horiz-adv-x="1347" d="M102 0l326 1536h250l-43 -203h248q104 0 199 -43.5t163 -117.5t97.5 -184t3.5 -232q-54 -252 -238.5 -402.5t-464.5 -150.5h-248l-43 -203h-250zM446 449h248q139 0 253 85.5t143 221.5q30 141 -45.5 236t-213.5 95h-247z" />
<glyph unicode="&#xdf;" horiz-adv-x="1234" d="M70 0l258 1219q26 119 88.5 198.5t142.5 113.5t178 34q83 0 154.5 -27.5t122 -77.5t71 -127.5t0.5 -169.5q-20 -96 -141 -194q-6 -5 -23.5 -18t-27.5 -21t-23 -20t-20.5 -23.5t-9.5 -22.5q-2 -10 1 -21t7.5 -19t16 -19t19 -17t23.5 -19t23 -19q93 -79 125 -115 q102 -118 89 -279q0 -7 -1 -14q-8 -72 -40.5 -138t-84.5 -117.5t-127.5 -82.5t-161.5 -31q-210 0 -330 297l197 115q46 -93 78 -128q44 -48 96 -48q47 0 85.5 44t47.5 89q14 64 -32.5 128t-110.5 105q-20 15 -35.5 27t-34.5 28.5t-31.5 31t-26.5 33.5t-21 36.5t-13.5 40 t-4.5 44t5 48.5q8 38 35.5 76.5t50.5 60t68 58.5q9 8 31 25.5t31.5 26t20.5 24t15 30.5q14 68 -20 114t-128 46q-33 0 -76.5 -29t-54.5 -77l-258 -1219h-243z" />
<glyph unicode="&#xe0;" d="M135 559q-33 -167 15 -302t164 -210.5t276 -75.5q108 0 209.5 46.5t173.5 121.5l-19 -139h230l237 1116h-231l-39 -139q-39 69 -126.5 119.5t-184.5 50.5q-168 0 -318.5 -77.5t-252 -212t-134.5 -298.5zM375 559q31 151 153.5 258t270.5 107q141 0 220 -108t48 -257 q-33 -151 -153.5 -255.5t-268.5 -104.5q-155 0 -229 103.5t-41 256.5zM520 1505h291l190 -239h-290z" />
<glyph unicode="&#xe1;" d="M135 559q33 164 134.5 298.5t252 212t318.5 77.5q97 0 184.5 -50.5t126.5 -119.5l39 139h231l-237 -1116h-230l19 139q-72 -75 -173.5 -121.5t-209.5 -46.5q-160 0 -276 75.5t-164 210.5t-15 302zM375 559q-33 -153 41 -256.5t229 -103.5q148 0 268.5 104.5t153.5 255.5 q31 149 -48 257t-220 108q-148 0 -270.5 -107t-153.5 -258zM616 1266l289 239h322l-289 -239h-322z" />
<glyph unicode="&#xe2;" d="M135 559q-33 -167 15 -302t164 -210.5t276 -75.5q108 0 209.5 46.5t173.5 121.5l-19 -139h230l237 1116h-231l-39 -139q-39 69 -126.5 119.5t-184.5 50.5q-168 0 -318.5 -77.5t-252 -212t-134.5 -298.5zM375 559q31 151 153.5 258t270.5 107q141 0 220 -108t48 -257 q-33 -151 -153.5 -255.5t-268.5 -104.5q-155 0 -229 103.5t-41 256.5zM446 1266l377 315h197l248 -315h-262l-111 135l-172 -135h-277z" />
<glyph unicode="&#xe3;" d="M135 559q-33 -167 15 -302t164 -210.5t276 -75.5q108 0 209.5 46.5t173.5 121.5l-19 -139h230l237 1116h-231l-39 -139q-39 69 -126.5 119.5t-184.5 50.5q-168 0 -318.5 -77.5t-252 -212t-134.5 -298.5zM375 559q31 151 153.5 258t270.5 107q141 0 220 -108t48 -257 q-33 -151 -153.5 -255.5t-268.5 -104.5q-155 0 -229 103.5t-41 256.5zM539 1276l45 219q9 6 24 14.5t59 22.5t85 14q66 0 151 -32.5t162 -32.5q41 0 81.5 11.5t60.5 23.5l20 12l-47 -223q-8 -6 -23 -14t-58 -22t-83 -14q-46 0 -155.5 36t-155.5 36q-41 0 -82.5 -12.5 t-62.5 -25.5z" />
<glyph unicode="&#xe4;" d="M135 559q-33 -167 15 -302t164 -210.5t276 -75.5q108 0 209.5 46.5t173.5 121.5l-19 -139h230l237 1116h-231l-39 -139q-39 69 -126.5 119.5t-184.5 50.5q-168 0 -318.5 -77.5t-252 -212t-134.5 -298.5zM375 559q31 151 153.5 258t270.5 107q141 0 220 -108t48 -257 q-33 -151 -153.5 -255.5t-268.5 -104.5q-155 0 -229 103.5t-41 256.5zM516 1401q14 65 68 110t118 45q65 0 100.5 -45.5t22.5 -109.5t-68 -109t-120 -45q-64 0 -99.5 44.5t-21.5 109.5zM907 1401q14 65 68.5 110t118.5 45q65 0 100.5 -45.5t22.5 -109.5t-68.5 -109 t-120.5 -45q-64 0 -99.5 44.5t-21.5 109.5z" />
<glyph unicode="&#xe5;" d="M135 559q33 164 134.5 298.5t252 212t318.5 77.5q97 0 184.5 -50.5t126.5 -119.5l39 139h231l-237 -1116h-230l19 139q-72 -75 -173.5 -121.5t-209.5 -46.5q-160 0 -276 75.5t-164 210.5t-15 302zM375 559q-33 -153 41 -256.5t229 -103.5q148 0 268.5 104.5t153.5 255.5 q31 149 -48 257t-220 108q-148 0 -270.5 -107t-153.5 -258zM647 1483q17 96 99 164.5t178 68.5t150.5 -68t37.5 -165q-17 -95 -99 -163.5t-179 -68.5q-95 0 -149.5 68t-37.5 164zM807 1487q-6 -31 10 -51.5t47 -20.5t56.5 20.5t31.5 51.5q7 31 -9.5 52.5t-47.5 21.5 q-30 0 -55 -21.5t-33 -52.5z" />
<glyph unicode="&#xe6;" horiz-adv-x="1949" d="M66 319q13 86 58.5 156t110 116t145.5 77.5t163 45t166 13.5q19 0 89 -6t76 -6q-15 90 -76 139t-153 49q-84 0 -154.5 -31t-142.5 -90l-166 152q77 88 216.5 150.5t281.5 62.5q113 0 216 -46t151 -132q176 176 442 176q90 0 167 -37t128 -98t85 -138t45.5 -158t2.5 -157 l-16 -82h-824q-14 -113 53.5 -187.5t192.5 -74.5q162 0 307 125l170 -156q-82 -93 -223 -153t-303 -60q-264 0 -379 201l-13 -13q-13 -13 -24 -22.5t-31.5 -26.5t-43 -30.5t-52 -30.5t-63.5 -29t-73 -23t-85.5 -16.5t-95.5 -5.5q-97 0 -182.5 46.5t-132.5 127.5t-33 172z M303 336q-10 -53 35.5 -87t114.5 -34q91 0 194.5 39.5t155.5 107.5l28 136q-70 25 -157.5 25.5t-164.5 -20.5t-135 -65t-71 -102zM1120 690h572q-21 102 -85 162.5t-159 60.5q-105 0 -191 -63t-137 -160z" />
<glyph unicode="&#xe7;" horiz-adv-x="1140" d="M133 557q24 162 117.5 296.5t239.5 214t313 79.5q123 0 241.5 -69t186.5 -179l-201 -129q-89 135 -268 135q-135 0 -245 -103t-140 -245q-31 -148 40.5 -244t223.5 -96q136 0 305 166l158 -145q-187 -217 -414 -256l-176 -277h-227l153 287q-171 49 -254.5 204t-52.5 361 z" />
<glyph unicode="&#xe8;" horiz-adv-x="1228" d="M123.5 417q-4.5 70 9.5 138q15 85 46.5 166t86.5 159t126.5 136t172 93.5t217.5 35.5q90 0 167 -37t128 -98t85 -138t45.5 -158t2.5 -157l-16 -82h-823q-14 -113 53 -187.5t192 -74.5q163 0 308 125l170 -156q-82 -92 -223.5 -152.5t-303.5 -60.5q-89 0 -163 24.5 t-123.5 67t-86 99.5t-51.5 122t-19.5 135zM414 690h571q-21 102 -85 162.5t-159 60.5q-105 0 -190.5 -63t-136.5 -160zM457 1505h291l190 -239h-291z" />
<glyph unicode="&#xe9;" horiz-adv-x="1228" d="M123.5 417q-4.5 70 9.5 138q15 85 46.5 166t86.5 159t126.5 136t172 93.5t217.5 35.5q90 0 167 -37t128 -98t85 -138t45.5 -158t2.5 -157l-16 -82h-823q-14 -113 53 -187.5t192 -74.5q163 0 308 125l170 -156q-82 -92 -223.5 -152.5t-303.5 -60.5q-89 0 -163 24.5 t-123.5 67t-86 99.5t-51.5 122t-19.5 135zM414 690h571q-21 102 -85 162.5t-159 60.5q-105 0 -190.5 -63t-136.5 -160zM594 1266l289 239h321l-289 -239h-321z" />
<glyph unicode="&#xea;" horiz-adv-x="1228" d="M123.5 417q-4.5 70 9.5 138q15 85 46.5 166t86.5 159t126.5 136t172 93.5t217.5 35.5q90 0 167 -37t128 -98t85 -138t45.5 -158t2.5 -157l-16 -82h-823q-14 -113 53 -187.5t192 -74.5q163 0 308 125l170 -156q-82 -92 -223.5 -152.5t-303.5 -60.5q-89 0 -163 24.5 t-123.5 67t-86 99.5t-51.5 122t-19.5 135zM360 1266l377 315h197l248 -315h-262l-111 135l-172 -135h-277zM414 690h571q-21 102 -85 162.5t-159 60.5q-105 0 -190.5 -63t-136.5 -160z" />
<glyph unicode="&#xeb;" horiz-adv-x="1228" d="M123.5 417q-4.5 70 9.5 138q15 85 46.5 166t86.5 159t126.5 136t172 93.5t217.5 35.5q90 0 167 -37t128 -98t85 -138t45.5 -158t2.5 -157l-16 -82h-823q-14 -113 53 -187.5t192 -74.5q163 0 308 125l170 -156q-82 -92 -223.5 -152.5t-303.5 -60.5q-89 0 -163 24.5 t-123.5 67t-86 99.5t-51.5 122t-19.5 135zM414 690h571q-21 102 -85 162.5t-159 60.5q-105 0 -190.5 -63t-136.5 -160zM471 1407q14 65 68 110.5t118 45.5t100.5 -45.5t22.5 -110.5q-13 -64 -68 -109t-120 -45q-64 0 -99.5 44.5t-21.5 109.5zM862 1407q14 65 68.5 110.5 t118.5 45.5t100 -45.5t22 -110.5q-13 -64 -68 -109t-120 -45q-64 0 -99.5 44.5t-21.5 109.5z" />
<glyph unicode="&#xec;" horiz-adv-x="516" d="M76 0l235 1116h246l-235 -1116h-246zM100 1536h291l191 -240h-291z" />
<glyph unicode="&#xed;" horiz-adv-x="516" d="M76 0l235 1116h246l-235 -1116h-246zM262 1296l289 240h321l-288 -240h-322z" />
<glyph unicode="&#xee;" horiz-adv-x="516" d="M12 1270l377 315h197l248 -315h-263l-110 135l-172 -135h-277zM76 0l235 1116h246l-235 -1116h-246z" />
<glyph unicode="&#xef;" horiz-adv-x="516" d="M76 0l235 1116h246l-235 -1116h-246zM106 1401q14 65 68.5 110t118.5 45q65 0 100.5 -45.5t22.5 -109.5t-68.5 -109t-120.5 -45q-64 0 -99.5 44.5t-21.5 109.5zM498 1401q14 65 68 110t118 45q65 0 100.5 -45.5t22.5 -109.5t-68.5 -109t-120.5 -45q-64 0 -99 44.5 t-21 109.5z" />
<glyph unicode="&#xf0;" horiz-adv-x="1126" d="M84 475q24 131 107.5 244t205 179.5t250.5 66.5q23 0 63 -8.5t56 -20.5q-18 55 -94 180l-226 -112l-65 186l197 100l-138 244l254 2l90 -145l152 75l68 -186l-125 -61q51 -98 71 -137.5t55.5 -119t59.5 -147.5q56 -164 22 -340q-43 -216 -209 -359t-401 -143 q-93 0 -174.5 39.5t-136 106.5t-78 160.5t-4.5 195.5zM326 481q-23 -109 37 -186.5t167 -77.5q109 0 203 77.5t117 186.5q23 107 -37.5 180.5t-169.5 73.5q-108 0 -201 -73.5t-116 -180.5z" />
<glyph unicode="&#xf1;" horiz-adv-x="1273" d="M74 0l237 1116h228l-21 -141q194 172 375 172q50 0 91.5 -5t86 -20t77 -39t59.5 -65t39 -95.5t9.5 -133t-22.5 -175.5l-131 -614h-246l115 543q21 105 22.5 184t-41.5 125.5t-133 46.5q-101 0 -199.5 -61t-150.5 -133l-150 -705h-245zM508 1282l45 219q9 6 24 14.5 t59 22.5t85 14q66 0 151 -32.5t162 -32.5q41 0 81.5 11.5t60.5 23.5l20 12l-47 -223q-8 -5 -23 -13.5t-58 -22t-83 -13.5q-46 0 -155.5 35.5t-155.5 35.5q-41 0 -82.5 -12.5t-62.5 -25.5z" />
<glyph unicode="&#xf2;" horiz-adv-x="1314" d="M135 559q22 120 84 227.5t151.5 187.5t207.5 126.5t245 46.5q152 0 271.5 -79t175 -215t26.5 -294q-29 -160 -130.5 -294t-254 -213t-321.5 -79q-158 0 -273 79t-163 213.5t-19 293.5zM379 559q-32 -145 37.5 -242.5t222.5 -97.5q83 0 170.5 45.5t153.5 125t86 169.5 q29 140 -51.5 243t-219.5 103q-138 0 -253.5 -102.5t-145.5 -243.5zM516 1505h291l190 -239h-290z" />
<glyph unicode="&#xf3;" horiz-adv-x="1314" d="M135 559q22 120 84 227.5t151.5 187.5t207.5 126.5t245 46.5q152 0 271.5 -79t175 -215t26.5 -294q-29 -160 -130.5 -294t-254 -213t-321.5 -79q-158 0 -273 79t-163 213.5t-19 293.5zM379 559q-32 -145 37.5 -242.5t222.5 -97.5q83 0 170.5 45.5t153.5 125t86 169.5 q29 140 -51.5 243t-219.5 103q-138 0 -253.5 -102.5t-145.5 -243.5zM612 1266l289 239h322l-289 -239h-322z" />
<glyph unicode="&#xf4;" horiz-adv-x="1314" d="M135 559q22 120 84 227.5t151.5 187.5t207.5 126.5t245 46.5q152 0 271.5 -79t175 -215t26.5 -294q-29 -160 -130.5 -294t-254 -213t-321.5 -79q-158 0 -273 79t-163 213.5t-19 293.5zM379 559q-32 -145 37.5 -242.5t222.5 -97.5q83 0 170.5 45.5t153.5 125t86 169.5 q29 140 -51.5 243t-219.5 103q-138 0 -253.5 -102.5t-145.5 -243.5zM401 1266l377 315h197l248 -315h-262l-111 135l-172 -135h-277z" />
<glyph unicode="&#xf5;" horiz-adv-x="1314" d="M135 559q22 120 84 227.5t151.5 187.5t207.5 126.5t245 46.5q152 0 271.5 -79t175 -215t26.5 -294q-29 -160 -130.5 -294t-254 -213t-321.5 -79q-158 0 -273 79t-163 213.5t-19 293.5zM379 559q-32 -145 37.5 -242.5t222.5 -97.5q83 0 170.5 45.5t153.5 125t86 169.5 q29 140 -51.5 243t-219.5 103q-138 0 -253.5 -102.5t-145.5 -243.5zM512 1270l45 219q9 6 24 14.5t59 22.5t85 14q66 0 151 -32.5t162 -32.5q41 0 81.5 11.5t60.5 23.5l20 12l-47 -224q-8 -5 -23 -13.5t-58 -22t-83 -13.5q-46 0 -155.5 36t-155.5 36q-41 0 -82.5 -12.5 t-62.5 -25.5z" />
<glyph unicode="&#xf6;" horiz-adv-x="1314" d="M135 559q22 120 84 227.5t151.5 187.5t207.5 126.5t245 46.5q152 0 271.5 -79t175 -215t26.5 -294q-29 -160 -130.5 -294t-254 -213t-321.5 -79q-158 0 -273 79t-163 213.5t-19 293.5zM379 559q-32 -145 37.5 -242.5t222.5 -97.5q83 0 170.5 45.5t153.5 125t86 169.5 q29 140 -51.5 243t-219.5 103q-138 0 -253.5 -102.5t-145.5 -243.5zM512 1401q14 65 68 110t118 45q65 0 100.5 -45.5t22.5 -109.5t-68 -109t-120 -45q-64 0 -99.5 44.5t-21.5 109.5zM903 1401q14 65 68.5 110t118.5 45t100 -45t22 -110q-13 -64 -68 -109t-120 -45 q-64 0 -99.5 44.5t-21.5 109.5z" />
<glyph unicode="&#xf7;" horiz-adv-x="958" d="M92 424l55 256h752l-55 -256h-752zM274 133q14 63 69 108.5t118 45.5t99 -45.5t22 -108.5q-13 -63 -68.5 -108t-118.5 -45t-98.5 45t-22.5 108zM451 961q13 63 68 108t118 45t98.5 -45t22.5 -108q-14 -63 -69 -108.5t-118 -45.5t-98.5 45.5t-21.5 108.5z" />
<glyph unicode="&#xf8;" horiz-adv-x="1314" d="M47 152l115 94q-60 147 -27 313q22 120 84 227.5t151.5 187.5t207.5 126.5t245 46.5q175 0 305 -105l115 95l137 -174l-116 -99q62 -139 32 -305q-29 -160 -130.5 -294t-254 -213t-321.5 -79t-295 95l-111 -91zM373 420l547 448q-66 37 -142 37q-138 0 -253.5 -102.5 t-145.5 -243.5q-16 -66 -6 -139zM508 244q58 -25 131 -25q83 0 170.5 45.5t153.5 125t86 169.5q12 69 0 131z" />
<glyph unicode="&#xf9;" horiz-adv-x="1273" d="M140.5 346.5q1.5 71.5 19.5 155.5l129 614h246l-115 -543q-15 -71 -22 -117.5t-4.5 -96t20.5 -78t56 -46.5t99 -18q109 0 204 60.5t149 134.5l149 704h246l-238 -1116h-227l20 141q-194 -172 -372 -172q-30 0 -60.5 4t-67.5 14t-69.5 29t-63.5 46t-52.5 68.5t-34.5 93 t-11.5 123zM487 1505h291l191 -239h-291z" />
<glyph unicode="&#xfa;" horiz-adv-x="1273" d="M140.5 346.5q1.5 71.5 19.5 155.5l129 614h246l-115 -543q-15 -71 -22 -117.5t-4.5 -96t20.5 -78t56 -46.5t99 -18q109 0 204 60.5t149 134.5l149 704h246l-238 -1116h-227l20 141q-194 -172 -372 -172q-30 0 -60.5 4t-67.5 14t-69.5 29t-63.5 46t-52.5 68.5t-34.5 93 t-11.5 123zM563 1266l289 239h322l-289 -239h-322z" />
<glyph unicode="&#xfb;" horiz-adv-x="1273" d="M140.5 346.5q1.5 71.5 19.5 155.5l129 614h246l-115 -543q-15 -71 -22 -117.5t-4.5 -96t20.5 -78t56 -46.5t99 -18q109 0 204 60.5t149 134.5l149 704h246l-238 -1116h-227l20 141q-194 -172 -372 -172q-30 0 -60.5 4t-67.5 14t-69.5 29t-63.5 46t-52.5 68.5t-34.5 93 t-11.5 123zM385 1266l377 315h196l248 -315h-262l-110 135l-172 -135h-277z" />
<glyph unicode="&#xfc;" horiz-adv-x="1273" d="M140.5 346.5q1.5 71.5 19.5 155.5l129 614h246l-115 -543q-15 -71 -22 -117.5t-4.5 -96t20.5 -78t56 -46.5t99 -18q109 0 204 60.5t149 134.5l149 704h246l-238 -1116h-227l20 141q-194 -172 -372 -172q-30 0 -60.5 4t-67.5 14t-69.5 29t-63.5 46t-52.5 68.5t-34.5 93 t-11.5 123zM485 1413q14 65 68.5 110.5t118.5 45.5t100.5 -45.5t22.5 -110.5q-13 -64 -68.5 -108.5t-120.5 -44.5t-99.5 44.5t-21.5 108.5zM877 1413q14 65 68 110.5t118 45.5t100.5 -45.5t22.5 -110.5q-13 -64 -68.5 -108.5t-120.5 -44.5q-64 0 -99 44t-21 109z" />
<glyph unicode="&#xfd;" horiz-adv-x="1019" d="M-33 -512l430 698l-198 930h243l136 -635l393 635h276l-1005 -1628h-275zM444 1266l289 239h322l-289 -239h-322z" />
<glyph unicode="&#xfe;" horiz-adv-x="1323" d="M-27 -512l433 2048h235l-115 -543q70 65 169 109.5t184 44.5q113 0 206.5 -44t151 -122.5t80 -186.5t-5.5 -235q-26 -125 -85.5 -232.5t-144 -187t-197 -125t-237.5 -45.5q-90 0 -184.5 48.5t-120.5 107.5l-135 -637h-234zM438 563q-30 -142 38 -245t198 -103 q128 0 243 104t144 244q31 142 -35.5 242t-202.5 100t-244.5 -99.5t-140.5 -242.5z" />
<glyph unicode="&#xff;" horiz-adv-x="1019" d="M-33 -512l430 698l-198 930h243l136 -635l393 635h276l-1005 -1628h-275zM375 1407q14 65 68 110.5t118 45.5t100.5 -45.5t22.5 -110.5q-13 -64 -68 -109t-120 -45q-64 0 -99.5 44.5t-21.5 109.5zM766 1407q14 65 68 110.5t118 45.5t100.5 -45.5t22.5 -110.5 q-13 -64 -68 -109t-120 -45q-64 0 -99.5 44.5t-21.5 109.5z" />
<glyph unicode="&#x152;" horiz-adv-x="2570" d="M180 768q37 219 169.5 401t338 290t440.5 108q157 0 284 -58t212 -163l41 190h1026l-51 -246h-774l-94 -436h643l-52 -246h-643l-78 -360h789l-51 -248h-1041l35 164q-265 -193 -571 -193q-216 0 -372 106.5t-222 288.5t-29 402zM422 601.5q3 -79.5 34.5 -148.5 t82.5 -119.5t131.5 -79.5t181.5 -29q147 0 287 75.5t236.5 200.5t125.5 267q32 148 -13.5 274t-155 199.5t-257.5 73.5q-223 0 -407 -159.5t-234 -387.5q-15 -87 -12 -166.5z" />
<glyph unicode="&#x153;" horiz-adv-x="2142" d="M135 559q22 120 84 227.5t151.5 187.5t207.5 126.5t245 46.5q126 0 231 -56.5t171 -154.5q183 209 473 209q90 0 167 -37t128 -98t85 -138t45.5 -158t2.5 -157l-17 -82h-823q-14 -113 53.5 -187.5t192.5 -74.5q162 0 307 125l170 -156q-82 -93 -223 -153t-303 -60 q-274 0 -387 217q-101 -99 -232 -156t-274 -57q-158 0 -273 79t-163 213.5t-19 293.5zM379 559q-32 -145 37.5 -242.5t222.5 -97.5q83 0 170.5 45.5t153.5 125t86 169.5q29 140 -51.5 243t-219.5 103q-138 0 -253.5 -102.5t-145.5 -243.5zM1329 690h572q-21 102 -85 162.5 t-159 60.5q-105 0 -191 -63t-137 -160z" />
<glyph unicode="&#x178;" horiz-adv-x="1298" d="M231 1536h252l217 -735l555 735h295l-762 -1024l-108 -512h-252l109 512zM561 1729q14 65 68.5 110t118.5 45t100 -45t22 -110q-13 -64 -68 -109t-120 -45q-64 0 -99.5 44.5t-21.5 109.5zM952 1729q14 65 68.5 110t118.5 45q65 0 100.5 -45.5t22.5 -109.5t-68.5 -109 t-120.5 -45q-64 0 -99.5 44.5t-21.5 109.5z" />
<glyph unicode="&#x2c6;" horiz-adv-x="919" d="M190 1270l377 315h197l248 -315h-262l-111 135l-172 -135h-277z" />
<glyph unicode="&#x2dc;" horiz-adv-x="1030" d="M432 1534l45 219q9 6 24 14.5t59 22.5t85 14q66 0 151 -32.5t162 -32.5q41 0 81.5 11.5t60.5 23.5l20 12l-47 -223q-8 -6 -23 -14t-58 -22t-83 -14q-46 0 -155.5 36t-155.5 36q-41 0 -82.5 -12.5t-62.5 -25.5z" />
<glyph unicode="&#x2000;" horiz-adv-x="1049" />
<glyph unicode="&#x2001;" horiz-adv-x="2099" />
<glyph unicode="&#x2002;" horiz-adv-x="1049" />
<glyph unicode="&#x2003;" horiz-adv-x="2099" />
<glyph unicode="&#x2004;" horiz-adv-x="699" />
<glyph unicode="&#x2005;" horiz-adv-x="524" />
<glyph unicode="&#x2006;" horiz-adv-x="349" />
<glyph unicode="&#x2007;" horiz-adv-x="349" />
<glyph unicode="&#x2008;" horiz-adv-x="262" />
<glyph unicode="&#x2009;" horiz-adv-x="419" />
<glyph unicode="&#x200a;" horiz-adv-x="116" />
<glyph unicode="&#x2010;" horiz-adv-x="868" d="M154 489l51 244h604l-51 -244h-604z" />
<glyph unicode="&#x2011;" horiz-adv-x="868" d="M154 489l51 244h604l-51 -244h-604z" />
<glyph unicode="&#x2012;" horiz-adv-x="868" d="M154 489l51 244h604l-51 -244h-604z" />
<glyph unicode="&#x2013;" horiz-adv-x="993" d="M152 608l55 256h751l-55 -256h-751z" />
<glyph unicode="&#x2014;" horiz-adv-x="1318" d="M135 608l55 256h1098l-55 -256h-1098z" />
<glyph unicode="&#x2018;" horiz-adv-x="548" d="M203 897l137 639h235l-137 -639h-235z" />
<glyph unicode="&#x2019;" horiz-adv-x="548" d="M203 897l137 639h235l-137 -639h-235z" />
<glyph unicode="&#x201a;" horiz-adv-x="548" d="M119 0l135 639h235l-135 -639h-235z" />
<glyph unicode="&#x201c;" horiz-adv-x="931" d="M215 897l137 639h248l-137 -639h-248zM557 897l137 639h250l-137 -639h-250z" />
<glyph unicode="&#x201d;" horiz-adv-x="931" d="M215 897l137 639h248l-137 -639h-248zM557 897l137 639h250l-137 -639h-250z" />
<glyph unicode="&#x201e;" horiz-adv-x="931" d="M127 0l135 639h236l-136 -639h-235zM471 0l135 639h236l-135 -639h-236z" />
<glyph unicode="&#x2026;" horiz-adv-x="1441" d="M82 131q14 63 68.5 108.5t117.5 45.5t99 -45.5t22 -108.5q-12 -63 -67.5 -108.5t-118.5 -45.5t-98 45.5t-23 108.5zM614 131q14 63 69 108.5t118 45.5t99 -45.5t22 -108.5q-12 -63 -68 -108.5t-119 -45.5t-98 45.5t-23 108.5zM1147 131q14 63 68.5 108.5t117.5 45.5 t99 -45.5t22 -108.5q-12 -63 -67.5 -108.5t-118.5 -45.5t-98 45.5t-23 108.5z" />
<glyph unicode="&#x202f;" horiz-adv-x="419" />
<glyph unicode="&#x2039;" horiz-adv-x="868" d="M172 737l487 533h316l-496 -553l226 -514h-291z" />
<glyph unicode="&#x203a;" horiz-adv-x="884" d="M104 203l496 575l-238 492l289 -2l244 -531l-471 -534h-320z" />
<glyph unicode="&#x205f;" horiz-adv-x="524" />
<glyph unicode="&#x20ac;" horiz-adv-x="1579" d="M139 492l45 208h105q6 45 16 78h-104l45 211h137q100 234 305.5 380.5t452.5 146.5q330 0 528 -314l-215 -135q-64 95 -154 149t-190 54q-137 0 -255.5 -75.5t-207.5 -205.5h387l-45 -211h-424q-16 -35 -20 -78h428l-45 -208h-387q56 -273 360 -273q198 0 430 244 l168 -160q-60 -68 -118 -119t-139 -103t-180.5 -80t-211.5 -28q-252 0 -394.5 140t-176.5 379h-140z" />
<glyph unicode="&#x25fc;" horiz-adv-x="1116" d="M0 0v1116h1116v-1116h-1116z" />
</font>
</defs>
</svg>
