<?xml version="1.0" standalone="no"?>
<!DOCTYPE svg PUBLIC "-//W3C//DTD SVG 1.1//EN" "http://www.w3.org/Graphics/SVG/1.1/DTD/svg11.dtd" >
<svg xmlns="http://www.w3.org/2000/svg">
<metadata></metadata>
<defs>
<font id="pontiaclight" horiz-adv-x="1339" >
<font-face units-per-em="2048" ascent="1536" descent="-512" />
<missing-glyph horiz-adv-x="718" />
<glyph horiz-adv-x="0" />
<glyph horiz-adv-x="682" />
<glyph horiz-adv-x="0" />
<glyph horiz-adv-x="0" />
<glyph unicode="&#xd;" horiz-adv-x="718" />
<glyph unicode=" "  horiz-adv-x="718" />
<glyph unicode="&#x09;" horiz-adv-x="718" />
<glyph unicode="&#xa0;" horiz-adv-x="718" />
<glyph unicode="!" horiz-adv-x="530" d="M186 57q0 34 22 57t56 23t57 -23t23 -57q0 -33 -23 -55t-57 -22t-56 21.5t-22 55.5zM211 387v1149h111v-1149h-111z" />
<glyph unicode="&#x22;" horiz-adv-x="935" d="M236 936v600h102v-600h-102zM584 936v600h102v-600h-102z" />
<glyph unicode="#" horiz-adv-x="1263" d="M94 502v106h240l59 328h-250v106h269l90 494h106l-88 -494h328l90 494h104l-88 -494h238v-104l-256 -2l-59 -328h233v-106h-252l-90 -502h-106l90 502h-330l-90 -502h-109l90 502h-219zM440 608h330l59 328h-329z" />
<glyph unicode="$" horiz-adv-x="1183" d="M119 254l86 68q61 -75 96 -108q142 -130 340 -130q142 0 243 84t101 213q0 55 -21.5 100.5t-56.5 80.5t-96 68.5t-122.5 59t-153.5 58.5q-76 27 -131.5 53.5t-106.5 62.5t-82 78t-49.5 99t-18.5 126q0 138 109 244t287 115v168h110v-170q104 -7 194 -45.5t185 -135.5 l-92 -69q-82 82 -161.5 111.5t-207.5 29.5q-140 0 -226.5 -75.5t-86.5 -170.5q0 -52 13.5 -91t50.5 -81t111.5 -81t189.5 -76q106 -34 187.5 -75t148.5 -96t103 -128.5t36 -161.5q0 -165 -124 -283.5t-321 -124.5v-184h-110v190q-77 10 -143.5 37.5t-118 68.5t-88.5 80.5 t-74 90.5z" />
<glyph unicode="%" horiz-adv-x="1554" d="M80 1194q0 133 100.5 232.5t231.5 99.5q138 0 235.5 -97.5t97.5 -234.5q0 -141 -96.5 -237.5t-236.5 -96.5q-138 0 -235 97t-97 237zM180 1194q0 -93 69 -163t163 -70q96 0 165.5 68.5t69.5 164.5q0 93 -70 162t-165 69q-90 0 -161 -69t-71 -162zM256 0l905 1495h119 l-903 -1495h-121zM811 303q0 133 100.5 232.5t231.5 99.5q138 0 236 -97.5t98 -234.5q0 -141 -97 -237.5t-237 -96.5q-139 0 -235.5 96.5t-96.5 237.5zM911 303q0 -93 69 -163t163 -70q96 0 165.5 68.5t69.5 164.5q0 93 -70 162.5t-165 69.5q-89 0 -160.5 -69t-71.5 -163z " />
<glyph unicode="&#x26;" horiz-adv-x="1376" d="M106 426q0 148 92 266.5t287 235.5q-14 19 -46.5 64.5t-44 62t-33 51t-29 55t-14.5 49.5t-7 58q0 130 93 213.5t243 83.5q130 0 222 -88t92 -211q0 -49 -19.5 -95t-46.5 -80t-75.5 -74t-85 -65t-97.5 -63l395 -520q58 77 121 198h111q-38 -94 -174 -288l208 -279h-131 l-149 195q-201 -224 -432 -224q-127 0 -237 58t-176.5 163t-66.5 234zM213 426q0 -101 53.5 -181t138 -121.5t181.5 -41.5q114 0 211.5 58.5t163.5 142.5l-420 553q-169 -97 -248.5 -194.5t-79.5 -215.5zM416 1266q0 -33 24 -81t52.5 -87.5t76.5 -101.5q10 -13 15 -19 q272 157 272 289q0 81 -59.5 137.5t-149.5 56.5q-99 0 -165 -53.5t-66 -140.5z" />
<glyph unicode="'" horiz-adv-x="399" d="M156 983v559h104v-559h-104z" />
<glyph unicode="(" horiz-adv-x="571" d="M45 627q0 533 285 917l76 -74q-124 -187 -190 -387.5t-66 -455.5q0 -483 256 -844l-76 -74q-285 388 -285 918z" />
<glyph unicode=")" horiz-adv-x="571" d="M168 -217q256 361 256 844q0 255 -66 455.5t-190 387.5l76 74q284 -383 284 -917q0 -531 -284 -918z" />
<glyph unicode="*" horiz-adv-x="800" d="M53 1239l33 102l268 -92l-4 281h101l-5 -281l271 94l33 -102l-265 -78l162 -217l-86 -65l-160 229l-159 -229l-88 63l165 215z" />
<glyph unicode="+" horiz-adv-x="1103" d="M104 694v109h394v391h110v-391h393v-109h-393v-397h-110v397h-394z" />
<glyph unicode="," horiz-adv-x="489" d="M61 -328l203 553h131l-243 -553h-91z" />
<glyph unicode="-" horiz-adv-x="856" d="M168 555v111h520v-111h-520z" />
<glyph unicode="." horiz-adv-x="342" d="M61 57q0 34 22 57t56 23t57 -23t23 -57q0 -33 -23 -55t-57 -22t-56 21.5t-22 55.5z" />
<glyph unicode="/" horiz-adv-x="1060" d="M121 0l725 1536h119l-723 -1536h-121z" />
<glyph unicode="0" horiz-adv-x="1462" d="M70 748q0 217 81 393t232.5 279.5t345.5 103.5q202 0 354.5 -104t231 -279t78.5 -393q0 -217 -78.5 -393t-231 -281t-354.5 -105q-151 0 -276 61t-208.5 166.5t-129 247.5t-45.5 304zM178 748q0 -191 66.5 -342.5t192.5 -238.5t292 -87q168 0 295 87t193.5 238.5 t66.5 342.5t-66.5 341.5t-194 238t-294.5 87.5q-161 0 -287.5 -87t-195 -239t-68.5 -341z" />
<glyph unicode="1" horiz-adv-x="710" d="M53 1384v111h475v-1495h-110v1384h-365z" />
<glyph unicode="2" horiz-adv-x="1122" d="M55 995q0 115 38.5 215t104 169.5t155.5 109t190 39.5q104 0 191.5 -41.5t143.5 -109.5t86.5 -151t30.5 -169q0 -32 -5 -64t-19 -66t-25 -60t-37 -63t-40 -58t-49 -62.5t-49 -58.5t-55 -63t-54 -60l-351 -391h756v-111h-963v49l498 551q7 8 51 56.5t64.5 72t58 73.5 t56.5 85.5t35 82t16 87.5q0 149 -97.5 254.5t-240.5 105.5q-67 0 -133 -27t-121.5 -77t-90 -133t-34.5 -185h-111z" />
<glyph unicode="3" horiz-adv-x="1052" d="M12 248l88 55q59 -92 137.5 -150.5t194.5 -70.5q115 -11 216.5 33t160.5 128t59 185q-1 89 -45 166t-115 128t-155 82t-170 38v116l438 426h-682v111h815v-113l-452 -458q208 -43 342.5 -177.5t134.5 -324.5q0 -129 -70 -234t-183.5 -162t-244.5 -57q-165 0 -282 78.5 t-187 200.5z" />
<glyph unicode="4" horiz-adv-x="1050" d="M31 205q267 606 573 1290h117l-520 -1180h676v240h106v-555h-106v205h-846z" />
<glyph unicode="5" horiz-adv-x="1122" d="M76 299l96 43q138 -260 379 -260q173 0 287 107t114 266q0 85 -30.5 151t-79 107t-115 67.5t-133 36.5t-139.5 10q-115 0 -252 -55l-86 45v678h829v-111h-719v-485q123 39 240 39q88 0 170 -15.5t160.5 -52.5t136.5 -92t93.5 -139.5t35.5 -189.5q0 -203 -143 -340.5 t-365 -137.5q-156 0 -282.5 90t-196.5 238z" />
<glyph unicode="6" horiz-adv-x="1114" d="M66 463q0 137 100 340q42 83 161.5 322t186.5 370h123l-309 -616q33 28 101 51.5t128 23.5q93 0 182 -37t157.5 -101t110.5 -156.5t42 -196.5q0 -132 -67 -246t-180.5 -181t-244.5 -67q-132 0 -245.5 67t-179.5 181t-66 246zM172 463q0 -158 113.5 -271.5t271.5 -113.5 t271.5 113.5t113.5 271.5t-113.5 271.5t-271.5 113.5t-271.5 -113.5t-113.5 -271.5z" />
<glyph unicode="7" horiz-adv-x="1083" d="M37 1384v111h1010l-662 -1495h-121l613 1384h-840z" />
<glyph unicode="8" horiz-adv-x="1118" d="M68 461q0 148 88.5 273t222.5 177q-72 42 -116 116.5t-44 158.5q0 141 99.5 240.5t240.5 99.5t240.5 -99.5t99.5 -240.5q0 -84 -44 -158.5t-116 -116.5q135 -52 224.5 -177t89.5 -273q0 -134 -66.5 -247t-180 -179t-247.5 -66t-247 66t-178.5 179t-65.5 247zM180 461 q0 -157 111 -268t268 -111t269 111t112 268t-112 268t-269 111t-268 -111t-111 -268zM330 1186q0 -95 67 -162.5t162 -67.5t162 67.5t67 162.5t-67 162t-162 67t-162 -67t-67 -162z" />
<glyph unicode="9" horiz-adv-x="1148" d="M82 1032q0 132 67 246t180 181t244 67q99 0 190.5 -40t157.5 -106.5t105 -157.5t39 -190q0 -137 -100 -340q-35 -69 -157.5 -314t-191.5 -378h-122l309 616q-33 -28 -101.5 -51.5t-128.5 -23.5q-93 0 -182 37t-157.5 101t-110 156.5t-41.5 196.5zM186 1034 q0 -158 113.5 -271.5t271.5 -113.5t271.5 113.5t113.5 271.5t-113.5 271.5t-271.5 113.5t-271.5 -113.5t-113.5 -271.5z" />
<glyph unicode=":" horiz-adv-x="436" d="M147 78q0 34 22 57t56 23t57 -23t23 -57t-23 -56t-57 -22t-56 22t-22 56zM147 993q0 34 22 57t56 23t57 -23t23 -57t-23 -56t-57 -22t-56 22t-22 56z" />
<glyph unicode=";" horiz-adv-x="536" d="M-18 -328l202 553h131l-243 -553h-90zM195 993q0 34 22 57t55 23q34 0 57 -23t23 -57t-23 -56t-57 -22t-55.5 22t-21.5 56z" />
<glyph unicode="&#x3c;" horiz-adv-x="856" d="M170 752l350 522h131l-350 -522l350 -523h-131z" />
<glyph unicode="=" horiz-adv-x="1140" d="M207 428v111h772v-111h-772zM207 891v110h772v-110h-772z" />
<glyph unicode="&#x3e;" horiz-adv-x="872" d="M303 229l350 523l-350 522h131l350 -522l-350 -523h-131z" />
<glyph unicode="?" horiz-adv-x="1153" d="M102 1034q0 232 140.5 382.5t345.5 150.5q139 0 244.5 -63t157.5 -161t52 -213q0 -37 -9 -73t-20 -63.5t-35.5 -61.5t-40.5 -53.5t-51 -53t-50.5 -47.5t-55.5 -48q-15 -13 -22 -19q-80 -68 -110 -133t-30 -191h-108q0 90 9 148.5t37 108.5t62.5 86t102.5 93 q51 43 80.5 71t64 68.5t50.5 81.5t16 86q0 145 -97.5 235.5t-244.5 90.5q-67 0 -132.5 -27t-121 -77.5t-89.5 -133t-34 -184.5h-111zM485 57q0 34 22 57t56 23t57 -23t23 -57q0 -33 -23 -55t-57 -22t-56 21.5t-22 55.5z" />
<glyph unicode="@" horiz-adv-x="1816" d="M137 557q0 156 55.5 299.5t154 254t248 177t325.5 66.5q140 0 260.5 -42t204.5 -112t144 -161t88.5 -190t27.5 -198q-1 -91 -28 -169t-69 -128.5t-94 -86.5t-101 -52t-91 -16q-73 0 -124.5 41t-54.5 139q-9 -15 -30.5 -37.5t-57.5 -49.5t-90 -46t-112 -19 q-126 0 -201.5 93.5t-75.5 230.5q0 13 4 59q21 154 127.5 258.5t253.5 104.5q66 0 133 -36.5t92 -94.5l21 110h80l-58 -467q-3 -18 -4 -36t2 -48t12 -51.5t32 -38t57 -16.5q38 0 83.5 23t89 64.5t72.5 110.5t29 150q0 114 -43.5 221t-121.5 191.5t-198 136t-261 51.5 q-186 0 -340.5 -90t-244 -248t-89.5 -348q0 -281 196 -450t531 -177v-106q-164 0 -302 39.5t-235 108t-165 162t-100 200.5t-32 223zM621 610q-22 -118 32.5 -202t159.5 -84q91 0 176.5 85t97.5 189v-2q18 109 -38.5 193.5t-155.5 84.5q-101 0 -176 -77t-96 -187z" />
<glyph unicode="A" horiz-adv-x="1333" d="M154 0v1012q0 137 41 244.5t112 174.5t163 101.5t198 34.5q105 0 196 -34.5t162.5 -101.5t112.5 -175t41 -244v-1012h-113v449h-797v-449h-116zM270 559h797v434q0 206 -108 333.5t-291 127.5q-193 0 -295.5 -125.5t-102.5 -335.5v-434z" />
<glyph unicode="B" horiz-adv-x="1306" d="M203 0v1536h508q204 0 319 -103.5t117 -277.5v-6q0 -100 -64 -199q-66 -102 -178 -143q56 -10 109 -38t99 -74t73.5 -117t27.5 -156q0 -145 -65 -241t-177 -138.5t-270 -42.5h-499zM315 111h201q93 0 142.5 1t122 7t110.5 17.5t84 33t68 53.5t37.5 80t15.5 111 q0 62 -15 111.5t-41 84t-68 59.5t-87.5 40.5t-108.5 24t-122.5 11.5t-137.5 3h-201v-637zM315 850h398q129 0 223 92t94 213q0 125 -80.5 201t-236.5 76h-398v-582z" />
<glyph unicode="C" horiz-adv-x="1560" d="M98 768q0 163 60 310.5t163.5 255t249 170.5t308.5 63q174 0 337 -79t259 -214l-93 -68q-80 114 -219 181t-284 67q-185 0 -339.5 -93t-242.5 -250.5t-88 -342.5q0 -186 88 -342t242.5 -247t339.5 -91q159 0 305 73t227 197l88 -69q-89 -147 -260 -233.5t-360 -86.5 q-219 0 -398.5 107t-281 290t-101.5 402z" />
<glyph unicode="D" horiz-adv-x="1511" d="M203 0v1536h411q234 0 416.5 -99.5t282.5 -275t100 -395.5t-100 -394.5t-282.5 -273t-416.5 -98.5h-411zM315 113h301q196 0 351.5 81t244 230.5t88.5 341.5t-88.5 342.5t-244.5 232.5t-353 82h-299v-1310z" />
<glyph unicode="E" horiz-adv-x="1306" d="M203 0v1536h973v-113h-861v-637h717v-112h-717v-561h879v-113h-991z" />
<glyph unicode="F" horiz-adv-x="1243" d="M203 0v1536h973v-113h-861v-637h717v-112h-717v-674h-112z" />
<glyph unicode="G" horiz-adv-x="1622" d="M98 768q0 163 60.5 310.5t164 255t248.5 170.5t308 63q183 0 333.5 -79.5t249.5 -219.5l-92 -68q-81 119 -209 186.5t-282 67.5q-185 0 -340 -93t-243.5 -250.5t-88.5 -342.5q0 -186 88.5 -342.5t243.5 -248t340 -91.5q103 0 194 19t151.5 49t98.5 56t59 50v414h-428v110 h541v-573q-29 -31 -54 -54t-82.5 -61.5t-119 -63t-157 -44t-203.5 -19.5q-163 0 -308 63t-248.5 170.5t-164 255t-60.5 310.5z" />
<glyph unicode="H" horiz-adv-x="1544" d="M203 0v1536h112v-750h914v750h112v-1536h-112v674h-914v-674h-112z" />
<glyph unicode="I" horiz-adv-x="518" d="M203 0v1536h112v-1536h-112z" />
<glyph unicode="J" horiz-adv-x="1030" d="M39 172l88 68q27 -31 36 -40t42 -38.5t59 -42t69 -25t89 -12.5q114 0 183.5 40.5t107 141.5t37.5 273v999h112v-999q-1 -141 -26.5 -245t-65 -165t-99.5 -97.5t-118 -48.5t-131 -12q-220 0 -383 203z" />
<glyph unicode="K" horiz-adv-x="1333" d="M205 0v1536h112v-946l752 946h139l-516 -668l592 -868h-143l-529 776l-295 -373v-403h-112z" />
<glyph unicode="L" horiz-adv-x="1255" d="M203 0v1536h112v-1423h840v-113h-952z" />
<glyph unicode="M" horiz-adv-x="1900" d="M203 0v1567l747 -783l748 783v-1567h-113v1276l-635 -666l-635 666v-1276h-112z" />
<glyph unicode="N" horiz-adv-x="1585" d="M203 0v1567l1067 -1278v1247h112v-1567l-1067 1278v-1247h-112z" />
<glyph unicode="O" horiz-adv-x="1763" d="M98 768q0 131 38.5 252.5t110 220t167.5 172t216.5 114t250.5 40.5q217 0 397.5 -107t283.5 -290.5t103 -401.5t-103 -401.5t-283.5 -290.5t-397.5 -107q-130 0 -250.5 40.5t-216.5 114t-167.5 172t-110 220t-38.5 252.5zM209 768q0 -140 52 -266.5t141.5 -218 t214 -145.5t264.5 -54q186 0 341 91.5t243.5 248.5t88.5 344t-88.5 345t-243.5 250.5t-341 92.5q-139 0 -264 -54.5t-214.5 -147t-141.5 -219.5t-52 -267z" />
<glyph unicode="P" horiz-adv-x="1304" d="M203 0v1536h471q159 0 287.5 -67t203 -191.5t74.5 -284.5q0 -156 -74.5 -280.5t-203.5 -194t-287 -69.5h-359v-449h-112zM315 561h359q190 0 321 120.5t131 311.5q0 189 -130 310.5t-322 121.5h-359v-864z" />
<glyph unicode="Q" horiz-adv-x="1765" d="M98 766q0 131 38.5 252.5t110 220t167.5 172t216.5 114t250.5 40.5q217 0 397.5 -107t283.5 -290.5t103 -401.5q0 -301 -190 -526l198 -197l-69 -70l-197 197q-222 -203 -526 -203q-130 0 -250.5 40.5t-216.5 114t-167.5 172t-110 220t-38.5 252.5zM207 766 q0 -188 88.5 -345.5t243.5 -249t342 -91.5q257 0 446 168l-250 252l70 67l250 -250q159 192 159 449q0 188 -88.5 346.5t-244 251t-342.5 92.5q-140 0 -265.5 -54.5t-215 -147t-141.5 -220t-52 -268.5z" />
<glyph unicode="R" horiz-adv-x="1325" d="M203 0v1536h471q159 0 287.5 -67t203 -191.5t74.5 -284.5q0 -184 -103 -322.5t-272 -193.5l303 -477h-133l-286 453q-50 -4 -74 -4h-359v-449h-112zM315 561h359q190 0 321 120.5t131 311.5q0 189 -130 310.5t-322 121.5h-359v-864z" />
<glyph unicode="S" horiz-adv-x="1206" d="M100 256l86 68q24 -32 40 -52t59.5 -60.5t86.5 -65t111 -44.5t142 -20q135 0 238.5 92t103.5 217q0 47 -13.5 87t-43 74t-64.5 61t-91.5 55t-108.5 49.5t-130 50.5q-95 36 -160 72t-119.5 86t-81 117.5t-26.5 154.5q0 66 30 131t83 118.5t134 86.5t175 33q91 0 154.5 -10 t146 -53t162.5 -124l-96 -71q-81 81 -164 113t-203 32q-139 0 -224 -79t-85 -175q0 -36 4 -61t15.5 -55.5t36 -55.5t64 -53.5t100 -56.5t142.5 -58q89 -32 151.5 -60.5t128 -70t105 -87.5t65 -111t25.5 -142q0 -82 -33.5 -158t-93 -134t-147 -93t-189.5 -35 q-97 0 -179.5 24.5t-145.5 69.5t-105.5 89.5t-85.5 103.5z" />
<glyph unicode="T" horiz-adv-x="1245" d="M55 1423v113h1133v-113h-510v-1423h-113v1423h-510z" />
<glyph unicode="U" horiz-adv-x="1484" d="M154 537v999h112v-975q0 -65 15.5 -129.5t51.5 -128t89.5 -111.5t136.5 -78t184 -30t184 30t136 78t89.5 112t51.5 128t15 129v975h112v-999q0 -72 -20 -148t-66.5 -152t-112.5 -135t-167 -96t-222 -37t-222 37t-167.5 96t-112.5 135t-66.5 152t-20.5 148z" />
<glyph unicode="V" horiz-adv-x="1331" d="M33 1536h127l506 -1268l505 1268h127l-632 -1567z" />
<glyph unicode="W" horiz-adv-x="1888" d="M31 1536h121l491 -1280l244 627l-254 653h121l491 -1280l492 1280h121l-613 -1567l-301 770l-301 -770z" />
<glyph unicode="X" horiz-adv-x="1277" d="M35 0l536 811l-481 727h135l414 -625l414 625h135l-481 -727l536 -811h-135l-469 709l-469 -709h-135z" />
<glyph unicode="Y" horiz-adv-x="1247" d="M31 1536h127l465 -899l464 899h127l-534 -1028v-508h-113v508z" />
<glyph unicode="Z" horiz-adv-x="1308" d="M68 0l948 1425h-844v111h1053l-946 -1423h954v-113h-1165z" />
<glyph unicode="[" horiz-adv-x="671" d="M207 -215v1804h328v-106h-222v-1592h222v-106h-328z" />
<glyph unicode="\" horiz-adv-x="1085" d="M121 1536h119l725 -1536h-121z" />
<glyph unicode="]" horiz-adv-x="671" d="M143 -109h222v1592h-222v106h328v-1804h-328v106z" />
<glyph unicode="^" horiz-adv-x="907" d="M86 1270l315 315h84l314 -315h-121l-238 213l-233 -213h-121z" />
<glyph unicode="_" horiz-adv-x="1290" d="M51 0h1192v-111h-1192v111z" />
<glyph unicode="`" horiz-adv-x="1142" d="M266 1536h156l233 -240h-155z" />
<glyph unicode="a" d="M84 557q0 256 158 422t401 166q127 0 242.5 -65t177.5 -177l8 213h103v-1116h-101l-8 213q-62 -112 -178.5 -177t-243.5 -65q-244 0 -401.5 164.5t-157.5 421.5zM190 555q0 -200 123 -336.5t316 -136.5t315.5 136.5t122.5 336.5q0 96 -34 184t-92 153t-139.5 103.5 t-172.5 38.5q-128 0 -229 -65.5t-155.5 -174.5t-54.5 -239z" />
<glyph unicode="b" horiz-adv-x="1349" d="M172 0v1536h111v-633q62 112 177 177t242 65q243 0 401.5 -166t158.5 -422q0 -257 -158 -421.5t-402 -164.5q-127 0 -243 65t-178 177l-9 -213h-100zM272 555q0 -200 123 -336.5t316 -136.5t315.5 136.5t122.5 336.5q0 130 -54 239t-155 174.5t-229 65.5 q-121 0 -222.5 -65t-159 -175t-57.5 -239z" />
<glyph unicode="c" horiz-adv-x="1120" d="M76 557q0 161 76.5 296t210 213.5t292.5 78.5q119 0 221.5 -47.5t176.5 -132.5l-86 -68q-124 137 -312 137q-197 0 -334 -140t-137 -337q0 -198 136.5 -336.5t334.5 -138.5q208 0 334 158l86 -68q-74 -94 -182.5 -147.5t-237.5 -53.5q-159 0 -292.5 78.5t-210 213 t-76.5 294.5z" />
<glyph unicode="d" horiz-adv-x="1347" d="M86 557q0 256 158 422t401 166q127 0 242.5 -65t177.5 -177v633h111v-1536h-101l-8 213q-62 -112 -178.5 -177t-243.5 -65q-244 0 -401.5 164.5t-157.5 421.5zM193 555q0 -200 122.5 -336.5t315.5 -136.5t315.5 136.5t122.5 336.5q0 96 -34 184t-92 153t-139.5 103.5 t-172.5 38.5q-128 0 -229 -65.5t-155 -174.5t-54 -239z" />
<glyph unicode="e" horiz-adv-x="1163" d="M74 557q0 163 63.5 296.5t185 212.5t279.5 79q117 0 211.5 -46.5t154 -128t91.5 -187.5t33 -228h-910q0 -204 114.5 -338.5t307.5 -134.5q112 0 218 48t149 124l84 -68q-59 -95 -186.5 -155t-264.5 -60q-158 0 -280 79t-186 212t-64 295zM190 666h785q-25 166 -119 267 t-254 101q-165 0 -274 -102t-138 -266z" />
<glyph unicode="f" horiz-adv-x="720" d="M8 1006v110h168v170q0 139 81 210t206 71q146 0 256 -113l-88 -65q-45 41 -82 54t-90 13q-65 0 -118.5 -42.5t-53.5 -127.5v-170h323v-110h-323v-1006h-111v1006h-168z" />
<glyph unicode="g" horiz-adv-x="1316" d="M84 557q0 256 158 422t401 166q127 0 242.5 -65t177.5 -177l8 213h103v-1116q-3 -240 -161 -391.5t-401 -151.5q-130 0 -251 59t-187 146l84 68q62 -70 158 -115t196 -45q192 0 322.5 124.5t130.5 313.5v205q-62 -112 -178.5 -177t-243.5 -65q-244 0 -401.5 164.5 t-157.5 421.5zM190 555q0 -200 123 -336.5t316 -136.5t315.5 136.5t122.5 336.5q0 96 -34 184t-92 153t-139.5 103.5t-172.5 38.5q-128 0 -229 -65.5t-155.5 -174.5t-54.5 -239z" />
<glyph unicode="h" horiz-adv-x="1234" d="M172 0v1536h111v-633q13 24 37.5 53.5t64 63.5t85 62t105.5 46.5t121 18.5q68 0 122.5 -12t109.5 -46.5t92.5 -91t60.5 -152t23 -222.5v-623h-111v539q0 46 -0.5 76.5t-3 72.5t-7 70.5t-12.5 64.5t-20.5 60t-29.5 50.5t-40.5 43.5t-52.5 31.5t-67.5 21t-83.5 6.5 q-65 0 -130 -29.5t-115 -75.5t-88 -96.5t-60 -99.5v-735h-111z" />
<glyph unicode="i" horiz-adv-x="442" d="M143 1395q0 34 22 57t56 23t57 -23t23 -57t-23 -56t-57 -22t-56 22t-22 56zM166 0v1116h110v-1116h-110z" />
<glyph unicode="j" horiz-adv-x="837" d="M10 -383l88 66q17 -21 30 -34t40.5 -35.5t63 -34t75.5 -11.5q36 0 62.5 3.5t55.5 13t49 29.5t37 50t25.5 77t8.5 109v1266h110v-1266q0 -101 -22 -175t-55 -115t-82 -65t-92 -31t-97 -7q-101 0 -179 49.5t-118 110.5zM522 1395q0 34 22 57t56 23t57 -23t23 -57t-23 -56 t-57 -22t-56 22t-22 56z" />
<glyph unicode="k" horiz-adv-x="1030" d="M172 0v1536h111v-1069l538 649h140l-388 -471l431 -645h-134l-370 557l-217 -264v-293h-111z" />
<glyph unicode="l" horiz-adv-x="454" d="M172 0v1536h111v-1536h-111z" />
<glyph unicode="m" horiz-adv-x="1998" d="M166 0v1116h102l8 -213q17 31 50.5 69t84 79t121.5 68.5t146 27.5q127 0 218.5 -53.5t137.5 -188.5q17 30 54 68.5t91 79t127.5 67.5t147.5 27q68 0 123.5 -12t111 -46.5t93.5 -91t62 -152t24 -222.5v-623h-111v539q0 64 -1.5 108t-9 100.5t-20 94.5t-36.5 77.5t-57.5 63 t-84 38.5t-114.5 15q-109 0 -210 -75t-163 -175q12 -71 12 -163v-623h-110v539v2q0 64 -0.5 95.5t-4 87.5t-11.5 86t-22 72.5t-37 65t-54 45.5t-76 33t-101 10q-65 0 -128 -29t-111 -76t-84 -96.5t-58 -99.5v-735h-110z" />
<glyph unicode="n" horiz-adv-x="1228" d="M166 0v1116h102l8 -213q17 31 52.5 69.5t88 79t125.5 68t148 27.5q68 0 122.5 -12t109.5 -46.5t92.5 -91t60.5 -152t23 -222.5v-623h-111v539q0 46 -0.5 76.5t-3 72.5t-7 70.5t-12.5 64.5t-20.5 60t-29.5 50.5t-40.5 43.5t-52.5 31.5t-67.5 21t-83.5 6.5 q-65 0 -130 -29.5t-115.5 -75.5t-88.5 -96.5t-60 -99.5v-735h-110z" />
<glyph unicode="o" horiz-adv-x="1296" d="M68 557q0 161 76.5 296.5t210 214.5t292.5 79t293 -79.5t211.5 -215t77.5 -295.5t-77.5 -294.5t-211.5 -213t-293 -78.5t-292.5 78.5t-210 213t-76.5 294.5zM176 557q0 -198 136.5 -336.5t334.5 -138.5t335.5 138.5t137.5 336.5q0 197 -138 338t-335 141 q-129 0 -238 -64.5t-171 -175t-62 -239.5z" />
<glyph unicode="p" horiz-adv-x="1349" d="M172 -420v1536h100l9 -213q62 112 178 177t243 65q244 0 402 -164.5t158 -421.5q0 -256 -158.5 -422t-401.5 -166q-127 0 -242 65t-177 177v-633h-111zM274 561q0 -129 57.5 -239t159 -175t222.5 -65q128 0 229 65.5t155 174.5t54 239q0 200 -122.5 336.5t-315.5 136.5 t-316 -136.5t-123 -336.5z" />
<glyph unicode="q" horiz-adv-x="1347" d="M88 559q0 257 157.5 421.5t401.5 164.5q127 0 243.5 -65t178.5 -177l8 213h101v-1536h-111v633q-62 -112 -177.5 -177t-242.5 -65q-243 0 -401 166t-158 422zM195 561q0 -130 54 -239t155 -174.5t229 -65.5q91 0 172.5 38.5t139.5 103.5t92 153t34 184 q0 200 -122.5 336.5t-315.5 136.5t-315.5 -136.5t-122.5 -336.5z" />
<glyph unicode="r" horiz-adv-x="741" d="M166 0v1116h102l8 -213q25 41 59.5 80t83.5 78t114.5 62.5t136.5 23.5v-123q-128 0 -236.5 -87.5t-157.5 -195.5v-741h-110z" />
<glyph unicode="s" horiz-adv-x="952" d="M51 225l86 66q53 -64 80 -89q131 -120 303 -120q106 0 185 55.5t79 149.5q0 51 -27 92.5t-78.5 72t-107.5 52t-133 41.5q-179 47 -264.5 123t-85.5 202q0 114 105.5 195.5t271.5 81.5q263 0 399 -180l-86 -64q-37 49 -122.5 96.5t-190.5 47.5q-106 0 -186 -47t-80 -132 q0 -77 52.5 -121.5t176.5 -82.5q84 -22 144.5 -42.5t125.5 -53t105 -70t66 -91.5t26 -120q0 -135 -106.5 -226.5t-270.5 -91.5q-89 0 -170 27.5t-139.5 72t-94.5 81.5t-63 75z" />
<glyph unicode="t" horiz-adv-x="677" d="M10 1006v110h146v256h110v-256h346v-110h-346v-727q0 -99 49 -149t117 -50q55 0 84.5 15.5t63.5 54.5q20 -15 49.5 -39t44.5 -35q-52 -57 -107.5 -83t-130.5 -26q-122 0 -201 74.5t-79 214.5v750h-146z" />
<glyph unicode="u" horiz-adv-x="1218" d="M121 494v622h110v-538q0 -80 2 -127t11 -113.5t29.5 -105.5t54.5 -78t90 -56.5t131 -17.5q65 0 130 29.5t115 75.5t88 96.5t60 99.5v735h111v-1116h-103l-8 213q-147 -244 -414 -244q-67 0 -122 12t-110 47t-92 91.5t-60 152t-23 222.5z" />
<glyph unicode="v" horiz-adv-x="1058" d="M16 1116h123l391 -885l390 885h122l-512 -1143z" />
<glyph unicode="w" horiz-adv-x="1568" d="M12 1116h117l389 -880l209 473l-180 407h117l389 -880l387 880h116l-503 -1143l-269 605l-266 -605z" />
<glyph unicode="x" horiz-adv-x="958" d="M14 0l398 592l-351 524h134l284 -424l285 424h133l-352 -524l399 -592h-133l-332 494l-332 -494h-133z" />
<glyph unicode="y" horiz-adv-x="944" d="M10 1116h119l344 -848l342 848h119l-660 -1628h-118l258 635z" />
<glyph unicode="z" horiz-adv-x="991" d="M25 0l714 1006h-651v110h858l-713 -1005h715v-111h-923z" />
<glyph unicode="{" horiz-adv-x="811" d="M127 645v68q48 18 80.5 47.5t51 61t29 83.5t14 95t5.5 116q4 137 34.5 234.5t86 154t127 82t164.5 25.5v-101q-316 0 -316 -430q0 -119 -30.5 -239.5t-87.5 -159.5q57 -44 87.5 -155t30.5 -226q0 -216 78.5 -342.5t237.5 -126.5v-100q-184 0 -294.5 137.5t-117.5 398.5 q-2 60 -4.5 96t-9 79t-18 69.5t-31 53.5t-48.5 45.5t-69 33.5z" />
<glyph unicode="|" horiz-adv-x="534" d="M213 -176v1919h111v-1919h-111z" />
<glyph unicode="}" horiz-adv-x="815" d="M121 -168q159 0 237 126.5t78 342.5q0 115 31 226t88 155q-57 39 -88 160t-31 239q0 430 -315 430v101q93 0 164.5 -25.5t126.5 -82t85.5 -154t34.5 -234.5q2 -60 4.5 -97.5t9 -83t18.5 -75t31.5 -59.5t48.5 -51.5t69 -36.5v-68q-48 -17 -80.5 -43t-51.5 -54.5t-29.5 -76 t-14 -90t-5.5 -113.5q-7 -261 -117 -398.5t-294 -137.5v100z" />
<glyph unicode="&#xa1;" horiz-adv-x="530" d="M209 1483q0 32 22 54t54 22t53.5 -22t21.5 -54t-21.5 -54t-53.5 -22t-54 22t-22 54zM227 0v1149h111v-1149h-111z" />
<glyph unicode="&#xa2;" horiz-adv-x="1536" d="M111 748q0 207 91 379t253 277t364 120v184h111v-184q158 -11 308 -89t239 -202l-93 -68q-79 113 -216 180.5t-285 67.5q-139 0 -262.5 -51.5t-211.5 -140t-139 -212t-51 -261.5q0 -139 51.5 -262t140 -210.5t212 -138.5t262.5 -51q170 0 308 70.5t220 197.5l88 -65 q-87 -142 -236.5 -225.5t-334.5 -92.5v-184h-111v184q-202 15 -364 120t-253 277.5t-91 379.5z" />
<glyph unicode="&#xa3;" horiz-adv-x="1429" d="M70 256q0 32 9 65.5t30.5 70t53 65t82.5 49t113 24.5q39 3 84 -6t70 -20l25 -10q-13 146 -43 272h-181v106h158q-25 137 -25 213q-1 95 21 172.5t68.5 139t128 95.5t192.5 34q110 0 203 -52.5t158 -130.5q-15 -10 -43.5 -30t-47.5 -31q-131 139 -270 139q-71 0 -125 -19 t-86.5 -50t-53.5 -74.5t-28.5 -86.5t-7.5 -93q0 -123 20 -226h312v-106h-289q43 -308 45 -332q34 -37 88 -102t92 -105q72 -77 133 -113t148 -36q31 0 58 6.5t40.5 13t42.5 21.5l70 -84q-55 -35 -105 -49.5t-129 -14.5q-58 0 -116 22t-101 52.5t-90.5 79t-75.5 83.5t-65 85 q-12 -157 -93.5 -239.5t-211.5 -82.5q-108 0 -183 79t-75 206zM168 250q0 -62 40 -117t111 -55q115 0 167.5 80.5t52.5 216.5q-98 63 -203 51q-80 -8 -124 -60t-44 -116z" />
<glyph unicode="&#xa5;" horiz-adv-x="1286" d="M72 1495h127l444 -858l444 858h127l-407 -780h223v-107h-278l-52 -100h330v-107h-330v-401h-112v401h-330v107h330l-53 100h-277v107h221z" />
<glyph unicode="&#xa7;" horiz-adv-x="1429" d="M147 573q0 78 43.5 144.5t109.5 108.5t136 66.5t131 29.5q-26 6 -61.5 24t-79.5 52t-74 93t-30 130q0 59 30.5 118t84.5 107t138 78t183 30q135 0 246 -49t170 -147l-95 -62q-99 148 -315 148q-134 0 -233 -62t-99 -163q0 -97 109.5 -171.5t310.5 -123.5 q189 -46 309.5 -160.5t120.5 -271.5q0 -56 -20.5 -105.5t-51.5 -83.5t-71.5 -62.5t-78 -45.5t-74 -29.5t-55.5 -17t-26 -5.5q1 -1 14 -7.5t27.5 -14.5t36 -23t40.5 -31.5t38.5 -40.5t34 -50t23.5 -60t9 -70q0 -92 -60 -169.5t-155.5 -120.5t-201.5 -43q-138 0 -257.5 49.5 t-177.5 146.5l95 62q99 -148 334 -148q121 0 217 62.5t96 162.5q0 101 -106.5 178t-301.5 113q-82 15 -161 50t-148 87.5t-111.5 130t-42.5 166.5zM254 573q0 -102 80 -182.5t199 -121t249 -40.5q55 0 121 18.5t127.5 51t102.5 84t41 109.5q0 82 -49.5 150.5t-126.5 109.5 t-163 63.5t-167 22.5q-90 0 -183.5 -30.5t-162 -93.5t-68.5 -141z" />
<glyph unicode="&#xa8;" horiz-adv-x="1150" d="M367 1448q0 37 23.5 60.5t60.5 23.5q34 0 59 -24t25 -60t-25 -60t-59 -24q-37 0 -60.5 23.5t-23.5 60.5zM692 1448q0 36 25 60t59 24q37 0 60.5 -23.5t23.5 -60.5t-23.5 -60.5t-60.5 -23.5q-34 0 -59 24t-25 60z" />
<glyph unicode="&#xab;" horiz-adv-x="1325" d="M156 547l350 522h131l-350 -522l350 -522h-131zM641 547l350 522h131l-350 -522l350 -522h-131z" />
<glyph unicode="&#xad;" horiz-adv-x="856" d="M168 555v111h520v-111h-520z" />
<glyph unicode="&#xaf;" horiz-adv-x="897" d="M219 1417v105h520v-105h-520z" />
<glyph unicode="&#xb0;" horiz-adv-x="874" d="M117 1196q0 135 100.5 234.5t233.5 99.5q138 0 235.5 -98t97.5 -236q0 -141 -96.5 -236.5t-236.5 -95.5q-141 0 -237.5 95.5t-96.5 236.5zM211 1194q0 -98 69.5 -169t170.5 -71q98 0 169.5 70.5t71.5 169.5q0 98 -72 170t-169 72q-94 0 -167 -71.5t-73 -170.5z" />
<glyph unicode="&#xb1;" horiz-adv-x="1153" d="M127 940v109h393v391h111v-391h393v-109h-393v-397h-111v397h-393zM317 0v111h521v-111h-521z" />
<glyph unicode="&#xb4;" horiz-adv-x="1001" d="M295 1296l233 240h156l-233 -240h-156z" />
<glyph unicode="&#xb7;" horiz-adv-x="448" d="M164 823q0 32 22 54t54 22t53.5 -22t21.5 -54t-21.5 -53.5t-53.5 -21.5t-54 21.5t-22 53.5z" />
<glyph unicode="&#xb8;" horiz-adv-x="696" d="M205 -115l117 359h131l-158 -359h-90z" />
<glyph unicode="&#xbb;" horiz-adv-x="1329" d="M238 25l350 522l-350 522h131l350 -522l-350 -522h-131zM723 25l350 522l-350 522h131l350 -522l-350 -522h-131z" />
<glyph unicode="&#xbf;" horiz-adv-x="1224" d="M174 406q0 63 17.5 117.5t60.5 108.5t71 82.5t93 87.5q9 9 14 13q69 63 96 101t37 88.5t10 154.5h109q0 -124 -14.5 -191.5t-52.5 -120t-123 -124.5q-99 -83 -153 -157t-54 -160q0 -145 95 -230.5t243 -85.5q67 0 132.5 27t120.5 77.5t89 133t34 184.5h111 q0 -232 -140 -382t-345 -150q-139 0 -243.5 60t-156 155.5t-51.5 210.5zM549 1479q0 33 23 55t57 22t56 -21.5t22 -55.5t-22 -57t-56 -23t-57 23t-23 57z" />
<glyph unicode="&#xc0;" horiz-adv-x="1292" d="M133 0v1012q0 137 41 244.5t112 174.5t163 101.5t198 34.5q105 0 196 -34.5t162.5 -101.5t112.5 -175t41 -244v-1012h-112v449h-797v-449h-117zM250 559h797v434q0 206 -108.5 333.5t-291.5 127.5q-193 0 -295 -125.5t-102 -335.5v-434zM365 1878h155l234 -240h-156z" />
<glyph unicode="&#xc1;" horiz-adv-x="1292" d="M133 0v1012q0 137 41 244.5t112 174.5t163 101.5t198 34.5q105 0 196 -34.5t162.5 -101.5t112.5 -175t41 -244v-1012h-112v449h-797v-449h-117zM250 559h797v434q0 206 -108.5 333.5t-291.5 127.5q-193 0 -295 -125.5t-102 -335.5v-434zM514 1638l234 240h155l-233 -240 h-156z" />
<glyph unicode="&#xc2;" horiz-adv-x="1292" d="M133 0v1012q0 137 41 244.5t112 174.5t163 101.5t198 34.5q105 0 196 -34.5t162.5 -101.5t112.5 -175t41 -244v-1012h-112v449h-797v-449h-117zM250 559h797v434q0 206 -108.5 333.5t-291.5 127.5q-193 0 -295 -125.5t-102 -335.5v-434zM289 1638l315 316h84l313 -316 h-120l-238 213l-233 -213h-121z" />
<glyph unicode="&#xc3;" horiz-adv-x="1292" d="M133 0v1012q0 137 41 244.5t112 174.5t163 101.5t198 34.5q105 0 196 -34.5t162.5 -101.5t112.5 -175t41 -244v-1012h-112v449h-797v-449h-117zM250 559h797v434q0 206 -108.5 333.5t-291.5 127.5q-193 0 -295 -125.5t-102 -335.5v-434zM328 1702v104q7 6 20 14.5 t53.5 23t81.5 14.5q66 0 158.5 -33t169.5 -33q41 0 79 12t56 24l17 11v-108q-7 -6 -20 -14t-52.5 -22t-79.5 -14q-46 0 -164 36t-164 36q-41 0 -79.5 -12.5t-57.5 -25.5z" />
<glyph unicode="&#xc4;" horiz-adv-x="1292" d="M133 0v1012q0 137 41 244.5t112 174.5t163 101.5t198 34.5q105 0 196 -34.5t162.5 -101.5t112.5 -175t41 -244v-1012h-112v449h-797v-449h-117zM250 559h797v434q0 206 -108.5 333.5t-291.5 127.5q-193 0 -295 -125.5t-102 -335.5v-434zM399 1765q0 37 23.5 60.5 t60.5 23.5q34 0 59 -24t25 -60t-25 -60t-59 -24q-37 0 -60.5 23.5t-23.5 60.5zM725 1765q0 36 25 60t59 24q37 0 60.5 -23.5t23.5 -60.5t-23.5 -60.5t-60.5 -23.5q-34 0 -59 24t-25 60z" />
<glyph unicode="&#xc5;" horiz-adv-x="1292" d="M133 0v1012q0 137 41 244.5t112 174.5t163 101.5t198 34.5q105 0 196 -34.5t162.5 -101.5t112.5 -175t41 -244v-1012h-112v449h-797v-449h-117zM250 559h797v434q0 206 -108.5 333.5t-291.5 127.5q-193 0 -295 -125.5t-102 -335.5v-434zM440 1862q0 86 59.5 145t145.5 59 t145.5 -59t59.5 -145t-59.5 -146.5t-145.5 -60.5t-145.5 60.5t-59.5 146.5zM526 1862q0 -48 35 -83.5t84 -35.5t86 36t37 83q0 49 -36.5 83.5t-86.5 34.5q-46 0 -82.5 -35.5t-36.5 -82.5z" />
<glyph unicode="&#xc6;" horiz-adv-x="2170" d="M154 0v1012q0 137 41 244.5t112 174.5t163 101.5t198 34.5q125 0 237 -57t162 -160v186h973v-113h-860v-637h716v-112h-716v-561h878v-113h-991v449h-797v-449h-116zM270 559h797v455q-6 198 -113.5 319t-285.5 121q-193 0 -295.5 -125.5t-102.5 -335.5v-434z" />
<glyph unicode="&#xc7;" horiz-adv-x="1560" d="M98 768q0 163 60 310.5t163.5 255t249 170.5t308.5 63q174 0 337 -79t259 -214l-93 -68q-80 114 -219 181t-284 67q-185 0 -339.5 -93t-242.5 -250.5t-88 -342.5q0 -186 88 -342t242.5 -247t339.5 -91q159 0 305 73t227 197l88 -69q-88 -144 -252.5 -229.5t-347.5 -90.5 l-131 -297h-90l98 303q-194 24 -349 134.5t-242 283.5t-87 375z" />
<glyph unicode="&#xc8;" horiz-adv-x="1265" d="M182 0v1536h973v-113h-860v-637h717v-112h-717v-561h879v-113h-992zM406 1878h155l234 -240h-156z" />
<glyph unicode="&#xc9;" horiz-adv-x="1265" d="M182 0v1536h973v-113h-860v-637h717v-112h-717v-561h879v-113h-992zM559 1638l234 240h155l-233 -240h-156z" />
<glyph unicode="&#xca;" horiz-adv-x="1265" d="M182 0v1536h973v-113h-860v-637h717v-112h-717v-561h879v-113h-992zM303 1638l315 316h84l314 -316h-121l-238 213l-233 -213h-121z" />
<glyph unicode="&#xcb;" horiz-adv-x="1265" d="M182 0v1536h973v-113h-860v-637h717v-112h-717v-561h879v-113h-992zM440 1747q0 37 23.5 60.5t60.5 23.5q34 0 59 -24t25 -60t-25 -60t-59 -24q-37 0 -60.5 23.5t-23.5 60.5zM766 1747q0 36 25 60t59 24q37 0 60.5 -23.5t23.5 -60.5t-23.5 -60.5t-60.5 -23.5 q-34 0 -59 24t-25 60z" />
<glyph unicode="&#xcc;" horiz-adv-x="477" d="M-59 1878h155l234 -240h-156zM182 0v1536h113v-1536h-113z" />
<glyph unicode="&#xcd;" horiz-adv-x="477" d="M156 1638l233 240h156l-234 -240h-155zM182 0v1536h113v-1536h-113z" />
<glyph unicode="&#xce;" horiz-adv-x="477" d="M-119 1638l316 316h84l313 -316h-121l-237 213l-234 -213h-121zM182 0v1536h113v-1536h-113z" />
<glyph unicode="&#xcf;" horiz-adv-x="477" d="M2 1765q0 37 23.5 60.5t60.5 23.5q34 0 59 -24t25 -60t-25 -60t-59 -24q-37 0 -60.5 23.5t-23.5 60.5zM182 0v1536h113v-1536h-113zM328 1765q0 36 25 60t59 24q37 0 60.5 -23.5t23.5 -60.5t-23.5 -60.5t-60.5 -23.5q-34 0 -59 24t-25 60z" />
<glyph unicode="&#xd0;" horiz-adv-x="1511" d="M66 713v110h137v713h411q234 0 416.5 -99.5t282.5 -275t100 -395.5t-100 -394.5t-282.5 -273t-416.5 -98.5h-411v713h-137zM315 113h301q196 0 351.5 81t244 230.5t88.5 341.5t-88.5 342.5t-244.5 232.5t-353 82h-299v-600h373v-110h-373v-600z" />
<glyph unicode="&#xd1;" horiz-adv-x="1544" d="M182 0v1567l1067 -1278v1247h113v-1567l-1067 1278v-1247h-113zM455 1647v104q7 6 20 14.5t53.5 22.5t81.5 14q66 0 158.5 -32.5t169.5 -32.5q41 0 79 11.5t55 23.5l18 12v-109q-7 -5 -20 -13.5t-52.5 -22t-79.5 -13.5q-46 0 -164 36t-164 36q-41 0 -79.5 -13t-56.5 -25z " />
<glyph unicode="&#xd2;" horiz-adv-x="1722" d="M78 768q0 218 102.5 401.5t282.5 290.5t397 107q130 0 251 -40.5t217 -114t167.5 -172t110.5 -220t39 -252.5t-39 -252.5t-110.5 -220t-167.5 -172t-217 -114t-251 -40.5q-217 0 -397 107t-282.5 290.5t-102.5 401.5zM188 768q0 -140 52 -266.5t141.5 -218t214 -145.5 t264.5 -54t265 54t214.5 145.5t142 218t52.5 266.5t-52.5 267t-142 219.5t-215 147t-264.5 54.5t-264 -54.5t-214.5 -147t-141.5 -219.5t-52 -267zM582 1878h155l234 -240h-156z" />
<glyph unicode="&#xd3;" horiz-adv-x="1722" d="M78 768q0 218 102.5 401.5t282.5 290.5t397 107q130 0 251 -40.5t217 -114t167.5 -172t110.5 -220t39 -252.5t-39 -252.5t-110.5 -220t-167.5 -172t-217 -114t-251 -40.5q-217 0 -397 107t-282.5 290.5t-102.5 401.5zM188 768q0 -140 52 -266.5t141.5 -218t214 -145.5 t264.5 -54t265 54t214.5 145.5t142 218t52.5 266.5t-52.5 267t-142 219.5t-215 147t-264.5 54.5t-264 -54.5t-214.5 -147t-141.5 -219.5t-52 -267zM713 1638l233 240h156l-234 -240h-155z" />
<glyph unicode="&#xd4;" horiz-adv-x="1722" d="M78 768q0 218 102.5 401.5t282.5 290.5t397 107q130 0 251 -40.5t217 -114t167.5 -172t110.5 -220t39 -252.5t-39 -252.5t-110.5 -220t-167.5 -172t-217 -114t-251 -40.5q-217 0 -397 107t-282.5 290.5t-102.5 401.5zM188 768q0 -140 52 -266.5t141.5 -218t214 -145.5 t264.5 -54t265 54t214.5 145.5t142 218t52.5 266.5t-52.5 267t-142 219.5t-215 147t-264.5 54.5t-264 -54.5t-214.5 -147t-141.5 -219.5t-52 -267zM504 1638l315 316h84l314 -316h-121l-238 213l-233 -213h-121z" />
<glyph unicode="&#xd5;" horiz-adv-x="1722" d="M78 768q0 218 102.5 401.5t282.5 290.5t397 107q130 0 251 -40.5t217 -114t167.5 -172t110.5 -220t39 -252.5t-39 -252.5t-110.5 -220t-167.5 -172t-217 -114t-251 -40.5q-217 0 -397 107t-282.5 290.5t-102.5 401.5zM188 768q0 -140 52 -266.5t141.5 -218t214 -145.5 t264.5 -54t265 54t214.5 145.5t142 218t52.5 266.5t-52.5 267t-142 219.5t-215 147t-264.5 54.5t-264 -54.5t-214.5 -147t-141.5 -219.5t-52 -267zM543 1708v104q7 6 20 14.5t53.5 23t81.5 14.5q66 0 158.5 -33t169.5 -33q41 0 79 12t55 24l18 11v-108q-7 -5 -20 -13.5 t-52.5 -22t-79.5 -13.5q-46 0 -164 35.5t-164 35.5q-41 0 -79.5 -12.5t-56.5 -25.5z" />
<glyph unicode="&#xd6;" horiz-adv-x="1722" d="M78 768q0 218 102.5 401.5t282.5 290.5t397 107q130 0 251 -40.5t217 -114t167.5 -172t110.5 -220t39 -252.5t-39 -252.5t-110.5 -220t-167.5 -172t-217 -114t-251 -40.5q-217 0 -397 107t-282.5 290.5t-102.5 401.5zM188 768q0 -140 52 -266.5t141.5 -218t214 -145.5 t264.5 -54t265 54t214.5 145.5t142 218t52.5 266.5t-52.5 267t-142 219.5t-215 147t-264.5 54.5t-264 -54.5t-214.5 -147t-141.5 -219.5t-52 -267zM614 1765q0 37 23.5 60.5t60.5 23.5q34 0 59 -24t25 -60t-25 -60t-59 -24q-37 0 -60.5 23.5t-23.5 60.5zM940 1765 q0 36 25 60t59 24q37 0 60.5 -23.5t23.5 -60.5t-23.5 -60.5t-60.5 -23.5q-34 0 -59 24t-25 60z" />
<glyph unicode="&#xd7;" horiz-adv-x="1105" d="M207 432l280 281l-278 278l78 76l276 -279l277 279l80 -80l-279 -276l279 -277l-76 -78l-279 279l-280 -281z" />
<glyph unicode="&#xd8;" horiz-adv-x="1763" d="M98 768q0 131 38.5 252.5t110 220t167.5 172t216.5 114t250.5 40.5q148 0 281.5 -52.5t238.5 -146.5l166 168l80 -78l-168 -168q186 -224 186 -522q0 -218 -103 -401.5t-283.5 -290.5t-397.5 -107q-151 0 -284.5 52.5t-238.5 148.5l-172 -172l-77 78l174 174 q-185 224 -185 518zM209 768q0 -248 153 -438l959 960q-190 166 -440 166q-139 0 -264 -54.5t-214.5 -147t-141.5 -219.5t-52 -267zM438 250q187 -166 443 -166q186 0 341 91.5t243.5 248.5t88.5 344q0 247 -155 442z" />
<glyph unicode="&#xd9;" horiz-adv-x="1443" d="M133 537v999h113v-975q0 -65 15.5 -129.5t51.5 -128t89.5 -111.5t136.5 -78t184 -30t184 30t136 78t89 112t51 128t15 129v975h113v-999q0 -72 -20 -148t-66.5 -152t-112.5 -135t-167 -96t-222 -37t-222 37t-167.5 96t-113 135t-67 152t-20.5 148zM463 1878h155l234 -240 h-156z" />
<glyph unicode="&#xda;" horiz-adv-x="1443" d="M133 537v999h113v-975q0 -65 15.5 -129.5t51.5 -128t89.5 -111.5t136.5 -78t184 -30t184 30t136 78t89 112t51 128t15 129v975h113v-999q0 -72 -20 -148t-66.5 -152t-112.5 -135t-167 -96t-222 -37t-222 37t-167.5 96t-113 135t-67 152t-20.5 148zM575 1638l234 240h156 l-234 -240h-156z" />
<glyph unicode="&#xdb;" horiz-adv-x="1443" d="M133 537v999h113v-975q0 -65 15.5 -129.5t51.5 -128t89.5 -111.5t136.5 -78t184 -30t184 30t136 78t89 112t51 128t15 129v975h113v-999q0 -72 -20 -148t-66.5 -152t-112.5 -135t-167 -96t-222 -37t-222 37t-167.5 96t-113 135t-67 152t-20.5 148zM365 1638l315 316h84 l313 -316h-121l-237 213l-234 -213h-120z" />
<glyph unicode="&#xdc;" horiz-adv-x="1443" d="M133 537v999h113v-975q0 -65 15.5 -129.5t51.5 -128t89.5 -111.5t136.5 -78t184 -30t184 30t136 78t89 112t51 128t15 129v975h113v-999q0 -72 -20 -148t-66.5 -152t-112.5 -135t-167 -96t-222 -37t-222 37t-167.5 96t-113 135t-67 152t-20.5 148zM475 1765 q0 37 23.5 60.5t60.5 23.5q34 0 59 -24t25 -60t-25 -60t-59 -24q-37 0 -60.5 23.5t-23.5 60.5zM801 1765q0 36 25 60t59 24q37 0 60.5 -23.5t23.5 -60.5t-23.5 -60.5t-60.5 -23.5q-34 0 -59 24t-25 60z" />
<glyph unicode="&#xdd;" horiz-adv-x="1206" d="M10 1536h127l465 -899l465 899h127l-535 -1028v-508h-112v508zM475 1638l234 240h155l-233 -240h-156z" />
<glyph unicode="&#xde;" horiz-adv-x="1304" d="M203 0v1536h112v-225h359q159 0 287.5 -67t203 -191.5t74.5 -284.5q0 -156 -74.5 -281t-203.5 -194.5t-287 -69.5h-359v-223h-112zM315 336h359q190 0 321 120.5t131 311.5q0 189 -130 310.5t-322 121.5h-359v-864z" />
<glyph unicode="&#xdf;" horiz-adv-x="1169" d="M162 0v1245q0 157 93.5 239.5t227.5 82.5q62 0 119.5 -18.5t106.5 -55t78.5 -99t29.5 -141.5q0 -38 -19.5 -81t-37 -66.5t-58.5 -75.5q-84 -100 -84 -143q0 -17 2.5 -28.5t12 -32t35.5 -41t67 -40.5q184 -90 269.5 -193t85.5 -241q0 -43 -11 -88.5t-35.5 -91t-60 -81.5 t-88.5 -58.5t-117 -22.5q-65 0 -127 25.5t-109 65.5t-78.5 76t-53.5 71l86 65q133 -190 282 -190q81 0 141 69t60 160q0 102 -73 179.5t-228 152.5q-66 32 -107.5 80.5t-54 87.5t-12.5 76q0 43 27 88.5t79 107.5q3 3 19.5 23t20.5 25.5t16.5 22t16.5 25t11 22.5t9 26.5 t2 25.5q0 56 -23 98.5t-59 64.5t-71 32t-67 10q-37 0 -73 -13t-68 -39t-52 -71t-20 -102v-1233h-110z" />
<glyph unicode="&#xe0;" d="M84 557q0 -257 157.5 -421.5t401.5 -164.5q127 0 243.5 65t178.5 177l8 -213h101v1116h-103l-8 -213q-62 112 -177.5 177t-242.5 65q-243 0 -401 -166t-158 -422zM190 555q0 130 54.5 239t155.5 174.5t229 65.5q91 0 172.5 -38.5t139.5 -103.5t92 -153t34 -184 q0 -200 -122.5 -336.5t-315.5 -136.5t-316 136.5t-123 336.5zM342 1509h156l233 -239h-156z" />
<glyph unicode="&#xe1;" d="M84 557q0 -257 157.5 -421.5t401.5 -164.5q127 0 243.5 65t178.5 177l8 -213h101v1116h-103l-8 -213q-62 112 -177.5 177t-242.5 65q-243 0 -401 -166t-158 -422zM190 555q0 130 54.5 239t155.5 174.5t229 65.5q91 0 172.5 -38.5t139.5 -103.5t92 -153t34 -184 q0 -200 -122.5 -336.5t-315.5 -136.5t-316 136.5t-123 336.5zM512 1270l233 239h156l-233 -239h-156z" />
<glyph unicode="&#xe2;" d="M84 557q0 -257 157.5 -421.5t401.5 -164.5q127 0 243.5 65t178.5 177l8 -213h101v1116h-103l-8 -213q-62 112 -177.5 177t-242.5 65q-243 0 -401 -166t-158 -422zM190 555q0 130 54.5 239t155.5 174.5t229 65.5q91 0 172.5 -38.5t139.5 -103.5t92 -153t34 -184 q0 -200 -122.5 -336.5t-315.5 -136.5t-316 136.5t-123 336.5zM301 1270l315 315h84l314 -315h-121l-238 213l-233 -213h-121z" />
<glyph unicode="&#xe3;" d="M84 557q0 -257 157.5 -421.5t401.5 -164.5q127 0 243.5 65t178.5 177l8 -213h101v1116h-103l-8 -213q-62 112 -177.5 177t-242.5 65q-243 0 -401 -166t-158 -422zM190 555q0 130 54.5 239t155.5 174.5t229 65.5q91 0 172.5 -38.5t139.5 -103.5t92 -153t34 -184 q0 -200 -122.5 -336.5t-315.5 -136.5t-316 136.5t-123 336.5zM322 1309v104q7 6 20 14.5t53.5 22.5t81.5 14q66 0 158.5 -32.5t169.5 -32.5q41 0 78.5 11.5t54.5 23.5l18 12v-109q-7 -5 -19.5 -13.5t-52 -22t-79.5 -13.5q-46 0 -164 36t-164 36q-41 0 -79.5 -13t-57.5 -25z " />
<glyph unicode="&#xe4;" d="M84 557q0 -257 157.5 -421.5t401.5 -164.5q127 0 243.5 65t178.5 177l8 -213h101v1116h-103l-8 -213q-62 112 -177.5 177t-242.5 65q-243 0 -401 -166t-158 -422zM190 555q0 130 54.5 239t155.5 174.5t229 65.5q91 0 172.5 -38.5t139.5 -103.5t92 -153t34 -184 q0 -200 -122.5 -336.5t-315.5 -136.5t-316 136.5t-123 336.5zM399 1366q0 37 23.5 60.5t60.5 23.5q34 0 59 -24t25 -60t-25 -60t-59 -24q-37 0 -60.5 23.5t-23.5 60.5zM725 1366q0 36 25 60t59 24q37 0 60.5 -23.5t23.5 -60.5t-23.5 -60.5t-60.5 -23.5q-34 0 -59 24t-25 60z " />
<glyph unicode="&#xe5;" d="M84 557q0 256 158 422t401 166q127 0 242.5 -65t177.5 -177l8 213h103v-1116h-101l-8 213q-62 -112 -178.5 -177t-243.5 -65q-244 0 -401.5 164.5t-157.5 421.5zM190 555q0 -200 123 -336.5t316 -136.5t315.5 136.5t122.5 336.5q0 96 -34 184t-92 153t-139.5 103.5 t-172.5 38.5q-128 0 -229 -65.5t-155.5 -174.5t-54.5 -239zM455 1462q0 86 59 145.5t145 59.5t145.5 -59.5t59.5 -145.5t-59.5 -146.5t-145.5 -60.5t-145 60t-59 147zM541 1462q0 -48 34.5 -83.5t83.5 -35.5t86 36t37 83q0 49 -36.5 84t-86.5 35q-46 0 -82 -36t-36 -83z" />
<glyph unicode="&#xe6;" horiz-adv-x="1904" d="M37 285q0 127 72.5 219t192 136t269.5 44q33 0 94 -4t105 -8l45 -4q0 163 -101 255.5t-253 94.5q-92 0 -178 -33.5t-152 -99.5l-80 59q97 100 199.5 140t220.5 40q279 0 414 -262q67 132 185 207.5t273 75.5q117 0 211.5 -46.5t154 -128t91.5 -187.5t33 -228h-909 q0 -133 49.5 -240t146.5 -171t226 -64q111 0 217 49t149 125l84 -68q-59 -96 -186.5 -156.5t-263.5 -60.5q-102 0 -201.5 42t-167.5 105t-94 130q-27 -50 -74.5 -98t-110.5 -88.5t-143.5 -65.5t-163.5 -25q-182 0 -276 113q-78 100 -78 203zM147 311q0 -117 80.5 -177 t200.5 -54q110 12 220.5 75.5t166.5 166.5v237q-94 25 -215 25q-277 0 -387 -115q-66 -72 -66 -158zM932 666h784q-25 166 -119 267t-254 101q-165 0 -273.5 -102t-137.5 -266z" />
<glyph unicode="&#xe7;" horiz-adv-x="1120" d="M76 557q0 161 76.5 296t210 213.5t292.5 78.5q119 0 221.5 -47.5t176.5 -132.5l-86 -68q-124 137 -312 137q-197 0 -334 -140t-137 -337q0 -198 136.5 -336.5t334.5 -138.5q208 0 334 158l86 -68q-72 -92 -178 -145t-233 -56l-119 -272h-90l92 283q-204 39 -337.5 200 t-133.5 375z" />
<glyph unicode="&#xe8;" horiz-adv-x="1163" d="M74 557q0 163 63.5 296.5t185 212.5t279.5 79q117 0 211.5 -46.5t154 -128t91.5 -187.5t33 -228h-910q0 -204 114.5 -338.5t307.5 -134.5q112 0 218 48t149 124l84 -68q-59 -95 -186.5 -155t-264.5 -60q-158 0 -280 79t-186 212t-64 295zM190 666h785q-25 166 -119 267 t-254 101q-165 0 -274 -102t-138 -266zM315 1509h156l234 -239h-156z" />
<glyph unicode="&#xe9;" horiz-adv-x="1163" d="M74 557q0 163 63.5 296.5t185 212.5t279.5 79q117 0 211.5 -46.5t154 -128t91.5 -187.5t33 -228h-910q0 -204 114.5 -338.5t307.5 -134.5q112 0 218 48t149 124l84 -68q-59 -95 -186.5 -155t-264.5 -60q-158 0 -280 79t-186 212t-64 295zM190 666h785q-25 166 -119 267 t-254 101q-165 0 -274 -102t-138 -266zM467 1270l233 239h156l-233 -239h-156z" />
<glyph unicode="&#xea;" horiz-adv-x="1163" d="M74 557q0 163 63.5 296.5t185 212.5t279.5 79q117 0 211.5 -46.5t154 -128t91.5 -187.5t33 -228h-910q0 -204 114.5 -338.5t307.5 -134.5q112 0 218 48t149 124l84 -68q-59 -95 -186.5 -155t-264.5 -60q-158 0 -280 79t-186 212t-64 295zM190 666h785q-25 166 -119 267 t-254 101q-165 0 -274 -102t-138 -266zM229 1237l316 315h84l313 -315h-121l-237 213l-234 -213h-121z" />
<glyph unicode="&#xeb;" horiz-adv-x="1163" d="M74 557q0 163 63.5 296.5t185 212.5t279.5 79q117 0 211.5 -46.5t154 -128t91.5 -187.5t33 -228h-910q0 -204 114.5 -338.5t307.5 -134.5q112 0 218 48t149 124l84 -68q-59 -95 -186.5 -155t-264.5 -60q-158 0 -280 79t-186 212t-64 295zM190 666h785q-25 166 -119 267 t-254 101q-165 0 -274 -102t-138 -266zM350 1366q0 37 23.5 60.5t60.5 23.5q34 0 59 -24t25 -60t-25 -60t-59 -24q-37 0 -60.5 23.5t-23.5 60.5zM676 1366q0 36 25 60t59 24q37 0 60.5 -23.5t23.5 -60.5t-23.5 -60.5t-60.5 -23.5q-34 0 -59 24t-25 60z" />
<glyph unicode="&#xec;" horiz-adv-x="442" d="M-78 1509h156l233 -239h-155zM166 0v1116h110v-1116h-110z" />
<glyph unicode="&#xed;" horiz-adv-x="442" d="M125 1270l233 239h156l-233 -239h-156zM166 0v1116h110v-1116h-110z" />
<glyph unicode="&#xee;" horiz-adv-x="442" d="M-135 1249l315 316h84l314 -316h-121l-238 213l-233 -213h-121zM166 0v1116h110v-1116h-110z" />
<glyph unicode="&#xef;" horiz-adv-x="442" d="M-25 1407q0 37 23.5 60.5t60.5 23.5q34 0 59 -24t25 -60t-25 -60t-59 -24q-37 0 -60.5 23.5t-23.5 60.5zM166 0v1116h110v-1116h-110zM301 1407q0 36 25 60t59 24q37 0 60.5 -23.5t23.5 -60.5t-23.5 -60.5t-60.5 -23.5q-34 0 -59 24t-25 60z" />
<glyph unicode="&#xf0;" horiz-adv-x="1159" d="M86 463q0 104 42 196.5t110.5 156.5t157.5 101t182 37q65 0 125 -14.5t90 -40.5q-82 113 -246 311l-225 -129l-54 95l207 118q-113 132 -217 242h131q90 -90 176 -188l154 88l53 -95l-135 -77q237 -288 332 -461q100 -185 100 -340q0 -132 -66 -246t-179.5 -181 t-245.5 -67q-131 0 -244.5 67t-180.5 181t-67 246zM193 463q0 -158 113.5 -271.5t271.5 -113.5t271.5 113.5t113.5 271.5t-113.5 271.5t-271.5 113.5t-271.5 -113.5t-113.5 -271.5z" />
<glyph unicode="&#xf1;" horiz-adv-x="1228" d="M166 0v1116h102l8 -213q17 31 52.5 69.5t88 79t125.5 68t148 27.5q68 0 122.5 -12t109.5 -46.5t92.5 -91t60.5 -152t23 -222.5v-623h-111v539q0 46 -0.5 76.5t-3 72.5t-7 70.5t-12.5 64.5t-20.5 60t-29.5 50.5t-40.5 43.5t-52.5 31.5t-67.5 21t-83.5 6.5 q-65 0 -130 -29.5t-115.5 -75.5t-88.5 -96.5t-60 -99.5v-735h-110zM311 1329v105q7 6 20.5 14.5t54 22.5t81.5 14q66 0 158.5 -33t169.5 -33q41 0 78.5 11.5t54.5 23.5l18 12v-108q-7 -5 -19.5 -13.5t-52 -22t-79.5 -13.5q-46 0 -164 35.5t-164 35.5q-41 0 -80 -13t-57 -25z " />
<glyph unicode="&#xf2;" horiz-adv-x="1296" d="M68 557q0 161 76.5 296.5t210 214.5t292.5 79t293 -79.5t211.5 -215t77.5 -295.5t-77.5 -294.5t-211.5 -213t-293 -78.5t-292.5 78.5t-210 213t-76.5 294.5zM176 557q0 -198 136.5 -336.5t334.5 -138.5t335.5 138.5t137.5 336.5q0 197 -138 338t-335 141 q-129 0 -238 -64.5t-171 -175t-62 -239.5zM350 1509h156l233 -239h-155z" />
<glyph unicode="&#xf3;" horiz-adv-x="1296" d="M68 557q0 161 76.5 296.5t210 214.5t292.5 79t293 -79.5t211.5 -215t77.5 -295.5t-77.5 -294.5t-211.5 -213t-293 -78.5t-292.5 78.5t-210 213t-76.5 294.5zM176 557q0 -198 136.5 -336.5t334.5 -138.5t335.5 138.5t137.5 336.5q0 197 -138 338t-335 141 q-129 0 -238 -64.5t-171 -175t-62 -239.5zM539 1270l233 239h156l-234 -239h-155z" />
<glyph unicode="&#xf4;" horiz-adv-x="1296" d="M68 557q0 161 76.5 296.5t210 214.5t292.5 79t293 -79.5t211.5 -215t77.5 -295.5t-77.5 -294.5t-211.5 -213t-293 -78.5t-292.5 78.5t-210 213t-76.5 294.5zM176 557q0 -198 136.5 -336.5t334.5 -138.5t335.5 138.5t137.5 336.5q0 197 -138 338t-335 141 q-129 0 -238 -64.5t-171 -175t-62 -239.5zM291 1270l315 315h84l314 -315h-121l-238 213l-233 -213h-121z" />
<glyph unicode="&#xf5;" horiz-adv-x="1294" d="M68 557q0 161 76.5 296.5t210 214.5t292.5 79t293 -79.5t211.5 -215t77.5 -295.5t-77.5 -294.5t-211.5 -213t-293 -78.5t-292.5 78.5t-210 213t-76.5 294.5zM176 557q0 -198 136.5 -336.5t334.5 -138.5t335.5 138.5t137.5 336.5q0 197 -138 338t-335 141 q-129 0 -238 -64.5t-171 -175t-62 -239.5zM330 1288v105q7 6 20 14.5t53.5 22.5t81.5 14q66 0 158.5 -33t169.5 -33q41 0 79 12t56 24l17 11v-108q-7 -5 -20 -13.5t-52.5 -22t-79.5 -13.5q-46 0 -164 35.5t-164 35.5q-41 0 -79.5 -12.5t-57.5 -25.5z" />
<glyph unicode="&#xf6;" horiz-adv-x="1296" d="M68 557q0 161 76.5 296.5t210 214.5t292.5 79t293 -79.5t211.5 -215t77.5 -295.5t-77.5 -294.5t-211.5 -213t-293 -78.5t-292.5 78.5t-210 213t-76.5 294.5zM176 557q0 -198 136.5 -336.5t334.5 -138.5t335.5 138.5t137.5 336.5q0 197 -138 338t-335 141 q-129 0 -238 -64.5t-171 -175t-62 -239.5zM403 1386q0 37 23.5 60.5t60.5 23.5q34 0 59 -24t25 -60t-24.5 -59.5t-59.5 -23.5q-37 0 -60.5 23t-23.5 60zM729 1386q0 36 25 60t59 24q37 0 60.5 -23.5t23.5 -60.5t-23.5 -60t-60.5 -23q-35 0 -59.5 23.5t-24.5 59.5z" />
<glyph unicode="&#xf7;" horiz-adv-x="946" d="M104 496v110h719v-110h-719zM385 78q0 34 22 57t56 23t57 -23t23 -57t-23 -56t-57 -22t-56 22t-22 56zM385 993q0 34 22 57t56 23t57 -23t23 -57t-23 -56t-57 -22t-56 22t-22 56z" />
<glyph unicode="&#xf8;" horiz-adv-x="1296" d="M68 557q0 161 76.5 296.5t210 214.5t292.5 79q210 0 373 -137l106 106l78 -78l-108 -108q133 -161 133 -373q0 -160 -77.5 -294.5t-211.5 -213t-293 -78.5q-212 0 -373 135l-106 -106l-78 78l107 106q-129 160 -129 373zM176 557q0 -163 98 -295l668 670 q-129 104 -295 104q-129 0 -238 -64.5t-171 -175t-62 -239.5zM352 184q130 -102 295 -102q198 0 335.5 138.5t137.5 336.5q0 165 -100 295z" />
<glyph unicode="&#xf9;" horiz-adv-x="1218" d="M121 494v622h110v-538q0 -80 2 -127t11 -113.5t29.5 -105.5t54.5 -78t90 -56.5t131 -17.5q65 0 130 29.5t115 75.5t88 96.5t60 99.5v735h111v-1116h-103l-8 213q-147 -244 -414 -244q-67 0 -122 12t-110 47t-92 91.5t-60 152t-23 222.5zM326 1509h155l234 -239h-156z" />
<glyph unicode="&#xfa;" horiz-adv-x="1218" d="M121 494v622h110v-538q0 -80 2 -127t11 -113.5t29.5 -105.5t54.5 -78t90 -56.5t131 -17.5q65 0 130 29.5t115 75.5t88 96.5t60 99.5v735h111v-1116h-103l-8 213q-147 -244 -414 -244q-67 0 -122 12t-110 47t-92 91.5t-60 152t-23 222.5zM442 1270l234 239h155l-233 -239 h-156z" />
<glyph unicode="&#xfb;" horiz-adv-x="1218" d="M121 494v622h110v-538q0 -80 2 -127t11 -113.5t29.5 -105.5t54.5 -78t90 -56.5t131 -17.5q65 0 130 29.5t115 75.5t88 96.5t60 99.5v735h111v-1116h-103l-8 213q-147 -244 -414 -244q-67 0 -122 12t-110 47t-92 91.5t-60 152t-23 222.5zM225 1270l316 315h84l313 -315 h-121l-237 213l-234 -213h-121z" />
<glyph unicode="&#xfc;" horiz-adv-x="1218" d="M121 494v622h110v-538q0 -80 2 -127t11 -113.5t29.5 -105.5t54.5 -78t90 -56.5t131 -17.5q65 0 130 29.5t115 75.5t88 96.5t60 99.5v735h111v-1116h-103l-8 213q-147 -244 -414 -244q-67 0 -122 12t-110 47t-92 91.5t-60 152t-23 222.5zM348 1366q0 37 23.5 60.5 t60.5 23.5q34 0 59 -24t25 -60t-25 -60t-59 -24q-37 0 -60.5 23.5t-23.5 60.5zM674 1366q0 36 25 60t59 24q37 0 60.5 -23.5t23.5 -60.5t-23.5 -60.5t-60.5 -23.5q-34 0 -59 24t-25 60z" />
<glyph unicode="&#xfd;" horiz-adv-x="944" d="M10 1116h119l344 -848l342 848h119l-660 -1628h-118l258 635zM346 1249l234 240h155l-233 -240h-156z" />
<glyph unicode="&#xfe;" horiz-adv-x="1349" d="M172 -420v1956h109v-633q62 112 178 177t243 65q244 0 402 -164.5t158 -421.5q0 -256 -158.5 -422t-401.5 -166q-127 0 -242 65t-177 177v-633h-111zM274 561q0 -129 57.5 -239t159 -175t222.5 -65q128 0 229 65.5t155 174.5t54 239q0 200 -122.5 336.5t-315.5 136.5 t-316 -136.5t-123 -336.5z" />
<glyph unicode="&#xff;" horiz-adv-x="944" d="M10 1116h119l344 -848l342 848h119l-660 -1628h-118l258 635zM229 1346q0 37 23.5 60.5t60.5 23.5q34 0 59 -24t25 -60t-25 -60t-59 -24q-37 0 -60.5 23.5t-23.5 60.5zM555 1346q0 36 25 60t59 24q37 0 60.5 -23.5t23.5 -60.5t-23.5 -60.5t-60.5 -23.5q-34 0 -59 24 t-25 60z" />
<glyph unicode="&#x152;" horiz-adv-x="2660" d="M98 768q0 131 38.5 252.5t110 220t167.5 172t216.5 114t250.5 40.5q219 0 404.5 -113t270.5 -297v379h973v-113h-860v-637h717v-112h-717v-561h879v-113h-992v379q-84 -189 -268.5 -299.5t-406.5 -110.5q-130 0 -250.5 40.5t-216.5 114t-167.5 172t-110 220t-38.5 252.5z M209 768q0 -140 52 -266.5t141.5 -218t214 -145.5t264.5 -54q186 0 341 91.5t243.5 248.5t88.5 344t-88.5 345t-243.5 250.5t-341 92.5q-139 0 -264 -54.5t-214.5 -147t-141.5 -219.5t-52 -267z" />
<glyph unicode="&#x153;" horiz-adv-x="2209" d="M68 557q0 161 76.5 296.5t210 214.5t292.5 79q170 0 314.5 -97.5t207.5 -252.5q52 157 181 252.5t299 95.5q117 0 211 -46.5t154 -128t91.5 -187.5t32.5 -228h-909v-18q5 -196 119 -325.5t303 -129.5q112 0 217.5 48t148.5 124l84 -68q-59 -96 -186 -155.5t-264 -59.5 q-170 0 -299 95.5t-183 250.5q-63 -153 -207 -249.5t-315 -96.5q-159 0 -292.5 78.5t-210 213t-76.5 294.5zM176 557q0 -198 136.5 -336.5t334.5 -138.5t335.5 138.5t137.5 336.5v18q-8 192 -144.5 326.5t-328.5 134.5q-129 0 -238 -64.5t-171 -175t-62 -239.5zM1237 666 h784q-25 166 -118.5 267t-253.5 101q-165 0 -274 -102t-138 -266z" />
<glyph unicode="&#x178;" horiz-adv-x="1206" d="M10 1536h127l465 -899l465 899h127l-535 -1028v-508h-112v508zM365 1710q0 37 23.5 60.5t60.5 23.5q34 0 58.5 -24t24.5 -60t-24.5 -60t-58.5 -24q-37 0 -60.5 23.5t-23.5 60.5zM690 1710q0 36 25 60t59 24q37 0 60.5 -23.5t23.5 -60.5t-23.5 -60.5t-60.5 -23.5 q-34 0 -59 24t-25 60z" />
<glyph unicode="&#x2c6;" horiz-adv-x="907" d="M86 1270l315 315h84l314 -315h-121l-238 213l-233 -213h-121z" />
<glyph unicode="&#x2dc;" horiz-adv-x="1017" d="M209 1391v104q7 6 20.5 14.5t54 22.5t81.5 14q66 0 158 -32.5t169 -32.5q41 0 79 11.5t55 23.5l18 12v-109q-7 -5 -20 -13.5t-52.5 -22t-79.5 -13.5q-46 0 -163.5 36t-163.5 36q-41 0 -80 -13t-57 -25z" />
<glyph unicode="&#x2000;" horiz-adv-x="1033" />
<glyph unicode="&#x2001;" horiz-adv-x="2066" />
<glyph unicode="&#x2002;" horiz-adv-x="1033" />
<glyph unicode="&#x2003;" horiz-adv-x="2066" />
<glyph unicode="&#x2004;" horiz-adv-x="688" />
<glyph unicode="&#x2005;" horiz-adv-x="516" />
<glyph unicode="&#x2006;" horiz-adv-x="344" />
<glyph unicode="&#x2007;" horiz-adv-x="344" />
<glyph unicode="&#x2008;" horiz-adv-x="258" />
<glyph unicode="&#x2009;" horiz-adv-x="413" />
<glyph unicode="&#x200a;" horiz-adv-x="114" />
<glyph unicode="&#x2010;" horiz-adv-x="856" d="M168 555v111h520v-111h-520z" />
<glyph unicode="&#x2011;" horiz-adv-x="856" d="M168 555v111h520v-111h-520z" />
<glyph unicode="&#x2012;" horiz-adv-x="856" d="M168 555v111h520v-111h-520z" />
<glyph unicode="&#x2013;" horiz-adv-x="980" d="M125 555v111h719v-111h-719z" />
<glyph unicode="&#x2014;" horiz-adv-x="1306" d="M106 555v111h1092v-111h-1092z" />
<glyph unicode="&#x2018;" horiz-adv-x="536" d="M213 936v600h102v-600h-102z" />
<glyph unicode="&#x2019;" horiz-adv-x="536" d="M213 936v600h102v-600h-102z" />
<glyph unicode="&#x201a;" horiz-adv-x="536" d="M213 0v600h102v-600h-102z" />
<glyph unicode="&#x201c;" horiz-adv-x="919" d="M236 936v600h102v-600h-102zM584 936v600h102v-600h-102z" />
<glyph unicode="&#x201d;" horiz-adv-x="919" d="M236 936v600h102v-600h-102zM584 936v600h102v-600h-102z" />
<glyph unicode="&#x201e;" horiz-adv-x="919" d="M236 0v600h102v-600h-102zM584 0v600h102v-600h-102z" />
<glyph unicode="&#x2026;" horiz-adv-x="1429" d="M117 57q0 34 22 57t56 23t56.5 -23t22.5 -57t-22.5 -55.5t-56.5 -21.5t-56 21.5t-22 55.5zM680 57q0 34 22 57t56 23t57 -23t23 -57q0 -33 -23 -55t-57 -22t-56 21.5t-22 55.5zM1239 57q0 34 22 57t56 23t57 -23t23 -57q0 -33 -23 -55t-57 -22t-56 21.5t-22 55.5z" />
<glyph unicode="&#x202f;" horiz-adv-x="413" />
<glyph unicode="&#x2039;" horiz-adv-x="856" d="M170 752l350 522h131l-350 -522l350 -523h-131z" />
<glyph unicode="&#x203a;" horiz-adv-x="872" d="M299 231l350 523l-350 522h131l350 -522l-350 -523h-131z" />
<glyph unicode="&#x205f;" horiz-adv-x="516" />
<glyph unicode="&#x20ac;" horiz-adv-x="1566" d="M70 557v107h106q-4 54 -4 84q0 52 2 79h-104v107h118q52 266 239.5 429t465.5 163q358 0 563 -289l-92 -68q-78 114 -198.5 179t-272.5 65q-228 0 -385 -131.5t-205 -347.5h539v-107h-555q-4 -54 -4 -79q0 -57 4 -84h555v-107h-539q51 -214 206.5 -342.5t383.5 -128.5 q329 0 500 264l88 -65q-92 -152 -241 -234t-347 -82q-277 0 -464 161.5t-239 426.5h-120z" />
<glyph unicode="&#x25fc;" horiz-adv-x="1116" d="M0 0v1116h1116v-1116h-1116z" />
</font>
</defs>
</svg>
